G04 #@! TF.GenerationSoftware,KiCad,Pcbnew,(5.1.5)-3*
G04 #@! TF.CreationDate,2020-10-16T18:01:36+02:00*
G04 #@! TF.ProjectId,Laboratorn_ zdroj,4c61626f-7261-4746-9f72-6eed207a6472,rev?*
G04 #@! TF.SameCoordinates,Original*
G04 #@! TF.FileFunction,Legend,Top*
G04 #@! TF.FilePolarity,Positive*
%FSLAX46Y46*%
G04 Gerber Fmt 4.6, Leading zero omitted, Abs format (unit mm)*
G04 Created by KiCad (PCBNEW (5.1.5)-3) date 2020-10-16 18:01:36*
%MOMM*%
%LPD*%
G04 APERTURE LIST*
%ADD10C,0.120000*%
%ADD11C,0.150000*%
G04 APERTURE END LIST*
D10*
X124810000Y-97995000D02*
X124810000Y-103935000D01*
X124810000Y-103935000D02*
X139350000Y-103935000D01*
X139350000Y-103935000D02*
X139350000Y-97995000D01*
X139350000Y-97995000D02*
X124810000Y-97995000D01*
X123560000Y-100965000D02*
X124810000Y-100965000D01*
X140600000Y-100965000D02*
X139350000Y-100965000D01*
X119285000Y-105310000D02*
X119285000Y-108050000D01*
X119285000Y-108050000D02*
X125825000Y-108050000D01*
X125825000Y-108050000D02*
X125825000Y-105310000D01*
X125825000Y-105310000D02*
X119285000Y-105310000D01*
X118515000Y-106680000D02*
X119285000Y-106680000D01*
X126595000Y-106680000D02*
X125825000Y-106680000D01*
D11*
X150465000Y-124670000D02*
X151120000Y-124670000D01*
X150465000Y-119170000D02*
X151215000Y-119170000D01*
X156875000Y-119170000D02*
X156125000Y-119170000D01*
X156875000Y-124670000D02*
X156125000Y-124670000D01*
X150465000Y-124670000D02*
X150465000Y-119170000D01*
X156875000Y-124670000D02*
X156875000Y-119170000D01*
X151120000Y-124670000D02*
X151120000Y-126420000D01*
D10*
X172720000Y-136990000D02*
X172720000Y-135610000D01*
X172720000Y-83990000D02*
X172720000Y-85370000D01*
X177340000Y-135610000D02*
X177340000Y-85370000D01*
X168100000Y-135610000D02*
X177340000Y-135610000D01*
X168100000Y-85370000D02*
X168100000Y-135610000D01*
X177340000Y-85370000D02*
X168100000Y-85370000D01*
X143710000Y-106500000D02*
X140770000Y-106500000D01*
X140770000Y-106500000D02*
X140770000Y-111940000D01*
X140770000Y-111940000D02*
X143710000Y-111940000D01*
X143710000Y-111940000D02*
X143710000Y-106500000D01*
X142240000Y-105480000D02*
X142240000Y-106500000D01*
X142240000Y-112960000D02*
X142240000Y-111940000D01*
X143710000Y-107400000D02*
X140770000Y-107400000D01*
X143710000Y-107520000D02*
X140770000Y-107520000D01*
X143710000Y-107280000D02*
X140770000Y-107280000D01*
X146410000Y-97122064D02*
X146410000Y-95917936D01*
X148230000Y-97122064D02*
X148230000Y-95917936D01*
X116800000Y-122460000D02*
X127040000Y-122460000D01*
X116800000Y-127101000D02*
X127040000Y-127101000D01*
X116800000Y-122460000D02*
X116800000Y-127101000D01*
X127040000Y-122460000D02*
X127040000Y-127101000D01*
X116800000Y-123970000D02*
X127040000Y-123970000D01*
X120070000Y-122460000D02*
X120070000Y-123970000D01*
X123771000Y-122460000D02*
X123771000Y-123970000D01*
X151797936Y-99420000D02*
X153002064Y-99420000D01*
X151797936Y-101240000D02*
X153002064Y-101240000D01*
X156940000Y-90230000D02*
X156940000Y-90920000D01*
X156840000Y-90230000D02*
X156940000Y-90230000D01*
X150320000Y-90230000D02*
X150320000Y-90480000D01*
X150420000Y-90230000D02*
X150320000Y-90230000D01*
X150420000Y-90030000D02*
X150420000Y-90230000D01*
X151840000Y-90230000D02*
X151840000Y-90030000D01*
X156940000Y-95940000D02*
G75*
G02X155630000Y-97250000I-1310000J0D01*
G01*
X151630000Y-97250000D02*
G75*
G02X150320000Y-95940000I0J1310000D01*
G01*
X155630000Y-97250000D02*
X154140000Y-97250000D01*
X156940000Y-91960000D02*
X156940000Y-95940000D01*
X150320000Y-95940000D02*
X150320000Y-92400000D01*
X153120000Y-97250000D02*
X151630000Y-97250000D01*
X156840000Y-90030000D02*
X156840000Y-90230000D01*
X155420000Y-90030000D02*
X156840000Y-90030000D01*
X155420000Y-90230000D02*
X155420000Y-90030000D01*
X151840000Y-90230000D02*
X155420000Y-90230000D01*
X150420000Y-90030000D02*
X151840000Y-90030000D01*
X156570000Y-102267936D02*
X156570000Y-103472064D01*
X158390000Y-102267936D02*
X158390000Y-103472064D01*
D11*
X187355000Y-70910000D02*
X186700000Y-70910000D01*
X187355000Y-76410000D02*
X186605000Y-76410000D01*
X180945000Y-76410000D02*
X181695000Y-76410000D01*
X180945000Y-70910000D02*
X181695000Y-70910000D01*
X187355000Y-70910000D02*
X187355000Y-76410000D01*
X180945000Y-70910000D02*
X180945000Y-76410000D01*
X186700000Y-70910000D02*
X186700000Y-69160000D01*
D10*
X154272064Y-68940000D02*
X153067936Y-68940000D01*
X154272064Y-70760000D02*
X153067936Y-70760000D01*
X173630000Y-57817936D02*
X173630000Y-59022064D01*
X171810000Y-57817936D02*
X171810000Y-59022064D01*
X159260000Y-127960000D02*
X160720000Y-127960000D01*
X159260000Y-131120000D02*
X161420000Y-131120000D01*
X159260000Y-131120000D02*
X159260000Y-130190000D01*
X159260000Y-127960000D02*
X159260000Y-128890000D01*
X150220000Y-140302064D02*
X150220000Y-139097936D01*
X152040000Y-140302064D02*
X152040000Y-139097936D01*
X153002064Y-115210000D02*
X151797936Y-115210000D01*
X153002064Y-113390000D02*
X151797936Y-113390000D01*
X131825000Y-127580000D02*
X146065000Y-127580000D01*
X131825000Y-141820000D02*
X146065000Y-141820000D01*
X131825000Y-127580000D02*
X131825000Y-128274000D01*
X131825000Y-131126000D02*
X131825000Y-138275000D01*
X131825000Y-141125000D02*
X131825000Y-141820000D01*
X146065000Y-127580000D02*
X146065000Y-133275000D01*
X146065000Y-136125000D02*
X146065000Y-141820000D01*
X103860000Y-117200000D02*
X101060000Y-117200000D01*
X97060000Y-117200000D02*
X94260000Y-117200000D01*
X97060000Y-139700000D02*
X94260000Y-139700000D01*
X94260000Y-139700000D02*
X94260000Y-117200000D01*
X103860000Y-139700000D02*
X103860000Y-117200000D01*
X103860000Y-139700000D02*
X101060000Y-139700000D01*
X112364759Y-110876000D02*
X112364759Y-111506000D01*
X112049759Y-111191000D02*
X112679759Y-111191000D01*
X118791000Y-112628000D02*
X118791000Y-113432000D01*
X118751000Y-112397000D02*
X118751000Y-113663000D01*
X118711000Y-112228000D02*
X118711000Y-113832000D01*
X118671000Y-112090000D02*
X118671000Y-113970000D01*
X118631000Y-111971000D02*
X118631000Y-114089000D01*
X118591000Y-111865000D02*
X118591000Y-114195000D01*
X118551000Y-111768000D02*
X118551000Y-114292000D01*
X118511000Y-111680000D02*
X118511000Y-114380000D01*
X118471000Y-111598000D02*
X118471000Y-114462000D01*
X118431000Y-111521000D02*
X118431000Y-114539000D01*
X118391000Y-111449000D02*
X118391000Y-114611000D01*
X118351000Y-111380000D02*
X118351000Y-114680000D01*
X118311000Y-111316000D02*
X118311000Y-114744000D01*
X118271000Y-111254000D02*
X118271000Y-114806000D01*
X118231000Y-111196000D02*
X118231000Y-114864000D01*
X118191000Y-111140000D02*
X118191000Y-114920000D01*
X118151000Y-111086000D02*
X118151000Y-114974000D01*
X118111000Y-111035000D02*
X118111000Y-115025000D01*
X118071000Y-110986000D02*
X118071000Y-115074000D01*
X118031000Y-110938000D02*
X118031000Y-115122000D01*
X117991000Y-110893000D02*
X117991000Y-115167000D01*
X117951000Y-110848000D02*
X117951000Y-115212000D01*
X117911000Y-110806000D02*
X117911000Y-115254000D01*
X117871000Y-110765000D02*
X117871000Y-115295000D01*
X117831000Y-114070000D02*
X117831000Y-115335000D01*
X117831000Y-110725000D02*
X117831000Y-111990000D01*
X117791000Y-114070000D02*
X117791000Y-115373000D01*
X117791000Y-110687000D02*
X117791000Y-111990000D01*
X117751000Y-114070000D02*
X117751000Y-115410000D01*
X117751000Y-110650000D02*
X117751000Y-111990000D01*
X117711000Y-114070000D02*
X117711000Y-115446000D01*
X117711000Y-110614000D02*
X117711000Y-111990000D01*
X117671000Y-114070000D02*
X117671000Y-115480000D01*
X117671000Y-110580000D02*
X117671000Y-111990000D01*
X117631000Y-114070000D02*
X117631000Y-115514000D01*
X117631000Y-110546000D02*
X117631000Y-111990000D01*
X117591000Y-114070000D02*
X117591000Y-115546000D01*
X117591000Y-110514000D02*
X117591000Y-111990000D01*
X117551000Y-114070000D02*
X117551000Y-115578000D01*
X117551000Y-110482000D02*
X117551000Y-111990000D01*
X117511000Y-114070000D02*
X117511000Y-115608000D01*
X117511000Y-110452000D02*
X117511000Y-111990000D01*
X117471000Y-114070000D02*
X117471000Y-115637000D01*
X117471000Y-110423000D02*
X117471000Y-111990000D01*
X117431000Y-114070000D02*
X117431000Y-115666000D01*
X117431000Y-110394000D02*
X117431000Y-111990000D01*
X117391000Y-114070000D02*
X117391000Y-115694000D01*
X117391000Y-110366000D02*
X117391000Y-111990000D01*
X117351000Y-114070000D02*
X117351000Y-115720000D01*
X117351000Y-110340000D02*
X117351000Y-111990000D01*
X117311000Y-114070000D02*
X117311000Y-115746000D01*
X117311000Y-110314000D02*
X117311000Y-111990000D01*
X117271000Y-114070000D02*
X117271000Y-115772000D01*
X117271000Y-110288000D02*
X117271000Y-111990000D01*
X117231000Y-114070000D02*
X117231000Y-115796000D01*
X117231000Y-110264000D02*
X117231000Y-111990000D01*
X117191000Y-114070000D02*
X117191000Y-115820000D01*
X117191000Y-110240000D02*
X117191000Y-111990000D01*
X117151000Y-114070000D02*
X117151000Y-115842000D01*
X117151000Y-110218000D02*
X117151000Y-111990000D01*
X117111000Y-114070000D02*
X117111000Y-115864000D01*
X117111000Y-110196000D02*
X117111000Y-111990000D01*
X117071000Y-114070000D02*
X117071000Y-115886000D01*
X117071000Y-110174000D02*
X117071000Y-111990000D01*
X117031000Y-114070000D02*
X117031000Y-115906000D01*
X117031000Y-110154000D02*
X117031000Y-111990000D01*
X116991000Y-114070000D02*
X116991000Y-115926000D01*
X116991000Y-110134000D02*
X116991000Y-111990000D01*
X116951000Y-114070000D02*
X116951000Y-115946000D01*
X116951000Y-110114000D02*
X116951000Y-111990000D01*
X116911000Y-114070000D02*
X116911000Y-115964000D01*
X116911000Y-110096000D02*
X116911000Y-111990000D01*
X116871000Y-114070000D02*
X116871000Y-115982000D01*
X116871000Y-110078000D02*
X116871000Y-111990000D01*
X116831000Y-114070000D02*
X116831000Y-116000000D01*
X116831000Y-110060000D02*
X116831000Y-111990000D01*
X116791000Y-114070000D02*
X116791000Y-116016000D01*
X116791000Y-110044000D02*
X116791000Y-111990000D01*
X116751000Y-114070000D02*
X116751000Y-116032000D01*
X116751000Y-110028000D02*
X116751000Y-111990000D01*
X116711000Y-114070000D02*
X116711000Y-116048000D01*
X116711000Y-110012000D02*
X116711000Y-111990000D01*
X116671000Y-114070000D02*
X116671000Y-116063000D01*
X116671000Y-109997000D02*
X116671000Y-111990000D01*
X116631000Y-114070000D02*
X116631000Y-116077000D01*
X116631000Y-109983000D02*
X116631000Y-111990000D01*
X116591000Y-114070000D02*
X116591000Y-116091000D01*
X116591000Y-109969000D02*
X116591000Y-111990000D01*
X116551000Y-114070000D02*
X116551000Y-116104000D01*
X116551000Y-109956000D02*
X116551000Y-111990000D01*
X116511000Y-114070000D02*
X116511000Y-116116000D01*
X116511000Y-109944000D02*
X116511000Y-111990000D01*
X116471000Y-114070000D02*
X116471000Y-116128000D01*
X116471000Y-109932000D02*
X116471000Y-111990000D01*
X116431000Y-114070000D02*
X116431000Y-116140000D01*
X116431000Y-109920000D02*
X116431000Y-111990000D01*
X116391000Y-114070000D02*
X116391000Y-116151000D01*
X116391000Y-109909000D02*
X116391000Y-111990000D01*
X116351000Y-114070000D02*
X116351000Y-116161000D01*
X116351000Y-109899000D02*
X116351000Y-111990000D01*
X116311000Y-114070000D02*
X116311000Y-116171000D01*
X116311000Y-109889000D02*
X116311000Y-111990000D01*
X116271000Y-114070000D02*
X116271000Y-116180000D01*
X116271000Y-109880000D02*
X116271000Y-111990000D01*
X116230000Y-114070000D02*
X116230000Y-116189000D01*
X116230000Y-109871000D02*
X116230000Y-111990000D01*
X116190000Y-114070000D02*
X116190000Y-116197000D01*
X116190000Y-109863000D02*
X116190000Y-111990000D01*
X116150000Y-114070000D02*
X116150000Y-116205000D01*
X116150000Y-109855000D02*
X116150000Y-111990000D01*
X116110000Y-114070000D02*
X116110000Y-116212000D01*
X116110000Y-109848000D02*
X116110000Y-111990000D01*
X116070000Y-114070000D02*
X116070000Y-116219000D01*
X116070000Y-109841000D02*
X116070000Y-111990000D01*
X116030000Y-114070000D02*
X116030000Y-116225000D01*
X116030000Y-109835000D02*
X116030000Y-111990000D01*
X115990000Y-114070000D02*
X115990000Y-116231000D01*
X115990000Y-109829000D02*
X115990000Y-111990000D01*
X115950000Y-114070000D02*
X115950000Y-116236000D01*
X115950000Y-109824000D02*
X115950000Y-111990000D01*
X115910000Y-114070000D02*
X115910000Y-116241000D01*
X115910000Y-109819000D02*
X115910000Y-111990000D01*
X115870000Y-114070000D02*
X115870000Y-116245000D01*
X115870000Y-109815000D02*
X115870000Y-111990000D01*
X115830000Y-114070000D02*
X115830000Y-116248000D01*
X115830000Y-109812000D02*
X115830000Y-111990000D01*
X115790000Y-114070000D02*
X115790000Y-116252000D01*
X115790000Y-109808000D02*
X115790000Y-111990000D01*
X115750000Y-109806000D02*
X115750000Y-116254000D01*
X115710000Y-109803000D02*
X115710000Y-116257000D01*
X115670000Y-109802000D02*
X115670000Y-116258000D01*
X115630000Y-109800000D02*
X115630000Y-116260000D01*
X115590000Y-109800000D02*
X115590000Y-116260000D01*
X115550000Y-109800000D02*
X115550000Y-116260000D01*
X118820000Y-113030000D02*
G75*
G03X118820000Y-113030000I-3270000J0D01*
G01*
X148280000Y-55800000D02*
G75*
G03X148280000Y-55800000I-11120000J0D01*
G01*
X148241000Y-55800000D02*
X126079000Y-55800000D01*
X148240000Y-55840000D02*
X126080000Y-55840000D01*
X148240000Y-55880000D02*
X126080000Y-55880000D01*
X148240000Y-55920000D02*
X126080000Y-55920000D01*
X148239000Y-55960000D02*
X126081000Y-55960000D01*
X148239000Y-56000000D02*
X126081000Y-56000000D01*
X148238000Y-56040000D02*
X126082000Y-56040000D01*
X148237000Y-56080000D02*
X126083000Y-56080000D01*
X148236000Y-56120000D02*
X126084000Y-56120000D01*
X148235000Y-56160000D02*
X126085000Y-56160000D01*
X148233000Y-56200000D02*
X126087000Y-56200000D01*
X148232000Y-56240000D02*
X126088000Y-56240000D01*
X148230000Y-56280000D02*
X126090000Y-56280000D01*
X148228000Y-56320000D02*
X126092000Y-56320000D01*
X148226000Y-56360000D02*
X126094000Y-56360000D01*
X148224000Y-56400000D02*
X126096000Y-56400000D01*
X148222000Y-56440000D02*
X126098000Y-56440000D01*
X148220000Y-56480000D02*
X126100000Y-56480000D01*
X148217000Y-56521000D02*
X126103000Y-56521000D01*
X148214000Y-56561000D02*
X126106000Y-56561000D01*
X148212000Y-56601000D02*
X126108000Y-56601000D01*
X148209000Y-56641000D02*
X126111000Y-56641000D01*
X148206000Y-56681000D02*
X126114000Y-56681000D01*
X148202000Y-56721000D02*
X126118000Y-56721000D01*
X148199000Y-56761000D02*
X126121000Y-56761000D01*
X148195000Y-56801000D02*
X126125000Y-56801000D01*
X148192000Y-56841000D02*
X126128000Y-56841000D01*
X148188000Y-56881000D02*
X126132000Y-56881000D01*
X148184000Y-56921000D02*
X126136000Y-56921000D01*
X148180000Y-56961000D02*
X126140000Y-56961000D01*
X148176000Y-57001000D02*
X126144000Y-57001000D01*
X148171000Y-57041000D02*
X126149000Y-57041000D01*
X148167000Y-57081000D02*
X126153000Y-57081000D01*
X148162000Y-57121000D02*
X126158000Y-57121000D01*
X148157000Y-57161000D02*
X126163000Y-57161000D01*
X148152000Y-57201000D02*
X126168000Y-57201000D01*
X148147000Y-57241000D02*
X126173000Y-57241000D01*
X148142000Y-57281000D02*
X126178000Y-57281000D01*
X148136000Y-57321000D02*
X126184000Y-57321000D01*
X148131000Y-57361000D02*
X126189000Y-57361000D01*
X148125000Y-57401000D02*
X126195000Y-57401000D01*
X148119000Y-57441000D02*
X126201000Y-57441000D01*
X148113000Y-57481000D02*
X126207000Y-57481000D01*
X148107000Y-57521000D02*
X126213000Y-57521000D01*
X148100000Y-57561000D02*
X126220000Y-57561000D01*
X148094000Y-57601000D02*
X126226000Y-57601000D01*
X148087000Y-57641000D02*
X126233000Y-57641000D01*
X148080000Y-57681000D02*
X126240000Y-57681000D01*
X148073000Y-57721000D02*
X126247000Y-57721000D01*
X148066000Y-57761000D02*
X126254000Y-57761000D01*
X148059000Y-57801000D02*
X126261000Y-57801000D01*
X148052000Y-57841000D02*
X126268000Y-57841000D01*
X148044000Y-57881000D02*
X126276000Y-57881000D01*
X148037000Y-57921000D02*
X126283000Y-57921000D01*
X148029000Y-57961000D02*
X126291000Y-57961000D01*
X148021000Y-58001000D02*
X126299000Y-58001000D01*
X148013000Y-58041000D02*
X126307000Y-58041000D01*
X148004000Y-58081000D02*
X126316000Y-58081000D01*
X147996000Y-58121000D02*
X126324000Y-58121000D01*
X147987000Y-58161000D02*
X126333000Y-58161000D01*
X147978000Y-58201000D02*
X126342000Y-58201000D01*
X147969000Y-58241000D02*
X126351000Y-58241000D01*
X147960000Y-58281000D02*
X126360000Y-58281000D01*
X147951000Y-58321000D02*
X126369000Y-58321000D01*
X147942000Y-58361000D02*
X126378000Y-58361000D01*
X147932000Y-58401000D02*
X126388000Y-58401000D01*
X147923000Y-58441000D02*
X126397000Y-58441000D01*
X147913000Y-58481000D02*
X126407000Y-58481000D01*
X147903000Y-58521000D02*
X126417000Y-58521000D01*
X147893000Y-58561000D02*
X139400000Y-58561000D01*
X134920000Y-58561000D02*
X126427000Y-58561000D01*
X147882000Y-58601000D02*
X139400000Y-58601000D01*
X134920000Y-58601000D02*
X126438000Y-58601000D01*
X147872000Y-58641000D02*
X139400000Y-58641000D01*
X134920000Y-58641000D02*
X126448000Y-58641000D01*
X147861000Y-58681000D02*
X139400000Y-58681000D01*
X134920000Y-58681000D02*
X126459000Y-58681000D01*
X147850000Y-58721000D02*
X139400000Y-58721000D01*
X134920000Y-58721000D02*
X126470000Y-58721000D01*
X147839000Y-58761000D02*
X139400000Y-58761000D01*
X134920000Y-58761000D02*
X126481000Y-58761000D01*
X147828000Y-58801000D02*
X139400000Y-58801000D01*
X134920000Y-58801000D02*
X126492000Y-58801000D01*
X147817000Y-58841000D02*
X139400000Y-58841000D01*
X134920000Y-58841000D02*
X126503000Y-58841000D01*
X147805000Y-58881000D02*
X139400000Y-58881000D01*
X134920000Y-58881000D02*
X126515000Y-58881000D01*
X147794000Y-58921000D02*
X139400000Y-58921000D01*
X134920000Y-58921000D02*
X126526000Y-58921000D01*
X147782000Y-58961000D02*
X139400000Y-58961000D01*
X134920000Y-58961000D02*
X126538000Y-58961000D01*
X147770000Y-59001000D02*
X139400000Y-59001000D01*
X134920000Y-59001000D02*
X126550000Y-59001000D01*
X147758000Y-59041000D02*
X139400000Y-59041000D01*
X134920000Y-59041000D02*
X126562000Y-59041000D01*
X147746000Y-59081000D02*
X139400000Y-59081000D01*
X134920000Y-59081000D02*
X126574000Y-59081000D01*
X147733000Y-59121000D02*
X139400000Y-59121000D01*
X134920000Y-59121000D02*
X126587000Y-59121000D01*
X147721000Y-59161000D02*
X139400000Y-59161000D01*
X134920000Y-59161000D02*
X126599000Y-59161000D01*
X147708000Y-59201000D02*
X139400000Y-59201000D01*
X134920000Y-59201000D02*
X126612000Y-59201000D01*
X147695000Y-59241000D02*
X139400000Y-59241000D01*
X134920000Y-59241000D02*
X126625000Y-59241000D01*
X147682000Y-59281000D02*
X139400000Y-59281000D01*
X134920000Y-59281000D02*
X126638000Y-59281000D01*
X147669000Y-59321000D02*
X139400000Y-59321000D01*
X134920000Y-59321000D02*
X126651000Y-59321000D01*
X147655000Y-59361000D02*
X139400000Y-59361000D01*
X134920000Y-59361000D02*
X126665000Y-59361000D01*
X147642000Y-59401000D02*
X139400000Y-59401000D01*
X134920000Y-59401000D02*
X126678000Y-59401000D01*
X147628000Y-59441000D02*
X139400000Y-59441000D01*
X134920000Y-59441000D02*
X126692000Y-59441000D01*
X147614000Y-59481000D02*
X139400000Y-59481000D01*
X134920000Y-59481000D02*
X126706000Y-59481000D01*
X147600000Y-59521000D02*
X139400000Y-59521000D01*
X134920000Y-59521000D02*
X126720000Y-59521000D01*
X147586000Y-59561000D02*
X139400000Y-59561000D01*
X134920000Y-59561000D02*
X126734000Y-59561000D01*
X147571000Y-59601000D02*
X139400000Y-59601000D01*
X134920000Y-59601000D02*
X126749000Y-59601000D01*
X147556000Y-59641000D02*
X139400000Y-59641000D01*
X134920000Y-59641000D02*
X126764000Y-59641000D01*
X147542000Y-59681000D02*
X139400000Y-59681000D01*
X134920000Y-59681000D02*
X126778000Y-59681000D01*
X147527000Y-59721000D02*
X139400000Y-59721000D01*
X134920000Y-59721000D02*
X126793000Y-59721000D01*
X147511000Y-59761000D02*
X139400000Y-59761000D01*
X134920000Y-59761000D02*
X126809000Y-59761000D01*
X147496000Y-59801000D02*
X139400000Y-59801000D01*
X134920000Y-59801000D02*
X126824000Y-59801000D01*
X147481000Y-59841000D02*
X139400000Y-59841000D01*
X134920000Y-59841000D02*
X126839000Y-59841000D01*
X147465000Y-59881000D02*
X139400000Y-59881000D01*
X134920000Y-59881000D02*
X126855000Y-59881000D01*
X147449000Y-59921000D02*
X139400000Y-59921000D01*
X134920000Y-59921000D02*
X126871000Y-59921000D01*
X147433000Y-59961000D02*
X139400000Y-59961000D01*
X134920000Y-59961000D02*
X126887000Y-59961000D01*
X147417000Y-60001000D02*
X139400000Y-60001000D01*
X134920000Y-60001000D02*
X126903000Y-60001000D01*
X147400000Y-60041000D02*
X139400000Y-60041000D01*
X134920000Y-60041000D02*
X126920000Y-60041000D01*
X147384000Y-60081000D02*
X139400000Y-60081000D01*
X134920000Y-60081000D02*
X126936000Y-60081000D01*
X147367000Y-60121000D02*
X139400000Y-60121000D01*
X134920000Y-60121000D02*
X126953000Y-60121000D01*
X147350000Y-60161000D02*
X139400000Y-60161000D01*
X134920000Y-60161000D02*
X126970000Y-60161000D01*
X147333000Y-60201000D02*
X139400000Y-60201000D01*
X134920000Y-60201000D02*
X126987000Y-60201000D01*
X147316000Y-60241000D02*
X139400000Y-60241000D01*
X134920000Y-60241000D02*
X127004000Y-60241000D01*
X147298000Y-60281000D02*
X139400000Y-60281000D01*
X134920000Y-60281000D02*
X127022000Y-60281000D01*
X147280000Y-60321000D02*
X139400000Y-60321000D01*
X134920000Y-60321000D02*
X127040000Y-60321000D01*
X147263000Y-60361000D02*
X139400000Y-60361000D01*
X134920000Y-60361000D02*
X127057000Y-60361000D01*
X147244000Y-60401000D02*
X139400000Y-60401000D01*
X134920000Y-60401000D02*
X127076000Y-60401000D01*
X147226000Y-60441000D02*
X139400000Y-60441000D01*
X134920000Y-60441000D02*
X127094000Y-60441000D01*
X147208000Y-60481000D02*
X139400000Y-60481000D01*
X134920000Y-60481000D02*
X127112000Y-60481000D01*
X147189000Y-60521000D02*
X139400000Y-60521000D01*
X134920000Y-60521000D02*
X127131000Y-60521000D01*
X147170000Y-60561000D02*
X139400000Y-60561000D01*
X134920000Y-60561000D02*
X127150000Y-60561000D01*
X147151000Y-60601000D02*
X139400000Y-60601000D01*
X134920000Y-60601000D02*
X127169000Y-60601000D01*
X147132000Y-60641000D02*
X139400000Y-60641000D01*
X134920000Y-60641000D02*
X127188000Y-60641000D01*
X147112000Y-60681000D02*
X139400000Y-60681000D01*
X134920000Y-60681000D02*
X127208000Y-60681000D01*
X147093000Y-60721000D02*
X139400000Y-60721000D01*
X134920000Y-60721000D02*
X127227000Y-60721000D01*
X147073000Y-60761000D02*
X139400000Y-60761000D01*
X134920000Y-60761000D02*
X127247000Y-60761000D01*
X147053000Y-60801000D02*
X139400000Y-60801000D01*
X134920000Y-60801000D02*
X127267000Y-60801000D01*
X147033000Y-60841000D02*
X139400000Y-60841000D01*
X134920000Y-60841000D02*
X127287000Y-60841000D01*
X147012000Y-60881000D02*
X139400000Y-60881000D01*
X134920000Y-60881000D02*
X127308000Y-60881000D01*
X146992000Y-60921000D02*
X139400000Y-60921000D01*
X134920000Y-60921000D02*
X127328000Y-60921000D01*
X146971000Y-60961000D02*
X139400000Y-60961000D01*
X134920000Y-60961000D02*
X127349000Y-60961000D01*
X146950000Y-61001000D02*
X139400000Y-61001000D01*
X134920000Y-61001000D02*
X127370000Y-61001000D01*
X146928000Y-61041000D02*
X139400000Y-61041000D01*
X134920000Y-61041000D02*
X127392000Y-61041000D01*
X146907000Y-61081000D02*
X139400000Y-61081000D01*
X134920000Y-61081000D02*
X127413000Y-61081000D01*
X146885000Y-61121000D02*
X139400000Y-61121000D01*
X134920000Y-61121000D02*
X127435000Y-61121000D01*
X146863000Y-61161000D02*
X139400000Y-61161000D01*
X134920000Y-61161000D02*
X127457000Y-61161000D01*
X146841000Y-61201000D02*
X139400000Y-61201000D01*
X134920000Y-61201000D02*
X127479000Y-61201000D01*
X146819000Y-61241000D02*
X139400000Y-61241000D01*
X134920000Y-61241000D02*
X127501000Y-61241000D01*
X146796000Y-61281000D02*
X139400000Y-61281000D01*
X134920000Y-61281000D02*
X127524000Y-61281000D01*
X146774000Y-61321000D02*
X139400000Y-61321000D01*
X134920000Y-61321000D02*
X127546000Y-61321000D01*
X146751000Y-61361000D02*
X139400000Y-61361000D01*
X134920000Y-61361000D02*
X127569000Y-61361000D01*
X146727000Y-61401000D02*
X139400000Y-61401000D01*
X134920000Y-61401000D02*
X127593000Y-61401000D01*
X146704000Y-61441000D02*
X139400000Y-61441000D01*
X134920000Y-61441000D02*
X127616000Y-61441000D01*
X146680000Y-61481000D02*
X139400000Y-61481000D01*
X134920000Y-61481000D02*
X127640000Y-61481000D01*
X146657000Y-61521000D02*
X139400000Y-61521000D01*
X134920000Y-61521000D02*
X127663000Y-61521000D01*
X146632000Y-61561000D02*
X139400000Y-61561000D01*
X134920000Y-61561000D02*
X127688000Y-61561000D01*
X146608000Y-61601000D02*
X139400000Y-61601000D01*
X134920000Y-61601000D02*
X127712000Y-61601000D01*
X146584000Y-61641000D02*
X139400000Y-61641000D01*
X134920000Y-61641000D02*
X127736000Y-61641000D01*
X146559000Y-61681000D02*
X139400000Y-61681000D01*
X134920000Y-61681000D02*
X127761000Y-61681000D01*
X146534000Y-61721000D02*
X139400000Y-61721000D01*
X134920000Y-61721000D02*
X127786000Y-61721000D01*
X146508000Y-61761000D02*
X139400000Y-61761000D01*
X134920000Y-61761000D02*
X127812000Y-61761000D01*
X146483000Y-61801000D02*
X139400000Y-61801000D01*
X134920000Y-61801000D02*
X127837000Y-61801000D01*
X146457000Y-61841000D02*
X139400000Y-61841000D01*
X134920000Y-61841000D02*
X127863000Y-61841000D01*
X146431000Y-61881000D02*
X139400000Y-61881000D01*
X134920000Y-61881000D02*
X127889000Y-61881000D01*
X146405000Y-61921000D02*
X139400000Y-61921000D01*
X134920000Y-61921000D02*
X127915000Y-61921000D01*
X146378000Y-61961000D02*
X139400000Y-61961000D01*
X134920000Y-61961000D02*
X127942000Y-61961000D01*
X146352000Y-62001000D02*
X139400000Y-62001000D01*
X134920000Y-62001000D02*
X127968000Y-62001000D01*
X146325000Y-62041000D02*
X139400000Y-62041000D01*
X134920000Y-62041000D02*
X127995000Y-62041000D01*
X146297000Y-62081000D02*
X139400000Y-62081000D01*
X134920000Y-62081000D02*
X128023000Y-62081000D01*
X146270000Y-62121000D02*
X139400000Y-62121000D01*
X134920000Y-62121000D02*
X128050000Y-62121000D01*
X146242000Y-62161000D02*
X139400000Y-62161000D01*
X134920000Y-62161000D02*
X128078000Y-62161000D01*
X146214000Y-62201000D02*
X139400000Y-62201000D01*
X134920000Y-62201000D02*
X128106000Y-62201000D01*
X146186000Y-62241000D02*
X139400000Y-62241000D01*
X134920000Y-62241000D02*
X128134000Y-62241000D01*
X146157000Y-62281000D02*
X139400000Y-62281000D01*
X134920000Y-62281000D02*
X128163000Y-62281000D01*
X146128000Y-62321000D02*
X139400000Y-62321000D01*
X134920000Y-62321000D02*
X128192000Y-62321000D01*
X146099000Y-62361000D02*
X139400000Y-62361000D01*
X134920000Y-62361000D02*
X128221000Y-62361000D01*
X146070000Y-62401000D02*
X139400000Y-62401000D01*
X134920000Y-62401000D02*
X128250000Y-62401000D01*
X146040000Y-62441000D02*
X139400000Y-62441000D01*
X134920000Y-62441000D02*
X128280000Y-62441000D01*
X146010000Y-62481000D02*
X139400000Y-62481000D01*
X134920000Y-62481000D02*
X128310000Y-62481000D01*
X145980000Y-62521000D02*
X139400000Y-62521000D01*
X134920000Y-62521000D02*
X128340000Y-62521000D01*
X145950000Y-62561000D02*
X139400000Y-62561000D01*
X134920000Y-62561000D02*
X128370000Y-62561000D01*
X145919000Y-62601000D02*
X139400000Y-62601000D01*
X134920000Y-62601000D02*
X128401000Y-62601000D01*
X145888000Y-62641000D02*
X139400000Y-62641000D01*
X134920000Y-62641000D02*
X128432000Y-62641000D01*
X145857000Y-62681000D02*
X139400000Y-62681000D01*
X134920000Y-62681000D02*
X128463000Y-62681000D01*
X145825000Y-62721000D02*
X139400000Y-62721000D01*
X134920000Y-62721000D02*
X128495000Y-62721000D01*
X145793000Y-62761000D02*
X139400000Y-62761000D01*
X134920000Y-62761000D02*
X128527000Y-62761000D01*
X145761000Y-62801000D02*
X139400000Y-62801000D01*
X134920000Y-62801000D02*
X128559000Y-62801000D01*
X145728000Y-62841000D02*
X139400000Y-62841000D01*
X134920000Y-62841000D02*
X128592000Y-62841000D01*
X145695000Y-62881000D02*
X139400000Y-62881000D01*
X134920000Y-62881000D02*
X128625000Y-62881000D01*
X145662000Y-62921000D02*
X139400000Y-62921000D01*
X134920000Y-62921000D02*
X128658000Y-62921000D01*
X145629000Y-62961000D02*
X139400000Y-62961000D01*
X134920000Y-62961000D02*
X128691000Y-62961000D01*
X145595000Y-63001000D02*
X139400000Y-63001000D01*
X134920000Y-63001000D02*
X128725000Y-63001000D01*
X145561000Y-63041000D02*
X128759000Y-63041000D01*
X145526000Y-63081000D02*
X128794000Y-63081000D01*
X145491000Y-63121000D02*
X128829000Y-63121000D01*
X145456000Y-63161000D02*
X128864000Y-63161000D01*
X145421000Y-63201000D02*
X128899000Y-63201000D01*
X145385000Y-63241000D02*
X128935000Y-63241000D01*
X145349000Y-63281000D02*
X128971000Y-63281000D01*
X145312000Y-63321000D02*
X129008000Y-63321000D01*
X145275000Y-63361000D02*
X129045000Y-63361000D01*
X145238000Y-63401000D02*
X129082000Y-63401000D01*
X145200000Y-63441000D02*
X129120000Y-63441000D01*
X145162000Y-63481000D02*
X129158000Y-63481000D01*
X145124000Y-63521000D02*
X129196000Y-63521000D01*
X145085000Y-63561000D02*
X129235000Y-63561000D01*
X145046000Y-63601000D02*
X129274000Y-63601000D01*
X145006000Y-63641000D02*
X129314000Y-63641000D01*
X144967000Y-63681000D02*
X129353000Y-63681000D01*
X144926000Y-63721000D02*
X129394000Y-63721000D01*
X144885000Y-63761000D02*
X129435000Y-63761000D01*
X144844000Y-63801000D02*
X129476000Y-63801000D01*
X144802000Y-63841000D02*
X129518000Y-63841000D01*
X144760000Y-63881000D02*
X129560000Y-63881000D01*
X144718000Y-63921000D02*
X129602000Y-63921000D01*
X144675000Y-63961000D02*
X129645000Y-63961000D01*
X144631000Y-64000000D02*
X129689000Y-64000000D01*
X144588000Y-64040000D02*
X129732000Y-64040000D01*
X144543000Y-64080000D02*
X129777000Y-64080000D01*
X144498000Y-64120000D02*
X129822000Y-64120000D01*
X144453000Y-64160000D02*
X129867000Y-64160000D01*
X144407000Y-64200000D02*
X129913000Y-64200000D01*
X144361000Y-64240000D02*
X129959000Y-64240000D01*
X144314000Y-64280000D02*
X130006000Y-64280000D01*
X144266000Y-64320000D02*
X130054000Y-64320000D01*
X144218000Y-64360000D02*
X130102000Y-64360000D01*
X144170000Y-64400000D02*
X130150000Y-64400000D01*
X144121000Y-64440000D02*
X130199000Y-64440000D01*
X144071000Y-64480000D02*
X130249000Y-64480000D01*
X144021000Y-64520000D02*
X130299000Y-64520000D01*
X143970000Y-64560000D02*
X130350000Y-64560000D01*
X143919000Y-64600000D02*
X130401000Y-64600000D01*
X143867000Y-64640000D02*
X130453000Y-64640000D01*
X143814000Y-64680000D02*
X130506000Y-64680000D01*
X143760000Y-64720000D02*
X130560000Y-64720000D01*
X143706000Y-64760000D02*
X130614000Y-64760000D01*
X143652000Y-64800000D02*
X130668000Y-64800000D01*
X143596000Y-64840000D02*
X130724000Y-64840000D01*
X143540000Y-64880000D02*
X130780000Y-64880000D01*
X143483000Y-64920000D02*
X130837000Y-64920000D01*
X143425000Y-64960000D02*
X130895000Y-64960000D01*
X143367000Y-65000000D02*
X130953000Y-65000000D01*
X143307000Y-65040000D02*
X131013000Y-65040000D01*
X143247000Y-65080000D02*
X131073000Y-65080000D01*
X143186000Y-65120000D02*
X131134000Y-65120000D01*
X143124000Y-65160000D02*
X131196000Y-65160000D01*
X143061000Y-65200000D02*
X131259000Y-65200000D01*
X142998000Y-65240000D02*
X131322000Y-65240000D01*
X142933000Y-65280000D02*
X131387000Y-65280000D01*
X142867000Y-65320000D02*
X131453000Y-65320000D01*
X142800000Y-65360000D02*
X131520000Y-65360000D01*
X142732000Y-65400000D02*
X131588000Y-65400000D01*
X142663000Y-65440000D02*
X131657000Y-65440000D01*
X142593000Y-65480000D02*
X131727000Y-65480000D01*
X142522000Y-65520000D02*
X131798000Y-65520000D01*
X142449000Y-65560000D02*
X131871000Y-65560000D01*
X142375000Y-65600000D02*
X131945000Y-65600000D01*
X142300000Y-65640000D02*
X132020000Y-65640000D01*
X142223000Y-65680000D02*
X132097000Y-65680000D01*
X142145000Y-65720000D02*
X132175000Y-65720000D01*
X142065000Y-65760000D02*
X132255000Y-65760000D01*
X141984000Y-65800000D02*
X132336000Y-65800000D01*
X141901000Y-65840000D02*
X132419000Y-65840000D01*
X141816000Y-65880000D02*
X132504000Y-65880000D01*
X141729000Y-65920000D02*
X132591000Y-65920000D01*
X141640000Y-65960000D02*
X132680000Y-65960000D01*
X141549000Y-66000000D02*
X132771000Y-66000000D01*
X141456000Y-66040000D02*
X132864000Y-66040000D01*
X141360000Y-66080000D02*
X132960000Y-66080000D01*
X141262000Y-66120000D02*
X133058000Y-66120000D01*
X141161000Y-66160000D02*
X133159000Y-66160000D01*
X141057000Y-66200000D02*
X133263000Y-66200000D01*
X140949000Y-66240000D02*
X133371000Y-66240000D01*
X140839000Y-66280000D02*
X133481000Y-66280000D01*
X140724000Y-66320000D02*
X133596000Y-66320000D01*
X140605000Y-66360000D02*
X133715000Y-66360000D01*
X140481000Y-66400000D02*
X133839000Y-66400000D01*
X140352000Y-66440000D02*
X133968000Y-66440000D01*
X140218000Y-66480000D02*
X134102000Y-66480000D01*
X140076000Y-66520000D02*
X134244000Y-66520000D01*
X139927000Y-66560000D02*
X134393000Y-66560000D01*
X139769000Y-66600000D02*
X134551000Y-66600000D01*
X139600000Y-66640000D02*
X134720000Y-66640000D01*
X139418000Y-66680000D02*
X134902000Y-66680000D01*
X139220000Y-66720000D02*
X135100000Y-66720000D01*
X139000000Y-66760000D02*
X135320000Y-66760000D01*
X138750000Y-66800000D02*
X135570000Y-66800000D01*
X138452000Y-66840000D02*
X135868000Y-66840000D01*
X138063000Y-66880000D02*
X136257000Y-66880000D01*
X137200000Y-66920000D02*
X137120000Y-66920000D01*
X143395000Y-43900663D02*
X143395000Y-46100663D01*
X144495000Y-45000663D02*
X142295000Y-45000663D01*
X144495000Y-70400663D02*
X142295000Y-70400663D01*
X143395000Y-69300663D02*
X143395000Y-71500663D01*
X137200000Y-92320000D02*
X137120000Y-92320000D01*
X138063000Y-92280000D02*
X136257000Y-92280000D01*
X138452000Y-92240000D02*
X135868000Y-92240000D01*
X138750000Y-92200000D02*
X135570000Y-92200000D01*
X139000000Y-92160000D02*
X135320000Y-92160000D01*
X139220000Y-92120000D02*
X135100000Y-92120000D01*
X139418000Y-92080000D02*
X134902000Y-92080000D01*
X139600000Y-92040000D02*
X134720000Y-92040000D01*
X139769000Y-92000000D02*
X134551000Y-92000000D01*
X139927000Y-91960000D02*
X134393000Y-91960000D01*
X140076000Y-91920000D02*
X134244000Y-91920000D01*
X140218000Y-91880000D02*
X134102000Y-91880000D01*
X140352000Y-91840000D02*
X133968000Y-91840000D01*
X140481000Y-91800000D02*
X133839000Y-91800000D01*
X140605000Y-91760000D02*
X133715000Y-91760000D01*
X140724000Y-91720000D02*
X133596000Y-91720000D01*
X140839000Y-91680000D02*
X133481000Y-91680000D01*
X140949000Y-91640000D02*
X133371000Y-91640000D01*
X141057000Y-91600000D02*
X133263000Y-91600000D01*
X141161000Y-91560000D02*
X133159000Y-91560000D01*
X141262000Y-91520000D02*
X133058000Y-91520000D01*
X141360000Y-91480000D02*
X132960000Y-91480000D01*
X141456000Y-91440000D02*
X132864000Y-91440000D01*
X141549000Y-91400000D02*
X132771000Y-91400000D01*
X141640000Y-91360000D02*
X132680000Y-91360000D01*
X141729000Y-91320000D02*
X132591000Y-91320000D01*
X141816000Y-91280000D02*
X132504000Y-91280000D01*
X141901000Y-91240000D02*
X132419000Y-91240000D01*
X141984000Y-91200000D02*
X132336000Y-91200000D01*
X142065000Y-91160000D02*
X132255000Y-91160000D01*
X142145000Y-91120000D02*
X132175000Y-91120000D01*
X142223000Y-91080000D02*
X132097000Y-91080000D01*
X142300000Y-91040000D02*
X132020000Y-91040000D01*
X142375000Y-91000000D02*
X131945000Y-91000000D01*
X142449000Y-90960000D02*
X131871000Y-90960000D01*
X142522000Y-90920000D02*
X131798000Y-90920000D01*
X142593000Y-90880000D02*
X131727000Y-90880000D01*
X142663000Y-90840000D02*
X131657000Y-90840000D01*
X142732000Y-90800000D02*
X131588000Y-90800000D01*
X142800000Y-90760000D02*
X131520000Y-90760000D01*
X142867000Y-90720000D02*
X131453000Y-90720000D01*
X142933000Y-90680000D02*
X131387000Y-90680000D01*
X142998000Y-90640000D02*
X131322000Y-90640000D01*
X143061000Y-90600000D02*
X131259000Y-90600000D01*
X143124000Y-90560000D02*
X131196000Y-90560000D01*
X143186000Y-90520000D02*
X131134000Y-90520000D01*
X143247000Y-90480000D02*
X131073000Y-90480000D01*
X143307000Y-90440000D02*
X131013000Y-90440000D01*
X143367000Y-90400000D02*
X130953000Y-90400000D01*
X143425000Y-90360000D02*
X130895000Y-90360000D01*
X143483000Y-90320000D02*
X130837000Y-90320000D01*
X143540000Y-90280000D02*
X130780000Y-90280000D01*
X143596000Y-90240000D02*
X130724000Y-90240000D01*
X143652000Y-90200000D02*
X130668000Y-90200000D01*
X143706000Y-90160000D02*
X130614000Y-90160000D01*
X143760000Y-90120000D02*
X130560000Y-90120000D01*
X143814000Y-90080000D02*
X130506000Y-90080000D01*
X143867000Y-90040000D02*
X130453000Y-90040000D01*
X143919000Y-90000000D02*
X130401000Y-90000000D01*
X143970000Y-89960000D02*
X130350000Y-89960000D01*
X144021000Y-89920000D02*
X130299000Y-89920000D01*
X144071000Y-89880000D02*
X130249000Y-89880000D01*
X144121000Y-89840000D02*
X130199000Y-89840000D01*
X144170000Y-89800000D02*
X130150000Y-89800000D01*
X144218000Y-89760000D02*
X130102000Y-89760000D01*
X144266000Y-89720000D02*
X130054000Y-89720000D01*
X144314000Y-89680000D02*
X130006000Y-89680000D01*
X144361000Y-89640000D02*
X129959000Y-89640000D01*
X144407000Y-89600000D02*
X129913000Y-89600000D01*
X144453000Y-89560000D02*
X129867000Y-89560000D01*
X144498000Y-89520000D02*
X129822000Y-89520000D01*
X144543000Y-89480000D02*
X129777000Y-89480000D01*
X144588000Y-89440000D02*
X129732000Y-89440000D01*
X144631000Y-89400000D02*
X129689000Y-89400000D01*
X144675000Y-89361000D02*
X129645000Y-89361000D01*
X144718000Y-89321000D02*
X129602000Y-89321000D01*
X144760000Y-89281000D02*
X129560000Y-89281000D01*
X144802000Y-89241000D02*
X129518000Y-89241000D01*
X144844000Y-89201000D02*
X129476000Y-89201000D01*
X144885000Y-89161000D02*
X129435000Y-89161000D01*
X144926000Y-89121000D02*
X129394000Y-89121000D01*
X144967000Y-89081000D02*
X129353000Y-89081000D01*
X145006000Y-89041000D02*
X129314000Y-89041000D01*
X145046000Y-89001000D02*
X129274000Y-89001000D01*
X145085000Y-88961000D02*
X129235000Y-88961000D01*
X145124000Y-88921000D02*
X129196000Y-88921000D01*
X145162000Y-88881000D02*
X129158000Y-88881000D01*
X145200000Y-88841000D02*
X129120000Y-88841000D01*
X145238000Y-88801000D02*
X129082000Y-88801000D01*
X145275000Y-88761000D02*
X129045000Y-88761000D01*
X145312000Y-88721000D02*
X129008000Y-88721000D01*
X145349000Y-88681000D02*
X128971000Y-88681000D01*
X145385000Y-88641000D02*
X128935000Y-88641000D01*
X145421000Y-88601000D02*
X128899000Y-88601000D01*
X145456000Y-88561000D02*
X128864000Y-88561000D01*
X145491000Y-88521000D02*
X128829000Y-88521000D01*
X145526000Y-88481000D02*
X128794000Y-88481000D01*
X145561000Y-88441000D02*
X128759000Y-88441000D01*
X134920000Y-88401000D02*
X128725000Y-88401000D01*
X145595000Y-88401000D02*
X139400000Y-88401000D01*
X134920000Y-88361000D02*
X128691000Y-88361000D01*
X145629000Y-88361000D02*
X139400000Y-88361000D01*
X134920000Y-88321000D02*
X128658000Y-88321000D01*
X145662000Y-88321000D02*
X139400000Y-88321000D01*
X134920000Y-88281000D02*
X128625000Y-88281000D01*
X145695000Y-88281000D02*
X139400000Y-88281000D01*
X134920000Y-88241000D02*
X128592000Y-88241000D01*
X145728000Y-88241000D02*
X139400000Y-88241000D01*
X134920000Y-88201000D02*
X128559000Y-88201000D01*
X145761000Y-88201000D02*
X139400000Y-88201000D01*
X134920000Y-88161000D02*
X128527000Y-88161000D01*
X145793000Y-88161000D02*
X139400000Y-88161000D01*
X134920000Y-88121000D02*
X128495000Y-88121000D01*
X145825000Y-88121000D02*
X139400000Y-88121000D01*
X134920000Y-88081000D02*
X128463000Y-88081000D01*
X145857000Y-88081000D02*
X139400000Y-88081000D01*
X134920000Y-88041000D02*
X128432000Y-88041000D01*
X145888000Y-88041000D02*
X139400000Y-88041000D01*
X134920000Y-88001000D02*
X128401000Y-88001000D01*
X145919000Y-88001000D02*
X139400000Y-88001000D01*
X134920000Y-87961000D02*
X128370000Y-87961000D01*
X145950000Y-87961000D02*
X139400000Y-87961000D01*
X134920000Y-87921000D02*
X128340000Y-87921000D01*
X145980000Y-87921000D02*
X139400000Y-87921000D01*
X134920000Y-87881000D02*
X128310000Y-87881000D01*
X146010000Y-87881000D02*
X139400000Y-87881000D01*
X134920000Y-87841000D02*
X128280000Y-87841000D01*
X146040000Y-87841000D02*
X139400000Y-87841000D01*
X134920000Y-87801000D02*
X128250000Y-87801000D01*
X146070000Y-87801000D02*
X139400000Y-87801000D01*
X134920000Y-87761000D02*
X128221000Y-87761000D01*
X146099000Y-87761000D02*
X139400000Y-87761000D01*
X134920000Y-87721000D02*
X128192000Y-87721000D01*
X146128000Y-87721000D02*
X139400000Y-87721000D01*
X134920000Y-87681000D02*
X128163000Y-87681000D01*
X146157000Y-87681000D02*
X139400000Y-87681000D01*
X134920000Y-87641000D02*
X128134000Y-87641000D01*
X146186000Y-87641000D02*
X139400000Y-87641000D01*
X134920000Y-87601000D02*
X128106000Y-87601000D01*
X146214000Y-87601000D02*
X139400000Y-87601000D01*
X134920000Y-87561000D02*
X128078000Y-87561000D01*
X146242000Y-87561000D02*
X139400000Y-87561000D01*
X134920000Y-87521000D02*
X128050000Y-87521000D01*
X146270000Y-87521000D02*
X139400000Y-87521000D01*
X134920000Y-87481000D02*
X128023000Y-87481000D01*
X146297000Y-87481000D02*
X139400000Y-87481000D01*
X134920000Y-87441000D02*
X127995000Y-87441000D01*
X146325000Y-87441000D02*
X139400000Y-87441000D01*
X134920000Y-87401000D02*
X127968000Y-87401000D01*
X146352000Y-87401000D02*
X139400000Y-87401000D01*
X134920000Y-87361000D02*
X127942000Y-87361000D01*
X146378000Y-87361000D02*
X139400000Y-87361000D01*
X134920000Y-87321000D02*
X127915000Y-87321000D01*
X146405000Y-87321000D02*
X139400000Y-87321000D01*
X134920000Y-87281000D02*
X127889000Y-87281000D01*
X146431000Y-87281000D02*
X139400000Y-87281000D01*
X134920000Y-87241000D02*
X127863000Y-87241000D01*
X146457000Y-87241000D02*
X139400000Y-87241000D01*
X134920000Y-87201000D02*
X127837000Y-87201000D01*
X146483000Y-87201000D02*
X139400000Y-87201000D01*
X134920000Y-87161000D02*
X127812000Y-87161000D01*
X146508000Y-87161000D02*
X139400000Y-87161000D01*
X134920000Y-87121000D02*
X127786000Y-87121000D01*
X146534000Y-87121000D02*
X139400000Y-87121000D01*
X134920000Y-87081000D02*
X127761000Y-87081000D01*
X146559000Y-87081000D02*
X139400000Y-87081000D01*
X134920000Y-87041000D02*
X127736000Y-87041000D01*
X146584000Y-87041000D02*
X139400000Y-87041000D01*
X134920000Y-87001000D02*
X127712000Y-87001000D01*
X146608000Y-87001000D02*
X139400000Y-87001000D01*
X134920000Y-86961000D02*
X127688000Y-86961000D01*
X146632000Y-86961000D02*
X139400000Y-86961000D01*
X134920000Y-86921000D02*
X127663000Y-86921000D01*
X146657000Y-86921000D02*
X139400000Y-86921000D01*
X134920000Y-86881000D02*
X127640000Y-86881000D01*
X146680000Y-86881000D02*
X139400000Y-86881000D01*
X134920000Y-86841000D02*
X127616000Y-86841000D01*
X146704000Y-86841000D02*
X139400000Y-86841000D01*
X134920000Y-86801000D02*
X127593000Y-86801000D01*
X146727000Y-86801000D02*
X139400000Y-86801000D01*
X134920000Y-86761000D02*
X127569000Y-86761000D01*
X146751000Y-86761000D02*
X139400000Y-86761000D01*
X134920000Y-86721000D02*
X127546000Y-86721000D01*
X146774000Y-86721000D02*
X139400000Y-86721000D01*
X134920000Y-86681000D02*
X127524000Y-86681000D01*
X146796000Y-86681000D02*
X139400000Y-86681000D01*
X134920000Y-86641000D02*
X127501000Y-86641000D01*
X146819000Y-86641000D02*
X139400000Y-86641000D01*
X134920000Y-86601000D02*
X127479000Y-86601000D01*
X146841000Y-86601000D02*
X139400000Y-86601000D01*
X134920000Y-86561000D02*
X127457000Y-86561000D01*
X146863000Y-86561000D02*
X139400000Y-86561000D01*
X134920000Y-86521000D02*
X127435000Y-86521000D01*
X146885000Y-86521000D02*
X139400000Y-86521000D01*
X134920000Y-86481000D02*
X127413000Y-86481000D01*
X146907000Y-86481000D02*
X139400000Y-86481000D01*
X134920000Y-86441000D02*
X127392000Y-86441000D01*
X146928000Y-86441000D02*
X139400000Y-86441000D01*
X134920000Y-86401000D02*
X127370000Y-86401000D01*
X146950000Y-86401000D02*
X139400000Y-86401000D01*
X134920000Y-86361000D02*
X127349000Y-86361000D01*
X146971000Y-86361000D02*
X139400000Y-86361000D01*
X134920000Y-86321000D02*
X127328000Y-86321000D01*
X146992000Y-86321000D02*
X139400000Y-86321000D01*
X134920000Y-86281000D02*
X127308000Y-86281000D01*
X147012000Y-86281000D02*
X139400000Y-86281000D01*
X134920000Y-86241000D02*
X127287000Y-86241000D01*
X147033000Y-86241000D02*
X139400000Y-86241000D01*
X134920000Y-86201000D02*
X127267000Y-86201000D01*
X147053000Y-86201000D02*
X139400000Y-86201000D01*
X134920000Y-86161000D02*
X127247000Y-86161000D01*
X147073000Y-86161000D02*
X139400000Y-86161000D01*
X134920000Y-86121000D02*
X127227000Y-86121000D01*
X147093000Y-86121000D02*
X139400000Y-86121000D01*
X134920000Y-86081000D02*
X127208000Y-86081000D01*
X147112000Y-86081000D02*
X139400000Y-86081000D01*
X134920000Y-86041000D02*
X127188000Y-86041000D01*
X147132000Y-86041000D02*
X139400000Y-86041000D01*
X134920000Y-86001000D02*
X127169000Y-86001000D01*
X147151000Y-86001000D02*
X139400000Y-86001000D01*
X134920000Y-85961000D02*
X127150000Y-85961000D01*
X147170000Y-85961000D02*
X139400000Y-85961000D01*
X134920000Y-85921000D02*
X127131000Y-85921000D01*
X147189000Y-85921000D02*
X139400000Y-85921000D01*
X134920000Y-85881000D02*
X127112000Y-85881000D01*
X147208000Y-85881000D02*
X139400000Y-85881000D01*
X134920000Y-85841000D02*
X127094000Y-85841000D01*
X147226000Y-85841000D02*
X139400000Y-85841000D01*
X134920000Y-85801000D02*
X127076000Y-85801000D01*
X147244000Y-85801000D02*
X139400000Y-85801000D01*
X134920000Y-85761000D02*
X127057000Y-85761000D01*
X147263000Y-85761000D02*
X139400000Y-85761000D01*
X134920000Y-85721000D02*
X127040000Y-85721000D01*
X147280000Y-85721000D02*
X139400000Y-85721000D01*
X134920000Y-85681000D02*
X127022000Y-85681000D01*
X147298000Y-85681000D02*
X139400000Y-85681000D01*
X134920000Y-85641000D02*
X127004000Y-85641000D01*
X147316000Y-85641000D02*
X139400000Y-85641000D01*
X134920000Y-85601000D02*
X126987000Y-85601000D01*
X147333000Y-85601000D02*
X139400000Y-85601000D01*
X134920000Y-85561000D02*
X126970000Y-85561000D01*
X147350000Y-85561000D02*
X139400000Y-85561000D01*
X134920000Y-85521000D02*
X126953000Y-85521000D01*
X147367000Y-85521000D02*
X139400000Y-85521000D01*
X134920000Y-85481000D02*
X126936000Y-85481000D01*
X147384000Y-85481000D02*
X139400000Y-85481000D01*
X134920000Y-85441000D02*
X126920000Y-85441000D01*
X147400000Y-85441000D02*
X139400000Y-85441000D01*
X134920000Y-85401000D02*
X126903000Y-85401000D01*
X147417000Y-85401000D02*
X139400000Y-85401000D01*
X134920000Y-85361000D02*
X126887000Y-85361000D01*
X147433000Y-85361000D02*
X139400000Y-85361000D01*
X134920000Y-85321000D02*
X126871000Y-85321000D01*
X147449000Y-85321000D02*
X139400000Y-85321000D01*
X134920000Y-85281000D02*
X126855000Y-85281000D01*
X147465000Y-85281000D02*
X139400000Y-85281000D01*
X134920000Y-85241000D02*
X126839000Y-85241000D01*
X147481000Y-85241000D02*
X139400000Y-85241000D01*
X134920000Y-85201000D02*
X126824000Y-85201000D01*
X147496000Y-85201000D02*
X139400000Y-85201000D01*
X134920000Y-85161000D02*
X126809000Y-85161000D01*
X147511000Y-85161000D02*
X139400000Y-85161000D01*
X134920000Y-85121000D02*
X126793000Y-85121000D01*
X147527000Y-85121000D02*
X139400000Y-85121000D01*
X134920000Y-85081000D02*
X126778000Y-85081000D01*
X147542000Y-85081000D02*
X139400000Y-85081000D01*
X134920000Y-85041000D02*
X126764000Y-85041000D01*
X147556000Y-85041000D02*
X139400000Y-85041000D01*
X134920000Y-85001000D02*
X126749000Y-85001000D01*
X147571000Y-85001000D02*
X139400000Y-85001000D01*
X134920000Y-84961000D02*
X126734000Y-84961000D01*
X147586000Y-84961000D02*
X139400000Y-84961000D01*
X134920000Y-84921000D02*
X126720000Y-84921000D01*
X147600000Y-84921000D02*
X139400000Y-84921000D01*
X134920000Y-84881000D02*
X126706000Y-84881000D01*
X147614000Y-84881000D02*
X139400000Y-84881000D01*
X134920000Y-84841000D02*
X126692000Y-84841000D01*
X147628000Y-84841000D02*
X139400000Y-84841000D01*
X134920000Y-84801000D02*
X126678000Y-84801000D01*
X147642000Y-84801000D02*
X139400000Y-84801000D01*
X134920000Y-84761000D02*
X126665000Y-84761000D01*
X147655000Y-84761000D02*
X139400000Y-84761000D01*
X134920000Y-84721000D02*
X126651000Y-84721000D01*
X147669000Y-84721000D02*
X139400000Y-84721000D01*
X134920000Y-84681000D02*
X126638000Y-84681000D01*
X147682000Y-84681000D02*
X139400000Y-84681000D01*
X134920000Y-84641000D02*
X126625000Y-84641000D01*
X147695000Y-84641000D02*
X139400000Y-84641000D01*
X134920000Y-84601000D02*
X126612000Y-84601000D01*
X147708000Y-84601000D02*
X139400000Y-84601000D01*
X134920000Y-84561000D02*
X126599000Y-84561000D01*
X147721000Y-84561000D02*
X139400000Y-84561000D01*
X134920000Y-84521000D02*
X126587000Y-84521000D01*
X147733000Y-84521000D02*
X139400000Y-84521000D01*
X134920000Y-84481000D02*
X126574000Y-84481000D01*
X147746000Y-84481000D02*
X139400000Y-84481000D01*
X134920000Y-84441000D02*
X126562000Y-84441000D01*
X147758000Y-84441000D02*
X139400000Y-84441000D01*
X134920000Y-84401000D02*
X126550000Y-84401000D01*
X147770000Y-84401000D02*
X139400000Y-84401000D01*
X134920000Y-84361000D02*
X126538000Y-84361000D01*
X147782000Y-84361000D02*
X139400000Y-84361000D01*
X134920000Y-84321000D02*
X126526000Y-84321000D01*
X147794000Y-84321000D02*
X139400000Y-84321000D01*
X134920000Y-84281000D02*
X126515000Y-84281000D01*
X147805000Y-84281000D02*
X139400000Y-84281000D01*
X134920000Y-84241000D02*
X126503000Y-84241000D01*
X147817000Y-84241000D02*
X139400000Y-84241000D01*
X134920000Y-84201000D02*
X126492000Y-84201000D01*
X147828000Y-84201000D02*
X139400000Y-84201000D01*
X134920000Y-84161000D02*
X126481000Y-84161000D01*
X147839000Y-84161000D02*
X139400000Y-84161000D01*
X134920000Y-84121000D02*
X126470000Y-84121000D01*
X147850000Y-84121000D02*
X139400000Y-84121000D01*
X134920000Y-84081000D02*
X126459000Y-84081000D01*
X147861000Y-84081000D02*
X139400000Y-84081000D01*
X134920000Y-84041000D02*
X126448000Y-84041000D01*
X147872000Y-84041000D02*
X139400000Y-84041000D01*
X134920000Y-84001000D02*
X126438000Y-84001000D01*
X147882000Y-84001000D02*
X139400000Y-84001000D01*
X134920000Y-83961000D02*
X126427000Y-83961000D01*
X147893000Y-83961000D02*
X139400000Y-83961000D01*
X147903000Y-83921000D02*
X126417000Y-83921000D01*
X147913000Y-83881000D02*
X126407000Y-83881000D01*
X147923000Y-83841000D02*
X126397000Y-83841000D01*
X147932000Y-83801000D02*
X126388000Y-83801000D01*
X147942000Y-83761000D02*
X126378000Y-83761000D01*
X147951000Y-83721000D02*
X126369000Y-83721000D01*
X147960000Y-83681000D02*
X126360000Y-83681000D01*
X147969000Y-83641000D02*
X126351000Y-83641000D01*
X147978000Y-83601000D02*
X126342000Y-83601000D01*
X147987000Y-83561000D02*
X126333000Y-83561000D01*
X147996000Y-83521000D02*
X126324000Y-83521000D01*
X148004000Y-83481000D02*
X126316000Y-83481000D01*
X148013000Y-83441000D02*
X126307000Y-83441000D01*
X148021000Y-83401000D02*
X126299000Y-83401000D01*
X148029000Y-83361000D02*
X126291000Y-83361000D01*
X148037000Y-83321000D02*
X126283000Y-83321000D01*
X148044000Y-83281000D02*
X126276000Y-83281000D01*
X148052000Y-83241000D02*
X126268000Y-83241000D01*
X148059000Y-83201000D02*
X126261000Y-83201000D01*
X148066000Y-83161000D02*
X126254000Y-83161000D01*
X148073000Y-83121000D02*
X126247000Y-83121000D01*
X148080000Y-83081000D02*
X126240000Y-83081000D01*
X148087000Y-83041000D02*
X126233000Y-83041000D01*
X148094000Y-83001000D02*
X126226000Y-83001000D01*
X148100000Y-82961000D02*
X126220000Y-82961000D01*
X148107000Y-82921000D02*
X126213000Y-82921000D01*
X148113000Y-82881000D02*
X126207000Y-82881000D01*
X148119000Y-82841000D02*
X126201000Y-82841000D01*
X148125000Y-82801000D02*
X126195000Y-82801000D01*
X148131000Y-82761000D02*
X126189000Y-82761000D01*
X148136000Y-82721000D02*
X126184000Y-82721000D01*
X148142000Y-82681000D02*
X126178000Y-82681000D01*
X148147000Y-82641000D02*
X126173000Y-82641000D01*
X148152000Y-82601000D02*
X126168000Y-82601000D01*
X148157000Y-82561000D02*
X126163000Y-82561000D01*
X148162000Y-82521000D02*
X126158000Y-82521000D01*
X148167000Y-82481000D02*
X126153000Y-82481000D01*
X148171000Y-82441000D02*
X126149000Y-82441000D01*
X148176000Y-82401000D02*
X126144000Y-82401000D01*
X148180000Y-82361000D02*
X126140000Y-82361000D01*
X148184000Y-82321000D02*
X126136000Y-82321000D01*
X148188000Y-82281000D02*
X126132000Y-82281000D01*
X148192000Y-82241000D02*
X126128000Y-82241000D01*
X148195000Y-82201000D02*
X126125000Y-82201000D01*
X148199000Y-82161000D02*
X126121000Y-82161000D01*
X148202000Y-82121000D02*
X126118000Y-82121000D01*
X148206000Y-82081000D02*
X126114000Y-82081000D01*
X148209000Y-82041000D02*
X126111000Y-82041000D01*
X148212000Y-82001000D02*
X126108000Y-82001000D01*
X148214000Y-81961000D02*
X126106000Y-81961000D01*
X148217000Y-81921000D02*
X126103000Y-81921000D01*
X148220000Y-81880000D02*
X126100000Y-81880000D01*
X148222000Y-81840000D02*
X126098000Y-81840000D01*
X148224000Y-81800000D02*
X126096000Y-81800000D01*
X148226000Y-81760000D02*
X126094000Y-81760000D01*
X148228000Y-81720000D02*
X126092000Y-81720000D01*
X148230000Y-81680000D02*
X126090000Y-81680000D01*
X148232000Y-81640000D02*
X126088000Y-81640000D01*
X148233000Y-81600000D02*
X126087000Y-81600000D01*
X148235000Y-81560000D02*
X126085000Y-81560000D01*
X148236000Y-81520000D02*
X126084000Y-81520000D01*
X148237000Y-81480000D02*
X126083000Y-81480000D01*
X148238000Y-81440000D02*
X126082000Y-81440000D01*
X148239000Y-81400000D02*
X126081000Y-81400000D01*
X148239000Y-81360000D02*
X126081000Y-81360000D01*
X148240000Y-81320000D02*
X126080000Y-81320000D01*
X148240000Y-81280000D02*
X126080000Y-81280000D01*
X148240000Y-81240000D02*
X126080000Y-81240000D01*
X148241000Y-81200000D02*
X126079000Y-81200000D01*
X148280000Y-81200000D02*
G75*
G03X148280000Y-81200000I-11120000J0D01*
G01*
X139160000Y-113010000D02*
G75*
G03X139160000Y-113010000I-3270000J0D01*
G01*
X139120000Y-113010000D02*
X132660000Y-113010000D01*
X139120000Y-113050000D02*
X132660000Y-113050000D01*
X139120000Y-113090000D02*
X132660000Y-113090000D01*
X139118000Y-113130000D02*
X132662000Y-113130000D01*
X139117000Y-113170000D02*
X132663000Y-113170000D01*
X139114000Y-113210000D02*
X132666000Y-113210000D01*
X139112000Y-113250000D02*
X136930000Y-113250000D01*
X134850000Y-113250000D02*
X132668000Y-113250000D01*
X139108000Y-113290000D02*
X136930000Y-113290000D01*
X134850000Y-113290000D02*
X132672000Y-113290000D01*
X139105000Y-113330000D02*
X136930000Y-113330000D01*
X134850000Y-113330000D02*
X132675000Y-113330000D01*
X139101000Y-113370000D02*
X136930000Y-113370000D01*
X134850000Y-113370000D02*
X132679000Y-113370000D01*
X139096000Y-113410000D02*
X136930000Y-113410000D01*
X134850000Y-113410000D02*
X132684000Y-113410000D01*
X139091000Y-113450000D02*
X136930000Y-113450000D01*
X134850000Y-113450000D02*
X132689000Y-113450000D01*
X139085000Y-113490000D02*
X136930000Y-113490000D01*
X134850000Y-113490000D02*
X132695000Y-113490000D01*
X139079000Y-113530000D02*
X136930000Y-113530000D01*
X134850000Y-113530000D02*
X132701000Y-113530000D01*
X139072000Y-113570000D02*
X136930000Y-113570000D01*
X134850000Y-113570000D02*
X132708000Y-113570000D01*
X139065000Y-113610000D02*
X136930000Y-113610000D01*
X134850000Y-113610000D02*
X132715000Y-113610000D01*
X139057000Y-113650000D02*
X136930000Y-113650000D01*
X134850000Y-113650000D02*
X132723000Y-113650000D01*
X139049000Y-113690000D02*
X136930000Y-113690000D01*
X134850000Y-113690000D02*
X132731000Y-113690000D01*
X139040000Y-113731000D02*
X136930000Y-113731000D01*
X134850000Y-113731000D02*
X132740000Y-113731000D01*
X139031000Y-113771000D02*
X136930000Y-113771000D01*
X134850000Y-113771000D02*
X132749000Y-113771000D01*
X139021000Y-113811000D02*
X136930000Y-113811000D01*
X134850000Y-113811000D02*
X132759000Y-113811000D01*
X139011000Y-113851000D02*
X136930000Y-113851000D01*
X134850000Y-113851000D02*
X132769000Y-113851000D01*
X139000000Y-113891000D02*
X136930000Y-113891000D01*
X134850000Y-113891000D02*
X132780000Y-113891000D01*
X138988000Y-113931000D02*
X136930000Y-113931000D01*
X134850000Y-113931000D02*
X132792000Y-113931000D01*
X138976000Y-113971000D02*
X136930000Y-113971000D01*
X134850000Y-113971000D02*
X132804000Y-113971000D01*
X138964000Y-114011000D02*
X136930000Y-114011000D01*
X134850000Y-114011000D02*
X132816000Y-114011000D01*
X138951000Y-114051000D02*
X136930000Y-114051000D01*
X134850000Y-114051000D02*
X132829000Y-114051000D01*
X138937000Y-114091000D02*
X136930000Y-114091000D01*
X134850000Y-114091000D02*
X132843000Y-114091000D01*
X138923000Y-114131000D02*
X136930000Y-114131000D01*
X134850000Y-114131000D02*
X132857000Y-114131000D01*
X138908000Y-114171000D02*
X136930000Y-114171000D01*
X134850000Y-114171000D02*
X132872000Y-114171000D01*
X138892000Y-114211000D02*
X136930000Y-114211000D01*
X134850000Y-114211000D02*
X132888000Y-114211000D01*
X138876000Y-114251000D02*
X136930000Y-114251000D01*
X134850000Y-114251000D02*
X132904000Y-114251000D01*
X138860000Y-114291000D02*
X136930000Y-114291000D01*
X134850000Y-114291000D02*
X132920000Y-114291000D01*
X138842000Y-114331000D02*
X136930000Y-114331000D01*
X134850000Y-114331000D02*
X132938000Y-114331000D01*
X138824000Y-114371000D02*
X136930000Y-114371000D01*
X134850000Y-114371000D02*
X132956000Y-114371000D01*
X138806000Y-114411000D02*
X136930000Y-114411000D01*
X134850000Y-114411000D02*
X132974000Y-114411000D01*
X138786000Y-114451000D02*
X136930000Y-114451000D01*
X134850000Y-114451000D02*
X132994000Y-114451000D01*
X138766000Y-114491000D02*
X136930000Y-114491000D01*
X134850000Y-114491000D02*
X133014000Y-114491000D01*
X138746000Y-114531000D02*
X136930000Y-114531000D01*
X134850000Y-114531000D02*
X133034000Y-114531000D01*
X138724000Y-114571000D02*
X136930000Y-114571000D01*
X134850000Y-114571000D02*
X133056000Y-114571000D01*
X138702000Y-114611000D02*
X136930000Y-114611000D01*
X134850000Y-114611000D02*
X133078000Y-114611000D01*
X138680000Y-114651000D02*
X136930000Y-114651000D01*
X134850000Y-114651000D02*
X133100000Y-114651000D01*
X138656000Y-114691000D02*
X136930000Y-114691000D01*
X134850000Y-114691000D02*
X133124000Y-114691000D01*
X138632000Y-114731000D02*
X136930000Y-114731000D01*
X134850000Y-114731000D02*
X133148000Y-114731000D01*
X138606000Y-114771000D02*
X136930000Y-114771000D01*
X134850000Y-114771000D02*
X133174000Y-114771000D01*
X138580000Y-114811000D02*
X136930000Y-114811000D01*
X134850000Y-114811000D02*
X133200000Y-114811000D01*
X138554000Y-114851000D02*
X136930000Y-114851000D01*
X134850000Y-114851000D02*
X133226000Y-114851000D01*
X138526000Y-114891000D02*
X136930000Y-114891000D01*
X134850000Y-114891000D02*
X133254000Y-114891000D01*
X138497000Y-114931000D02*
X136930000Y-114931000D01*
X134850000Y-114931000D02*
X133283000Y-114931000D01*
X138468000Y-114971000D02*
X136930000Y-114971000D01*
X134850000Y-114971000D02*
X133312000Y-114971000D01*
X138438000Y-115011000D02*
X136930000Y-115011000D01*
X134850000Y-115011000D02*
X133342000Y-115011000D01*
X138406000Y-115051000D02*
X136930000Y-115051000D01*
X134850000Y-115051000D02*
X133374000Y-115051000D01*
X138374000Y-115091000D02*
X136930000Y-115091000D01*
X134850000Y-115091000D02*
X133406000Y-115091000D01*
X138340000Y-115131000D02*
X136930000Y-115131000D01*
X134850000Y-115131000D02*
X133440000Y-115131000D01*
X138306000Y-115171000D02*
X136930000Y-115171000D01*
X134850000Y-115171000D02*
X133474000Y-115171000D01*
X138270000Y-115211000D02*
X136930000Y-115211000D01*
X134850000Y-115211000D02*
X133510000Y-115211000D01*
X138233000Y-115251000D02*
X136930000Y-115251000D01*
X134850000Y-115251000D02*
X133547000Y-115251000D01*
X138195000Y-115291000D02*
X136930000Y-115291000D01*
X134850000Y-115291000D02*
X133585000Y-115291000D01*
X138155000Y-115331000D02*
X133625000Y-115331000D01*
X138114000Y-115371000D02*
X133666000Y-115371000D01*
X138072000Y-115411000D02*
X133708000Y-115411000D01*
X138027000Y-115451000D02*
X133753000Y-115451000D01*
X137982000Y-115491000D02*
X133798000Y-115491000D01*
X137934000Y-115531000D02*
X133846000Y-115531000D01*
X137885000Y-115571000D02*
X133895000Y-115571000D01*
X137834000Y-115611000D02*
X133946000Y-115611000D01*
X137780000Y-115651000D02*
X134000000Y-115651000D01*
X137724000Y-115691000D02*
X134056000Y-115691000D01*
X137666000Y-115731000D02*
X134114000Y-115731000D01*
X137604000Y-115771000D02*
X134176000Y-115771000D01*
X137540000Y-115811000D02*
X134240000Y-115811000D01*
X137471000Y-115851000D02*
X134309000Y-115851000D01*
X137399000Y-115891000D02*
X134381000Y-115891000D01*
X137322000Y-115931000D02*
X134458000Y-115931000D01*
X137240000Y-115971000D02*
X134540000Y-115971000D01*
X137152000Y-116011000D02*
X134628000Y-116011000D01*
X137055000Y-116051000D02*
X134725000Y-116051000D01*
X136949000Y-116091000D02*
X134831000Y-116091000D01*
X136830000Y-116131000D02*
X134950000Y-116131000D01*
X136692000Y-116171000D02*
X135088000Y-116171000D01*
X136523000Y-116211000D02*
X135257000Y-116211000D01*
X136292000Y-116251000D02*
X135488000Y-116251000D01*
X137729000Y-109509759D02*
X137729000Y-110139759D01*
X138044000Y-109824759D02*
X137414000Y-109824759D01*
X177570000Y-74830000D02*
X177570000Y-77570000D01*
X170330000Y-74830000D02*
X170330000Y-77570000D01*
X170330000Y-77570000D02*
X177570000Y-77570000D01*
X170330000Y-74830000D02*
X177570000Y-74830000D01*
X150220000Y-108617936D02*
X150220000Y-109822064D01*
X152040000Y-108617936D02*
X152040000Y-109822064D01*
X164495241Y-118994000D02*
X164495241Y-118364000D01*
X164810241Y-118679000D02*
X164180241Y-118679000D01*
X158069000Y-117242000D02*
X158069000Y-116438000D01*
X158109000Y-117473000D02*
X158109000Y-116207000D01*
X158149000Y-117642000D02*
X158149000Y-116038000D01*
X158189000Y-117780000D02*
X158189000Y-115900000D01*
X158229000Y-117899000D02*
X158229000Y-115781000D01*
X158269000Y-118005000D02*
X158269000Y-115675000D01*
X158309000Y-118102000D02*
X158309000Y-115578000D01*
X158349000Y-118190000D02*
X158349000Y-115490000D01*
X158389000Y-118272000D02*
X158389000Y-115408000D01*
X158429000Y-118349000D02*
X158429000Y-115331000D01*
X158469000Y-118421000D02*
X158469000Y-115259000D01*
X158509000Y-118490000D02*
X158509000Y-115190000D01*
X158549000Y-118554000D02*
X158549000Y-115126000D01*
X158589000Y-118616000D02*
X158589000Y-115064000D01*
X158629000Y-118674000D02*
X158629000Y-115006000D01*
X158669000Y-118730000D02*
X158669000Y-114950000D01*
X158709000Y-118784000D02*
X158709000Y-114896000D01*
X158749000Y-118835000D02*
X158749000Y-114845000D01*
X158789000Y-118884000D02*
X158789000Y-114796000D01*
X158829000Y-118932000D02*
X158829000Y-114748000D01*
X158869000Y-118977000D02*
X158869000Y-114703000D01*
X158909000Y-119022000D02*
X158909000Y-114658000D01*
X158949000Y-119064000D02*
X158949000Y-114616000D01*
X158989000Y-119105000D02*
X158989000Y-114575000D01*
X159029000Y-115800000D02*
X159029000Y-114535000D01*
X159029000Y-119145000D02*
X159029000Y-117880000D01*
X159069000Y-115800000D02*
X159069000Y-114497000D01*
X159069000Y-119183000D02*
X159069000Y-117880000D01*
X159109000Y-115800000D02*
X159109000Y-114460000D01*
X159109000Y-119220000D02*
X159109000Y-117880000D01*
X159149000Y-115800000D02*
X159149000Y-114424000D01*
X159149000Y-119256000D02*
X159149000Y-117880000D01*
X159189000Y-115800000D02*
X159189000Y-114390000D01*
X159189000Y-119290000D02*
X159189000Y-117880000D01*
X159229000Y-115800000D02*
X159229000Y-114356000D01*
X159229000Y-119324000D02*
X159229000Y-117880000D01*
X159269000Y-115800000D02*
X159269000Y-114324000D01*
X159269000Y-119356000D02*
X159269000Y-117880000D01*
X159309000Y-115800000D02*
X159309000Y-114292000D01*
X159309000Y-119388000D02*
X159309000Y-117880000D01*
X159349000Y-115800000D02*
X159349000Y-114262000D01*
X159349000Y-119418000D02*
X159349000Y-117880000D01*
X159389000Y-115800000D02*
X159389000Y-114233000D01*
X159389000Y-119447000D02*
X159389000Y-117880000D01*
X159429000Y-115800000D02*
X159429000Y-114204000D01*
X159429000Y-119476000D02*
X159429000Y-117880000D01*
X159469000Y-115800000D02*
X159469000Y-114176000D01*
X159469000Y-119504000D02*
X159469000Y-117880000D01*
X159509000Y-115800000D02*
X159509000Y-114150000D01*
X159509000Y-119530000D02*
X159509000Y-117880000D01*
X159549000Y-115800000D02*
X159549000Y-114124000D01*
X159549000Y-119556000D02*
X159549000Y-117880000D01*
X159589000Y-115800000D02*
X159589000Y-114098000D01*
X159589000Y-119582000D02*
X159589000Y-117880000D01*
X159629000Y-115800000D02*
X159629000Y-114074000D01*
X159629000Y-119606000D02*
X159629000Y-117880000D01*
X159669000Y-115800000D02*
X159669000Y-114050000D01*
X159669000Y-119630000D02*
X159669000Y-117880000D01*
X159709000Y-115800000D02*
X159709000Y-114028000D01*
X159709000Y-119652000D02*
X159709000Y-117880000D01*
X159749000Y-115800000D02*
X159749000Y-114006000D01*
X159749000Y-119674000D02*
X159749000Y-117880000D01*
X159789000Y-115800000D02*
X159789000Y-113984000D01*
X159789000Y-119696000D02*
X159789000Y-117880000D01*
X159829000Y-115800000D02*
X159829000Y-113964000D01*
X159829000Y-119716000D02*
X159829000Y-117880000D01*
X159869000Y-115800000D02*
X159869000Y-113944000D01*
X159869000Y-119736000D02*
X159869000Y-117880000D01*
X159909000Y-115800000D02*
X159909000Y-113924000D01*
X159909000Y-119756000D02*
X159909000Y-117880000D01*
X159949000Y-115800000D02*
X159949000Y-113906000D01*
X159949000Y-119774000D02*
X159949000Y-117880000D01*
X159989000Y-115800000D02*
X159989000Y-113888000D01*
X159989000Y-119792000D02*
X159989000Y-117880000D01*
X160029000Y-115800000D02*
X160029000Y-113870000D01*
X160029000Y-119810000D02*
X160029000Y-117880000D01*
X160069000Y-115800000D02*
X160069000Y-113854000D01*
X160069000Y-119826000D02*
X160069000Y-117880000D01*
X160109000Y-115800000D02*
X160109000Y-113838000D01*
X160109000Y-119842000D02*
X160109000Y-117880000D01*
X160149000Y-115800000D02*
X160149000Y-113822000D01*
X160149000Y-119858000D02*
X160149000Y-117880000D01*
X160189000Y-115800000D02*
X160189000Y-113807000D01*
X160189000Y-119873000D02*
X160189000Y-117880000D01*
X160229000Y-115800000D02*
X160229000Y-113793000D01*
X160229000Y-119887000D02*
X160229000Y-117880000D01*
X160269000Y-115800000D02*
X160269000Y-113779000D01*
X160269000Y-119901000D02*
X160269000Y-117880000D01*
X160309000Y-115800000D02*
X160309000Y-113766000D01*
X160309000Y-119914000D02*
X160309000Y-117880000D01*
X160349000Y-115800000D02*
X160349000Y-113754000D01*
X160349000Y-119926000D02*
X160349000Y-117880000D01*
X160389000Y-115800000D02*
X160389000Y-113742000D01*
X160389000Y-119938000D02*
X160389000Y-117880000D01*
X160429000Y-115800000D02*
X160429000Y-113730000D01*
X160429000Y-119950000D02*
X160429000Y-117880000D01*
X160469000Y-115800000D02*
X160469000Y-113719000D01*
X160469000Y-119961000D02*
X160469000Y-117880000D01*
X160509000Y-115800000D02*
X160509000Y-113709000D01*
X160509000Y-119971000D02*
X160509000Y-117880000D01*
X160549000Y-115800000D02*
X160549000Y-113699000D01*
X160549000Y-119981000D02*
X160549000Y-117880000D01*
X160589000Y-115800000D02*
X160589000Y-113690000D01*
X160589000Y-119990000D02*
X160589000Y-117880000D01*
X160630000Y-115800000D02*
X160630000Y-113681000D01*
X160630000Y-119999000D02*
X160630000Y-117880000D01*
X160670000Y-115800000D02*
X160670000Y-113673000D01*
X160670000Y-120007000D02*
X160670000Y-117880000D01*
X160710000Y-115800000D02*
X160710000Y-113665000D01*
X160710000Y-120015000D02*
X160710000Y-117880000D01*
X160750000Y-115800000D02*
X160750000Y-113658000D01*
X160750000Y-120022000D02*
X160750000Y-117880000D01*
X160790000Y-115800000D02*
X160790000Y-113651000D01*
X160790000Y-120029000D02*
X160790000Y-117880000D01*
X160830000Y-115800000D02*
X160830000Y-113645000D01*
X160830000Y-120035000D02*
X160830000Y-117880000D01*
X160870000Y-115800000D02*
X160870000Y-113639000D01*
X160870000Y-120041000D02*
X160870000Y-117880000D01*
X160910000Y-115800000D02*
X160910000Y-113634000D01*
X160910000Y-120046000D02*
X160910000Y-117880000D01*
X160950000Y-115800000D02*
X160950000Y-113629000D01*
X160950000Y-120051000D02*
X160950000Y-117880000D01*
X160990000Y-115800000D02*
X160990000Y-113625000D01*
X160990000Y-120055000D02*
X160990000Y-117880000D01*
X161030000Y-115800000D02*
X161030000Y-113622000D01*
X161030000Y-120058000D02*
X161030000Y-117880000D01*
X161070000Y-115800000D02*
X161070000Y-113618000D01*
X161070000Y-120062000D02*
X161070000Y-117880000D01*
X161110000Y-120064000D02*
X161110000Y-113616000D01*
X161150000Y-120067000D02*
X161150000Y-113613000D01*
X161190000Y-120068000D02*
X161190000Y-113612000D01*
X161230000Y-120070000D02*
X161230000Y-113610000D01*
X161270000Y-120070000D02*
X161270000Y-113610000D01*
X161310000Y-120070000D02*
X161310000Y-113610000D01*
X164580000Y-116840000D02*
G75*
G03X164580000Y-116840000I-3270000J0D01*
G01*
X153067936Y-61320000D02*
X154272064Y-61320000D01*
X153067936Y-63140000D02*
X154272064Y-63140000D01*
X163292064Y-100100000D02*
X162087936Y-100100000D01*
X163292064Y-98280000D02*
X162087936Y-98280000D01*
X155542064Y-77830000D02*
X154337936Y-77830000D01*
X155542064Y-79650000D02*
X154337936Y-79650000D01*
X109887936Y-121010000D02*
X111092064Y-121010000D01*
X109887936Y-122830000D02*
X111092064Y-122830000D01*
X129265000Y-120047936D02*
X129265000Y-121252064D01*
X131085000Y-120047936D02*
X131085000Y-121252064D01*
X113955000Y-55470000D02*
X113955000Y-46130000D01*
X113715000Y-55470000D02*
X113715000Y-46130000D01*
X113835000Y-55470000D02*
X113835000Y-46130000D01*
X102490000Y-50800000D02*
X105980000Y-50800000D01*
X118810000Y-50800000D02*
X115320000Y-50800000D01*
X105980000Y-55470000D02*
X115320000Y-55470000D01*
X105980000Y-46130000D02*
X105980000Y-55470000D01*
X115320000Y-46130000D02*
X105980000Y-46130000D01*
X115320000Y-55470000D02*
X115320000Y-46130000D01*
X113955000Y-101190000D02*
X113955000Y-91850000D01*
X113715000Y-101190000D02*
X113715000Y-91850000D01*
X113835000Y-101190000D02*
X113835000Y-91850000D01*
X102490000Y-96520000D02*
X105980000Y-96520000D01*
X118810000Y-96520000D02*
X115320000Y-96520000D01*
X105980000Y-101190000D02*
X115320000Y-101190000D01*
X105980000Y-91850000D02*
X105980000Y-101190000D01*
X115320000Y-91850000D02*
X105980000Y-91850000D01*
X115320000Y-101190000D02*
X115320000Y-91850000D01*
X105660000Y-61370000D02*
X105660000Y-70710000D01*
X105660000Y-70710000D02*
X115000000Y-70710000D01*
X115000000Y-70710000D02*
X115000000Y-61370000D01*
X115000000Y-61370000D02*
X105660000Y-61370000D01*
X102170000Y-66040000D02*
X105660000Y-66040000D01*
X118490000Y-66040000D02*
X115000000Y-66040000D01*
X107145000Y-61370000D02*
X107145000Y-70710000D01*
X107265000Y-61370000D02*
X107265000Y-70710000D01*
X107025000Y-61370000D02*
X107025000Y-70710000D01*
X105660000Y-76610000D02*
X105660000Y-85950000D01*
X105660000Y-85950000D02*
X115000000Y-85950000D01*
X115000000Y-85950000D02*
X115000000Y-76610000D01*
X115000000Y-76610000D02*
X105660000Y-76610000D01*
X102170000Y-81280000D02*
X105660000Y-81280000D01*
X118490000Y-81280000D02*
X115000000Y-81280000D01*
X107145000Y-76610000D02*
X107145000Y-85950000D01*
X107265000Y-76610000D02*
X107265000Y-85950000D01*
X107025000Y-76610000D02*
X107025000Y-85950000D01*
X127250000Y-111610000D02*
X127250000Y-109370000D01*
X127010000Y-111610000D02*
X127010000Y-109370000D01*
X127130000Y-111610000D02*
X127130000Y-109370000D01*
X122960000Y-110490000D02*
X123610000Y-110490000D01*
X128500000Y-110490000D02*
X127850000Y-110490000D01*
X123610000Y-111610000D02*
X127850000Y-111610000D01*
X123610000Y-109370000D02*
X123610000Y-111610000D01*
X127850000Y-109370000D02*
X123610000Y-109370000D01*
X127850000Y-111610000D02*
X127850000Y-109370000D01*
X124210000Y-114450000D02*
X124210000Y-116690000D01*
X124450000Y-114450000D02*
X124450000Y-116690000D01*
X124330000Y-114450000D02*
X124330000Y-116690000D01*
X128500000Y-115570000D02*
X127850000Y-115570000D01*
X122960000Y-115570000D02*
X123610000Y-115570000D01*
X127850000Y-114450000D02*
X123610000Y-114450000D01*
X127850000Y-116690000D02*
X127850000Y-114450000D01*
X123610000Y-116690000D02*
X127850000Y-116690000D01*
X123610000Y-114450000D02*
X123610000Y-116690000D01*
X186700000Y-64405000D02*
X182400000Y-64405000D01*
X186700000Y-66405000D02*
X186700000Y-64405000D01*
X182400000Y-66405000D02*
X186700000Y-66405000D01*
X164830000Y-81760000D02*
X164830000Y-77460000D01*
X164830000Y-77460000D02*
X162830000Y-77460000D01*
X162830000Y-77460000D02*
X162830000Y-81760000D01*
X157750000Y-106670000D02*
X157750000Y-110970000D01*
X159750000Y-106670000D02*
X157750000Y-106670000D01*
X159750000Y-110970000D02*
X159750000Y-106670000D01*
X164690000Y-126110000D02*
X159290000Y-126110000D01*
X164690000Y-122810000D02*
X159290000Y-122810000D01*
X164690000Y-126110000D02*
X164690000Y-122810000D01*
X107400000Y-140970000D02*
X107400000Y-137370000D01*
X107400000Y-137370000D02*
X122600000Y-137370000D01*
X122600000Y-137370000D02*
X122600000Y-140970000D01*
X122600000Y-140970000D02*
X107400000Y-140970000D01*
X107200000Y-138470000D02*
X107200000Y-137170000D01*
X107200000Y-137170000D02*
X108500000Y-137170000D01*
X165960000Y-136270000D02*
X165960000Y-132970000D01*
X165960000Y-132970000D02*
X160560000Y-132970000D01*
X165960000Y-136270000D02*
X160560000Y-136270000D01*
X85370000Y-58420000D02*
X88170000Y-58420000D01*
X85370000Y-58420000D02*
X85370000Y-80920000D01*
X94970000Y-58420000D02*
X94970000Y-80920000D01*
X92170000Y-58420000D02*
X94970000Y-58420000D01*
X92170000Y-80920000D02*
X94970000Y-80920000D01*
X85370000Y-80920000D02*
X88170000Y-80920000D01*
D11*
X158740000Y-67520000D02*
X158740000Y-69270000D01*
X164495000Y-67520000D02*
X164495000Y-62020000D01*
X158085000Y-67520000D02*
X158085000Y-62020000D01*
X164495000Y-67520000D02*
X163745000Y-67520000D01*
X164495000Y-62020000D02*
X163745000Y-62020000D01*
X158085000Y-62020000D02*
X158835000Y-62020000D01*
X158085000Y-67520000D02*
X158740000Y-67520000D01*
X163840000Y-87420000D02*
X163840000Y-85670000D01*
X158085000Y-87420000D02*
X158085000Y-92920000D01*
X164495000Y-87420000D02*
X164495000Y-92920000D01*
X158085000Y-87420000D02*
X158835000Y-87420000D01*
X158085000Y-92920000D02*
X158835000Y-92920000D01*
X164495000Y-92920000D02*
X163745000Y-92920000D01*
X164495000Y-87420000D02*
X163840000Y-87420000D01*
D10*
X147320000Y-110720000D02*
X147320000Y-109950000D01*
X147320000Y-102640000D02*
X147320000Y-103410000D01*
X148690000Y-109950000D02*
X148690000Y-103410000D01*
X145950000Y-109950000D02*
X148690000Y-109950000D01*
X145950000Y-103410000D02*
X145950000Y-109950000D01*
X148690000Y-103410000D02*
X145950000Y-103410000D01*
X107780000Y-109220000D02*
X105130000Y-109220000D01*
X90340000Y-109220000D02*
X92990000Y-109220000D01*
X105130000Y-106850000D02*
X92990000Y-106850000D01*
X105130000Y-111590000D02*
X105130000Y-106850000D01*
X92990000Y-111590000D02*
X105130000Y-111590000D01*
X92990000Y-106850000D02*
X92990000Y-111590000D01*
X178402064Y-70210000D02*
X177197936Y-70210000D01*
X178402064Y-72030000D02*
X177197936Y-72030000D01*
X185060000Y-60357936D02*
X185060000Y-61562064D01*
X183240000Y-60357936D02*
X183240000Y-61562064D01*
X170782064Y-68220000D02*
X169577936Y-68220000D01*
X170782064Y-66400000D02*
X169577936Y-66400000D01*
X187500000Y-85370000D02*
X178260000Y-85370000D01*
X178260000Y-85370000D02*
X178260000Y-135610000D01*
X178260000Y-135610000D02*
X187500000Y-135610000D01*
X187500000Y-135610000D02*
X187500000Y-85370000D01*
X182880000Y-83990000D02*
X182880000Y-85370000D01*
X182880000Y-136990000D02*
X182880000Y-135610000D01*
X159110000Y-79407936D02*
X159110000Y-80612064D01*
X160930000Y-79407936D02*
X160930000Y-80612064D01*
X154337936Y-85450000D02*
X155542064Y-85450000D01*
X154337936Y-87270000D02*
X155542064Y-87270000D01*
X154337936Y-81640000D02*
X155542064Y-81640000D01*
X154337936Y-83460000D02*
X155542064Y-83460000D01*
X154030000Y-108617936D02*
X154030000Y-109822064D01*
X155850000Y-108617936D02*
X155850000Y-109822064D01*
X161650000Y-108617936D02*
X161650000Y-109822064D01*
X163470000Y-108617936D02*
X163470000Y-109822064D01*
X182520000Y-59022064D02*
X182520000Y-57817936D01*
X180700000Y-59022064D02*
X180700000Y-57817936D01*
X169577936Y-63775000D02*
X170782064Y-63775000D01*
X169577936Y-61955000D02*
X170782064Y-61955000D01*
X154272064Y-66950000D02*
X153067936Y-66950000D01*
X154272064Y-65130000D02*
X153067936Y-65130000D01*
X164432064Y-56240000D02*
X163227936Y-56240000D01*
X164432064Y-58060000D02*
X163227936Y-58060000D01*
X154337936Y-74020000D02*
X155542064Y-74020000D01*
X154337936Y-75840000D02*
X155542064Y-75840000D01*
X152040000Y-135222064D02*
X152040000Y-134017936D01*
X150220000Y-135222064D02*
X150220000Y-134017936D01*
X155850000Y-130207936D02*
X155850000Y-131412064D01*
X154030000Y-130207936D02*
X154030000Y-131412064D01*
X150220000Y-128937936D02*
X150220000Y-130142064D01*
X152040000Y-128937936D02*
X152040000Y-130142064D01*
X152525000Y-105720000D02*
X152525000Y-104790000D01*
X152525000Y-102560000D02*
X152525000Y-103490000D01*
X152525000Y-102560000D02*
X150365000Y-102560000D01*
X152525000Y-105720000D02*
X151065000Y-105720000D01*
X164775000Y-103380000D02*
X163845000Y-103380000D01*
X161615000Y-103380000D02*
X162545000Y-103380000D01*
X161615000Y-103380000D02*
X161615000Y-105540000D01*
X164775000Y-103380000D02*
X164775000Y-104840000D01*
X170490000Y-57025000D02*
X170490000Y-58485000D01*
X167330000Y-57025000D02*
X167330000Y-59185000D01*
X167330000Y-57025000D02*
X168260000Y-57025000D01*
X170490000Y-57025000D02*
X169560000Y-57025000D01*
X115570000Y-130175000D02*
G75*
G03X115570000Y-130175000I-5120000J0D01*
G01*
X110450000Y-125095000D02*
X110450000Y-135255000D01*
X110490000Y-125095000D02*
X110490000Y-135255000D01*
X110530000Y-125095000D02*
X110530000Y-135255000D01*
X110570000Y-125096000D02*
X110570000Y-135254000D01*
X110610000Y-125097000D02*
X110610000Y-135253000D01*
X110650000Y-125098000D02*
X110650000Y-135252000D01*
X110690000Y-125100000D02*
X110690000Y-135250000D01*
X110730000Y-125102000D02*
X110730000Y-135248000D01*
X110770000Y-125105000D02*
X110770000Y-135245000D01*
X110810000Y-125107000D02*
X110810000Y-135243000D01*
X110850000Y-125110000D02*
X110850000Y-135240000D01*
X110890000Y-125113000D02*
X110890000Y-135237000D01*
X110930000Y-125117000D02*
X110930000Y-135233000D01*
X110970000Y-125121000D02*
X110970000Y-135229000D01*
X111010000Y-125125000D02*
X111010000Y-135225000D01*
X111050000Y-125130000D02*
X111050000Y-135220000D01*
X111090000Y-125135000D02*
X111090000Y-135215000D01*
X111130000Y-125140000D02*
X111130000Y-135210000D01*
X111171000Y-125145000D02*
X111171000Y-135205000D01*
X111211000Y-125151000D02*
X111211000Y-135199000D01*
X111251000Y-125157000D02*
X111251000Y-135193000D01*
X111291000Y-125164000D02*
X111291000Y-135186000D01*
X111331000Y-125171000D02*
X111331000Y-135179000D01*
X111371000Y-125178000D02*
X111371000Y-135172000D01*
X111411000Y-125185000D02*
X111411000Y-135165000D01*
X111451000Y-125193000D02*
X111451000Y-135157000D01*
X111491000Y-125201000D02*
X111491000Y-135149000D01*
X111531000Y-125210000D02*
X111531000Y-135140000D01*
X111571000Y-125219000D02*
X111571000Y-135131000D01*
X111611000Y-125228000D02*
X111611000Y-135122000D01*
X111651000Y-125237000D02*
X111651000Y-135113000D01*
X111691000Y-125247000D02*
X111691000Y-135103000D01*
X111731000Y-125257000D02*
X111731000Y-128934000D01*
X111731000Y-131416000D02*
X111731000Y-135093000D01*
X111771000Y-125268000D02*
X111771000Y-128934000D01*
X111771000Y-131416000D02*
X111771000Y-135082000D01*
X111811000Y-125278000D02*
X111811000Y-128934000D01*
X111811000Y-131416000D02*
X111811000Y-135072000D01*
X111851000Y-125290000D02*
X111851000Y-128934000D01*
X111851000Y-131416000D02*
X111851000Y-135060000D01*
X111891000Y-125301000D02*
X111891000Y-128934000D01*
X111891000Y-131416000D02*
X111891000Y-135049000D01*
X111931000Y-125313000D02*
X111931000Y-128934000D01*
X111931000Y-131416000D02*
X111931000Y-135037000D01*
X111971000Y-125325000D02*
X111971000Y-128934000D01*
X111971000Y-131416000D02*
X111971000Y-135025000D01*
X112011000Y-125338000D02*
X112011000Y-128934000D01*
X112011000Y-131416000D02*
X112011000Y-135012000D01*
X112051000Y-125351000D02*
X112051000Y-128934000D01*
X112051000Y-131416000D02*
X112051000Y-134999000D01*
X112091000Y-125364000D02*
X112091000Y-128934000D01*
X112091000Y-131416000D02*
X112091000Y-134986000D01*
X112131000Y-125378000D02*
X112131000Y-128934000D01*
X112131000Y-131416000D02*
X112131000Y-134972000D01*
X112171000Y-125392000D02*
X112171000Y-128934000D01*
X112171000Y-131416000D02*
X112171000Y-134958000D01*
X112211000Y-125407000D02*
X112211000Y-128934000D01*
X112211000Y-131416000D02*
X112211000Y-134943000D01*
X112251000Y-125421000D02*
X112251000Y-128934000D01*
X112251000Y-131416000D02*
X112251000Y-134929000D01*
X112291000Y-125437000D02*
X112291000Y-128934000D01*
X112291000Y-131416000D02*
X112291000Y-134913000D01*
X112331000Y-125452000D02*
X112331000Y-128934000D01*
X112331000Y-131416000D02*
X112331000Y-134898000D01*
X112371000Y-125468000D02*
X112371000Y-128934000D01*
X112371000Y-131416000D02*
X112371000Y-134882000D01*
X112411000Y-125485000D02*
X112411000Y-128934000D01*
X112411000Y-131416000D02*
X112411000Y-134865000D01*
X112451000Y-125501000D02*
X112451000Y-128934000D01*
X112451000Y-131416000D02*
X112451000Y-134849000D01*
X112491000Y-125518000D02*
X112491000Y-128934000D01*
X112491000Y-131416000D02*
X112491000Y-134832000D01*
X112531000Y-125536000D02*
X112531000Y-128934000D01*
X112531000Y-131416000D02*
X112531000Y-134814000D01*
X112571000Y-125554000D02*
X112571000Y-128934000D01*
X112571000Y-131416000D02*
X112571000Y-134796000D01*
X112611000Y-125572000D02*
X112611000Y-128934000D01*
X112611000Y-131416000D02*
X112611000Y-134778000D01*
X112651000Y-125591000D02*
X112651000Y-128934000D01*
X112651000Y-131416000D02*
X112651000Y-134759000D01*
X112691000Y-125611000D02*
X112691000Y-128934000D01*
X112691000Y-131416000D02*
X112691000Y-134739000D01*
X112731000Y-125630000D02*
X112731000Y-128934000D01*
X112731000Y-131416000D02*
X112731000Y-134720000D01*
X112771000Y-125650000D02*
X112771000Y-128934000D01*
X112771000Y-131416000D02*
X112771000Y-134700000D01*
X112811000Y-125671000D02*
X112811000Y-128934000D01*
X112811000Y-131416000D02*
X112811000Y-134679000D01*
X112851000Y-125692000D02*
X112851000Y-128934000D01*
X112851000Y-131416000D02*
X112851000Y-134658000D01*
X112891000Y-125713000D02*
X112891000Y-128934000D01*
X112891000Y-131416000D02*
X112891000Y-134637000D01*
X112931000Y-125735000D02*
X112931000Y-128934000D01*
X112931000Y-131416000D02*
X112931000Y-134615000D01*
X112971000Y-125758000D02*
X112971000Y-128934000D01*
X112971000Y-131416000D02*
X112971000Y-134592000D01*
X113011000Y-125780000D02*
X113011000Y-128934000D01*
X113011000Y-131416000D02*
X113011000Y-134570000D01*
X113051000Y-125804000D02*
X113051000Y-128934000D01*
X113051000Y-131416000D02*
X113051000Y-134546000D01*
X113091000Y-125828000D02*
X113091000Y-128934000D01*
X113091000Y-131416000D02*
X113091000Y-134522000D01*
X113131000Y-125852000D02*
X113131000Y-128934000D01*
X113131000Y-131416000D02*
X113131000Y-134498000D01*
X113171000Y-125877000D02*
X113171000Y-128934000D01*
X113171000Y-131416000D02*
X113171000Y-134473000D01*
X113211000Y-125902000D02*
X113211000Y-128934000D01*
X113211000Y-131416000D02*
X113211000Y-134448000D01*
X113251000Y-125928000D02*
X113251000Y-128934000D01*
X113251000Y-131416000D02*
X113251000Y-134422000D01*
X113291000Y-125954000D02*
X113291000Y-128934000D01*
X113291000Y-131416000D02*
X113291000Y-134396000D01*
X113331000Y-125981000D02*
X113331000Y-128934000D01*
X113331000Y-131416000D02*
X113331000Y-134369000D01*
X113371000Y-126009000D02*
X113371000Y-128934000D01*
X113371000Y-131416000D02*
X113371000Y-134341000D01*
X113411000Y-126037000D02*
X113411000Y-128934000D01*
X113411000Y-131416000D02*
X113411000Y-134313000D01*
X113451000Y-126065000D02*
X113451000Y-128934000D01*
X113451000Y-131416000D02*
X113451000Y-134285000D01*
X113491000Y-126095000D02*
X113491000Y-128934000D01*
X113491000Y-131416000D02*
X113491000Y-134255000D01*
X113531000Y-126125000D02*
X113531000Y-128934000D01*
X113531000Y-131416000D02*
X113531000Y-134225000D01*
X113571000Y-126155000D02*
X113571000Y-128934000D01*
X113571000Y-131416000D02*
X113571000Y-134195000D01*
X113611000Y-126186000D02*
X113611000Y-128934000D01*
X113611000Y-131416000D02*
X113611000Y-134164000D01*
X113651000Y-126218000D02*
X113651000Y-128934000D01*
X113651000Y-131416000D02*
X113651000Y-134132000D01*
X113691000Y-126250000D02*
X113691000Y-128934000D01*
X113691000Y-131416000D02*
X113691000Y-134100000D01*
X113731000Y-126283000D02*
X113731000Y-128934000D01*
X113731000Y-131416000D02*
X113731000Y-134067000D01*
X113771000Y-126317000D02*
X113771000Y-128934000D01*
X113771000Y-131416000D02*
X113771000Y-134033000D01*
X113811000Y-126351000D02*
X113811000Y-128934000D01*
X113811000Y-131416000D02*
X113811000Y-133999000D01*
X113851000Y-126386000D02*
X113851000Y-128934000D01*
X113851000Y-131416000D02*
X113851000Y-133964000D01*
X113891000Y-126422000D02*
X113891000Y-128934000D01*
X113891000Y-131416000D02*
X113891000Y-133928000D01*
X113931000Y-126459000D02*
X113931000Y-128934000D01*
X113931000Y-131416000D02*
X113931000Y-133891000D01*
X113971000Y-126496000D02*
X113971000Y-128934000D01*
X113971000Y-131416000D02*
X113971000Y-133854000D01*
X114011000Y-126535000D02*
X114011000Y-128934000D01*
X114011000Y-131416000D02*
X114011000Y-133815000D01*
X114051000Y-126574000D02*
X114051000Y-128934000D01*
X114051000Y-131416000D02*
X114051000Y-133776000D01*
X114091000Y-126614000D02*
X114091000Y-128934000D01*
X114091000Y-131416000D02*
X114091000Y-133736000D01*
X114131000Y-126655000D02*
X114131000Y-128934000D01*
X114131000Y-131416000D02*
X114131000Y-133695000D01*
X114171000Y-126697000D02*
X114171000Y-128934000D01*
X114171000Y-131416000D02*
X114171000Y-133653000D01*
X114211000Y-126739000D02*
X114211000Y-133611000D01*
X114251000Y-126783000D02*
X114251000Y-133567000D01*
X114291000Y-126828000D02*
X114291000Y-133522000D01*
X114331000Y-126874000D02*
X114331000Y-133476000D01*
X114371000Y-126921000D02*
X114371000Y-133429000D01*
X114411000Y-126969000D02*
X114411000Y-133381000D01*
X114451000Y-127019000D02*
X114451000Y-133331000D01*
X114491000Y-127069000D02*
X114491000Y-133281000D01*
X114531000Y-127121000D02*
X114531000Y-133229000D01*
X114571000Y-127175000D02*
X114571000Y-133175000D01*
X114611000Y-127230000D02*
X114611000Y-133120000D01*
X114651000Y-127286000D02*
X114651000Y-133064000D01*
X114691000Y-127345000D02*
X114691000Y-133005000D01*
X114731000Y-127405000D02*
X114731000Y-132945000D01*
X114771000Y-127466000D02*
X114771000Y-132884000D01*
X114811000Y-127530000D02*
X114811000Y-132820000D01*
X114851000Y-127596000D02*
X114851000Y-132754000D01*
X114891000Y-127665000D02*
X114891000Y-132685000D01*
X114931000Y-127736000D02*
X114931000Y-132614000D01*
X114971000Y-127810000D02*
X114971000Y-132540000D01*
X115011000Y-127886000D02*
X115011000Y-132464000D01*
X115051000Y-127966000D02*
X115051000Y-132384000D01*
X115091000Y-128050000D02*
X115091000Y-132300000D01*
X115131000Y-128138000D02*
X115131000Y-132212000D01*
X115171000Y-128231000D02*
X115171000Y-132119000D01*
X115211000Y-128329000D02*
X115211000Y-132021000D01*
X115251000Y-128433000D02*
X115251000Y-131917000D01*
X115291000Y-128545000D02*
X115291000Y-131805000D01*
X115331000Y-128665000D02*
X115331000Y-131685000D01*
X115371000Y-128797000D02*
X115371000Y-131553000D01*
X115411000Y-128945000D02*
X115411000Y-131405000D01*
X115451000Y-129113000D02*
X115451000Y-131237000D01*
X115491000Y-129313000D02*
X115491000Y-131037000D01*
X115531000Y-129576000D02*
X115531000Y-130774000D01*
X104970354Y-127300000D02*
X105970354Y-127300000D01*
X105470354Y-126800000D02*
X105470354Y-127800000D01*
X142440000Y-116900354D02*
X141440000Y-116900354D01*
X141940000Y-116400354D02*
X141940000Y-117400354D01*
X139664000Y-126961000D02*
X138466000Y-126961000D01*
X139927000Y-126921000D02*
X138203000Y-126921000D01*
X140127000Y-126881000D02*
X138003000Y-126881000D01*
X140295000Y-126841000D02*
X137835000Y-126841000D01*
X140443000Y-126801000D02*
X137687000Y-126801000D01*
X140575000Y-126761000D02*
X137555000Y-126761000D01*
X140695000Y-126721000D02*
X137435000Y-126721000D01*
X140807000Y-126681000D02*
X137323000Y-126681000D01*
X140911000Y-126641000D02*
X137219000Y-126641000D01*
X141009000Y-126601000D02*
X137121000Y-126601000D01*
X141102000Y-126561000D02*
X137028000Y-126561000D01*
X141190000Y-126521000D02*
X136940000Y-126521000D01*
X141274000Y-126481000D02*
X136856000Y-126481000D01*
X141354000Y-126441000D02*
X136776000Y-126441000D01*
X141430000Y-126401000D02*
X136700000Y-126401000D01*
X141504000Y-126361000D02*
X136626000Y-126361000D01*
X141575000Y-126321000D02*
X136555000Y-126321000D01*
X141644000Y-126281000D02*
X136486000Y-126281000D01*
X141710000Y-126241000D02*
X136420000Y-126241000D01*
X141774000Y-126201000D02*
X136356000Y-126201000D01*
X141835000Y-126161000D02*
X136295000Y-126161000D01*
X141895000Y-126121000D02*
X136235000Y-126121000D01*
X141954000Y-126081000D02*
X136176000Y-126081000D01*
X142010000Y-126041000D02*
X136120000Y-126041000D01*
X142065000Y-126001000D02*
X136065000Y-126001000D01*
X142119000Y-125961000D02*
X136011000Y-125961000D01*
X142171000Y-125921000D02*
X135959000Y-125921000D01*
X142221000Y-125881000D02*
X135909000Y-125881000D01*
X142271000Y-125841000D02*
X135859000Y-125841000D01*
X142319000Y-125801000D02*
X135811000Y-125801000D01*
X142366000Y-125761000D02*
X135764000Y-125761000D01*
X142412000Y-125721000D02*
X135718000Y-125721000D01*
X142457000Y-125681000D02*
X135673000Y-125681000D01*
X142501000Y-125641000D02*
X135629000Y-125641000D01*
X137824000Y-125601000D02*
X135587000Y-125601000D01*
X142543000Y-125601000D02*
X140306000Y-125601000D01*
X137824000Y-125561000D02*
X135545000Y-125561000D01*
X142585000Y-125561000D02*
X140306000Y-125561000D01*
X137824000Y-125521000D02*
X135504000Y-125521000D01*
X142626000Y-125521000D02*
X140306000Y-125521000D01*
X137824000Y-125481000D02*
X135464000Y-125481000D01*
X142666000Y-125481000D02*
X140306000Y-125481000D01*
X137824000Y-125441000D02*
X135425000Y-125441000D01*
X142705000Y-125441000D02*
X140306000Y-125441000D01*
X137824000Y-125401000D02*
X135386000Y-125401000D01*
X142744000Y-125401000D02*
X140306000Y-125401000D01*
X137824000Y-125361000D02*
X135349000Y-125361000D01*
X142781000Y-125361000D02*
X140306000Y-125361000D01*
X137824000Y-125321000D02*
X135312000Y-125321000D01*
X142818000Y-125321000D02*
X140306000Y-125321000D01*
X137824000Y-125281000D02*
X135276000Y-125281000D01*
X142854000Y-125281000D02*
X140306000Y-125281000D01*
X137824000Y-125241000D02*
X135241000Y-125241000D01*
X142889000Y-125241000D02*
X140306000Y-125241000D01*
X137824000Y-125201000D02*
X135207000Y-125201000D01*
X142923000Y-125201000D02*
X140306000Y-125201000D01*
X137824000Y-125161000D02*
X135173000Y-125161000D01*
X142957000Y-125161000D02*
X140306000Y-125161000D01*
X137824000Y-125121000D02*
X135140000Y-125121000D01*
X142990000Y-125121000D02*
X140306000Y-125121000D01*
X137824000Y-125081000D02*
X135108000Y-125081000D01*
X143022000Y-125081000D02*
X140306000Y-125081000D01*
X137824000Y-125041000D02*
X135076000Y-125041000D01*
X143054000Y-125041000D02*
X140306000Y-125041000D01*
X137824000Y-125001000D02*
X135045000Y-125001000D01*
X143085000Y-125001000D02*
X140306000Y-125001000D01*
X137824000Y-124961000D02*
X135015000Y-124961000D01*
X143115000Y-124961000D02*
X140306000Y-124961000D01*
X137824000Y-124921000D02*
X134985000Y-124921000D01*
X143145000Y-124921000D02*
X140306000Y-124921000D01*
X137824000Y-124881000D02*
X134955000Y-124881000D01*
X143175000Y-124881000D02*
X140306000Y-124881000D01*
X137824000Y-124841000D02*
X134927000Y-124841000D01*
X143203000Y-124841000D02*
X140306000Y-124841000D01*
X137824000Y-124801000D02*
X134899000Y-124801000D01*
X143231000Y-124801000D02*
X140306000Y-124801000D01*
X137824000Y-124761000D02*
X134871000Y-124761000D01*
X143259000Y-124761000D02*
X140306000Y-124761000D01*
X137824000Y-124721000D02*
X134844000Y-124721000D01*
X143286000Y-124721000D02*
X140306000Y-124721000D01*
X137824000Y-124681000D02*
X134818000Y-124681000D01*
X143312000Y-124681000D02*
X140306000Y-124681000D01*
X137824000Y-124641000D02*
X134792000Y-124641000D01*
X143338000Y-124641000D02*
X140306000Y-124641000D01*
X137824000Y-124601000D02*
X134767000Y-124601000D01*
X143363000Y-124601000D02*
X140306000Y-124601000D01*
X137824000Y-124561000D02*
X134742000Y-124561000D01*
X143388000Y-124561000D02*
X140306000Y-124561000D01*
X137824000Y-124521000D02*
X134718000Y-124521000D01*
X143412000Y-124521000D02*
X140306000Y-124521000D01*
X137824000Y-124481000D02*
X134694000Y-124481000D01*
X143436000Y-124481000D02*
X140306000Y-124481000D01*
X137824000Y-124441000D02*
X134670000Y-124441000D01*
X143460000Y-124441000D02*
X140306000Y-124441000D01*
X137824000Y-124401000D02*
X134648000Y-124401000D01*
X143482000Y-124401000D02*
X140306000Y-124401000D01*
X137824000Y-124361000D02*
X134625000Y-124361000D01*
X143505000Y-124361000D02*
X140306000Y-124361000D01*
X137824000Y-124321000D02*
X134603000Y-124321000D01*
X143527000Y-124321000D02*
X140306000Y-124321000D01*
X137824000Y-124281000D02*
X134582000Y-124281000D01*
X143548000Y-124281000D02*
X140306000Y-124281000D01*
X137824000Y-124241000D02*
X134561000Y-124241000D01*
X143569000Y-124241000D02*
X140306000Y-124241000D01*
X137824000Y-124201000D02*
X134540000Y-124201000D01*
X143590000Y-124201000D02*
X140306000Y-124201000D01*
X137824000Y-124161000D02*
X134520000Y-124161000D01*
X143610000Y-124161000D02*
X140306000Y-124161000D01*
X137824000Y-124121000D02*
X134501000Y-124121000D01*
X143629000Y-124121000D02*
X140306000Y-124121000D01*
X137824000Y-124081000D02*
X134481000Y-124081000D01*
X143649000Y-124081000D02*
X140306000Y-124081000D01*
X137824000Y-124041000D02*
X134462000Y-124041000D01*
X143668000Y-124041000D02*
X140306000Y-124041000D01*
X137824000Y-124001000D02*
X134444000Y-124001000D01*
X143686000Y-124001000D02*
X140306000Y-124001000D01*
X137824000Y-123961000D02*
X134426000Y-123961000D01*
X143704000Y-123961000D02*
X140306000Y-123961000D01*
X137824000Y-123921000D02*
X134408000Y-123921000D01*
X143722000Y-123921000D02*
X140306000Y-123921000D01*
X137824000Y-123881000D02*
X134391000Y-123881000D01*
X143739000Y-123881000D02*
X140306000Y-123881000D01*
X137824000Y-123841000D02*
X134375000Y-123841000D01*
X143755000Y-123841000D02*
X140306000Y-123841000D01*
X137824000Y-123801000D02*
X134358000Y-123801000D01*
X143772000Y-123801000D02*
X140306000Y-123801000D01*
X137824000Y-123761000D02*
X134342000Y-123761000D01*
X143788000Y-123761000D02*
X140306000Y-123761000D01*
X137824000Y-123721000D02*
X134327000Y-123721000D01*
X143803000Y-123721000D02*
X140306000Y-123721000D01*
X137824000Y-123681000D02*
X134311000Y-123681000D01*
X143819000Y-123681000D02*
X140306000Y-123681000D01*
X137824000Y-123641000D02*
X134297000Y-123641000D01*
X143833000Y-123641000D02*
X140306000Y-123641000D01*
X137824000Y-123601000D02*
X134282000Y-123601000D01*
X143848000Y-123601000D02*
X140306000Y-123601000D01*
X137824000Y-123561000D02*
X134268000Y-123561000D01*
X143862000Y-123561000D02*
X140306000Y-123561000D01*
X137824000Y-123521000D02*
X134254000Y-123521000D01*
X143876000Y-123521000D02*
X140306000Y-123521000D01*
X137824000Y-123481000D02*
X134241000Y-123481000D01*
X143889000Y-123481000D02*
X140306000Y-123481000D01*
X137824000Y-123441000D02*
X134228000Y-123441000D01*
X143902000Y-123441000D02*
X140306000Y-123441000D01*
X137824000Y-123401000D02*
X134215000Y-123401000D01*
X143915000Y-123401000D02*
X140306000Y-123401000D01*
X137824000Y-123361000D02*
X134203000Y-123361000D01*
X143927000Y-123361000D02*
X140306000Y-123361000D01*
X137824000Y-123321000D02*
X134191000Y-123321000D01*
X143939000Y-123321000D02*
X140306000Y-123321000D01*
X137824000Y-123281000D02*
X134180000Y-123281000D01*
X143950000Y-123281000D02*
X140306000Y-123281000D01*
X137824000Y-123241000D02*
X134168000Y-123241000D01*
X143962000Y-123241000D02*
X140306000Y-123241000D01*
X137824000Y-123201000D02*
X134158000Y-123201000D01*
X143972000Y-123201000D02*
X140306000Y-123201000D01*
X137824000Y-123161000D02*
X134147000Y-123161000D01*
X143983000Y-123161000D02*
X140306000Y-123161000D01*
X143993000Y-123121000D02*
X134137000Y-123121000D01*
X144003000Y-123081000D02*
X134127000Y-123081000D01*
X144012000Y-123041000D02*
X134118000Y-123041000D01*
X144021000Y-123001000D02*
X134109000Y-123001000D01*
X144030000Y-122961000D02*
X134100000Y-122961000D01*
X144039000Y-122921000D02*
X134091000Y-122921000D01*
X144047000Y-122881000D02*
X134083000Y-122881000D01*
X144055000Y-122841000D02*
X134075000Y-122841000D01*
X144062000Y-122801000D02*
X134068000Y-122801000D01*
X144069000Y-122761000D02*
X134061000Y-122761000D01*
X144076000Y-122721000D02*
X134054000Y-122721000D01*
X144083000Y-122681000D02*
X134047000Y-122681000D01*
X144089000Y-122641000D02*
X134041000Y-122641000D01*
X144095000Y-122601000D02*
X134035000Y-122601000D01*
X144100000Y-122560000D02*
X134030000Y-122560000D01*
X144105000Y-122520000D02*
X134025000Y-122520000D01*
X144110000Y-122480000D02*
X134020000Y-122480000D01*
X144115000Y-122440000D02*
X134015000Y-122440000D01*
X144119000Y-122400000D02*
X134011000Y-122400000D01*
X144123000Y-122360000D02*
X134007000Y-122360000D01*
X144127000Y-122320000D02*
X134003000Y-122320000D01*
X144130000Y-122280000D02*
X134000000Y-122280000D01*
X144133000Y-122240000D02*
X133997000Y-122240000D01*
X144135000Y-122200000D02*
X133995000Y-122200000D01*
X144138000Y-122160000D02*
X133992000Y-122160000D01*
X144140000Y-122120000D02*
X133990000Y-122120000D01*
X144142000Y-122080000D02*
X133988000Y-122080000D01*
X144143000Y-122040000D02*
X133987000Y-122040000D01*
X144144000Y-122000000D02*
X133986000Y-122000000D01*
X144145000Y-121960000D02*
X133985000Y-121960000D01*
X144145000Y-121920000D02*
X133985000Y-121920000D01*
X144145000Y-121880000D02*
X133985000Y-121880000D01*
X144185000Y-121880000D02*
G75*
G03X144185000Y-121880000I-5120000J0D01*
G01*
D11*
X131913333Y-97447380D02*
X131580000Y-96971190D01*
X131341904Y-97447380D02*
X131341904Y-96447380D01*
X131722857Y-96447380D01*
X131818095Y-96495000D01*
X131865714Y-96542619D01*
X131913333Y-96637857D01*
X131913333Y-96780714D01*
X131865714Y-96875952D01*
X131818095Y-96923571D01*
X131722857Y-96971190D01*
X131341904Y-96971190D01*
X132865714Y-97447380D02*
X132294285Y-97447380D01*
X132580000Y-97447380D02*
X132580000Y-96447380D01*
X132484761Y-96590238D01*
X132389523Y-96685476D01*
X132294285Y-96733095D01*
X121912142Y-104762380D02*
X121578809Y-104286190D01*
X121340714Y-104762380D02*
X121340714Y-103762380D01*
X121721666Y-103762380D01*
X121816904Y-103810000D01*
X121864523Y-103857619D01*
X121912142Y-103952857D01*
X121912142Y-104095714D01*
X121864523Y-104190952D01*
X121816904Y-104238571D01*
X121721666Y-104286190D01*
X121340714Y-104286190D01*
X122245476Y-103762380D02*
X122864523Y-103762380D01*
X122531190Y-104143333D01*
X122674047Y-104143333D01*
X122769285Y-104190952D01*
X122816904Y-104238571D01*
X122864523Y-104333809D01*
X122864523Y-104571904D01*
X122816904Y-104667142D01*
X122769285Y-104714761D01*
X122674047Y-104762380D01*
X122388333Y-104762380D01*
X122293095Y-104714761D01*
X122245476Y-104667142D01*
X123197857Y-103762380D02*
X123816904Y-103762380D01*
X123483571Y-104143333D01*
X123626428Y-104143333D01*
X123721666Y-104190952D01*
X123769285Y-104238571D01*
X123816904Y-104333809D01*
X123816904Y-104571904D01*
X123769285Y-104667142D01*
X123721666Y-104714761D01*
X123626428Y-104762380D01*
X123340714Y-104762380D01*
X123245476Y-104714761D01*
X123197857Y-104667142D01*
X148992380Y-122681904D02*
X149801904Y-122681904D01*
X149897142Y-122634285D01*
X149944761Y-122586666D01*
X149992380Y-122491428D01*
X149992380Y-122300952D01*
X149944761Y-122205714D01*
X149897142Y-122158095D01*
X149801904Y-122110476D01*
X148992380Y-122110476D01*
X148992380Y-121729523D02*
X148992380Y-121110476D01*
X149373333Y-121443809D01*
X149373333Y-121300952D01*
X149420952Y-121205714D01*
X149468571Y-121158095D01*
X149563809Y-121110476D01*
X149801904Y-121110476D01*
X149897142Y-121158095D01*
X149944761Y-121205714D01*
X149992380Y-121300952D01*
X149992380Y-121586666D01*
X149944761Y-121681904D01*
X149897142Y-121729523D01*
X172553333Y-142057380D02*
X172220000Y-141581190D01*
X171981904Y-142057380D02*
X171981904Y-141057380D01*
X172362857Y-141057380D01*
X172458095Y-141105000D01*
X172505714Y-141152619D01*
X172553333Y-141247857D01*
X172553333Y-141390714D01*
X172505714Y-141485952D01*
X172458095Y-141533571D01*
X172362857Y-141581190D01*
X171981904Y-141581190D01*
X173124761Y-141485952D02*
X173029523Y-141438333D01*
X172981904Y-141390714D01*
X172934285Y-141295476D01*
X172934285Y-141247857D01*
X172981904Y-141152619D01*
X173029523Y-141105000D01*
X173124761Y-141057380D01*
X173315238Y-141057380D01*
X173410476Y-141105000D01*
X173458095Y-141152619D01*
X173505714Y-141247857D01*
X173505714Y-141295476D01*
X173458095Y-141390714D01*
X173410476Y-141438333D01*
X173315238Y-141485952D01*
X173124761Y-141485952D01*
X173029523Y-141533571D01*
X172981904Y-141581190D01*
X172934285Y-141676428D01*
X172934285Y-141866904D01*
X172981904Y-141962142D01*
X173029523Y-142009761D01*
X173124761Y-142057380D01*
X173315238Y-142057380D01*
X173410476Y-142009761D01*
X173458095Y-141962142D01*
X173505714Y-141866904D01*
X173505714Y-141676428D01*
X173458095Y-141581190D01*
X173410476Y-141533571D01*
X173315238Y-141485952D01*
X132770714Y-110307380D02*
X132770714Y-109307380D01*
X133008809Y-109307380D01*
X133151666Y-109355000D01*
X133246904Y-109450238D01*
X133294523Y-109545476D01*
X133342142Y-109735952D01*
X133342142Y-109878809D01*
X133294523Y-110069285D01*
X133246904Y-110164523D01*
X133151666Y-110259761D01*
X133008809Y-110307380D01*
X132770714Y-110307380D01*
X134294523Y-110307380D02*
X133723095Y-110307380D01*
X134008809Y-110307380D02*
X134008809Y-109307380D01*
X133913571Y-109450238D01*
X133818333Y-109545476D01*
X133723095Y-109593095D01*
X135199285Y-109307380D02*
X134723095Y-109307380D01*
X134675476Y-109783571D01*
X134723095Y-109735952D01*
X134818333Y-109688333D01*
X135056428Y-109688333D01*
X135151666Y-109735952D01*
X135199285Y-109783571D01*
X135246904Y-109878809D01*
X135246904Y-110116904D01*
X135199285Y-110212142D01*
X135151666Y-110259761D01*
X135056428Y-110307380D01*
X134818333Y-110307380D01*
X134723095Y-110259761D01*
X134675476Y-110212142D01*
X140152380Y-109958095D02*
X139152380Y-109958095D01*
X139152380Y-109720000D01*
X139200000Y-109577142D01*
X139295238Y-109481904D01*
X139390476Y-109434285D01*
X139580952Y-109386666D01*
X139723809Y-109386666D01*
X139914285Y-109434285D01*
X140009523Y-109481904D01*
X140104761Y-109577142D01*
X140152380Y-109720000D01*
X140152380Y-109958095D01*
X139152380Y-109053333D02*
X139152380Y-108386666D01*
X140152380Y-108815238D01*
X144792380Y-104401904D02*
X143792380Y-104401904D01*
X144792380Y-103830476D02*
X144220952Y-104259047D01*
X143792380Y-103830476D02*
X144363809Y-104401904D01*
X145952380Y-97162857D02*
X145476190Y-97496190D01*
X145952380Y-97734285D02*
X144952380Y-97734285D01*
X144952380Y-97353333D01*
X145000000Y-97258095D01*
X145047619Y-97210476D01*
X145142857Y-97162857D01*
X145285714Y-97162857D01*
X145380952Y-97210476D01*
X145428571Y-97258095D01*
X145476190Y-97353333D01*
X145476190Y-97734285D01*
X145952380Y-96210476D02*
X145952380Y-96781904D01*
X145952380Y-96496190D02*
X144952380Y-96496190D01*
X145095238Y-96591428D01*
X145190476Y-96686666D01*
X145238095Y-96781904D01*
X145285714Y-95353333D02*
X145952380Y-95353333D01*
X144904761Y-95591428D02*
X145619047Y-95829523D01*
X145619047Y-95210476D01*
X121158095Y-120912380D02*
X121158095Y-121721904D01*
X121205714Y-121817142D01*
X121253333Y-121864761D01*
X121348571Y-121912380D01*
X121539047Y-121912380D01*
X121634285Y-121864761D01*
X121681904Y-121817142D01*
X121729523Y-121721904D01*
X121729523Y-120912380D01*
X122158095Y-121007619D02*
X122205714Y-120960000D01*
X122300952Y-120912380D01*
X122539047Y-120912380D01*
X122634285Y-120960000D01*
X122681904Y-121007619D01*
X122729523Y-121102857D01*
X122729523Y-121198095D01*
X122681904Y-121340952D01*
X122110476Y-121912380D01*
X122729523Y-121912380D01*
X151757142Y-98962380D02*
X151423809Y-98486190D01*
X151185714Y-98962380D02*
X151185714Y-97962380D01*
X151566666Y-97962380D01*
X151661904Y-98010000D01*
X151709523Y-98057619D01*
X151757142Y-98152857D01*
X151757142Y-98295714D01*
X151709523Y-98390952D01*
X151661904Y-98438571D01*
X151566666Y-98486190D01*
X151185714Y-98486190D01*
X152709523Y-98962380D02*
X152138095Y-98962380D01*
X152423809Y-98962380D02*
X152423809Y-97962380D01*
X152328571Y-98105238D01*
X152233333Y-98200476D01*
X152138095Y-98248095D01*
X153042857Y-97962380D02*
X153661904Y-97962380D01*
X153328571Y-98343333D01*
X153471428Y-98343333D01*
X153566666Y-98390952D01*
X153614285Y-98438571D01*
X153661904Y-98533809D01*
X153661904Y-98771904D01*
X153614285Y-98867142D01*
X153566666Y-98914761D01*
X153471428Y-98962380D01*
X153185714Y-98962380D01*
X153090476Y-98914761D01*
X153042857Y-98867142D01*
X153087142Y-89392380D02*
X152753809Y-88916190D01*
X152515714Y-89392380D02*
X152515714Y-88392380D01*
X152896666Y-88392380D01*
X152991904Y-88440000D01*
X153039523Y-88487619D01*
X153087142Y-88582857D01*
X153087142Y-88725714D01*
X153039523Y-88820952D01*
X152991904Y-88868571D01*
X152896666Y-88916190D01*
X152515714Y-88916190D01*
X153468095Y-88487619D02*
X153515714Y-88440000D01*
X153610952Y-88392380D01*
X153849047Y-88392380D01*
X153944285Y-88440000D01*
X153991904Y-88487619D01*
X154039523Y-88582857D01*
X154039523Y-88678095D01*
X153991904Y-88820952D01*
X153420476Y-89392380D01*
X154039523Y-89392380D01*
X154896666Y-88392380D02*
X154706190Y-88392380D01*
X154610952Y-88440000D01*
X154563333Y-88487619D01*
X154468095Y-88630476D01*
X154420476Y-88820952D01*
X154420476Y-89201904D01*
X154468095Y-89297142D01*
X154515714Y-89344761D01*
X154610952Y-89392380D01*
X154801428Y-89392380D01*
X154896666Y-89344761D01*
X154944285Y-89297142D01*
X154991904Y-89201904D01*
X154991904Y-88963809D01*
X154944285Y-88868571D01*
X154896666Y-88820952D01*
X154801428Y-88773333D01*
X154610952Y-88773333D01*
X154515714Y-88820952D01*
X154468095Y-88868571D01*
X154420476Y-88963809D01*
X196635714Y-90407142D02*
X197302380Y-90169047D01*
X196635714Y-89930952D01*
X196635714Y-89645238D02*
X197302380Y-89407142D01*
X196635714Y-89169047D02*
X197302380Y-89407142D01*
X197540476Y-89502380D01*
X197588095Y-89550000D01*
X197635714Y-89645238D01*
X196254761Y-89311904D02*
X196397619Y-89454761D01*
X197254761Y-88835714D02*
X197302380Y-88740476D01*
X197302380Y-88550000D01*
X197254761Y-88454761D01*
X197159523Y-88407142D01*
X197111904Y-88407142D01*
X197016666Y-88454761D01*
X196969047Y-88550000D01*
X196969047Y-88692857D01*
X196921428Y-88788095D01*
X196826190Y-88835714D01*
X196778571Y-88835714D01*
X196683333Y-88788095D01*
X196635714Y-88692857D01*
X196635714Y-88550000D01*
X196683333Y-88454761D01*
X196635714Y-88121428D02*
X196635714Y-87740476D01*
X196302380Y-87978571D02*
X197159523Y-87978571D01*
X197254761Y-87930952D01*
X197302380Y-87835714D01*
X197302380Y-87740476D01*
X196635714Y-86978571D02*
X197302380Y-86978571D01*
X196635714Y-87407142D02*
X197159523Y-87407142D01*
X197254761Y-87359523D01*
X197302380Y-87264285D01*
X197302380Y-87121428D01*
X197254761Y-87026190D01*
X197207142Y-86978571D01*
X196635714Y-86502380D02*
X197635714Y-86502380D01*
X196683333Y-86502380D02*
X196635714Y-86407142D01*
X196635714Y-86216666D01*
X196683333Y-86121428D01*
X196730952Y-86073809D01*
X196826190Y-86026190D01*
X197111904Y-86026190D01*
X197207142Y-86073809D01*
X197254761Y-86121428D01*
X197302380Y-86216666D01*
X197302380Y-86407142D01*
X197254761Y-86502380D01*
X196635714Y-84835714D02*
X197302380Y-84835714D01*
X196730952Y-84835714D02*
X196683333Y-84788095D01*
X196635714Y-84692857D01*
X196635714Y-84550000D01*
X196683333Y-84454761D01*
X196778571Y-84407142D01*
X197302380Y-84407142D01*
X197302380Y-83502380D02*
X196778571Y-83502380D01*
X196683333Y-83550000D01*
X196635714Y-83645238D01*
X196635714Y-83835714D01*
X196683333Y-83930952D01*
X197254761Y-83502380D02*
X197302380Y-83597619D01*
X197302380Y-83835714D01*
X197254761Y-83930952D01*
X197159523Y-83978571D01*
X197064285Y-83978571D01*
X196969047Y-83930952D01*
X196921428Y-83835714D01*
X196921428Y-83597619D01*
X196873809Y-83502380D01*
X196635714Y-82407142D02*
X196635714Y-82026190D01*
X196302380Y-82264285D02*
X197159523Y-82264285D01*
X197254761Y-82216666D01*
X197302380Y-82121428D01*
X197302380Y-82026190D01*
X197302380Y-81692857D02*
X196635714Y-81692857D01*
X196826190Y-81692857D02*
X196730952Y-81645238D01*
X196683333Y-81597619D01*
X196635714Y-81502380D01*
X196635714Y-81407142D01*
X197302380Y-80645238D02*
X196778571Y-80645238D01*
X196683333Y-80692857D01*
X196635714Y-80788095D01*
X196635714Y-80978571D01*
X196683333Y-81073809D01*
X197254761Y-80645238D02*
X197302380Y-80740476D01*
X197302380Y-80978571D01*
X197254761Y-81073809D01*
X197159523Y-81121428D01*
X197064285Y-81121428D01*
X196969047Y-81073809D01*
X196921428Y-80978571D01*
X196921428Y-80740476D01*
X196873809Y-80645238D01*
X196635714Y-80169047D02*
X197302380Y-80169047D01*
X196730952Y-80169047D02*
X196683333Y-80121428D01*
X196635714Y-80026190D01*
X196635714Y-79883333D01*
X196683333Y-79788095D01*
X196778571Y-79740476D01*
X197302380Y-79740476D01*
X196635714Y-79359523D02*
X196635714Y-78835714D01*
X197302380Y-79359523D01*
X197302380Y-78835714D01*
X197302380Y-78454761D02*
X196635714Y-78454761D01*
X196302380Y-78454761D02*
X196350000Y-78502380D01*
X196397619Y-78454761D01*
X196350000Y-78407142D01*
X196302380Y-78454761D01*
X196397619Y-78454761D01*
X197254761Y-78026190D02*
X197302380Y-77930952D01*
X197302380Y-77740476D01*
X197254761Y-77645238D01*
X197159523Y-77597619D01*
X197111904Y-77597619D01*
X197016666Y-77645238D01*
X196969047Y-77740476D01*
X196969047Y-77883333D01*
X196921428Y-77978571D01*
X196826190Y-78026190D01*
X196778571Y-78026190D01*
X196683333Y-77978571D01*
X196635714Y-77883333D01*
X196635714Y-77740476D01*
X196683333Y-77645238D01*
X196635714Y-77311904D02*
X196635714Y-76930952D01*
X196302380Y-77169047D02*
X197159523Y-77169047D01*
X197254761Y-77121428D01*
X197302380Y-77026190D01*
X197302380Y-76930952D01*
X197302380Y-76454761D02*
X197254761Y-76550000D01*
X197207142Y-76597619D01*
X197111904Y-76645238D01*
X196826190Y-76645238D01*
X196730952Y-76597619D01*
X196683333Y-76550000D01*
X196635714Y-76454761D01*
X196635714Y-76311904D01*
X196683333Y-76216666D01*
X196730952Y-76169047D01*
X196826190Y-76121428D01*
X197111904Y-76121428D01*
X197207142Y-76169047D01*
X197254761Y-76216666D01*
X197302380Y-76311904D01*
X197302380Y-76454761D01*
X197302380Y-75692857D02*
X196635714Y-75692857D01*
X196826190Y-75692857D02*
X196730952Y-75645238D01*
X196683333Y-75597619D01*
X196635714Y-75502380D01*
X196635714Y-75407142D01*
X196635714Y-75169047D02*
X197302380Y-74930952D01*
X196635714Y-74692857D02*
X197302380Y-74930952D01*
X197540476Y-75026190D01*
X197588095Y-75073809D01*
X197635714Y-75169047D01*
X196635714Y-116069285D02*
X197302380Y-115831190D01*
X196635714Y-115593095D01*
X196635714Y-115307380D02*
X197302380Y-115069285D01*
X196635714Y-114831190D02*
X197302380Y-115069285D01*
X197540476Y-115164523D01*
X197588095Y-115212142D01*
X197635714Y-115307380D01*
X196254761Y-114974047D02*
X196397619Y-115116904D01*
X197254761Y-114497857D02*
X197302380Y-114402619D01*
X197302380Y-114212142D01*
X197254761Y-114116904D01*
X197159523Y-114069285D01*
X197111904Y-114069285D01*
X197016666Y-114116904D01*
X196969047Y-114212142D01*
X196969047Y-114355000D01*
X196921428Y-114450238D01*
X196826190Y-114497857D01*
X196778571Y-114497857D01*
X196683333Y-114450238D01*
X196635714Y-114355000D01*
X196635714Y-114212142D01*
X196683333Y-114116904D01*
X196635714Y-113783571D02*
X196635714Y-113402619D01*
X196302380Y-113640714D02*
X197159523Y-113640714D01*
X197254761Y-113593095D01*
X197302380Y-113497857D01*
X197302380Y-113402619D01*
X196635714Y-112640714D02*
X197302380Y-112640714D01*
X196635714Y-113069285D02*
X197159523Y-113069285D01*
X197254761Y-113021666D01*
X197302380Y-112926428D01*
X197302380Y-112783571D01*
X197254761Y-112688333D01*
X197207142Y-112640714D01*
X196635714Y-112164523D02*
X197635714Y-112164523D01*
X196683333Y-112164523D02*
X196635714Y-112069285D01*
X196635714Y-111878809D01*
X196683333Y-111783571D01*
X196730952Y-111735952D01*
X196826190Y-111688333D01*
X197111904Y-111688333D01*
X197207142Y-111735952D01*
X197254761Y-111783571D01*
X197302380Y-111878809D01*
X197302380Y-112069285D01*
X197254761Y-112164523D01*
X196635714Y-110497857D02*
X197302380Y-110497857D01*
X196730952Y-110497857D02*
X196683333Y-110450238D01*
X196635714Y-110355000D01*
X196635714Y-110212142D01*
X196683333Y-110116904D01*
X196778571Y-110069285D01*
X197302380Y-110069285D01*
X197302380Y-109164523D02*
X196778571Y-109164523D01*
X196683333Y-109212142D01*
X196635714Y-109307380D01*
X196635714Y-109497857D01*
X196683333Y-109593095D01*
X197254761Y-109164523D02*
X197302380Y-109259761D01*
X197302380Y-109497857D01*
X197254761Y-109593095D01*
X197159523Y-109640714D01*
X197064285Y-109640714D01*
X196969047Y-109593095D01*
X196921428Y-109497857D01*
X196921428Y-109259761D01*
X196873809Y-109164523D01*
X197254761Y-107974047D02*
X197302380Y-107878809D01*
X197302380Y-107688333D01*
X197254761Y-107593095D01*
X197159523Y-107545476D01*
X197111904Y-107545476D01*
X197016666Y-107593095D01*
X196969047Y-107688333D01*
X196969047Y-107831190D01*
X196921428Y-107926428D01*
X196826190Y-107974047D01*
X196778571Y-107974047D01*
X196683333Y-107926428D01*
X196635714Y-107831190D01*
X196635714Y-107688333D01*
X196683333Y-107593095D01*
X196635714Y-107212142D02*
X197302380Y-106974047D01*
X196635714Y-106735952D01*
X197302380Y-106212142D02*
X197254761Y-106307380D01*
X197207142Y-106355000D01*
X197111904Y-106402619D01*
X196826190Y-106402619D01*
X196730952Y-106355000D01*
X196683333Y-106307380D01*
X196635714Y-106212142D01*
X196635714Y-106069285D01*
X196683333Y-105974047D01*
X196730952Y-105926428D01*
X196826190Y-105878809D01*
X197111904Y-105878809D01*
X197207142Y-105926428D01*
X197254761Y-105974047D01*
X197302380Y-106069285D01*
X197302380Y-106212142D01*
X197302380Y-105450238D02*
X196635714Y-105450238D01*
X196826190Y-105450238D02*
X196730952Y-105402619D01*
X196683333Y-105355000D01*
X196635714Y-105259761D01*
X196635714Y-105164523D01*
X197302380Y-104831190D02*
X196302380Y-104831190D01*
X196921428Y-104735952D02*
X197302380Y-104450238D01*
X196635714Y-104450238D02*
X197016666Y-104831190D01*
X196635714Y-104116904D02*
X197302380Y-103878809D01*
X196635714Y-103640714D02*
X197302380Y-103878809D01*
X197540476Y-103974047D01*
X197588095Y-104021666D01*
X197635714Y-104116904D01*
X159752380Y-103512857D02*
X159276190Y-103846190D01*
X159752380Y-104084285D02*
X158752380Y-104084285D01*
X158752380Y-103703333D01*
X158800000Y-103608095D01*
X158847619Y-103560476D01*
X158942857Y-103512857D01*
X159085714Y-103512857D01*
X159180952Y-103560476D01*
X159228571Y-103608095D01*
X159276190Y-103703333D01*
X159276190Y-104084285D01*
X159752380Y-102560476D02*
X159752380Y-103131904D01*
X159752380Y-102846190D02*
X158752380Y-102846190D01*
X158895238Y-102941428D01*
X158990476Y-103036666D01*
X159038095Y-103131904D01*
X158752380Y-101655714D02*
X158752380Y-102131904D01*
X159228571Y-102179523D01*
X159180952Y-102131904D01*
X159133333Y-102036666D01*
X159133333Y-101798571D01*
X159180952Y-101703333D01*
X159228571Y-101655714D01*
X159323809Y-101608095D01*
X159561904Y-101608095D01*
X159657142Y-101655714D01*
X159704761Y-101703333D01*
X159752380Y-101798571D01*
X159752380Y-102036666D01*
X159704761Y-102131904D01*
X159657142Y-102179523D01*
X188732380Y-74660000D02*
X187732380Y-74660000D01*
X187732380Y-73993333D02*
X187732380Y-73802857D01*
X187780000Y-73707619D01*
X187875238Y-73612380D01*
X188065714Y-73564761D01*
X188399047Y-73564761D01*
X188589523Y-73612380D01*
X188684761Y-73707619D01*
X188732380Y-73802857D01*
X188732380Y-73993333D01*
X188684761Y-74088571D01*
X188589523Y-74183809D01*
X188399047Y-74231428D01*
X188065714Y-74231428D01*
X187875238Y-74183809D01*
X187780000Y-74088571D01*
X187732380Y-73993333D01*
X187827619Y-73183809D02*
X187780000Y-73136190D01*
X187732380Y-73040952D01*
X187732380Y-72802857D01*
X187780000Y-72707619D01*
X187827619Y-72660000D01*
X187922857Y-72612380D01*
X188018095Y-72612380D01*
X188160952Y-72660000D01*
X188732380Y-73231428D01*
X188732380Y-72612380D01*
X153027142Y-68397380D02*
X152693809Y-67921190D01*
X152455714Y-68397380D02*
X152455714Y-67397380D01*
X152836666Y-67397380D01*
X152931904Y-67445000D01*
X152979523Y-67492619D01*
X153027142Y-67587857D01*
X153027142Y-67730714D01*
X152979523Y-67825952D01*
X152931904Y-67873571D01*
X152836666Y-67921190D01*
X152455714Y-67921190D01*
X153979523Y-68397380D02*
X153408095Y-68397380D01*
X153693809Y-68397380D02*
X153693809Y-67397380D01*
X153598571Y-67540238D01*
X153503333Y-67635476D01*
X153408095Y-67683095D01*
X154312857Y-67397380D02*
X154979523Y-67397380D01*
X154550952Y-68397380D01*
X180792380Y-62968095D02*
X179792380Y-62968095D01*
X179792380Y-62587142D01*
X179840000Y-62491904D01*
X179887619Y-62444285D01*
X179982857Y-62396666D01*
X180125714Y-62396666D01*
X180220952Y-62444285D01*
X180268571Y-62491904D01*
X180316190Y-62587142D01*
X180316190Y-62968095D01*
X180792380Y-61444285D02*
X180792380Y-62015714D01*
X180792380Y-61730000D02*
X179792380Y-61730000D01*
X179935238Y-61825238D01*
X180030476Y-61920476D01*
X180078095Y-62015714D01*
X174992380Y-59062857D02*
X174516190Y-59396190D01*
X174992380Y-59634285D02*
X173992380Y-59634285D01*
X173992380Y-59253333D01*
X174040000Y-59158095D01*
X174087619Y-59110476D01*
X174182857Y-59062857D01*
X174325714Y-59062857D01*
X174420952Y-59110476D01*
X174468571Y-59158095D01*
X174516190Y-59253333D01*
X174516190Y-59634285D01*
X174992380Y-58110476D02*
X174992380Y-58681904D01*
X174992380Y-58396190D02*
X173992380Y-58396190D01*
X174135238Y-58491428D01*
X174230476Y-58586666D01*
X174278095Y-58681904D01*
X174992380Y-57634285D02*
X174992380Y-57443809D01*
X174944761Y-57348571D01*
X174897142Y-57300952D01*
X174754285Y-57205714D01*
X174563809Y-57158095D01*
X174182857Y-57158095D01*
X174087619Y-57205714D01*
X174040000Y-57253333D01*
X173992380Y-57348571D01*
X173992380Y-57539047D01*
X174040000Y-57634285D01*
X174087619Y-57681904D01*
X174182857Y-57729523D01*
X174420952Y-57729523D01*
X174516190Y-57681904D01*
X174563809Y-57634285D01*
X174611428Y-57539047D01*
X174611428Y-57348571D01*
X174563809Y-57253333D01*
X174516190Y-57205714D01*
X174420952Y-57158095D01*
X159258095Y-131492380D02*
X159829523Y-131492380D01*
X159543809Y-132492380D02*
X159543809Y-131492380D01*
X160591428Y-131492380D02*
X160400952Y-131492380D01*
X160305714Y-131540000D01*
X160258095Y-131587619D01*
X160162857Y-131730476D01*
X160115238Y-131920952D01*
X160115238Y-132301904D01*
X160162857Y-132397142D01*
X160210476Y-132444761D01*
X160305714Y-132492380D01*
X160496190Y-132492380D01*
X160591428Y-132444761D01*
X160639047Y-132397142D01*
X160686666Y-132301904D01*
X160686666Y-132063809D01*
X160639047Y-131968571D01*
X160591428Y-131920952D01*
X160496190Y-131873333D01*
X160305714Y-131873333D01*
X160210476Y-131920952D01*
X160162857Y-131968571D01*
X160115238Y-132063809D01*
X149762380Y-140342857D02*
X149286190Y-140676190D01*
X149762380Y-140914285D02*
X148762380Y-140914285D01*
X148762380Y-140533333D01*
X148810000Y-140438095D01*
X148857619Y-140390476D01*
X148952857Y-140342857D01*
X149095714Y-140342857D01*
X149190952Y-140390476D01*
X149238571Y-140438095D01*
X149286190Y-140533333D01*
X149286190Y-140914285D01*
X148762380Y-140009523D02*
X148762380Y-139390476D01*
X149143333Y-139723809D01*
X149143333Y-139580952D01*
X149190952Y-139485714D01*
X149238571Y-139438095D01*
X149333809Y-139390476D01*
X149571904Y-139390476D01*
X149667142Y-139438095D01*
X149714761Y-139485714D01*
X149762380Y-139580952D01*
X149762380Y-139866666D01*
X149714761Y-139961904D01*
X149667142Y-140009523D01*
X148762380Y-138771428D02*
X148762380Y-138676190D01*
X148810000Y-138580952D01*
X148857619Y-138533333D01*
X148952857Y-138485714D01*
X149143333Y-138438095D01*
X149381428Y-138438095D01*
X149571904Y-138485714D01*
X149667142Y-138533333D01*
X149714761Y-138580952D01*
X149762380Y-138676190D01*
X149762380Y-138771428D01*
X149714761Y-138866666D01*
X149667142Y-138914285D01*
X149571904Y-138961904D01*
X149381428Y-139009523D01*
X149143333Y-139009523D01*
X148952857Y-138961904D01*
X148857619Y-138914285D01*
X148810000Y-138866666D01*
X148762380Y-138771428D01*
X153122380Y-139080714D02*
X153122380Y-138509285D01*
X154122380Y-138795000D02*
X153122380Y-138795000D01*
X154122380Y-138175952D02*
X153122380Y-138175952D01*
X153598571Y-138175952D02*
X153598571Y-137604523D01*
X154122380Y-137604523D02*
X153122380Y-137604523D01*
X154122380Y-136604523D02*
X154122380Y-137175952D01*
X154122380Y-136890238D02*
X153122380Y-136890238D01*
X153265238Y-136985476D01*
X153360476Y-137080714D01*
X153408095Y-137175952D01*
X151757142Y-116572380D02*
X151423809Y-116096190D01*
X151185714Y-116572380D02*
X151185714Y-115572380D01*
X151566666Y-115572380D01*
X151661904Y-115620000D01*
X151709523Y-115667619D01*
X151757142Y-115762857D01*
X151757142Y-115905714D01*
X151709523Y-116000952D01*
X151661904Y-116048571D01*
X151566666Y-116096190D01*
X151185714Y-116096190D01*
X152090476Y-115572380D02*
X152709523Y-115572380D01*
X152376190Y-115953333D01*
X152519047Y-115953333D01*
X152614285Y-116000952D01*
X152661904Y-116048571D01*
X152709523Y-116143809D01*
X152709523Y-116381904D01*
X152661904Y-116477142D01*
X152614285Y-116524761D01*
X152519047Y-116572380D01*
X152233333Y-116572380D01*
X152138095Y-116524761D01*
X152090476Y-116477142D01*
X153090476Y-115667619D02*
X153138095Y-115620000D01*
X153233333Y-115572380D01*
X153471428Y-115572380D01*
X153566666Y-115620000D01*
X153614285Y-115667619D01*
X153661904Y-115762857D01*
X153661904Y-115858095D01*
X153614285Y-116000952D01*
X153042857Y-116572380D01*
X153661904Y-116572380D01*
X162385476Y-142692380D02*
X162385476Y-141692380D01*
X162718809Y-142406666D01*
X163052142Y-141692380D01*
X163052142Y-142692380D01*
X164052142Y-142692380D02*
X163480714Y-142692380D01*
X163766428Y-142692380D02*
X163766428Y-141692380D01*
X163671190Y-141835238D01*
X163575952Y-141930476D01*
X163480714Y-141978095D01*
X143597380Y-121618333D02*
X144311666Y-121618333D01*
X144454523Y-121665952D01*
X144549761Y-121761190D01*
X144597380Y-121904047D01*
X144597380Y-121999285D01*
X143597380Y-121237380D02*
X143597380Y-120618333D01*
X143978333Y-120951666D01*
X143978333Y-120808809D01*
X144025952Y-120713571D01*
X144073571Y-120665952D01*
X144168809Y-120618333D01*
X144406904Y-120618333D01*
X144502142Y-120665952D01*
X144549761Y-120713571D01*
X144597380Y-120808809D01*
X144597380Y-121094523D01*
X144549761Y-121189761D01*
X144502142Y-121237380D01*
X138302142Y-126902380D02*
X137968809Y-126426190D01*
X137730714Y-126902380D02*
X137730714Y-125902380D01*
X138111666Y-125902380D01*
X138206904Y-125950000D01*
X138254523Y-125997619D01*
X138302142Y-126092857D01*
X138302142Y-126235714D01*
X138254523Y-126330952D01*
X138206904Y-126378571D01*
X138111666Y-126426190D01*
X137730714Y-126426190D01*
X138683095Y-125997619D02*
X138730714Y-125950000D01*
X138825952Y-125902380D01*
X139064047Y-125902380D01*
X139159285Y-125950000D01*
X139206904Y-125997619D01*
X139254523Y-126092857D01*
X139254523Y-126188095D01*
X139206904Y-126330952D01*
X138635476Y-126902380D01*
X139254523Y-126902380D01*
X139587857Y-125902380D02*
X140254523Y-125902380D01*
X139825952Y-126902380D01*
X92988571Y-128783333D02*
X92988571Y-129116666D01*
X93512380Y-129116666D02*
X92512380Y-129116666D01*
X92512380Y-128640476D01*
X92607619Y-128307142D02*
X92560000Y-128259523D01*
X92512380Y-128164285D01*
X92512380Y-127926190D01*
X92560000Y-127830952D01*
X92607619Y-127783333D01*
X92702857Y-127735714D01*
X92798095Y-127735714D01*
X92940952Y-127783333D01*
X93512380Y-128354761D01*
X93512380Y-127735714D01*
X84875714Y-101543809D02*
X85542380Y-101305714D01*
X84875714Y-101067619D01*
X85494761Y-100734285D02*
X85542380Y-100639047D01*
X85542380Y-100448571D01*
X85494761Y-100353333D01*
X85399523Y-100305714D01*
X85351904Y-100305714D01*
X85256666Y-100353333D01*
X85209047Y-100448571D01*
X85209047Y-100591428D01*
X85161428Y-100686666D01*
X85066190Y-100734285D01*
X85018571Y-100734285D01*
X84923333Y-100686666D01*
X84875714Y-100591428D01*
X84875714Y-100448571D01*
X84923333Y-100353333D01*
X84875714Y-100020000D02*
X84875714Y-99639047D01*
X84542380Y-99877142D02*
X85399523Y-99877142D01*
X85494761Y-99829523D01*
X85542380Y-99734285D01*
X85542380Y-99639047D01*
X84875714Y-98877142D02*
X85542380Y-98877142D01*
X84875714Y-99305714D02*
X85399523Y-99305714D01*
X85494761Y-99258095D01*
X85542380Y-99162857D01*
X85542380Y-99020000D01*
X85494761Y-98924761D01*
X85447142Y-98877142D01*
X84875714Y-98400952D02*
X85875714Y-98400952D01*
X84923333Y-98400952D02*
X84875714Y-98305714D01*
X84875714Y-98115238D01*
X84923333Y-98020000D01*
X84970952Y-97972380D01*
X85066190Y-97924761D01*
X85351904Y-97924761D01*
X85447142Y-97972380D01*
X85494761Y-98020000D01*
X85542380Y-98115238D01*
X85542380Y-98305714D01*
X85494761Y-98400952D01*
X84637619Y-96781904D02*
X84590000Y-96734285D01*
X84542380Y-96639047D01*
X84542380Y-96400952D01*
X84590000Y-96305714D01*
X84637619Y-96258095D01*
X84732857Y-96210476D01*
X84828095Y-96210476D01*
X84970952Y-96258095D01*
X85542380Y-96829523D01*
X85542380Y-96210476D01*
X84542380Y-95305714D02*
X84542380Y-95781904D01*
X85018571Y-95829523D01*
X84970952Y-95781904D01*
X84923333Y-95686666D01*
X84923333Y-95448571D01*
X84970952Y-95353333D01*
X85018571Y-95305714D01*
X85113809Y-95258095D01*
X85351904Y-95258095D01*
X85447142Y-95305714D01*
X85494761Y-95353333D01*
X85542380Y-95448571D01*
X85542380Y-95686666D01*
X85494761Y-95781904D01*
X85447142Y-95829523D01*
X84542380Y-94972380D02*
X85542380Y-94639047D01*
X84542380Y-94305714D01*
X84494761Y-93258095D02*
X85780476Y-94115238D01*
X84875714Y-92496190D02*
X85542380Y-92496190D01*
X84494761Y-92734285D02*
X85209047Y-92972380D01*
X85209047Y-92353333D01*
X85256666Y-92020000D02*
X85256666Y-91543809D01*
X85542380Y-92115238D02*
X84542380Y-91781904D01*
X85542380Y-91448571D01*
X85510714Y-127658095D02*
X86177380Y-127420000D01*
X85510714Y-127181904D01*
X86129761Y-126848571D02*
X86177380Y-126753333D01*
X86177380Y-126562857D01*
X86129761Y-126467619D01*
X86034523Y-126420000D01*
X85986904Y-126420000D01*
X85891666Y-126467619D01*
X85844047Y-126562857D01*
X85844047Y-126705714D01*
X85796428Y-126800952D01*
X85701190Y-126848571D01*
X85653571Y-126848571D01*
X85558333Y-126800952D01*
X85510714Y-126705714D01*
X85510714Y-126562857D01*
X85558333Y-126467619D01*
X85510714Y-126134285D02*
X85510714Y-125753333D01*
X85177380Y-125991428D02*
X86034523Y-125991428D01*
X86129761Y-125943809D01*
X86177380Y-125848571D01*
X86177380Y-125753333D01*
X85510714Y-124991428D02*
X86177380Y-124991428D01*
X85510714Y-125420000D02*
X86034523Y-125420000D01*
X86129761Y-125372380D01*
X86177380Y-125277142D01*
X86177380Y-125134285D01*
X86129761Y-125039047D01*
X86082142Y-124991428D01*
X85510714Y-124515238D02*
X86510714Y-124515238D01*
X85558333Y-124515238D02*
X85510714Y-124420000D01*
X85510714Y-124229523D01*
X85558333Y-124134285D01*
X85605952Y-124086666D01*
X85701190Y-124039047D01*
X85986904Y-124039047D01*
X86082142Y-124086666D01*
X86129761Y-124134285D01*
X86177380Y-124229523D01*
X86177380Y-124420000D01*
X86129761Y-124515238D01*
X86177380Y-122324761D02*
X86177380Y-122896190D01*
X86177380Y-122610476D02*
X85177380Y-122610476D01*
X85320238Y-122705714D01*
X85415476Y-122800952D01*
X85463095Y-122896190D01*
X85272619Y-121943809D02*
X85225000Y-121896190D01*
X85177380Y-121800952D01*
X85177380Y-121562857D01*
X85225000Y-121467619D01*
X85272619Y-121420000D01*
X85367857Y-121372380D01*
X85463095Y-121372380D01*
X85605952Y-121420000D01*
X86177380Y-121991428D01*
X86177380Y-121372380D01*
X86082142Y-120943809D02*
X86129761Y-120896190D01*
X86177380Y-120943809D01*
X86129761Y-120991428D01*
X86082142Y-120943809D01*
X86177380Y-120943809D01*
X85272619Y-120515238D02*
X85225000Y-120467619D01*
X85177380Y-120372380D01*
X85177380Y-120134285D01*
X85225000Y-120039047D01*
X85272619Y-119991428D01*
X85367857Y-119943809D01*
X85463095Y-119943809D01*
X85605952Y-119991428D01*
X86177380Y-120562857D01*
X86177380Y-119943809D01*
X85177380Y-119658095D02*
X86177380Y-119324761D01*
X85177380Y-118991428D01*
X85129761Y-117943809D02*
X86415476Y-118800952D01*
X85272619Y-117658095D02*
X85225000Y-117610476D01*
X85177380Y-117515238D01*
X85177380Y-117277142D01*
X85225000Y-117181904D01*
X85272619Y-117134285D01*
X85367857Y-117086666D01*
X85463095Y-117086666D01*
X85605952Y-117134285D01*
X86177380Y-117705714D01*
X86177380Y-117086666D01*
X85891666Y-116705714D02*
X85891666Y-116229523D01*
X86177380Y-116800952D02*
X85177380Y-116467619D01*
X86177380Y-116134285D01*
X115383333Y-108987142D02*
X115335714Y-109034761D01*
X115192857Y-109082380D01*
X115097619Y-109082380D01*
X114954761Y-109034761D01*
X114859523Y-108939523D01*
X114811904Y-108844285D01*
X114764285Y-108653809D01*
X114764285Y-108510952D01*
X114811904Y-108320476D01*
X114859523Y-108225238D01*
X114954761Y-108130000D01*
X115097619Y-108082380D01*
X115192857Y-108082380D01*
X115335714Y-108130000D01*
X115383333Y-108177619D01*
X115716666Y-108082380D02*
X116335714Y-108082380D01*
X116002380Y-108463333D01*
X116145238Y-108463333D01*
X116240476Y-108510952D01*
X116288095Y-108558571D01*
X116335714Y-108653809D01*
X116335714Y-108891904D01*
X116288095Y-108987142D01*
X116240476Y-109034761D01*
X116145238Y-109082380D01*
X115859523Y-109082380D01*
X115764285Y-109034761D01*
X115716666Y-108987142D01*
X149767142Y-55966666D02*
X149814761Y-56014285D01*
X149862380Y-56157142D01*
X149862380Y-56252380D01*
X149814761Y-56395238D01*
X149719523Y-56490476D01*
X149624285Y-56538095D01*
X149433809Y-56585714D01*
X149290952Y-56585714D01*
X149100476Y-56538095D01*
X149005238Y-56490476D01*
X148910000Y-56395238D01*
X148862380Y-56252380D01*
X148862380Y-56157142D01*
X148910000Y-56014285D01*
X148957619Y-55966666D01*
X149862380Y-55014285D02*
X149862380Y-55585714D01*
X149862380Y-55300000D02*
X148862380Y-55300000D01*
X149005238Y-55395238D01*
X149100476Y-55490476D01*
X149148095Y-55585714D01*
X149767142Y-81366666D02*
X149814761Y-81414285D01*
X149862380Y-81557142D01*
X149862380Y-81652380D01*
X149814761Y-81795238D01*
X149719523Y-81890476D01*
X149624285Y-81938095D01*
X149433809Y-81985714D01*
X149290952Y-81985714D01*
X149100476Y-81938095D01*
X149005238Y-81890476D01*
X148910000Y-81795238D01*
X148862380Y-81652380D01*
X148862380Y-81557142D01*
X148910000Y-81414285D01*
X148957619Y-81366666D01*
X148957619Y-80985714D02*
X148910000Y-80938095D01*
X148862380Y-80842857D01*
X148862380Y-80604761D01*
X148910000Y-80509523D01*
X148957619Y-80461904D01*
X149052857Y-80414285D01*
X149148095Y-80414285D01*
X149290952Y-80461904D01*
X149862380Y-81033333D01*
X149862380Y-80414285D01*
X135723333Y-117832142D02*
X135675714Y-117879761D01*
X135532857Y-117927380D01*
X135437619Y-117927380D01*
X135294761Y-117879761D01*
X135199523Y-117784523D01*
X135151904Y-117689285D01*
X135104285Y-117498809D01*
X135104285Y-117355952D01*
X135151904Y-117165476D01*
X135199523Y-117070238D01*
X135294761Y-116975000D01*
X135437619Y-116927380D01*
X135532857Y-116927380D01*
X135675714Y-116975000D01*
X135723333Y-117022619D01*
X136580476Y-117260714D02*
X136580476Y-117927380D01*
X136342380Y-116879761D02*
X136104285Y-117594047D01*
X136723333Y-117594047D01*
X173783333Y-74057142D02*
X173735714Y-74104761D01*
X173592857Y-74152380D01*
X173497619Y-74152380D01*
X173354761Y-74104761D01*
X173259523Y-74009523D01*
X173211904Y-73914285D01*
X173164285Y-73723809D01*
X173164285Y-73580952D01*
X173211904Y-73390476D01*
X173259523Y-73295238D01*
X173354761Y-73200000D01*
X173497619Y-73152380D01*
X173592857Y-73152380D01*
X173735714Y-73200000D01*
X173783333Y-73247619D01*
X174688095Y-73152380D02*
X174211904Y-73152380D01*
X174164285Y-73628571D01*
X174211904Y-73580952D01*
X174307142Y-73533333D01*
X174545238Y-73533333D01*
X174640476Y-73580952D01*
X174688095Y-73628571D01*
X174735714Y-73723809D01*
X174735714Y-73961904D01*
X174688095Y-74057142D01*
X174640476Y-74104761D01*
X174545238Y-74152380D01*
X174307142Y-74152380D01*
X174211904Y-74104761D01*
X174164285Y-74057142D01*
X153307142Y-109386666D02*
X153354761Y-109434285D01*
X153402380Y-109577142D01*
X153402380Y-109672380D01*
X153354761Y-109815238D01*
X153259523Y-109910476D01*
X153164285Y-109958095D01*
X152973809Y-110005714D01*
X152830952Y-110005714D01*
X152640476Y-109958095D01*
X152545238Y-109910476D01*
X152450000Y-109815238D01*
X152402380Y-109672380D01*
X152402380Y-109577142D01*
X152450000Y-109434285D01*
X152497619Y-109386666D01*
X152402380Y-108529523D02*
X152402380Y-108720000D01*
X152450000Y-108815238D01*
X152497619Y-108862857D01*
X152640476Y-108958095D01*
X152830952Y-109005714D01*
X153211904Y-109005714D01*
X153307142Y-108958095D01*
X153354761Y-108910476D01*
X153402380Y-108815238D01*
X153402380Y-108624761D01*
X153354761Y-108529523D01*
X153307142Y-108481904D01*
X153211904Y-108434285D01*
X152973809Y-108434285D01*
X152878571Y-108481904D01*
X152830952Y-108529523D01*
X152783333Y-108624761D01*
X152783333Y-108815238D01*
X152830952Y-108910476D01*
X152878571Y-108958095D01*
X152973809Y-109005714D01*
X161143333Y-121597142D02*
X161095714Y-121644761D01*
X160952857Y-121692380D01*
X160857619Y-121692380D01*
X160714761Y-121644761D01*
X160619523Y-121549523D01*
X160571904Y-121454285D01*
X160524285Y-121263809D01*
X160524285Y-121120952D01*
X160571904Y-120930476D01*
X160619523Y-120835238D01*
X160714761Y-120740000D01*
X160857619Y-120692380D01*
X160952857Y-120692380D01*
X161095714Y-120740000D01*
X161143333Y-120787619D01*
X161476666Y-120692380D02*
X162143333Y-120692380D01*
X161714761Y-121692380D01*
X153503333Y-60767142D02*
X153455714Y-60814761D01*
X153312857Y-60862380D01*
X153217619Y-60862380D01*
X153074761Y-60814761D01*
X152979523Y-60719523D01*
X152931904Y-60624285D01*
X152884285Y-60433809D01*
X152884285Y-60290952D01*
X152931904Y-60100476D01*
X152979523Y-60005238D01*
X153074761Y-59910000D01*
X153217619Y-59862380D01*
X153312857Y-59862380D01*
X153455714Y-59910000D01*
X153503333Y-59957619D01*
X154074761Y-60290952D02*
X153979523Y-60243333D01*
X153931904Y-60195714D01*
X153884285Y-60100476D01*
X153884285Y-60052857D01*
X153931904Y-59957619D01*
X153979523Y-59910000D01*
X154074761Y-59862380D01*
X154265238Y-59862380D01*
X154360476Y-59910000D01*
X154408095Y-59957619D01*
X154455714Y-60052857D01*
X154455714Y-60100476D01*
X154408095Y-60195714D01*
X154360476Y-60243333D01*
X154265238Y-60290952D01*
X154074761Y-60290952D01*
X153979523Y-60338571D01*
X153931904Y-60386190D01*
X153884285Y-60481428D01*
X153884285Y-60671904D01*
X153931904Y-60767142D01*
X153979523Y-60814761D01*
X154074761Y-60862380D01*
X154265238Y-60862380D01*
X154360476Y-60814761D01*
X154408095Y-60767142D01*
X154455714Y-60671904D01*
X154455714Y-60481428D01*
X154408095Y-60386190D01*
X154360476Y-60338571D01*
X154265238Y-60290952D01*
X162523333Y-101367142D02*
X162475714Y-101414761D01*
X162332857Y-101462380D01*
X162237619Y-101462380D01*
X162094761Y-101414761D01*
X161999523Y-101319523D01*
X161951904Y-101224285D01*
X161904285Y-101033809D01*
X161904285Y-100890952D01*
X161951904Y-100700476D01*
X161999523Y-100605238D01*
X162094761Y-100510000D01*
X162237619Y-100462380D01*
X162332857Y-100462380D01*
X162475714Y-100510000D01*
X162523333Y-100557619D01*
X162999523Y-101462380D02*
X163190000Y-101462380D01*
X163285238Y-101414761D01*
X163332857Y-101367142D01*
X163428095Y-101224285D01*
X163475714Y-101033809D01*
X163475714Y-100652857D01*
X163428095Y-100557619D01*
X163380476Y-100510000D01*
X163285238Y-100462380D01*
X163094761Y-100462380D01*
X162999523Y-100510000D01*
X162951904Y-100557619D01*
X162904285Y-100652857D01*
X162904285Y-100890952D01*
X162951904Y-100986190D01*
X162999523Y-101033809D01*
X163094761Y-101081428D01*
X163285238Y-101081428D01*
X163380476Y-101033809D01*
X163428095Y-100986190D01*
X163475714Y-100890952D01*
X154297142Y-77192142D02*
X154249523Y-77239761D01*
X154106666Y-77287380D01*
X154011428Y-77287380D01*
X153868571Y-77239761D01*
X153773333Y-77144523D01*
X153725714Y-77049285D01*
X153678095Y-76858809D01*
X153678095Y-76715952D01*
X153725714Y-76525476D01*
X153773333Y-76430238D01*
X153868571Y-76335000D01*
X154011428Y-76287380D01*
X154106666Y-76287380D01*
X154249523Y-76335000D01*
X154297142Y-76382619D01*
X155249523Y-77287380D02*
X154678095Y-77287380D01*
X154963809Y-77287380D02*
X154963809Y-76287380D01*
X154868571Y-76430238D01*
X154773333Y-76525476D01*
X154678095Y-76573095D01*
X155868571Y-76287380D02*
X155963809Y-76287380D01*
X156059047Y-76335000D01*
X156106666Y-76382619D01*
X156154285Y-76477857D01*
X156201904Y-76668333D01*
X156201904Y-76906428D01*
X156154285Y-77096904D01*
X156106666Y-77192142D01*
X156059047Y-77239761D01*
X155963809Y-77287380D01*
X155868571Y-77287380D01*
X155773333Y-77239761D01*
X155725714Y-77192142D01*
X155678095Y-77096904D01*
X155630476Y-76906428D01*
X155630476Y-76668333D01*
X155678095Y-76477857D01*
X155725714Y-76382619D01*
X155773333Y-76335000D01*
X155868571Y-76287380D01*
X109847142Y-120457142D02*
X109799523Y-120504761D01*
X109656666Y-120552380D01*
X109561428Y-120552380D01*
X109418571Y-120504761D01*
X109323333Y-120409523D01*
X109275714Y-120314285D01*
X109228095Y-120123809D01*
X109228095Y-119980952D01*
X109275714Y-119790476D01*
X109323333Y-119695238D01*
X109418571Y-119600000D01*
X109561428Y-119552380D01*
X109656666Y-119552380D01*
X109799523Y-119600000D01*
X109847142Y-119647619D01*
X110799523Y-120552380D02*
X110228095Y-120552380D01*
X110513809Y-120552380D02*
X110513809Y-119552380D01*
X110418571Y-119695238D01*
X110323333Y-119790476D01*
X110228095Y-119838095D01*
X111132857Y-119552380D02*
X111751904Y-119552380D01*
X111418571Y-119933333D01*
X111561428Y-119933333D01*
X111656666Y-119980952D01*
X111704285Y-120028571D01*
X111751904Y-120123809D01*
X111751904Y-120361904D01*
X111704285Y-120457142D01*
X111656666Y-120504761D01*
X111561428Y-120552380D01*
X111275714Y-120552380D01*
X111180476Y-120504761D01*
X111132857Y-120457142D01*
X132352142Y-121292857D02*
X132399761Y-121340476D01*
X132447380Y-121483333D01*
X132447380Y-121578571D01*
X132399761Y-121721428D01*
X132304523Y-121816666D01*
X132209285Y-121864285D01*
X132018809Y-121911904D01*
X131875952Y-121911904D01*
X131685476Y-121864285D01*
X131590238Y-121816666D01*
X131495000Y-121721428D01*
X131447380Y-121578571D01*
X131447380Y-121483333D01*
X131495000Y-121340476D01*
X131542619Y-121292857D01*
X132447380Y-120340476D02*
X132447380Y-120911904D01*
X132447380Y-120626190D02*
X131447380Y-120626190D01*
X131590238Y-120721428D01*
X131685476Y-120816666D01*
X131733095Y-120911904D01*
X131780714Y-119483333D02*
X132447380Y-119483333D01*
X131399761Y-119721428D02*
X132114047Y-119959523D01*
X132114047Y-119340476D01*
X109911904Y-56922380D02*
X109911904Y-55922380D01*
X110150000Y-55922380D01*
X110292857Y-55970000D01*
X110388095Y-56065238D01*
X110435714Y-56160476D01*
X110483333Y-56350952D01*
X110483333Y-56493809D01*
X110435714Y-56684285D01*
X110388095Y-56779523D01*
X110292857Y-56874761D01*
X110150000Y-56922380D01*
X109911904Y-56922380D01*
X111435714Y-56922380D02*
X110864285Y-56922380D01*
X111150000Y-56922380D02*
X111150000Y-55922380D01*
X111054761Y-56065238D01*
X110959523Y-56160476D01*
X110864285Y-56208095D01*
X120388095Y-53852380D02*
X120388095Y-52852380D01*
X120959523Y-53852380D02*
X120530952Y-53280952D01*
X120959523Y-52852380D02*
X120388095Y-53423809D01*
X109911904Y-102642380D02*
X109911904Y-101642380D01*
X110150000Y-101642380D01*
X110292857Y-101690000D01*
X110388095Y-101785238D01*
X110435714Y-101880476D01*
X110483333Y-102070952D01*
X110483333Y-102213809D01*
X110435714Y-102404285D01*
X110388095Y-102499523D01*
X110292857Y-102594761D01*
X110150000Y-102642380D01*
X109911904Y-102642380D01*
X110864285Y-101737619D02*
X110911904Y-101690000D01*
X111007142Y-101642380D01*
X111245238Y-101642380D01*
X111340476Y-101690000D01*
X111388095Y-101737619D01*
X111435714Y-101832857D01*
X111435714Y-101928095D01*
X111388095Y-102070952D01*
X110816666Y-102642380D01*
X111435714Y-102642380D01*
X120388095Y-99572380D02*
X120388095Y-98572380D01*
X120959523Y-99572380D02*
X120530952Y-99000952D01*
X120959523Y-98572380D02*
X120388095Y-99143809D01*
X109591904Y-60822380D02*
X109591904Y-59822380D01*
X109830000Y-59822380D01*
X109972857Y-59870000D01*
X110068095Y-59965238D01*
X110115714Y-60060476D01*
X110163333Y-60250952D01*
X110163333Y-60393809D01*
X110115714Y-60584285D01*
X110068095Y-60679523D01*
X109972857Y-60774761D01*
X109830000Y-60822380D01*
X109591904Y-60822380D01*
X110496666Y-59822380D02*
X111115714Y-59822380D01*
X110782380Y-60203333D01*
X110925238Y-60203333D01*
X111020476Y-60250952D01*
X111068095Y-60298571D01*
X111115714Y-60393809D01*
X111115714Y-60631904D01*
X111068095Y-60727142D01*
X111020476Y-60774761D01*
X110925238Y-60822380D01*
X110639523Y-60822380D01*
X110544285Y-60774761D01*
X110496666Y-60727142D01*
X100068095Y-63892380D02*
X100068095Y-62892380D01*
X100639523Y-63892380D02*
X100210952Y-63320952D01*
X100639523Y-62892380D02*
X100068095Y-63463809D01*
X109591904Y-76062380D02*
X109591904Y-75062380D01*
X109830000Y-75062380D01*
X109972857Y-75110000D01*
X110068095Y-75205238D01*
X110115714Y-75300476D01*
X110163333Y-75490952D01*
X110163333Y-75633809D01*
X110115714Y-75824285D01*
X110068095Y-75919523D01*
X109972857Y-76014761D01*
X109830000Y-76062380D01*
X109591904Y-76062380D01*
X111020476Y-75395714D02*
X111020476Y-76062380D01*
X110782380Y-75014761D02*
X110544285Y-75729047D01*
X111163333Y-75729047D01*
X100068095Y-79132380D02*
X100068095Y-78132380D01*
X100639523Y-79132380D02*
X100210952Y-78560952D01*
X100639523Y-78132380D02*
X100068095Y-78703809D01*
X124991904Y-113062380D02*
X124991904Y-112062380D01*
X125230000Y-112062380D01*
X125372857Y-112110000D01*
X125468095Y-112205238D01*
X125515714Y-112300476D01*
X125563333Y-112490952D01*
X125563333Y-112633809D01*
X125515714Y-112824285D01*
X125468095Y-112919523D01*
X125372857Y-113014761D01*
X125230000Y-113062380D01*
X124991904Y-113062380D01*
X126468095Y-112062380D02*
X125991904Y-112062380D01*
X125944285Y-112538571D01*
X125991904Y-112490952D01*
X126087142Y-112443333D01*
X126325238Y-112443333D01*
X126420476Y-112490952D01*
X126468095Y-112538571D01*
X126515714Y-112633809D01*
X126515714Y-112871904D01*
X126468095Y-112967142D01*
X126420476Y-113014761D01*
X126325238Y-113062380D01*
X126087142Y-113062380D01*
X125991904Y-113014761D01*
X125944285Y-112967142D01*
X129278095Y-112742380D02*
X129278095Y-111742380D01*
X129849523Y-112742380D02*
X129420952Y-112170952D01*
X129849523Y-111742380D02*
X129278095Y-112313809D01*
X124991904Y-118562380D02*
X124991904Y-117562380D01*
X125230000Y-117562380D01*
X125372857Y-117610000D01*
X125468095Y-117705238D01*
X125515714Y-117800476D01*
X125563333Y-117990952D01*
X125563333Y-118133809D01*
X125515714Y-118324285D01*
X125468095Y-118419523D01*
X125372857Y-118514761D01*
X125230000Y-118562380D01*
X124991904Y-118562380D01*
X126420476Y-117562380D02*
X126230000Y-117562380D01*
X126134761Y-117610000D01*
X126087142Y-117657619D01*
X125991904Y-117800476D01*
X125944285Y-117990952D01*
X125944285Y-118371904D01*
X125991904Y-118467142D01*
X126039523Y-118514761D01*
X126134761Y-118562380D01*
X126325238Y-118562380D01*
X126420476Y-118514761D01*
X126468095Y-118467142D01*
X126515714Y-118371904D01*
X126515714Y-118133809D01*
X126468095Y-118038571D01*
X126420476Y-117990952D01*
X126325238Y-117943333D01*
X126134761Y-117943333D01*
X126039523Y-117990952D01*
X125991904Y-118038571D01*
X125944285Y-118133809D01*
X121658095Y-114222380D02*
X121658095Y-113222380D01*
X122229523Y-114222380D02*
X121800952Y-113650952D01*
X122229523Y-113222380D02*
X121658095Y-113793809D01*
X183411904Y-67857380D02*
X183411904Y-66857380D01*
X183650000Y-66857380D01*
X183792857Y-66905000D01*
X183888095Y-67000238D01*
X183935714Y-67095476D01*
X183983333Y-67285952D01*
X183983333Y-67428809D01*
X183935714Y-67619285D01*
X183888095Y-67714523D01*
X183792857Y-67809761D01*
X183650000Y-67857380D01*
X183411904Y-67857380D01*
X184554761Y-67285952D02*
X184459523Y-67238333D01*
X184411904Y-67190714D01*
X184364285Y-67095476D01*
X184364285Y-67047857D01*
X184411904Y-66952619D01*
X184459523Y-66905000D01*
X184554761Y-66857380D01*
X184745238Y-66857380D01*
X184840476Y-66905000D01*
X184888095Y-66952619D01*
X184935714Y-67047857D01*
X184935714Y-67095476D01*
X184888095Y-67190714D01*
X184840476Y-67238333D01*
X184745238Y-67285952D01*
X184554761Y-67285952D01*
X184459523Y-67333571D01*
X184411904Y-67381190D01*
X184364285Y-67476428D01*
X184364285Y-67666904D01*
X184411904Y-67762142D01*
X184459523Y-67809761D01*
X184554761Y-67857380D01*
X184745238Y-67857380D01*
X184840476Y-67809761D01*
X184888095Y-67762142D01*
X184935714Y-67666904D01*
X184935714Y-67476428D01*
X184888095Y-67381190D01*
X184840476Y-67333571D01*
X184745238Y-67285952D01*
X166282380Y-80748095D02*
X165282380Y-80748095D01*
X165282380Y-80510000D01*
X165330000Y-80367142D01*
X165425238Y-80271904D01*
X165520476Y-80224285D01*
X165710952Y-80176666D01*
X165853809Y-80176666D01*
X166044285Y-80224285D01*
X166139523Y-80271904D01*
X166234761Y-80367142D01*
X166282380Y-80510000D01*
X166282380Y-80748095D01*
X166282380Y-79700476D02*
X166282380Y-79510000D01*
X166234761Y-79414761D01*
X166187142Y-79367142D01*
X166044285Y-79271904D01*
X165853809Y-79224285D01*
X165472857Y-79224285D01*
X165377619Y-79271904D01*
X165330000Y-79319523D01*
X165282380Y-79414761D01*
X165282380Y-79605238D01*
X165330000Y-79700476D01*
X165377619Y-79748095D01*
X165472857Y-79795714D01*
X165710952Y-79795714D01*
X165806190Y-79748095D01*
X165853809Y-79700476D01*
X165901428Y-79605238D01*
X165901428Y-79414761D01*
X165853809Y-79319523D01*
X165806190Y-79271904D01*
X165710952Y-79224285D01*
X161202380Y-110434285D02*
X160202380Y-110434285D01*
X160202380Y-110196190D01*
X160250000Y-110053333D01*
X160345238Y-109958095D01*
X160440476Y-109910476D01*
X160630952Y-109862857D01*
X160773809Y-109862857D01*
X160964285Y-109910476D01*
X161059523Y-109958095D01*
X161154761Y-110053333D01*
X161202380Y-110196190D01*
X161202380Y-110434285D01*
X161202380Y-108910476D02*
X161202380Y-109481904D01*
X161202380Y-109196190D02*
X160202380Y-109196190D01*
X160345238Y-109291428D01*
X160440476Y-109386666D01*
X160488095Y-109481904D01*
X160202380Y-108291428D02*
X160202380Y-108196190D01*
X160250000Y-108100952D01*
X160297619Y-108053333D01*
X160392857Y-108005714D01*
X160583333Y-107958095D01*
X160821428Y-107958095D01*
X161011904Y-108005714D01*
X161107142Y-108053333D01*
X161154761Y-108100952D01*
X161202380Y-108196190D01*
X161202380Y-108291428D01*
X161154761Y-108386666D01*
X161107142Y-108434285D01*
X161011904Y-108481904D01*
X160821428Y-108529523D01*
X160583333Y-108529523D01*
X160392857Y-108481904D01*
X160297619Y-108434285D01*
X160250000Y-108386666D01*
X160202380Y-108291428D01*
X160075714Y-127412380D02*
X160075714Y-126412380D01*
X160313809Y-126412380D01*
X160456666Y-126460000D01*
X160551904Y-126555238D01*
X160599523Y-126650476D01*
X160647142Y-126840952D01*
X160647142Y-126983809D01*
X160599523Y-127174285D01*
X160551904Y-127269523D01*
X160456666Y-127364761D01*
X160313809Y-127412380D01*
X160075714Y-127412380D01*
X161599523Y-127412380D02*
X161028095Y-127412380D01*
X161313809Y-127412380D02*
X161313809Y-126412380D01*
X161218571Y-126555238D01*
X161123333Y-126650476D01*
X161028095Y-126698095D01*
X162551904Y-127412380D02*
X161980476Y-127412380D01*
X162266190Y-127412380D02*
X162266190Y-126412380D01*
X162170952Y-126555238D01*
X162075714Y-126650476D01*
X161980476Y-126698095D01*
X154360714Y-54427380D02*
X154360714Y-53427380D01*
X154598809Y-53427380D01*
X154741666Y-53475000D01*
X154836904Y-53570238D01*
X154884523Y-53665476D01*
X154932142Y-53855952D01*
X154932142Y-53998809D01*
X154884523Y-54189285D01*
X154836904Y-54284523D01*
X154741666Y-54379761D01*
X154598809Y-54427380D01*
X154360714Y-54427380D01*
X155884523Y-54427380D02*
X155313095Y-54427380D01*
X155598809Y-54427380D02*
X155598809Y-53427380D01*
X155503571Y-53570238D01*
X155408333Y-53665476D01*
X155313095Y-53713095D01*
X156265476Y-53522619D02*
X156313095Y-53475000D01*
X156408333Y-53427380D01*
X156646428Y-53427380D01*
X156741666Y-53475000D01*
X156789285Y-53522619D01*
X156836904Y-53617857D01*
X156836904Y-53713095D01*
X156789285Y-53855952D01*
X156217857Y-54427380D01*
X156836904Y-54427380D01*
X113785714Y-137022380D02*
X113785714Y-136022380D01*
X114023809Y-136022380D01*
X114166666Y-136070000D01*
X114261904Y-136165238D01*
X114309523Y-136260476D01*
X114357142Y-136450952D01*
X114357142Y-136593809D01*
X114309523Y-136784285D01*
X114261904Y-136879523D01*
X114166666Y-136974761D01*
X114023809Y-137022380D01*
X113785714Y-137022380D01*
X115309523Y-137022380D02*
X114738095Y-137022380D01*
X115023809Y-137022380D02*
X115023809Y-136022380D01*
X114928571Y-136165238D01*
X114833333Y-136260476D01*
X114738095Y-136308095D01*
X115642857Y-136022380D02*
X116261904Y-136022380D01*
X115928571Y-136403333D01*
X116071428Y-136403333D01*
X116166666Y-136450952D01*
X116214285Y-136498571D01*
X116261904Y-136593809D01*
X116261904Y-136831904D01*
X116214285Y-136927142D01*
X116166666Y-136974761D01*
X116071428Y-137022380D01*
X115785714Y-137022380D01*
X115690476Y-136974761D01*
X115642857Y-136927142D01*
X161345714Y-137572380D02*
X161345714Y-136572380D01*
X161583809Y-136572380D01*
X161726666Y-136620000D01*
X161821904Y-136715238D01*
X161869523Y-136810476D01*
X161917142Y-137000952D01*
X161917142Y-137143809D01*
X161869523Y-137334285D01*
X161821904Y-137429523D01*
X161726666Y-137524761D01*
X161583809Y-137572380D01*
X161345714Y-137572380D01*
X162869523Y-137572380D02*
X162298095Y-137572380D01*
X162583809Y-137572380D02*
X162583809Y-136572380D01*
X162488571Y-136715238D01*
X162393333Y-136810476D01*
X162298095Y-136858095D01*
X163726666Y-136905714D02*
X163726666Y-137572380D01*
X163488571Y-136524761D02*
X163250476Y-137239047D01*
X163869523Y-137239047D01*
X96098571Y-70003333D02*
X96098571Y-70336666D01*
X96622380Y-70336666D02*
X95622380Y-70336666D01*
X95622380Y-69860476D01*
X96622380Y-68955714D02*
X96622380Y-69527142D01*
X96622380Y-69241428D02*
X95622380Y-69241428D01*
X95765238Y-69336666D01*
X95860476Y-69431904D01*
X95908095Y-69527142D01*
X157612380Y-65770000D02*
X156612380Y-65770000D01*
X156612380Y-65103333D02*
X156612380Y-64912857D01*
X156660000Y-64817619D01*
X156755238Y-64722380D01*
X156945714Y-64674761D01*
X157279047Y-64674761D01*
X157469523Y-64722380D01*
X157564761Y-64817619D01*
X157612380Y-64912857D01*
X157612380Y-65103333D01*
X157564761Y-65198571D01*
X157469523Y-65293809D01*
X157279047Y-65341428D01*
X156945714Y-65341428D01*
X156755238Y-65293809D01*
X156660000Y-65198571D01*
X156612380Y-65103333D01*
X157612380Y-63722380D02*
X157612380Y-64293809D01*
X157612380Y-64008095D02*
X156612380Y-64008095D01*
X156755238Y-64103333D01*
X156850476Y-64198571D01*
X156898095Y-64293809D01*
X165872380Y-91170000D02*
X164872380Y-91170000D01*
X164872380Y-90503333D02*
X164872380Y-90312857D01*
X164920000Y-90217619D01*
X165015238Y-90122380D01*
X165205714Y-90074761D01*
X165539047Y-90074761D01*
X165729523Y-90122380D01*
X165824761Y-90217619D01*
X165872380Y-90312857D01*
X165872380Y-90503333D01*
X165824761Y-90598571D01*
X165729523Y-90693809D01*
X165539047Y-90741428D01*
X165205714Y-90741428D01*
X165015238Y-90693809D01*
X164920000Y-90598571D01*
X164872380Y-90503333D01*
X164872380Y-89741428D02*
X164872380Y-89122380D01*
X165253333Y-89455714D01*
X165253333Y-89312857D01*
X165300952Y-89217619D01*
X165348571Y-89170000D01*
X165443809Y-89122380D01*
X165681904Y-89122380D01*
X165777142Y-89170000D01*
X165824761Y-89217619D01*
X165872380Y-89312857D01*
X165872380Y-89598571D01*
X165824761Y-89693809D01*
X165777142Y-89741428D01*
X165631904Y-76017380D02*
X165631904Y-75017380D01*
X166012857Y-75017380D01*
X166108095Y-75065000D01*
X166155714Y-75112619D01*
X166203333Y-75207857D01*
X166203333Y-75350714D01*
X166155714Y-75445952D01*
X166108095Y-75493571D01*
X166012857Y-75541190D01*
X165631904Y-75541190D01*
X166584285Y-75112619D02*
X166631904Y-75065000D01*
X166727142Y-75017380D01*
X166965238Y-75017380D01*
X167060476Y-75065000D01*
X167108095Y-75112619D01*
X167155714Y-75207857D01*
X167155714Y-75303095D01*
X167108095Y-75445952D01*
X166536666Y-76017380D01*
X167155714Y-76017380D01*
X145232380Y-106846666D02*
X144756190Y-107180000D01*
X145232380Y-107418095D02*
X144232380Y-107418095D01*
X144232380Y-107037142D01*
X144280000Y-106941904D01*
X144327619Y-106894285D01*
X144422857Y-106846666D01*
X144565714Y-106846666D01*
X144660952Y-106894285D01*
X144708571Y-106941904D01*
X144756190Y-107037142D01*
X144756190Y-107418095D01*
X144327619Y-106465714D02*
X144280000Y-106418095D01*
X144232380Y-106322857D01*
X144232380Y-106084761D01*
X144280000Y-105989523D01*
X144327619Y-105941904D01*
X144422857Y-105894285D01*
X144518095Y-105894285D01*
X144660952Y-105941904D01*
X145232380Y-106513333D01*
X145232380Y-105894285D01*
X98893333Y-106302380D02*
X98560000Y-105826190D01*
X98321904Y-106302380D02*
X98321904Y-105302380D01*
X98702857Y-105302380D01*
X98798095Y-105350000D01*
X98845714Y-105397619D01*
X98893333Y-105492857D01*
X98893333Y-105635714D01*
X98845714Y-105730952D01*
X98798095Y-105778571D01*
X98702857Y-105826190D01*
X98321904Y-105826190D01*
X99226666Y-105302380D02*
X99845714Y-105302380D01*
X99512380Y-105683333D01*
X99655238Y-105683333D01*
X99750476Y-105730952D01*
X99798095Y-105778571D01*
X99845714Y-105873809D01*
X99845714Y-106111904D01*
X99798095Y-106207142D01*
X99750476Y-106254761D01*
X99655238Y-106302380D01*
X99369523Y-106302380D01*
X99274285Y-106254761D01*
X99226666Y-106207142D01*
X177633333Y-73392380D02*
X177300000Y-72916190D01*
X177061904Y-73392380D02*
X177061904Y-72392380D01*
X177442857Y-72392380D01*
X177538095Y-72440000D01*
X177585714Y-72487619D01*
X177633333Y-72582857D01*
X177633333Y-72725714D01*
X177585714Y-72820952D01*
X177538095Y-72868571D01*
X177442857Y-72916190D01*
X177061904Y-72916190D01*
X178490476Y-72725714D02*
X178490476Y-73392380D01*
X178252380Y-72344761D02*
X178014285Y-73059047D01*
X178633333Y-73059047D01*
X186422380Y-61126666D02*
X185946190Y-61460000D01*
X186422380Y-61698095D02*
X185422380Y-61698095D01*
X185422380Y-61317142D01*
X185470000Y-61221904D01*
X185517619Y-61174285D01*
X185612857Y-61126666D01*
X185755714Y-61126666D01*
X185850952Y-61174285D01*
X185898571Y-61221904D01*
X185946190Y-61317142D01*
X185946190Y-61698095D01*
X185422380Y-60221904D02*
X185422380Y-60698095D01*
X185898571Y-60745714D01*
X185850952Y-60698095D01*
X185803333Y-60602857D01*
X185803333Y-60364761D01*
X185850952Y-60269523D01*
X185898571Y-60221904D01*
X185993809Y-60174285D01*
X186231904Y-60174285D01*
X186327142Y-60221904D01*
X186374761Y-60269523D01*
X186422380Y-60364761D01*
X186422380Y-60602857D01*
X186374761Y-60698095D01*
X186327142Y-60745714D01*
X170013333Y-65857380D02*
X169680000Y-65381190D01*
X169441904Y-65857380D02*
X169441904Y-64857380D01*
X169822857Y-64857380D01*
X169918095Y-64905000D01*
X169965714Y-64952619D01*
X170013333Y-65047857D01*
X170013333Y-65190714D01*
X169965714Y-65285952D01*
X169918095Y-65333571D01*
X169822857Y-65381190D01*
X169441904Y-65381190D01*
X170870476Y-64857380D02*
X170680000Y-64857380D01*
X170584761Y-64905000D01*
X170537142Y-64952619D01*
X170441904Y-65095476D01*
X170394285Y-65285952D01*
X170394285Y-65666904D01*
X170441904Y-65762142D01*
X170489523Y-65809761D01*
X170584761Y-65857380D01*
X170775238Y-65857380D01*
X170870476Y-65809761D01*
X170918095Y-65762142D01*
X170965714Y-65666904D01*
X170965714Y-65428809D01*
X170918095Y-65333571D01*
X170870476Y-65285952D01*
X170775238Y-65238333D01*
X170584761Y-65238333D01*
X170489523Y-65285952D01*
X170441904Y-65333571D01*
X170394285Y-65428809D01*
X182713333Y-142057380D02*
X182380000Y-141581190D01*
X182141904Y-142057380D02*
X182141904Y-141057380D01*
X182522857Y-141057380D01*
X182618095Y-141105000D01*
X182665714Y-141152619D01*
X182713333Y-141247857D01*
X182713333Y-141390714D01*
X182665714Y-141485952D01*
X182618095Y-141533571D01*
X182522857Y-141581190D01*
X182141904Y-141581190D01*
X183046666Y-141057380D02*
X183713333Y-141057380D01*
X183284761Y-142057380D01*
X162292380Y-80176666D02*
X161816190Y-80510000D01*
X162292380Y-80748095D02*
X161292380Y-80748095D01*
X161292380Y-80367142D01*
X161340000Y-80271904D01*
X161387619Y-80224285D01*
X161482857Y-80176666D01*
X161625714Y-80176666D01*
X161720952Y-80224285D01*
X161768571Y-80271904D01*
X161816190Y-80367142D01*
X161816190Y-80748095D01*
X162292380Y-79700476D02*
X162292380Y-79510000D01*
X162244761Y-79414761D01*
X162197142Y-79367142D01*
X162054285Y-79271904D01*
X161863809Y-79224285D01*
X161482857Y-79224285D01*
X161387619Y-79271904D01*
X161340000Y-79319523D01*
X161292380Y-79414761D01*
X161292380Y-79605238D01*
X161340000Y-79700476D01*
X161387619Y-79748095D01*
X161482857Y-79795714D01*
X161720952Y-79795714D01*
X161816190Y-79748095D01*
X161863809Y-79700476D01*
X161911428Y-79605238D01*
X161911428Y-79414761D01*
X161863809Y-79319523D01*
X161816190Y-79271904D01*
X161720952Y-79224285D01*
X154297142Y-84992380D02*
X153963809Y-84516190D01*
X153725714Y-84992380D02*
X153725714Y-83992380D01*
X154106666Y-83992380D01*
X154201904Y-84040000D01*
X154249523Y-84087619D01*
X154297142Y-84182857D01*
X154297142Y-84325714D01*
X154249523Y-84420952D01*
X154201904Y-84468571D01*
X154106666Y-84516190D01*
X153725714Y-84516190D01*
X155249523Y-84992380D02*
X154678095Y-84992380D01*
X154963809Y-84992380D02*
X154963809Y-83992380D01*
X154868571Y-84135238D01*
X154773333Y-84230476D01*
X154678095Y-84278095D01*
X155868571Y-83992380D02*
X155963809Y-83992380D01*
X156059047Y-84040000D01*
X156106666Y-84087619D01*
X156154285Y-84182857D01*
X156201904Y-84373333D01*
X156201904Y-84611428D01*
X156154285Y-84801904D01*
X156106666Y-84897142D01*
X156059047Y-84944761D01*
X155963809Y-84992380D01*
X155868571Y-84992380D01*
X155773333Y-84944761D01*
X155725714Y-84897142D01*
X155678095Y-84801904D01*
X155630476Y-84611428D01*
X155630476Y-84373333D01*
X155678095Y-84182857D01*
X155725714Y-84087619D01*
X155773333Y-84040000D01*
X155868571Y-83992380D01*
X154297142Y-81182380D02*
X153963809Y-80706190D01*
X153725714Y-81182380D02*
X153725714Y-80182380D01*
X154106666Y-80182380D01*
X154201904Y-80230000D01*
X154249523Y-80277619D01*
X154297142Y-80372857D01*
X154297142Y-80515714D01*
X154249523Y-80610952D01*
X154201904Y-80658571D01*
X154106666Y-80706190D01*
X153725714Y-80706190D01*
X155249523Y-81182380D02*
X154678095Y-81182380D01*
X154963809Y-81182380D02*
X154963809Y-80182380D01*
X154868571Y-80325238D01*
X154773333Y-80420476D01*
X154678095Y-80468095D01*
X156201904Y-81182380D02*
X155630476Y-81182380D01*
X155916190Y-81182380D02*
X155916190Y-80182380D01*
X155820952Y-80325238D01*
X155725714Y-80420476D01*
X155630476Y-80468095D01*
X157212380Y-109862857D02*
X156736190Y-110196190D01*
X157212380Y-110434285D02*
X156212380Y-110434285D01*
X156212380Y-110053333D01*
X156260000Y-109958095D01*
X156307619Y-109910476D01*
X156402857Y-109862857D01*
X156545714Y-109862857D01*
X156640952Y-109910476D01*
X156688571Y-109958095D01*
X156736190Y-110053333D01*
X156736190Y-110434285D01*
X157212380Y-108910476D02*
X157212380Y-109481904D01*
X157212380Y-109196190D02*
X156212380Y-109196190D01*
X156355238Y-109291428D01*
X156450476Y-109386666D01*
X156498095Y-109481904D01*
X156307619Y-108529523D02*
X156260000Y-108481904D01*
X156212380Y-108386666D01*
X156212380Y-108148571D01*
X156260000Y-108053333D01*
X156307619Y-108005714D01*
X156402857Y-107958095D01*
X156498095Y-107958095D01*
X156640952Y-108005714D01*
X157212380Y-108577142D01*
X157212380Y-107958095D01*
X164832380Y-109862857D02*
X164356190Y-110196190D01*
X164832380Y-110434285D02*
X163832380Y-110434285D01*
X163832380Y-110053333D01*
X163880000Y-109958095D01*
X163927619Y-109910476D01*
X164022857Y-109862857D01*
X164165714Y-109862857D01*
X164260952Y-109910476D01*
X164308571Y-109958095D01*
X164356190Y-110053333D01*
X164356190Y-110434285D01*
X164832380Y-108910476D02*
X164832380Y-109481904D01*
X164832380Y-109196190D02*
X163832380Y-109196190D01*
X163975238Y-109291428D01*
X164070476Y-109386666D01*
X164118095Y-109481904D01*
X163832380Y-108053333D02*
X163832380Y-108243809D01*
X163880000Y-108339047D01*
X163927619Y-108386666D01*
X164070476Y-108481904D01*
X164260952Y-108529523D01*
X164641904Y-108529523D01*
X164737142Y-108481904D01*
X164784761Y-108434285D01*
X164832380Y-108339047D01*
X164832380Y-108148571D01*
X164784761Y-108053333D01*
X164737142Y-108005714D01*
X164641904Y-107958095D01*
X164403809Y-107958095D01*
X164308571Y-108005714D01*
X164260952Y-108053333D01*
X164213333Y-108148571D01*
X164213333Y-108339047D01*
X164260952Y-108434285D01*
X164308571Y-108481904D01*
X164403809Y-108529523D01*
X183967380Y-57792857D02*
X183491190Y-58126190D01*
X183967380Y-58364285D02*
X182967380Y-58364285D01*
X182967380Y-57983333D01*
X183015000Y-57888095D01*
X183062619Y-57840476D01*
X183157857Y-57792857D01*
X183300714Y-57792857D01*
X183395952Y-57840476D01*
X183443571Y-57888095D01*
X183491190Y-57983333D01*
X183491190Y-58364285D01*
X183967380Y-56840476D02*
X183967380Y-57411904D01*
X183967380Y-57126190D02*
X182967380Y-57126190D01*
X183110238Y-57221428D01*
X183205476Y-57316666D01*
X183253095Y-57411904D01*
X183395952Y-56269047D02*
X183348333Y-56364285D01*
X183300714Y-56411904D01*
X183205476Y-56459523D01*
X183157857Y-56459523D01*
X183062619Y-56411904D01*
X183015000Y-56364285D01*
X182967380Y-56269047D01*
X182967380Y-56078571D01*
X183015000Y-55983333D01*
X183062619Y-55935714D01*
X183157857Y-55888095D01*
X183205476Y-55888095D01*
X183300714Y-55935714D01*
X183348333Y-55983333D01*
X183395952Y-56078571D01*
X183395952Y-56269047D01*
X183443571Y-56364285D01*
X183491190Y-56411904D01*
X183586428Y-56459523D01*
X183776904Y-56459523D01*
X183872142Y-56411904D01*
X183919761Y-56364285D01*
X183967380Y-56269047D01*
X183967380Y-56078571D01*
X183919761Y-55983333D01*
X183872142Y-55935714D01*
X183776904Y-55888095D01*
X183586428Y-55888095D01*
X183491190Y-55935714D01*
X183443571Y-55983333D01*
X183395952Y-56078571D01*
X169537142Y-61497380D02*
X169203809Y-61021190D01*
X168965714Y-61497380D02*
X168965714Y-60497380D01*
X169346666Y-60497380D01*
X169441904Y-60545000D01*
X169489523Y-60592619D01*
X169537142Y-60687857D01*
X169537142Y-60830714D01*
X169489523Y-60925952D01*
X169441904Y-60973571D01*
X169346666Y-61021190D01*
X168965714Y-61021190D01*
X169918095Y-60592619D02*
X169965714Y-60545000D01*
X170060952Y-60497380D01*
X170299047Y-60497380D01*
X170394285Y-60545000D01*
X170441904Y-60592619D01*
X170489523Y-60687857D01*
X170489523Y-60783095D01*
X170441904Y-60925952D01*
X169870476Y-61497380D01*
X170489523Y-61497380D01*
X171108571Y-60497380D02*
X171203809Y-60497380D01*
X171299047Y-60545000D01*
X171346666Y-60592619D01*
X171394285Y-60687857D01*
X171441904Y-60878333D01*
X171441904Y-61116428D01*
X171394285Y-61306904D01*
X171346666Y-61402142D01*
X171299047Y-61449761D01*
X171203809Y-61497380D01*
X171108571Y-61497380D01*
X171013333Y-61449761D01*
X170965714Y-61402142D01*
X170918095Y-61306904D01*
X170870476Y-61116428D01*
X170870476Y-60878333D01*
X170918095Y-60687857D01*
X170965714Y-60592619D01*
X171013333Y-60545000D01*
X171108571Y-60497380D01*
X153027142Y-64587380D02*
X152693809Y-64111190D01*
X152455714Y-64587380D02*
X152455714Y-63587380D01*
X152836666Y-63587380D01*
X152931904Y-63635000D01*
X152979523Y-63682619D01*
X153027142Y-63777857D01*
X153027142Y-63920714D01*
X152979523Y-64015952D01*
X152931904Y-64063571D01*
X152836666Y-64111190D01*
X152455714Y-64111190D01*
X153408095Y-63682619D02*
X153455714Y-63635000D01*
X153550952Y-63587380D01*
X153789047Y-63587380D01*
X153884285Y-63635000D01*
X153931904Y-63682619D01*
X153979523Y-63777857D01*
X153979523Y-63873095D01*
X153931904Y-64015952D01*
X153360476Y-64587380D01*
X153979523Y-64587380D01*
X154931904Y-64587380D02*
X154360476Y-64587380D01*
X154646190Y-64587380D02*
X154646190Y-63587380D01*
X154550952Y-63730238D01*
X154455714Y-63825476D01*
X154360476Y-63873095D01*
X163187142Y-59422380D02*
X162853809Y-58946190D01*
X162615714Y-59422380D02*
X162615714Y-58422380D01*
X162996666Y-58422380D01*
X163091904Y-58470000D01*
X163139523Y-58517619D01*
X163187142Y-58612857D01*
X163187142Y-58755714D01*
X163139523Y-58850952D01*
X163091904Y-58898571D01*
X162996666Y-58946190D01*
X162615714Y-58946190D01*
X163568095Y-58517619D02*
X163615714Y-58470000D01*
X163710952Y-58422380D01*
X163949047Y-58422380D01*
X164044285Y-58470000D01*
X164091904Y-58517619D01*
X164139523Y-58612857D01*
X164139523Y-58708095D01*
X164091904Y-58850952D01*
X163520476Y-59422380D01*
X164139523Y-59422380D01*
X164520476Y-58517619D02*
X164568095Y-58470000D01*
X164663333Y-58422380D01*
X164901428Y-58422380D01*
X164996666Y-58470000D01*
X165044285Y-58517619D01*
X165091904Y-58612857D01*
X165091904Y-58708095D01*
X165044285Y-58850952D01*
X164472857Y-59422380D01*
X165091904Y-59422380D01*
X154297142Y-73562380D02*
X153963809Y-73086190D01*
X153725714Y-73562380D02*
X153725714Y-72562380D01*
X154106666Y-72562380D01*
X154201904Y-72610000D01*
X154249523Y-72657619D01*
X154297142Y-72752857D01*
X154297142Y-72895714D01*
X154249523Y-72990952D01*
X154201904Y-73038571D01*
X154106666Y-73086190D01*
X153725714Y-73086190D01*
X154678095Y-72657619D02*
X154725714Y-72610000D01*
X154820952Y-72562380D01*
X155059047Y-72562380D01*
X155154285Y-72610000D01*
X155201904Y-72657619D01*
X155249523Y-72752857D01*
X155249523Y-72848095D01*
X155201904Y-72990952D01*
X154630476Y-73562380D01*
X155249523Y-73562380D01*
X156154285Y-72562380D02*
X155678095Y-72562380D01*
X155630476Y-73038571D01*
X155678095Y-72990952D01*
X155773333Y-72943333D01*
X156011428Y-72943333D01*
X156106666Y-72990952D01*
X156154285Y-73038571D01*
X156201904Y-73133809D01*
X156201904Y-73371904D01*
X156154285Y-73467142D01*
X156106666Y-73514761D01*
X156011428Y-73562380D01*
X155773333Y-73562380D01*
X155678095Y-73514761D01*
X155630476Y-73467142D01*
X149762380Y-135262857D02*
X149286190Y-135596190D01*
X149762380Y-135834285D02*
X148762380Y-135834285D01*
X148762380Y-135453333D01*
X148810000Y-135358095D01*
X148857619Y-135310476D01*
X148952857Y-135262857D01*
X149095714Y-135262857D01*
X149190952Y-135310476D01*
X149238571Y-135358095D01*
X149286190Y-135453333D01*
X149286190Y-135834285D01*
X148857619Y-134881904D02*
X148810000Y-134834285D01*
X148762380Y-134739047D01*
X148762380Y-134500952D01*
X148810000Y-134405714D01*
X148857619Y-134358095D01*
X148952857Y-134310476D01*
X149048095Y-134310476D01*
X149190952Y-134358095D01*
X149762380Y-134929523D01*
X149762380Y-134310476D01*
X149190952Y-133739047D02*
X149143333Y-133834285D01*
X149095714Y-133881904D01*
X149000476Y-133929523D01*
X148952857Y-133929523D01*
X148857619Y-133881904D01*
X148810000Y-133834285D01*
X148762380Y-133739047D01*
X148762380Y-133548571D01*
X148810000Y-133453333D01*
X148857619Y-133405714D01*
X148952857Y-133358095D01*
X149000476Y-133358095D01*
X149095714Y-133405714D01*
X149143333Y-133453333D01*
X149190952Y-133548571D01*
X149190952Y-133739047D01*
X149238571Y-133834285D01*
X149286190Y-133881904D01*
X149381428Y-133929523D01*
X149571904Y-133929523D01*
X149667142Y-133881904D01*
X149714761Y-133834285D01*
X149762380Y-133739047D01*
X149762380Y-133548571D01*
X149714761Y-133453333D01*
X149667142Y-133405714D01*
X149571904Y-133358095D01*
X149381428Y-133358095D01*
X149286190Y-133405714D01*
X149238571Y-133453333D01*
X149190952Y-133548571D01*
X157212380Y-131452857D02*
X156736190Y-131786190D01*
X157212380Y-132024285D02*
X156212380Y-132024285D01*
X156212380Y-131643333D01*
X156260000Y-131548095D01*
X156307619Y-131500476D01*
X156402857Y-131452857D01*
X156545714Y-131452857D01*
X156640952Y-131500476D01*
X156688571Y-131548095D01*
X156736190Y-131643333D01*
X156736190Y-132024285D01*
X156307619Y-131071904D02*
X156260000Y-131024285D01*
X156212380Y-130929047D01*
X156212380Y-130690952D01*
X156260000Y-130595714D01*
X156307619Y-130548095D01*
X156402857Y-130500476D01*
X156498095Y-130500476D01*
X156640952Y-130548095D01*
X157212380Y-131119523D01*
X157212380Y-130500476D01*
X157212380Y-130024285D02*
X157212380Y-129833809D01*
X157164761Y-129738571D01*
X157117142Y-129690952D01*
X156974285Y-129595714D01*
X156783809Y-129548095D01*
X156402857Y-129548095D01*
X156307619Y-129595714D01*
X156260000Y-129643333D01*
X156212380Y-129738571D01*
X156212380Y-129929047D01*
X156260000Y-130024285D01*
X156307619Y-130071904D01*
X156402857Y-130119523D01*
X156640952Y-130119523D01*
X156736190Y-130071904D01*
X156783809Y-130024285D01*
X156831428Y-129929047D01*
X156831428Y-129738571D01*
X156783809Y-129643333D01*
X156736190Y-129595714D01*
X156640952Y-129548095D01*
X153402380Y-130182857D02*
X152926190Y-130516190D01*
X153402380Y-130754285D02*
X152402380Y-130754285D01*
X152402380Y-130373333D01*
X152450000Y-130278095D01*
X152497619Y-130230476D01*
X152592857Y-130182857D01*
X152735714Y-130182857D01*
X152830952Y-130230476D01*
X152878571Y-130278095D01*
X152926190Y-130373333D01*
X152926190Y-130754285D01*
X152402380Y-129849523D02*
X152402380Y-129230476D01*
X152783333Y-129563809D01*
X152783333Y-129420952D01*
X152830952Y-129325714D01*
X152878571Y-129278095D01*
X152973809Y-129230476D01*
X153211904Y-129230476D01*
X153307142Y-129278095D01*
X153354761Y-129325714D01*
X153402380Y-129420952D01*
X153402380Y-129706666D01*
X153354761Y-129801904D01*
X153307142Y-129849523D01*
X153402380Y-128278095D02*
X153402380Y-128849523D01*
X153402380Y-128563809D02*
X152402380Y-128563809D01*
X152545238Y-128659047D01*
X152640476Y-128754285D01*
X152688095Y-128849523D01*
X153757380Y-104901904D02*
X153757380Y-104330476D01*
X154757380Y-104616190D02*
X153757380Y-104616190D01*
X154757380Y-103473333D02*
X154757380Y-104044761D01*
X154757380Y-103759047D02*
X153757380Y-103759047D01*
X153900238Y-103854285D01*
X153995476Y-103949523D01*
X154043095Y-104044761D01*
X160147380Y-104901904D02*
X160147380Y-104330476D01*
X161147380Y-104616190D02*
X160147380Y-104616190D01*
X160242619Y-104044761D02*
X160195000Y-103997142D01*
X160147380Y-103901904D01*
X160147380Y-103663809D01*
X160195000Y-103568571D01*
X160242619Y-103520952D01*
X160337857Y-103473333D01*
X160433095Y-103473333D01*
X160575952Y-103520952D01*
X161147380Y-104092380D01*
X161147380Y-103473333D01*
X168148095Y-54697380D02*
X168719523Y-54697380D01*
X168433809Y-55697380D02*
X168433809Y-54697380D01*
X168957619Y-54697380D02*
X169576666Y-54697380D01*
X169243333Y-55078333D01*
X169386190Y-55078333D01*
X169481428Y-55125952D01*
X169529047Y-55173571D01*
X169576666Y-55268809D01*
X169576666Y-55506904D01*
X169529047Y-55602142D01*
X169481428Y-55649761D01*
X169386190Y-55697380D01*
X169100476Y-55697380D01*
X169005238Y-55649761D01*
X168957619Y-55602142D01*
X109807142Y-124282142D02*
X109759523Y-124329761D01*
X109616666Y-124377380D01*
X109521428Y-124377380D01*
X109378571Y-124329761D01*
X109283333Y-124234523D01*
X109235714Y-124139285D01*
X109188095Y-123948809D01*
X109188095Y-123805952D01*
X109235714Y-123615476D01*
X109283333Y-123520238D01*
X109378571Y-123425000D01*
X109521428Y-123377380D01*
X109616666Y-123377380D01*
X109759523Y-123425000D01*
X109807142Y-123472619D01*
X110759523Y-124377380D02*
X110188095Y-124377380D01*
X110473809Y-124377380D02*
X110473809Y-123377380D01*
X110378571Y-123520238D01*
X110283333Y-123615476D01*
X110188095Y-123663095D01*
X111664285Y-123377380D02*
X111188095Y-123377380D01*
X111140476Y-123853571D01*
X111188095Y-123805952D01*
X111283333Y-123758333D01*
X111521428Y-123758333D01*
X111616666Y-123805952D01*
X111664285Y-123853571D01*
X111711904Y-123948809D01*
X111711904Y-124186904D01*
X111664285Y-124282142D01*
X111616666Y-124329761D01*
X111521428Y-124377380D01*
X111283333Y-124377380D01*
X111188095Y-124329761D01*
X111140476Y-124282142D01*
X145672142Y-122522857D02*
X145719761Y-122570476D01*
X145767380Y-122713333D01*
X145767380Y-122808571D01*
X145719761Y-122951428D01*
X145624523Y-123046666D01*
X145529285Y-123094285D01*
X145338809Y-123141904D01*
X145195952Y-123141904D01*
X145005476Y-123094285D01*
X144910238Y-123046666D01*
X144815000Y-122951428D01*
X144767380Y-122808571D01*
X144767380Y-122713333D01*
X144815000Y-122570476D01*
X144862619Y-122522857D01*
X145767380Y-121570476D02*
X145767380Y-122141904D01*
X145767380Y-121856190D02*
X144767380Y-121856190D01*
X144910238Y-121951428D01*
X145005476Y-122046666D01*
X145053095Y-122141904D01*
X144767380Y-120713333D02*
X144767380Y-120903809D01*
X144815000Y-120999047D01*
X144862619Y-121046666D01*
X145005476Y-121141904D01*
X145195952Y-121189523D01*
X145576904Y-121189523D01*
X145672142Y-121141904D01*
X145719761Y-121094285D01*
X145767380Y-120999047D01*
X145767380Y-120808571D01*
X145719761Y-120713333D01*
X145672142Y-120665714D01*
X145576904Y-120618095D01*
X145338809Y-120618095D01*
X145243571Y-120665714D01*
X145195952Y-120713333D01*
X145148333Y-120808571D01*
X145148333Y-120999047D01*
X145195952Y-121094285D01*
X145243571Y-121141904D01*
X145338809Y-121189523D01*
M02*
