G04 #@! TF.GenerationSoftware,KiCad,Pcbnew,(5.1.5)-3*
G04 #@! TF.CreationDate,2020-10-16T18:01:36+02:00*
G04 #@! TF.ProjectId,Laboratorn_ zdroj,4c61626f-7261-4746-9f72-6eed207a6472,rev?*
G04 #@! TF.SameCoordinates,Original*
G04 #@! TF.FileFunction,Soldermask,Top*
G04 #@! TF.FilePolarity,Negative*
%FSLAX46Y46*%
G04 Gerber Fmt 4.6, Leading zero omitted, Abs format (unit mm)*
G04 Created by KiCad (PCBNEW (5.1.5)-3) date 2020-10-16 18:01:36*
%MOMM*%
%LPD*%
G04 APERTURE LIST*
%ADD10C,0.100000*%
G04 APERTURE END LIST*
D10*
G36*
X151898604Y-140428347D02*
G01*
X151935144Y-140439432D01*
X151968821Y-140457433D01*
X151998341Y-140481659D01*
X152022567Y-140511179D01*
X152040568Y-140544856D01*
X152051653Y-140581396D01*
X152056000Y-140625538D01*
X152056000Y-141574462D01*
X152051653Y-141618604D01*
X152040568Y-141655144D01*
X152022567Y-141688821D01*
X151998341Y-141718341D01*
X151968821Y-141742567D01*
X151935144Y-141760568D01*
X151898604Y-141771653D01*
X151854462Y-141776000D01*
X150405538Y-141776000D01*
X150361396Y-141771653D01*
X150324856Y-141760568D01*
X150291179Y-141742567D01*
X150261659Y-141718341D01*
X150237433Y-141688821D01*
X150219432Y-141655144D01*
X150208347Y-141618604D01*
X150204000Y-141574462D01*
X150204000Y-140625538D01*
X150208347Y-140581396D01*
X150219432Y-140544856D01*
X150237433Y-140511179D01*
X150261659Y-140481659D01*
X150291179Y-140457433D01*
X150324856Y-140439432D01*
X150361396Y-140428347D01*
X150405538Y-140424000D01*
X151854462Y-140424000D01*
X151898604Y-140428347D01*
G37*
G36*
X99362585Y-138178802D02*
G01*
X99512410Y-138208604D01*
X99794674Y-138325521D01*
X100048705Y-138495259D01*
X100264741Y-138711295D01*
X100434479Y-138965326D01*
X100551396Y-139247590D01*
X100611000Y-139547240D01*
X100611000Y-139852760D01*
X100551396Y-140152410D01*
X100434479Y-140434674D01*
X100264741Y-140688705D01*
X100048705Y-140904741D01*
X99794674Y-141074479D01*
X99512410Y-141191396D01*
X99362585Y-141221198D01*
X99212761Y-141251000D01*
X98907239Y-141251000D01*
X98757415Y-141221198D01*
X98607590Y-141191396D01*
X98325326Y-141074479D01*
X98071295Y-140904741D01*
X97855259Y-140688705D01*
X97685521Y-140434674D01*
X97568604Y-140152410D01*
X97509000Y-139852760D01*
X97509000Y-139547240D01*
X97568604Y-139247590D01*
X97685521Y-138965326D01*
X97855259Y-138711295D01*
X98071295Y-138495259D01*
X98325326Y-138325521D01*
X98607590Y-138208604D01*
X98757415Y-138178802D01*
X98907239Y-138149000D01*
X99212761Y-138149000D01*
X99362585Y-138178802D01*
G37*
G36*
X161642497Y-138188863D02*
G01*
X161742372Y-138208729D01*
X161859279Y-138257154D01*
X162024611Y-138325636D01*
X162278621Y-138495360D01*
X162494640Y-138711379D01*
X162664364Y-138965389D01*
X162729085Y-139121640D01*
X162781256Y-139247591D01*
X162781271Y-139247629D01*
X162840870Y-139547251D01*
X162840870Y-139852749D01*
X162822898Y-139943098D01*
X162781271Y-140152372D01*
X162732846Y-140269279D01*
X162664364Y-140434611D01*
X162494640Y-140688621D01*
X162278621Y-140904640D01*
X162024611Y-141074364D01*
X161859279Y-141142846D01*
X161742372Y-141191271D01*
X161642497Y-141211137D01*
X161442749Y-141250870D01*
X161137251Y-141250870D01*
X160937503Y-141211137D01*
X160837628Y-141191271D01*
X160720721Y-141142846D01*
X160555389Y-141074364D01*
X160301379Y-140904640D01*
X160085360Y-140688621D01*
X159915636Y-140434611D01*
X159847154Y-140269279D01*
X159798729Y-140152372D01*
X159757102Y-139943098D01*
X159739130Y-139852749D01*
X159739130Y-139547251D01*
X159798729Y-139247629D01*
X159798745Y-139247591D01*
X159850915Y-139121640D01*
X159915636Y-138965389D01*
X160085360Y-138711379D01*
X160301379Y-138495360D01*
X160555389Y-138325636D01*
X160720721Y-138257154D01*
X160837628Y-138208729D01*
X160937503Y-138188863D01*
X161137251Y-138149130D01*
X161442749Y-138149130D01*
X161642497Y-138188863D01*
G37*
G36*
X156562497Y-138188863D02*
G01*
X156662372Y-138208729D01*
X156779279Y-138257154D01*
X156944611Y-138325636D01*
X157198621Y-138495360D01*
X157414640Y-138711379D01*
X157584364Y-138965389D01*
X157649085Y-139121640D01*
X157701256Y-139247591D01*
X157701271Y-139247629D01*
X157760870Y-139547251D01*
X157760870Y-139852749D01*
X157742898Y-139943098D01*
X157701271Y-140152372D01*
X157652846Y-140269279D01*
X157584364Y-140434611D01*
X157414640Y-140688621D01*
X157198621Y-140904640D01*
X156944611Y-141074364D01*
X156779279Y-141142846D01*
X156662372Y-141191271D01*
X156562497Y-141211137D01*
X156362749Y-141250870D01*
X156057251Y-141250870D01*
X155857503Y-141211137D01*
X155757628Y-141191271D01*
X155640721Y-141142846D01*
X155475389Y-141074364D01*
X155221379Y-140904640D01*
X155005360Y-140688621D01*
X154835636Y-140434611D01*
X154767154Y-140269279D01*
X154718729Y-140152372D01*
X154677102Y-139943098D01*
X154659130Y-139852749D01*
X154659130Y-139547251D01*
X154718729Y-139247629D01*
X154718745Y-139247591D01*
X154770915Y-139121640D01*
X154835636Y-138965389D01*
X155005360Y-138711379D01*
X155221379Y-138495360D01*
X155475389Y-138325636D01*
X155640721Y-138257154D01*
X155757628Y-138208729D01*
X155857503Y-138188863D01*
X156057251Y-138149130D01*
X156362749Y-138149130D01*
X156562497Y-138188863D01*
G37*
G36*
X166650870Y-141250870D02*
G01*
X163549130Y-141250870D01*
X163549130Y-138149130D01*
X166650870Y-138149130D01*
X166650870Y-141250870D01*
G37*
G36*
X131647506Y-138495360D02*
G01*
X131801153Y-138525922D01*
X131867041Y-138553214D01*
X132023359Y-138617963D01*
X132223342Y-138751587D01*
X132393413Y-138921658D01*
X132527037Y-139121641D01*
X132560391Y-139202165D01*
X132619078Y-139343847D01*
X132666000Y-139579742D01*
X132666000Y-139820258D01*
X132628942Y-140006565D01*
X132619078Y-140056152D01*
X132527037Y-140278359D01*
X132393413Y-140478342D01*
X132223342Y-140648413D01*
X132023359Y-140782037D01*
X131893194Y-140835953D01*
X131801153Y-140874078D01*
X131565259Y-140921000D01*
X131324741Y-140921000D01*
X131088847Y-140874078D01*
X130996806Y-140835953D01*
X130866641Y-140782037D01*
X130666658Y-140648413D01*
X130496587Y-140478342D01*
X130362963Y-140278359D01*
X130270922Y-140056152D01*
X130261059Y-140006565D01*
X130224000Y-139820258D01*
X130224000Y-139579742D01*
X130270922Y-139343847D01*
X130329609Y-139202165D01*
X130362963Y-139121641D01*
X130496587Y-138921658D01*
X130666658Y-138751587D01*
X130866641Y-138617963D01*
X131022959Y-138553214D01*
X131088847Y-138525922D01*
X131242494Y-138495360D01*
X131324741Y-138479000D01*
X131565259Y-138479000D01*
X131647506Y-138495360D01*
G37*
G36*
X121076564Y-138689389D02*
G01*
X121267833Y-138768615D01*
X121267835Y-138768616D01*
X121439973Y-138883635D01*
X121586365Y-139030027D01*
X121647580Y-139121641D01*
X121701385Y-139202167D01*
X121780611Y-139393436D01*
X121821000Y-139596484D01*
X121821000Y-139803516D01*
X121780611Y-140006564D01*
X121720200Y-140152409D01*
X121701384Y-140197835D01*
X121586365Y-140369973D01*
X121439973Y-140516365D01*
X121267835Y-140631384D01*
X121267834Y-140631385D01*
X121267833Y-140631385D01*
X121076564Y-140710611D01*
X120873516Y-140751000D01*
X120666484Y-140751000D01*
X120463436Y-140710611D01*
X120272167Y-140631385D01*
X120272166Y-140631385D01*
X120272165Y-140631384D01*
X120100027Y-140516365D01*
X119953635Y-140369973D01*
X119838616Y-140197835D01*
X119819800Y-140152409D01*
X119759389Y-140006564D01*
X119719000Y-139803516D01*
X119719000Y-139596484D01*
X119759389Y-139393436D01*
X119838615Y-139202167D01*
X119892421Y-139121641D01*
X119953635Y-139030027D01*
X120100027Y-138883635D01*
X120272165Y-138768616D01*
X120272167Y-138768615D01*
X120463436Y-138689389D01*
X120666484Y-138649000D01*
X120873516Y-138649000D01*
X121076564Y-138689389D01*
G37*
G36*
X117226564Y-138689389D02*
G01*
X117417833Y-138768615D01*
X117417835Y-138768616D01*
X117589973Y-138883635D01*
X117736365Y-139030027D01*
X117797580Y-139121641D01*
X117851385Y-139202167D01*
X117930611Y-139393436D01*
X117971000Y-139596484D01*
X117971000Y-139803516D01*
X117930611Y-140006564D01*
X117870200Y-140152409D01*
X117851384Y-140197835D01*
X117736365Y-140369973D01*
X117589973Y-140516365D01*
X117417835Y-140631384D01*
X117417834Y-140631385D01*
X117417833Y-140631385D01*
X117226564Y-140710611D01*
X117023516Y-140751000D01*
X116816484Y-140751000D01*
X116613436Y-140710611D01*
X116422167Y-140631385D01*
X116422166Y-140631385D01*
X116422165Y-140631384D01*
X116250027Y-140516365D01*
X116103635Y-140369973D01*
X115988616Y-140197835D01*
X115969800Y-140152409D01*
X115909389Y-140006564D01*
X115869000Y-139803516D01*
X115869000Y-139596484D01*
X115909389Y-139393436D01*
X115988615Y-139202167D01*
X116042421Y-139121641D01*
X116103635Y-139030027D01*
X116250027Y-138883635D01*
X116422165Y-138768616D01*
X116422167Y-138768615D01*
X116613436Y-138689389D01*
X116816484Y-138649000D01*
X117023516Y-138649000D01*
X117226564Y-138689389D01*
G37*
G36*
X110271000Y-140751000D02*
G01*
X108169000Y-140751000D01*
X108169000Y-138649000D01*
X110271000Y-138649000D01*
X110271000Y-140751000D01*
G37*
G36*
X113376564Y-138689389D02*
G01*
X113567833Y-138768615D01*
X113567835Y-138768616D01*
X113739973Y-138883635D01*
X113886365Y-139030027D01*
X113947580Y-139121641D01*
X114001385Y-139202167D01*
X114080611Y-139393436D01*
X114121000Y-139596484D01*
X114121000Y-139803516D01*
X114080611Y-140006564D01*
X114020200Y-140152409D01*
X114001384Y-140197835D01*
X113886365Y-140369973D01*
X113739973Y-140516365D01*
X113567835Y-140631384D01*
X113567834Y-140631385D01*
X113567833Y-140631385D01*
X113376564Y-140710611D01*
X113173516Y-140751000D01*
X112966484Y-140751000D01*
X112763436Y-140710611D01*
X112572167Y-140631385D01*
X112572166Y-140631385D01*
X112572165Y-140631384D01*
X112400027Y-140516365D01*
X112253635Y-140369973D01*
X112138616Y-140197835D01*
X112119800Y-140152409D01*
X112059389Y-140006564D01*
X112019000Y-139803516D01*
X112019000Y-139596484D01*
X112059389Y-139393436D01*
X112138615Y-139202167D01*
X112192421Y-139121641D01*
X112253635Y-139030027D01*
X112400027Y-138883635D01*
X112572165Y-138768616D01*
X112572167Y-138768615D01*
X112763436Y-138689389D01*
X112966484Y-138649000D01*
X113173516Y-138649000D01*
X113376564Y-138689389D01*
G37*
G36*
X89195256Y-136871298D02*
G01*
X89301579Y-136892447D01*
X89602042Y-137016903D01*
X89872451Y-137197585D01*
X90102415Y-137427549D01*
X90239382Y-137632534D01*
X90283098Y-137697960D01*
X90407553Y-137998422D01*
X90471000Y-138317389D01*
X90471000Y-138642611D01*
X90428724Y-138855144D01*
X90407553Y-138961579D01*
X90382290Y-139022569D01*
X90289068Y-139247628D01*
X90283097Y-139262042D01*
X90102415Y-139532451D01*
X89872451Y-139762415D01*
X89602042Y-139943097D01*
X89301579Y-140067553D01*
X89195256Y-140088702D01*
X88982611Y-140131000D01*
X88657389Y-140131000D01*
X88444744Y-140088702D01*
X88338421Y-140067553D01*
X88037958Y-139943097D01*
X87767549Y-139762415D01*
X87537585Y-139532451D01*
X87356903Y-139262042D01*
X87350933Y-139247628D01*
X87257710Y-139022569D01*
X87232447Y-138961579D01*
X87211276Y-138855144D01*
X87169000Y-138642611D01*
X87169000Y-138317389D01*
X87232447Y-137998422D01*
X87356902Y-137697960D01*
X87400618Y-137632534D01*
X87537585Y-137427549D01*
X87767549Y-137197585D01*
X88037958Y-137016903D01*
X88338421Y-136892447D01*
X88444744Y-136871298D01*
X88657389Y-136829000D01*
X88982611Y-136829000D01*
X89195256Y-136871298D01*
G37*
G36*
X193395256Y-136871298D02*
G01*
X193501579Y-136892447D01*
X193802042Y-137016903D01*
X194072451Y-137197585D01*
X194302415Y-137427549D01*
X194439382Y-137632534D01*
X194483098Y-137697960D01*
X194607553Y-137998422D01*
X194671000Y-138317389D01*
X194671000Y-138642611D01*
X194628724Y-138855144D01*
X194607553Y-138961579D01*
X194582290Y-139022569D01*
X194489068Y-139247628D01*
X194483097Y-139262042D01*
X194302415Y-139532451D01*
X194072451Y-139762415D01*
X193802042Y-139943097D01*
X193501579Y-140067553D01*
X193395256Y-140088702D01*
X193182611Y-140131000D01*
X192857389Y-140131000D01*
X192644744Y-140088702D01*
X192538421Y-140067553D01*
X192237958Y-139943097D01*
X191967549Y-139762415D01*
X191737585Y-139532451D01*
X191556903Y-139262042D01*
X191550933Y-139247628D01*
X191457710Y-139022569D01*
X191432447Y-138961579D01*
X191411276Y-138855144D01*
X191369000Y-138642611D01*
X191369000Y-138317389D01*
X191432447Y-137998422D01*
X191556902Y-137697960D01*
X191600618Y-137632534D01*
X191737585Y-137427549D01*
X191967549Y-137197585D01*
X192237958Y-137016903D01*
X192538421Y-136892447D01*
X192644744Y-136871298D01*
X192857389Y-136829000D01*
X193182611Y-136829000D01*
X193395256Y-136871298D01*
G37*
G36*
X183244903Y-137227075D02*
G01*
X183472571Y-137321378D01*
X183677466Y-137458285D01*
X183851715Y-137632534D01*
X183988622Y-137837429D01*
X183988623Y-137837431D01*
X184082925Y-138065097D01*
X184131000Y-138306786D01*
X184131000Y-138553214D01*
X184082925Y-138794903D01*
X184014305Y-138960568D01*
X183988622Y-139022571D01*
X183851715Y-139227466D01*
X183677466Y-139401715D01*
X183472571Y-139538622D01*
X183472570Y-139538623D01*
X183472569Y-139538623D01*
X183244903Y-139632925D01*
X183003214Y-139681000D01*
X182756786Y-139681000D01*
X182515097Y-139632925D01*
X182287431Y-139538623D01*
X182287430Y-139538623D01*
X182287429Y-139538622D01*
X182082534Y-139401715D01*
X181908285Y-139227466D01*
X181771378Y-139022571D01*
X181745696Y-138960568D01*
X181677075Y-138794903D01*
X181629000Y-138553214D01*
X181629000Y-138306786D01*
X181677075Y-138065097D01*
X181771377Y-137837431D01*
X181771378Y-137837429D01*
X181908285Y-137632534D01*
X182082534Y-137458285D01*
X182287429Y-137321378D01*
X182515097Y-137227075D01*
X182756786Y-137179000D01*
X183003214Y-137179000D01*
X183244903Y-137227075D01*
G37*
G36*
X173084903Y-137227075D02*
G01*
X173312571Y-137321378D01*
X173517466Y-137458285D01*
X173691715Y-137632534D01*
X173828622Y-137837429D01*
X173828623Y-137837431D01*
X173922925Y-138065097D01*
X173971000Y-138306786D01*
X173971000Y-138553214D01*
X173922925Y-138794903D01*
X173854305Y-138960568D01*
X173828622Y-139022571D01*
X173691715Y-139227466D01*
X173517466Y-139401715D01*
X173312571Y-139538622D01*
X173312570Y-139538623D01*
X173312569Y-139538623D01*
X173084903Y-139632925D01*
X172843214Y-139681000D01*
X172596786Y-139681000D01*
X172355097Y-139632925D01*
X172127431Y-139538623D01*
X172127430Y-139538623D01*
X172127429Y-139538622D01*
X171922534Y-139401715D01*
X171748285Y-139227466D01*
X171611378Y-139022571D01*
X171585696Y-138960568D01*
X171517075Y-138794903D01*
X171469000Y-138553214D01*
X171469000Y-138306786D01*
X171517075Y-138065097D01*
X171611377Y-137837431D01*
X171611378Y-137837429D01*
X171748285Y-137632534D01*
X171922534Y-137458285D01*
X172127429Y-137321378D01*
X172355097Y-137227075D01*
X172596786Y-137179000D01*
X172843214Y-137179000D01*
X173084903Y-137227075D01*
G37*
G36*
X151898604Y-137628347D02*
G01*
X151935144Y-137639432D01*
X151968821Y-137657433D01*
X151998341Y-137681659D01*
X152022567Y-137711179D01*
X152040568Y-137744856D01*
X152051653Y-137781396D01*
X152056000Y-137825538D01*
X152056000Y-138774462D01*
X152051653Y-138818604D01*
X152040568Y-138855144D01*
X152022567Y-138888821D01*
X151998341Y-138918341D01*
X151968821Y-138942567D01*
X151935144Y-138960568D01*
X151898604Y-138971653D01*
X151854462Y-138976000D01*
X150405538Y-138976000D01*
X150361396Y-138971653D01*
X150324856Y-138960568D01*
X150291179Y-138942567D01*
X150261659Y-138918341D01*
X150237433Y-138888821D01*
X150219432Y-138855144D01*
X150208347Y-138818604D01*
X150204000Y-138774462D01*
X150204000Y-137825538D01*
X150208347Y-137781396D01*
X150219432Y-137744856D01*
X150237433Y-137711179D01*
X150261659Y-137681659D01*
X150291179Y-137657433D01*
X150324856Y-137639432D01*
X150361396Y-137628347D01*
X150405538Y-137624000D01*
X151854462Y-137624000D01*
X151898604Y-137628347D01*
G37*
G36*
X157760870Y-137440870D02*
G01*
X154659130Y-137440870D01*
X154659130Y-134339130D01*
X157760870Y-134339130D01*
X157760870Y-137440870D01*
G37*
G36*
X151898604Y-135348347D02*
G01*
X151935144Y-135359432D01*
X151968821Y-135377433D01*
X151998341Y-135401659D01*
X152022567Y-135431179D01*
X152040568Y-135464856D01*
X152051653Y-135501396D01*
X152056000Y-135545538D01*
X152056000Y-136494462D01*
X152051653Y-136538604D01*
X152040568Y-136575144D01*
X152022567Y-136608821D01*
X151998341Y-136638341D01*
X151968821Y-136662567D01*
X151935144Y-136680568D01*
X151898604Y-136691653D01*
X151854462Y-136696000D01*
X150405538Y-136696000D01*
X150361396Y-136691653D01*
X150324856Y-136680568D01*
X150291179Y-136662567D01*
X150261659Y-136638341D01*
X150237433Y-136608821D01*
X150219432Y-136575144D01*
X150208347Y-136538604D01*
X150204000Y-136494462D01*
X150204000Y-135545538D01*
X150208347Y-135501396D01*
X150219432Y-135464856D01*
X150237433Y-135431179D01*
X150261659Y-135401659D01*
X150291179Y-135377433D01*
X150324856Y-135359432D01*
X150361396Y-135348347D01*
X150405538Y-135344000D01*
X151854462Y-135344000D01*
X151898604Y-135348347D01*
G37*
G36*
X146801153Y-133525922D02*
G01*
X146893194Y-133564047D01*
X147023359Y-133617963D01*
X147223342Y-133751587D01*
X147393413Y-133921658D01*
X147527037Y-134121641D01*
X147619078Y-134343848D01*
X147666000Y-134579741D01*
X147666000Y-134820259D01*
X147619078Y-135056152D01*
X147527037Y-135278359D01*
X147393413Y-135478342D01*
X147223342Y-135648413D01*
X147023359Y-135782037D01*
X146893194Y-135835953D01*
X146801153Y-135874078D01*
X146683205Y-135897539D01*
X146565259Y-135921000D01*
X146324741Y-135921000D01*
X146206795Y-135897539D01*
X146088847Y-135874078D01*
X145996806Y-135835953D01*
X145866641Y-135782037D01*
X145666658Y-135648413D01*
X145496587Y-135478342D01*
X145362963Y-135278359D01*
X145270922Y-135056152D01*
X145224000Y-134820259D01*
X145224000Y-134579741D01*
X145270922Y-134343848D01*
X145362963Y-134121641D01*
X145496587Y-133921658D01*
X145666658Y-133751587D01*
X145866641Y-133617963D01*
X145996806Y-133564047D01*
X146088847Y-133525922D01*
X146324741Y-133479000D01*
X146565259Y-133479000D01*
X146801153Y-133525922D01*
G37*
G36*
X165861000Y-135571000D02*
G01*
X163259000Y-135571000D01*
X163259000Y-133669000D01*
X165861000Y-133669000D01*
X165861000Y-135571000D01*
G37*
G36*
X161861000Y-135571000D02*
G01*
X159259000Y-135571000D01*
X159259000Y-133669000D01*
X161861000Y-133669000D01*
X161861000Y-135571000D01*
G37*
G36*
X151898604Y-132548347D02*
G01*
X151935144Y-132559432D01*
X151968821Y-132577433D01*
X151998341Y-132601659D01*
X152022567Y-132631179D01*
X152040568Y-132664856D01*
X152051653Y-132701396D01*
X152056000Y-132745538D01*
X152056000Y-133694462D01*
X152051653Y-133738604D01*
X152040568Y-133775144D01*
X152022567Y-133808821D01*
X151998341Y-133838341D01*
X151968821Y-133862567D01*
X151935144Y-133880568D01*
X151898604Y-133891653D01*
X151854462Y-133896000D01*
X150405538Y-133896000D01*
X150361396Y-133891653D01*
X150324856Y-133880568D01*
X150291179Y-133862567D01*
X150261659Y-133838341D01*
X150237433Y-133808821D01*
X150219432Y-133775144D01*
X150208347Y-133738604D01*
X150204000Y-133694462D01*
X150204000Y-132745538D01*
X150208347Y-132701396D01*
X150219432Y-132664856D01*
X150237433Y-132631179D01*
X150261659Y-132601659D01*
X150291179Y-132577433D01*
X150324856Y-132559432D01*
X150361396Y-132548347D01*
X150405538Y-132544000D01*
X151854462Y-132544000D01*
X151898604Y-132548347D01*
G37*
G36*
X155708604Y-131538347D02*
G01*
X155745144Y-131549432D01*
X155778821Y-131567433D01*
X155808341Y-131591659D01*
X155832567Y-131621179D01*
X155850568Y-131654856D01*
X155861653Y-131691396D01*
X155866000Y-131735538D01*
X155866000Y-132684462D01*
X155861653Y-132728604D01*
X155850568Y-132765144D01*
X155832567Y-132798821D01*
X155808341Y-132828341D01*
X155778821Y-132852567D01*
X155745144Y-132870568D01*
X155708604Y-132881653D01*
X155664462Y-132886000D01*
X154215538Y-132886000D01*
X154171396Y-132881653D01*
X154134856Y-132870568D01*
X154101179Y-132852567D01*
X154071659Y-132828341D01*
X154047433Y-132798821D01*
X154029432Y-132765144D01*
X154018347Y-132728604D01*
X154014000Y-132684462D01*
X154014000Y-131735538D01*
X154018347Y-131691396D01*
X154029432Y-131654856D01*
X154047433Y-131621179D01*
X154071659Y-131591659D01*
X154101179Y-131567433D01*
X154134856Y-131549432D01*
X154171396Y-131538347D01*
X154215538Y-131534000D01*
X155664462Y-131534000D01*
X155708604Y-131538347D01*
G37*
G36*
X151898604Y-130268347D02*
G01*
X151935144Y-130279432D01*
X151968821Y-130297433D01*
X151998341Y-130321659D01*
X152022567Y-130351179D01*
X152040568Y-130384856D01*
X152051653Y-130421396D01*
X152056000Y-130465538D01*
X152056000Y-131414462D01*
X152051653Y-131458604D01*
X152040568Y-131495144D01*
X152022567Y-131528821D01*
X151998341Y-131558341D01*
X151968821Y-131582567D01*
X151935144Y-131600568D01*
X151898604Y-131611653D01*
X151854462Y-131616000D01*
X150405538Y-131616000D01*
X150361396Y-131611653D01*
X150324856Y-131600568D01*
X150291179Y-131582567D01*
X150261659Y-131558341D01*
X150237433Y-131528821D01*
X150219432Y-131495144D01*
X150208347Y-131458604D01*
X150204000Y-131414462D01*
X150204000Y-130465538D01*
X150208347Y-130421396D01*
X150219432Y-130384856D01*
X150237433Y-130351179D01*
X150261659Y-130321659D01*
X150291179Y-130297433D01*
X150324856Y-130279432D01*
X150361396Y-130268347D01*
X150405538Y-130264000D01*
X151854462Y-130264000D01*
X151898604Y-130268347D01*
G37*
G36*
X113256564Y-129164389D02*
G01*
X113447833Y-129243615D01*
X113447835Y-129243616D01*
X113596701Y-129343085D01*
X113619973Y-129358635D01*
X113766365Y-129505027D01*
X113881385Y-129677167D01*
X113960611Y-129868436D01*
X114001000Y-130071484D01*
X114001000Y-130278516D01*
X113960611Y-130481564D01*
X113891500Y-130648413D01*
X113881384Y-130672835D01*
X113766365Y-130844973D01*
X113619973Y-130991365D01*
X113447835Y-131106384D01*
X113447834Y-131106385D01*
X113447833Y-131106385D01*
X113256564Y-131185611D01*
X113053516Y-131226000D01*
X112846484Y-131226000D01*
X112643436Y-131185611D01*
X112452167Y-131106385D01*
X112452166Y-131106385D01*
X112452165Y-131106384D01*
X112280027Y-130991365D01*
X112133635Y-130844973D01*
X112018616Y-130672835D01*
X112008500Y-130648413D01*
X111939389Y-130481564D01*
X111899000Y-130278516D01*
X111899000Y-130071484D01*
X111939389Y-129868436D01*
X112018615Y-129677167D01*
X112133635Y-129505027D01*
X112280027Y-129358635D01*
X112303299Y-129343085D01*
X112452165Y-129243616D01*
X112452167Y-129243615D01*
X112643436Y-129164389D01*
X112846484Y-129124000D01*
X113053516Y-129124000D01*
X113256564Y-129164389D01*
G37*
G36*
X109001000Y-131226000D02*
G01*
X106899000Y-131226000D01*
X106899000Y-129124000D01*
X109001000Y-129124000D01*
X109001000Y-131226000D01*
G37*
G36*
X161521000Y-130941000D02*
G01*
X160519000Y-130941000D01*
X160519000Y-130039000D01*
X161521000Y-130039000D01*
X161521000Y-130941000D01*
G37*
G36*
X131683205Y-128502461D02*
G01*
X131801153Y-128525922D01*
X131848659Y-128545600D01*
X132023359Y-128617963D01*
X132223342Y-128751587D01*
X132393413Y-128921658D01*
X132527037Y-129121641D01*
X132544744Y-129164390D01*
X132618763Y-129343086D01*
X132619078Y-129343848D01*
X132657743Y-129538228D01*
X132666000Y-129579742D01*
X132666000Y-129820258D01*
X132619078Y-130056153D01*
X132608867Y-130080804D01*
X132527037Y-130278359D01*
X132393413Y-130478342D01*
X132223342Y-130648413D01*
X132023359Y-130782037D01*
X131893194Y-130835953D01*
X131801153Y-130874078D01*
X131565259Y-130921000D01*
X131324741Y-130921000D01*
X131088847Y-130874078D01*
X130996806Y-130835953D01*
X130866641Y-130782037D01*
X130666658Y-130648413D01*
X130496587Y-130478342D01*
X130362963Y-130278359D01*
X130281133Y-130080804D01*
X130270922Y-130056153D01*
X130224000Y-129820258D01*
X130224000Y-129579742D01*
X130232258Y-129538228D01*
X130270922Y-129343848D01*
X130271238Y-129343086D01*
X130345256Y-129164390D01*
X130362963Y-129121641D01*
X130496587Y-128921658D01*
X130666658Y-128751587D01*
X130866641Y-128617963D01*
X131041341Y-128545600D01*
X131088847Y-128525922D01*
X131206795Y-128502461D01*
X131324741Y-128479000D01*
X131565259Y-128479000D01*
X131683205Y-128502461D01*
G37*
G36*
X155708604Y-128738347D02*
G01*
X155745144Y-128749432D01*
X155778821Y-128767433D01*
X155808341Y-128791659D01*
X155832567Y-128821179D01*
X155850568Y-128854856D01*
X155861653Y-128891396D01*
X155866000Y-128935538D01*
X155866000Y-129884462D01*
X155861653Y-129928604D01*
X155850568Y-129965144D01*
X155832567Y-129998821D01*
X155808341Y-130028341D01*
X155778821Y-130052567D01*
X155745144Y-130070568D01*
X155708604Y-130081653D01*
X155664462Y-130086000D01*
X154215538Y-130086000D01*
X154171396Y-130081653D01*
X154134856Y-130070568D01*
X154101179Y-130052567D01*
X154071659Y-130028341D01*
X154047433Y-129998821D01*
X154029432Y-129965144D01*
X154018347Y-129928604D01*
X154014000Y-129884462D01*
X154014000Y-128935538D01*
X154018347Y-128891396D01*
X154029432Y-128854856D01*
X154047433Y-128821179D01*
X154071659Y-128791659D01*
X154101179Y-128767433D01*
X154134856Y-128749432D01*
X154171396Y-128738347D01*
X154215538Y-128734000D01*
X155664462Y-128734000D01*
X155708604Y-128738347D01*
G37*
G36*
X159521000Y-129991000D02*
G01*
X158519000Y-129991000D01*
X158519000Y-129089000D01*
X159521000Y-129089000D01*
X159521000Y-129991000D01*
G37*
G36*
X99378433Y-127084893D02*
G01*
X99468657Y-127102839D01*
X99574267Y-127146585D01*
X99723621Y-127208449D01*
X99723622Y-127208450D01*
X99953086Y-127361772D01*
X100148228Y-127556914D01*
X100166442Y-127584174D01*
X100301551Y-127786379D01*
X100407161Y-128041344D01*
X100461000Y-128312012D01*
X100461000Y-128587988D01*
X100431399Y-128736802D01*
X100407161Y-128858657D01*
X100368642Y-128951648D01*
X100301551Y-129113621D01*
X100301550Y-129113622D01*
X100148228Y-129343086D01*
X99953086Y-129538228D01*
X99799763Y-129640675D01*
X99723621Y-129691551D01*
X99574267Y-129753415D01*
X99468657Y-129797161D01*
X99378433Y-129815107D01*
X99197988Y-129851000D01*
X98922012Y-129851000D01*
X98741567Y-129815107D01*
X98651343Y-129797161D01*
X98545733Y-129753415D01*
X98396379Y-129691551D01*
X98320237Y-129640675D01*
X98166914Y-129538228D01*
X97971772Y-129343086D01*
X97818450Y-129113622D01*
X97818449Y-129113621D01*
X97751358Y-128951648D01*
X97712839Y-128858657D01*
X97688601Y-128736802D01*
X97659000Y-128587988D01*
X97659000Y-128312012D01*
X97712839Y-128041344D01*
X97818449Y-127786379D01*
X97953558Y-127584174D01*
X97971772Y-127556914D01*
X98166914Y-127361772D01*
X98396378Y-127208450D01*
X98396379Y-127208449D01*
X98545733Y-127146585D01*
X98651343Y-127102839D01*
X98741567Y-127084893D01*
X98922012Y-127049000D01*
X99197988Y-127049000D01*
X99378433Y-127084893D01*
G37*
G36*
X161521000Y-129041000D02*
G01*
X160519000Y-129041000D01*
X160519000Y-128139000D01*
X161521000Y-128139000D01*
X161521000Y-129041000D01*
G37*
G36*
X151898604Y-127468347D02*
G01*
X151935144Y-127479432D01*
X151968821Y-127497433D01*
X151998341Y-127521659D01*
X152022567Y-127551179D01*
X152040568Y-127584856D01*
X152051653Y-127621396D01*
X152056000Y-127665538D01*
X152056000Y-128614462D01*
X152051653Y-128658604D01*
X152040568Y-128695144D01*
X152022567Y-128728821D01*
X151998341Y-128758341D01*
X151968821Y-128782567D01*
X151935144Y-128800568D01*
X151898604Y-128811653D01*
X151854462Y-128816000D01*
X150405538Y-128816000D01*
X150361396Y-128811653D01*
X150324856Y-128800568D01*
X150291179Y-128782567D01*
X150261659Y-128758341D01*
X150237433Y-128728821D01*
X150219432Y-128695144D01*
X150208347Y-128658604D01*
X150204000Y-128614462D01*
X150204000Y-127665538D01*
X150208347Y-127621396D01*
X150219432Y-127584856D01*
X150237433Y-127551179D01*
X150261659Y-127521659D01*
X150291179Y-127497433D01*
X150324856Y-127479432D01*
X150361396Y-127468347D01*
X150405538Y-127464000D01*
X151854462Y-127464000D01*
X151898604Y-127468347D01*
G37*
G36*
X89252497Y-125006863D02*
G01*
X89352372Y-125026729D01*
X89469279Y-125075154D01*
X89634611Y-125143636D01*
X89888621Y-125313360D01*
X90104640Y-125529379D01*
X90274364Y-125783389D01*
X90391271Y-126065629D01*
X90450870Y-126365251D01*
X90450870Y-126670749D01*
X90391271Y-126970371D01*
X90274364Y-127252611D01*
X90104640Y-127506621D01*
X89888621Y-127722640D01*
X89634611Y-127892364D01*
X89469279Y-127960846D01*
X89352372Y-128009271D01*
X89252497Y-128029137D01*
X89052749Y-128068870D01*
X88747251Y-128068870D01*
X88547503Y-128029137D01*
X88447628Y-128009271D01*
X88330721Y-127960846D01*
X88165389Y-127892364D01*
X87911379Y-127722640D01*
X87695360Y-127506621D01*
X87525636Y-127252611D01*
X87408729Y-126970371D01*
X87349130Y-126670749D01*
X87349130Y-126365251D01*
X87408729Y-126065629D01*
X87525636Y-125783389D01*
X87695360Y-125529379D01*
X87911379Y-125313360D01*
X88165389Y-125143636D01*
X88330721Y-125075154D01*
X88447628Y-125026729D01*
X88547503Y-125006863D01*
X88747251Y-124967130D01*
X89052749Y-124967130D01*
X89252497Y-125006863D01*
G37*
G36*
X124656719Y-124693520D02*
G01*
X124845880Y-124750901D01*
X124845883Y-124750902D01*
X124938333Y-124800318D01*
X125020212Y-124844083D01*
X125173015Y-124969485D01*
X125298417Y-125122288D01*
X125391599Y-125296619D01*
X125448980Y-125485780D01*
X125463500Y-125633206D01*
X125463500Y-125826793D01*
X125448980Y-125974219D01*
X125421251Y-126065629D01*
X125391598Y-126163383D01*
X125342182Y-126255833D01*
X125298417Y-126337712D01*
X125173015Y-126490515D01*
X125020212Y-126615917D01*
X124845881Y-126709099D01*
X124656720Y-126766480D01*
X124460000Y-126785855D01*
X124263281Y-126766480D01*
X124074120Y-126709099D01*
X123899788Y-126615917D01*
X123746985Y-126490515D01*
X123621583Y-126337712D01*
X123528401Y-126163381D01*
X123471020Y-125974220D01*
X123456500Y-125826794D01*
X123456500Y-125633207D01*
X123471020Y-125485781D01*
X123528401Y-125296620D01*
X123528402Y-125296617D01*
X123610172Y-125143637D01*
X123621583Y-125122288D01*
X123746985Y-124969485D01*
X123899788Y-124844083D01*
X124074119Y-124750901D01*
X124263280Y-124693520D01*
X124460000Y-124674145D01*
X124656719Y-124693520D01*
G37*
G36*
X122116719Y-124693520D02*
G01*
X122305880Y-124750901D01*
X122305883Y-124750902D01*
X122398333Y-124800318D01*
X122480212Y-124844083D01*
X122633015Y-124969485D01*
X122758417Y-125122288D01*
X122851599Y-125296619D01*
X122908980Y-125485780D01*
X122923500Y-125633206D01*
X122923500Y-125826793D01*
X122908980Y-125974219D01*
X122881251Y-126065629D01*
X122851598Y-126163383D01*
X122802182Y-126255833D01*
X122758417Y-126337712D01*
X122633015Y-126490515D01*
X122480212Y-126615917D01*
X122305881Y-126709099D01*
X122116720Y-126766480D01*
X121920000Y-126785855D01*
X121723281Y-126766480D01*
X121534120Y-126709099D01*
X121359788Y-126615917D01*
X121206985Y-126490515D01*
X121081583Y-126337712D01*
X120988401Y-126163381D01*
X120931020Y-125974220D01*
X120916500Y-125826794D01*
X120916500Y-125633207D01*
X120931020Y-125485781D01*
X120988401Y-125296620D01*
X120988402Y-125296617D01*
X121070172Y-125143637D01*
X121081583Y-125122288D01*
X121206985Y-124969485D01*
X121359788Y-124844083D01*
X121534119Y-124750901D01*
X121723280Y-124693520D01*
X121920000Y-124674145D01*
X122116719Y-124693520D01*
G37*
G36*
X120383500Y-126781000D02*
G01*
X118376500Y-126781000D01*
X118376500Y-124679000D01*
X120383500Y-124679000D01*
X120383500Y-126781000D01*
G37*
G36*
X155901000Y-126546000D02*
G01*
X155249000Y-126546000D01*
X155249000Y-124694000D01*
X155901000Y-124694000D01*
X155901000Y-126546000D01*
G37*
G36*
X154631000Y-126546000D02*
G01*
X153979000Y-126546000D01*
X153979000Y-124694000D01*
X154631000Y-124694000D01*
X154631000Y-126546000D01*
G37*
G36*
X153361000Y-126546000D02*
G01*
X152709000Y-126546000D01*
X152709000Y-124694000D01*
X153361000Y-124694000D01*
X153361000Y-126546000D01*
G37*
G36*
X152091000Y-126546000D02*
G01*
X151439000Y-126546000D01*
X151439000Y-124694000D01*
X152091000Y-124694000D01*
X152091000Y-126546000D01*
G37*
G36*
X139371564Y-123369389D02*
G01*
X139562833Y-123448615D01*
X139562835Y-123448616D01*
X139653206Y-123509000D01*
X139734973Y-123563635D01*
X139881365Y-123710027D01*
X139996385Y-123882167D01*
X140075611Y-124073436D01*
X140116000Y-124276484D01*
X140116000Y-124483516D01*
X140075611Y-124686564D01*
X139996385Y-124877833D01*
X139996384Y-124877835D01*
X139881365Y-125049973D01*
X139734973Y-125196365D01*
X139562835Y-125311384D01*
X139562834Y-125311385D01*
X139562833Y-125311385D01*
X139371564Y-125390611D01*
X139168516Y-125431000D01*
X138961484Y-125431000D01*
X138758436Y-125390611D01*
X138567167Y-125311385D01*
X138567166Y-125311385D01*
X138567165Y-125311384D01*
X138395027Y-125196365D01*
X138248635Y-125049973D01*
X138133616Y-124877835D01*
X138133615Y-124877833D01*
X138054389Y-124686564D01*
X138014000Y-124483516D01*
X138014000Y-124276484D01*
X138054389Y-124073436D01*
X138133615Y-123882167D01*
X138248635Y-123710027D01*
X138395027Y-123563635D01*
X138476794Y-123509000D01*
X138567165Y-123448616D01*
X138567167Y-123448615D01*
X138758436Y-123369389D01*
X138961484Y-123329000D01*
X139168516Y-123329000D01*
X139371564Y-123369389D01*
G37*
G36*
X160591000Y-125411000D02*
G01*
X157989000Y-125411000D01*
X157989000Y-123509000D01*
X160591000Y-123509000D01*
X160591000Y-125411000D01*
G37*
G36*
X164591000Y-125411000D02*
G01*
X161989000Y-125411000D01*
X161989000Y-123509000D01*
X164591000Y-123509000D01*
X164591000Y-125411000D01*
G37*
G36*
X148870870Y-124740870D02*
G01*
X145769130Y-124740870D01*
X145769130Y-121639130D01*
X148870870Y-121639130D01*
X148870870Y-124740870D01*
G37*
G36*
X109608604Y-120998347D02*
G01*
X109645144Y-121009432D01*
X109678821Y-121027433D01*
X109708341Y-121051659D01*
X109732567Y-121081179D01*
X109750568Y-121114856D01*
X109761653Y-121151396D01*
X109766000Y-121195538D01*
X109766000Y-122644462D01*
X109761653Y-122688604D01*
X109750568Y-122725144D01*
X109732567Y-122758821D01*
X109708341Y-122788341D01*
X109678821Y-122812567D01*
X109645144Y-122830568D01*
X109608604Y-122841653D01*
X109564462Y-122846000D01*
X108615538Y-122846000D01*
X108571396Y-122841653D01*
X108534856Y-122830568D01*
X108501179Y-122812567D01*
X108471659Y-122788341D01*
X108447433Y-122758821D01*
X108429432Y-122725144D01*
X108418347Y-122688604D01*
X108414000Y-122644462D01*
X108414000Y-121195538D01*
X108418347Y-121151396D01*
X108429432Y-121114856D01*
X108447433Y-121081179D01*
X108471659Y-121051659D01*
X108501179Y-121027433D01*
X108534856Y-121009432D01*
X108571396Y-120998347D01*
X108615538Y-120994000D01*
X109564462Y-120994000D01*
X109608604Y-120998347D01*
G37*
G36*
X112408604Y-120998347D02*
G01*
X112445144Y-121009432D01*
X112478821Y-121027433D01*
X112508341Y-121051659D01*
X112532567Y-121081179D01*
X112550568Y-121114856D01*
X112561653Y-121151396D01*
X112566000Y-121195538D01*
X112566000Y-122644462D01*
X112561653Y-122688604D01*
X112550568Y-122725144D01*
X112532567Y-122758821D01*
X112508341Y-122788341D01*
X112478821Y-122812567D01*
X112445144Y-122830568D01*
X112408604Y-122841653D01*
X112364462Y-122846000D01*
X111415538Y-122846000D01*
X111371396Y-122841653D01*
X111334856Y-122830568D01*
X111301179Y-122812567D01*
X111271659Y-122788341D01*
X111247433Y-122758821D01*
X111229432Y-122725144D01*
X111218347Y-122688604D01*
X111214000Y-122644462D01*
X111214000Y-121195538D01*
X111218347Y-121151396D01*
X111229432Y-121114856D01*
X111247433Y-121081179D01*
X111271659Y-121051659D01*
X111301179Y-121027433D01*
X111334856Y-121009432D01*
X111371396Y-120998347D01*
X111415538Y-120994000D01*
X112364462Y-120994000D01*
X112408604Y-120998347D01*
G37*
G36*
X130943604Y-121378347D02*
G01*
X130980144Y-121389432D01*
X131013821Y-121407433D01*
X131043341Y-121431659D01*
X131067567Y-121461179D01*
X131085568Y-121494856D01*
X131096653Y-121531396D01*
X131101000Y-121575538D01*
X131101000Y-122524462D01*
X131096653Y-122568604D01*
X131085568Y-122605144D01*
X131067567Y-122638821D01*
X131043341Y-122668341D01*
X131013821Y-122692567D01*
X130980144Y-122710568D01*
X130943604Y-122721653D01*
X130899462Y-122726000D01*
X129450538Y-122726000D01*
X129406396Y-122721653D01*
X129369856Y-122710568D01*
X129336179Y-122692567D01*
X129306659Y-122668341D01*
X129282433Y-122638821D01*
X129264432Y-122605144D01*
X129253347Y-122568604D01*
X129249000Y-122524462D01*
X129249000Y-121575538D01*
X129253347Y-121531396D01*
X129264432Y-121494856D01*
X129282433Y-121461179D01*
X129306659Y-121431659D01*
X129336179Y-121407433D01*
X129369856Y-121389432D01*
X129406396Y-121378347D01*
X129450538Y-121374000D01*
X130899462Y-121374000D01*
X130943604Y-121378347D01*
G37*
G36*
X147672497Y-117868863D02*
G01*
X147772372Y-117888729D01*
X147883288Y-117934672D01*
X148054611Y-118005636D01*
X148308621Y-118175360D01*
X148524640Y-118391379D01*
X148694364Y-118645389D01*
X148729989Y-118731396D01*
X148811271Y-118927628D01*
X148870870Y-119227253D01*
X148870870Y-119532747D01*
X148811271Y-119832372D01*
X148805294Y-119846802D01*
X148694364Y-120114611D01*
X148524640Y-120368621D01*
X148308621Y-120584640D01*
X148054611Y-120754364D01*
X147889279Y-120822846D01*
X147772372Y-120871271D01*
X147672497Y-120891137D01*
X147472749Y-120930870D01*
X147167251Y-120930870D01*
X146967503Y-120891137D01*
X146867628Y-120871271D01*
X146750721Y-120822846D01*
X146585389Y-120754364D01*
X146331379Y-120584640D01*
X146115360Y-120368621D01*
X145945636Y-120114611D01*
X145834706Y-119846802D01*
X145828729Y-119832372D01*
X145769130Y-119532747D01*
X145769130Y-119227253D01*
X145828729Y-118927628D01*
X145910011Y-118731396D01*
X145945636Y-118645389D01*
X146115360Y-118391379D01*
X146331379Y-118175360D01*
X146585389Y-118005636D01*
X146756712Y-117934672D01*
X146867628Y-117888729D01*
X146967503Y-117868863D01*
X147167251Y-117829130D01*
X147472749Y-117829130D01*
X147672497Y-117868863D01*
G37*
G36*
X140116000Y-120431000D02*
G01*
X138014000Y-120431000D01*
X138014000Y-118329000D01*
X140116000Y-118329000D01*
X140116000Y-120431000D01*
G37*
G36*
X130943604Y-118578347D02*
G01*
X130980144Y-118589432D01*
X131013821Y-118607433D01*
X131043341Y-118631659D01*
X131067567Y-118661179D01*
X131085568Y-118694856D01*
X131096653Y-118731396D01*
X131101000Y-118775538D01*
X131101000Y-119724462D01*
X131096653Y-119768604D01*
X131085568Y-119805144D01*
X131067567Y-119838821D01*
X131043341Y-119868341D01*
X131013821Y-119892567D01*
X130980144Y-119910568D01*
X130943604Y-119921653D01*
X130899462Y-119926000D01*
X129450538Y-119926000D01*
X129406396Y-119921653D01*
X129369856Y-119910568D01*
X129336179Y-119892567D01*
X129306659Y-119868341D01*
X129282433Y-119838821D01*
X129264432Y-119805144D01*
X129253347Y-119768604D01*
X129249000Y-119724462D01*
X129249000Y-118775538D01*
X129253347Y-118731396D01*
X129264432Y-118694856D01*
X129282433Y-118661179D01*
X129306659Y-118631659D01*
X129336179Y-118607433D01*
X129369856Y-118589432D01*
X129406396Y-118578347D01*
X129450538Y-118574000D01*
X130899462Y-118574000D01*
X130943604Y-118578347D01*
G37*
G36*
X154631000Y-119146000D02*
G01*
X153979000Y-119146000D01*
X153979000Y-117294000D01*
X154631000Y-117294000D01*
X154631000Y-119146000D01*
G37*
G36*
X153361000Y-119146000D02*
G01*
X152709000Y-119146000D01*
X152709000Y-117294000D01*
X153361000Y-117294000D01*
X153361000Y-119146000D01*
G37*
G36*
X155901000Y-119146000D02*
G01*
X155249000Y-119146000D01*
X155249000Y-117294000D01*
X155901000Y-117294000D01*
X155901000Y-119146000D01*
G37*
G36*
X152091000Y-119146000D02*
G01*
X151439000Y-119146000D01*
X151439000Y-117294000D01*
X152091000Y-117294000D01*
X152091000Y-119146000D01*
G37*
G36*
X99362585Y-115678802D02*
G01*
X99512410Y-115708604D01*
X99794674Y-115825521D01*
X100048705Y-115995259D01*
X100264741Y-116211295D01*
X100434479Y-116465326D01*
X100551396Y-116747590D01*
X100560118Y-116791440D01*
X100586450Y-116923816D01*
X100611000Y-117047240D01*
X100611000Y-117352760D01*
X100551396Y-117652410D01*
X100434479Y-117934674D01*
X100264741Y-118188705D01*
X100048705Y-118404741D01*
X99794674Y-118574479D01*
X99512410Y-118691396D01*
X99362585Y-118721198D01*
X99212761Y-118751000D01*
X98907239Y-118751000D01*
X98757415Y-118721198D01*
X98607590Y-118691396D01*
X98325326Y-118574479D01*
X98071295Y-118404741D01*
X97855259Y-118188705D01*
X97685521Y-117934674D01*
X97568604Y-117652410D01*
X97509000Y-117352760D01*
X97509000Y-117047240D01*
X97533551Y-116923816D01*
X97559882Y-116791440D01*
X97568604Y-116747590D01*
X97685521Y-116465326D01*
X97855259Y-116211295D01*
X98071295Y-115995259D01*
X98325326Y-115825521D01*
X98607590Y-115708604D01*
X98757415Y-115678802D01*
X98907239Y-115649000D01*
X99212761Y-115649000D01*
X99362585Y-115678802D01*
G37*
G36*
X90450870Y-118258870D02*
G01*
X87349130Y-118258870D01*
X87349130Y-115157130D01*
X90450870Y-115157130D01*
X90450870Y-118258870D01*
G37*
G36*
X163411000Y-117691000D02*
G01*
X161709000Y-117691000D01*
X161709000Y-115989000D01*
X163411000Y-115989000D01*
X163411000Y-117691000D01*
G37*
G36*
X160308228Y-116021703D02*
G01*
X160463100Y-116085853D01*
X160602481Y-116178985D01*
X160721015Y-116297519D01*
X160814147Y-116436900D01*
X160878297Y-116591772D01*
X160911000Y-116756184D01*
X160911000Y-116923816D01*
X160878297Y-117088228D01*
X160814147Y-117243100D01*
X160721015Y-117382481D01*
X160602481Y-117501015D01*
X160463100Y-117594147D01*
X160308228Y-117658297D01*
X160143816Y-117691000D01*
X159976184Y-117691000D01*
X159811772Y-117658297D01*
X159656900Y-117594147D01*
X159517519Y-117501015D01*
X159398985Y-117382481D01*
X159305853Y-117243100D01*
X159241703Y-117088228D01*
X159209000Y-116923816D01*
X159209000Y-116756184D01*
X159241703Y-116591772D01*
X159305853Y-116436900D01*
X159398985Y-116297519D01*
X159517519Y-116178985D01*
X159656900Y-116085853D01*
X159811772Y-116021703D01*
X159976184Y-115989000D01*
X160143816Y-115989000D01*
X160308228Y-116021703D01*
G37*
G36*
X193711304Y-112277002D02*
G01*
X194058982Y-112421015D01*
X194130141Y-112450490D01*
X194507083Y-112702355D01*
X194827645Y-113022917D01*
X195075985Y-113394583D01*
X195079511Y-113399861D01*
X195252998Y-113818696D01*
X195341440Y-114263327D01*
X195341440Y-114716673D01*
X195252998Y-115161304D01*
X195133002Y-115451000D01*
X195079510Y-115580141D01*
X195030282Y-115653816D01*
X194827646Y-115957082D01*
X194507082Y-116277646D01*
X194341484Y-116388295D01*
X194130141Y-116529510D01*
X194130140Y-116529511D01*
X194130139Y-116529511D01*
X193711304Y-116702998D01*
X193266673Y-116791440D01*
X192813327Y-116791440D01*
X192368696Y-116702998D01*
X191949861Y-116529511D01*
X191949860Y-116529511D01*
X191949859Y-116529510D01*
X191738516Y-116388295D01*
X191572918Y-116277646D01*
X191252354Y-115957082D01*
X191049718Y-115653816D01*
X191000490Y-115580141D01*
X190946998Y-115451000D01*
X190827002Y-115161304D01*
X190738560Y-114716673D01*
X190738560Y-114263327D01*
X190827002Y-113818696D01*
X191000489Y-113399861D01*
X191004016Y-113394583D01*
X191252355Y-113022917D01*
X191572917Y-112702355D01*
X191949859Y-112450490D01*
X192021018Y-112421015D01*
X192368696Y-112277002D01*
X192813327Y-112188560D01*
X193266673Y-112188560D01*
X193711304Y-112277002D01*
G37*
G36*
X129788228Y-114751703D02*
G01*
X129943100Y-114815853D01*
X130082481Y-114908985D01*
X130201015Y-115027519D01*
X130294147Y-115166900D01*
X130358297Y-115321772D01*
X130391000Y-115486184D01*
X130391000Y-115653816D01*
X130358297Y-115818228D01*
X130294147Y-115973100D01*
X130201015Y-116112481D01*
X130082481Y-116231015D01*
X129943100Y-116324147D01*
X129788228Y-116388297D01*
X129623816Y-116421000D01*
X129456184Y-116421000D01*
X129291772Y-116388297D01*
X129136900Y-116324147D01*
X128997519Y-116231015D01*
X128878985Y-116112481D01*
X128785853Y-115973100D01*
X128721703Y-115818228D01*
X128689000Y-115653816D01*
X128689000Y-115486184D01*
X128721703Y-115321772D01*
X128785853Y-115166900D01*
X128878985Y-115027519D01*
X128997519Y-114908985D01*
X129136900Y-114815853D01*
X129291772Y-114751703D01*
X129456184Y-114719000D01*
X129623816Y-114719000D01*
X129788228Y-114751703D01*
G37*
G36*
X122771000Y-116421000D02*
G01*
X121069000Y-116421000D01*
X121069000Y-114719000D01*
X122771000Y-114719000D01*
X122771000Y-116421000D01*
G37*
G36*
X142464549Y-113171116D02*
G01*
X142575734Y-113193232D01*
X142723850Y-113254584D01*
X142780933Y-113278228D01*
X142785203Y-113279997D01*
X142973720Y-113405960D01*
X143134040Y-113566280D01*
X143260003Y-113754797D01*
X143346768Y-113964266D01*
X143391000Y-114186636D01*
X143391000Y-114413364D01*
X143346768Y-114635734D01*
X143313242Y-114716672D01*
X143277700Y-114802480D01*
X143260003Y-114845203D01*
X143134040Y-115033720D01*
X142973720Y-115194040D01*
X142785203Y-115320003D01*
X142785202Y-115320004D01*
X142785201Y-115320004D01*
X142723850Y-115345416D01*
X142575734Y-115406768D01*
X142464549Y-115428884D01*
X142353365Y-115451000D01*
X142126635Y-115451000D01*
X142015451Y-115428884D01*
X141904266Y-115406768D01*
X141756150Y-115345416D01*
X141694799Y-115320004D01*
X141694798Y-115320004D01*
X141694797Y-115320003D01*
X141506280Y-115194040D01*
X141345960Y-115033720D01*
X141219997Y-114845203D01*
X141202301Y-114802480D01*
X141166758Y-114716672D01*
X141133232Y-114635734D01*
X141089000Y-114413364D01*
X141089000Y-114186636D01*
X141133232Y-113964266D01*
X141219997Y-113754797D01*
X141345960Y-113566280D01*
X141506280Y-113405960D01*
X141694797Y-113279997D01*
X141699068Y-113278228D01*
X141756150Y-113254584D01*
X141904266Y-113193232D01*
X142015451Y-113171116D01*
X142126635Y-113149000D01*
X142353365Y-113149000D01*
X142464549Y-113171116D01*
G37*
G36*
X151518604Y-113378347D02*
G01*
X151555144Y-113389432D01*
X151588821Y-113407433D01*
X151618341Y-113431659D01*
X151642567Y-113461179D01*
X151660568Y-113494856D01*
X151671653Y-113531396D01*
X151676000Y-113575538D01*
X151676000Y-115024462D01*
X151671653Y-115068604D01*
X151660568Y-115105144D01*
X151642567Y-115138821D01*
X151618341Y-115168341D01*
X151588821Y-115192567D01*
X151555144Y-115210568D01*
X151518604Y-115221653D01*
X151474462Y-115226000D01*
X150525538Y-115226000D01*
X150481396Y-115221653D01*
X150444856Y-115210568D01*
X150411179Y-115192567D01*
X150381659Y-115168341D01*
X150357433Y-115138821D01*
X150339432Y-115105144D01*
X150328347Y-115068604D01*
X150324000Y-115024462D01*
X150324000Y-113575538D01*
X150328347Y-113531396D01*
X150339432Y-113494856D01*
X150357433Y-113461179D01*
X150381659Y-113431659D01*
X150411179Y-113407433D01*
X150444856Y-113389432D01*
X150481396Y-113378347D01*
X150525538Y-113374000D01*
X151474462Y-113374000D01*
X151518604Y-113378347D01*
G37*
G36*
X154318604Y-113378347D02*
G01*
X154355144Y-113389432D01*
X154388821Y-113407433D01*
X154418341Y-113431659D01*
X154442567Y-113461179D01*
X154460568Y-113494856D01*
X154471653Y-113531396D01*
X154476000Y-113575538D01*
X154476000Y-115024462D01*
X154471653Y-115068604D01*
X154460568Y-115105144D01*
X154442567Y-115138821D01*
X154418341Y-115168341D01*
X154388821Y-115192567D01*
X154355144Y-115210568D01*
X154318604Y-115221653D01*
X154274462Y-115226000D01*
X153325538Y-115226000D01*
X153281396Y-115221653D01*
X153244856Y-115210568D01*
X153211179Y-115192567D01*
X153181659Y-115168341D01*
X153157433Y-115138821D01*
X153139432Y-115105144D01*
X153128347Y-115068604D01*
X153124000Y-115024462D01*
X153124000Y-113575538D01*
X153128347Y-113531396D01*
X153139432Y-113494856D01*
X153157433Y-113461179D01*
X153181659Y-113431659D01*
X153211179Y-113407433D01*
X153244856Y-113389432D01*
X153281396Y-113378347D01*
X153325538Y-113374000D01*
X154274462Y-113374000D01*
X154318604Y-113378347D01*
G37*
G36*
X136138228Y-113441703D02*
G01*
X136293100Y-113505853D01*
X136432481Y-113598985D01*
X136551015Y-113717519D01*
X136644147Y-113856900D01*
X136708297Y-114011772D01*
X136741000Y-114176184D01*
X136741000Y-114343816D01*
X136708297Y-114508228D01*
X136644147Y-114663100D01*
X136551015Y-114802481D01*
X136432481Y-114921015D01*
X136293100Y-115014147D01*
X136138228Y-115078297D01*
X135973816Y-115111000D01*
X135806184Y-115111000D01*
X135641772Y-115078297D01*
X135486900Y-115014147D01*
X135347519Y-114921015D01*
X135228985Y-114802481D01*
X135135853Y-114663100D01*
X135071703Y-114508228D01*
X135039000Y-114343816D01*
X135039000Y-114176184D01*
X135071703Y-114011772D01*
X135135853Y-113856900D01*
X135228985Y-113717519D01*
X135347519Y-113598985D01*
X135486900Y-113505853D01*
X135641772Y-113441703D01*
X135806184Y-113409000D01*
X135973816Y-113409000D01*
X136138228Y-113441703D01*
G37*
G36*
X115151000Y-113881000D02*
G01*
X113449000Y-113881000D01*
X113449000Y-112179000D01*
X115151000Y-112179000D01*
X115151000Y-113881000D01*
G37*
G36*
X117048228Y-112211703D02*
G01*
X117203100Y-112275853D01*
X117342481Y-112368985D01*
X117461015Y-112487519D01*
X117554147Y-112626900D01*
X117618297Y-112781772D01*
X117651000Y-112946184D01*
X117651000Y-113113816D01*
X117618297Y-113278228D01*
X117554147Y-113433100D01*
X117461015Y-113572481D01*
X117342481Y-113691015D01*
X117203100Y-113784147D01*
X117048228Y-113848297D01*
X116883816Y-113881000D01*
X116716184Y-113881000D01*
X116551772Y-113848297D01*
X116396900Y-113784147D01*
X116257519Y-113691015D01*
X116138985Y-113572481D01*
X116045853Y-113433100D01*
X115981703Y-113278228D01*
X115949000Y-113113816D01*
X115949000Y-112946184D01*
X115981703Y-112781772D01*
X116045853Y-112626900D01*
X116138985Y-112487519D01*
X116257519Y-112368985D01*
X116396900Y-112275853D01*
X116551772Y-112211703D01*
X116716184Y-112179000D01*
X116883816Y-112179000D01*
X117048228Y-112211703D01*
G37*
G36*
X147568228Y-110941703D02*
G01*
X147723100Y-111005853D01*
X147862481Y-111098985D01*
X147981015Y-111217519D01*
X148074147Y-111356900D01*
X148138297Y-111511772D01*
X148171000Y-111676184D01*
X148171000Y-111843816D01*
X148138297Y-112008228D01*
X148074147Y-112163100D01*
X147981015Y-112302481D01*
X147862481Y-112421015D01*
X147723100Y-112514147D01*
X147568228Y-112578297D01*
X147403816Y-112611000D01*
X147236184Y-112611000D01*
X147071772Y-112578297D01*
X146916900Y-112514147D01*
X146777519Y-112421015D01*
X146658985Y-112302481D01*
X146565853Y-112163100D01*
X146501703Y-112008228D01*
X146469000Y-111843816D01*
X146469000Y-111676184D01*
X146501703Y-111511772D01*
X146565853Y-111356900D01*
X146658985Y-111217519D01*
X146777519Y-111098985D01*
X146916900Y-111005853D01*
X147071772Y-110941703D01*
X147236184Y-110909000D01*
X147403816Y-110909000D01*
X147568228Y-110941703D01*
G37*
G36*
X136741000Y-112611000D02*
G01*
X135039000Y-112611000D01*
X135039000Y-110909000D01*
X136741000Y-110909000D01*
X136741000Y-112611000D01*
G37*
G36*
X159651000Y-111671000D02*
G01*
X157849000Y-111671000D01*
X157849000Y-110269000D01*
X159651000Y-110269000D01*
X159651000Y-111671000D01*
G37*
G36*
X130391000Y-111341000D02*
G01*
X128689000Y-111341000D01*
X128689000Y-109639000D01*
X130391000Y-109639000D01*
X130391000Y-111341000D01*
G37*
G36*
X122168228Y-109671703D02*
G01*
X122323100Y-109735853D01*
X122462481Y-109828985D01*
X122581015Y-109947519D01*
X122674147Y-110086900D01*
X122738297Y-110241772D01*
X122771000Y-110406184D01*
X122771000Y-110573816D01*
X122738297Y-110738228D01*
X122674147Y-110893100D01*
X122581015Y-111032481D01*
X122462481Y-111151015D01*
X122323100Y-111244147D01*
X122168228Y-111308297D01*
X122003816Y-111341000D01*
X121836184Y-111341000D01*
X121671772Y-111308297D01*
X121516900Y-111244147D01*
X121377519Y-111151015D01*
X121258985Y-111032481D01*
X121165853Y-110893100D01*
X121101703Y-110738228D01*
X121069000Y-110573816D01*
X121069000Y-110406184D01*
X121101703Y-110241772D01*
X121165853Y-110086900D01*
X121258985Y-109947519D01*
X121377519Y-109828985D01*
X121516900Y-109735853D01*
X121671772Y-109671703D01*
X121836184Y-109639000D01*
X122003816Y-109639000D01*
X122168228Y-109671703D01*
G37*
G36*
X163328604Y-109948347D02*
G01*
X163365144Y-109959432D01*
X163398821Y-109977433D01*
X163428341Y-110001659D01*
X163452567Y-110031179D01*
X163470568Y-110064856D01*
X163481653Y-110101396D01*
X163486000Y-110145538D01*
X163486000Y-111094462D01*
X163481653Y-111138604D01*
X163470568Y-111175144D01*
X163452567Y-111208821D01*
X163428341Y-111238341D01*
X163398821Y-111262567D01*
X163365144Y-111280568D01*
X163328604Y-111291653D01*
X163284462Y-111296000D01*
X161835538Y-111296000D01*
X161791396Y-111291653D01*
X161754856Y-111280568D01*
X161721179Y-111262567D01*
X161691659Y-111238341D01*
X161667433Y-111208821D01*
X161649432Y-111175144D01*
X161638347Y-111138604D01*
X161634000Y-111094462D01*
X161634000Y-110145538D01*
X161638347Y-110101396D01*
X161649432Y-110064856D01*
X161667433Y-110031179D01*
X161691659Y-110001659D01*
X161721179Y-109977433D01*
X161754856Y-109959432D01*
X161791396Y-109948347D01*
X161835538Y-109944000D01*
X163284462Y-109944000D01*
X163328604Y-109948347D01*
G37*
G36*
X151898604Y-109948347D02*
G01*
X151935144Y-109959432D01*
X151968821Y-109977433D01*
X151998341Y-110001659D01*
X152022567Y-110031179D01*
X152040568Y-110064856D01*
X152051653Y-110101396D01*
X152056000Y-110145538D01*
X152056000Y-111094462D01*
X152051653Y-111138604D01*
X152040568Y-111175144D01*
X152022567Y-111208821D01*
X151998341Y-111238341D01*
X151968821Y-111262567D01*
X151935144Y-111280568D01*
X151898604Y-111291653D01*
X151854462Y-111296000D01*
X150405538Y-111296000D01*
X150361396Y-111291653D01*
X150324856Y-111280568D01*
X150291179Y-111262567D01*
X150261659Y-111238341D01*
X150237433Y-111208821D01*
X150219432Y-111175144D01*
X150208347Y-111138604D01*
X150204000Y-111094462D01*
X150204000Y-110145538D01*
X150208347Y-110101396D01*
X150219432Y-110064856D01*
X150237433Y-110031179D01*
X150261659Y-110001659D01*
X150291179Y-109977433D01*
X150324856Y-109959432D01*
X150361396Y-109948347D01*
X150405538Y-109944000D01*
X151854462Y-109944000D01*
X151898604Y-109948347D01*
G37*
G36*
X155708604Y-109948347D02*
G01*
X155745144Y-109959432D01*
X155778821Y-109977433D01*
X155808341Y-110001659D01*
X155832567Y-110031179D01*
X155850568Y-110064856D01*
X155861653Y-110101396D01*
X155866000Y-110145538D01*
X155866000Y-111094462D01*
X155861653Y-111138604D01*
X155850568Y-111175144D01*
X155832567Y-111208821D01*
X155808341Y-111238341D01*
X155778821Y-111262567D01*
X155745144Y-111280568D01*
X155708604Y-111291653D01*
X155664462Y-111296000D01*
X154215538Y-111296000D01*
X154171396Y-111291653D01*
X154134856Y-111280568D01*
X154101179Y-111262567D01*
X154071659Y-111238341D01*
X154047433Y-111208821D01*
X154029432Y-111175144D01*
X154018347Y-111138604D01*
X154014000Y-111094462D01*
X154014000Y-110145538D01*
X154018347Y-110101396D01*
X154029432Y-110064856D01*
X154047433Y-110031179D01*
X154071659Y-110001659D01*
X154101179Y-109977433D01*
X154134856Y-109959432D01*
X154171396Y-109948347D01*
X154215538Y-109944000D01*
X155664462Y-109944000D01*
X155708604Y-109948347D01*
G37*
G36*
X89264903Y-108017075D02*
G01*
X89354925Y-108054363D01*
X89492571Y-108111378D01*
X89697466Y-108248285D01*
X89871715Y-108422534D01*
X90008622Y-108627429D01*
X90102925Y-108855097D01*
X90151000Y-109096787D01*
X90151000Y-109343213D01*
X90102925Y-109584903D01*
X90008622Y-109812571D01*
X89871715Y-110017466D01*
X89697466Y-110191715D01*
X89492571Y-110328622D01*
X89492570Y-110328623D01*
X89492569Y-110328623D01*
X89264903Y-110422925D01*
X89023214Y-110471000D01*
X88776786Y-110471000D01*
X88535097Y-110422925D01*
X88307431Y-110328623D01*
X88307430Y-110328623D01*
X88307429Y-110328622D01*
X88102534Y-110191715D01*
X87928285Y-110017466D01*
X87791378Y-109812571D01*
X87697075Y-109584903D01*
X87649000Y-109343213D01*
X87649000Y-109096787D01*
X87697075Y-108855097D01*
X87791378Y-108627429D01*
X87928285Y-108422534D01*
X88102534Y-108248285D01*
X88307429Y-108111378D01*
X88445076Y-108054363D01*
X88535097Y-108017075D01*
X88776786Y-107969000D01*
X89023214Y-107969000D01*
X89264903Y-108017075D01*
G37*
G36*
X109584903Y-108017075D02*
G01*
X109674925Y-108054363D01*
X109812571Y-108111378D01*
X110017466Y-108248285D01*
X110191715Y-108422534D01*
X110328622Y-108627429D01*
X110422925Y-108855097D01*
X110471000Y-109096787D01*
X110471000Y-109343213D01*
X110422925Y-109584903D01*
X110328622Y-109812571D01*
X110191715Y-110017466D01*
X110017466Y-110191715D01*
X109812571Y-110328622D01*
X109812570Y-110328623D01*
X109812569Y-110328623D01*
X109584903Y-110422925D01*
X109343214Y-110471000D01*
X109096786Y-110471000D01*
X108855097Y-110422925D01*
X108627431Y-110328623D01*
X108627430Y-110328623D01*
X108627429Y-110328622D01*
X108422534Y-110191715D01*
X108248285Y-110017466D01*
X108111378Y-109812571D01*
X108017075Y-109584903D01*
X107969000Y-109343213D01*
X107969000Y-109096787D01*
X108017075Y-108855097D01*
X108111378Y-108627429D01*
X108248285Y-108422534D01*
X108422534Y-108248285D01*
X108627429Y-108111378D01*
X108765076Y-108054363D01*
X108855097Y-108017075D01*
X109096786Y-107969000D01*
X109343214Y-107969000D01*
X109584903Y-108017075D01*
G37*
G36*
X155708604Y-107148347D02*
G01*
X155745144Y-107159432D01*
X155778821Y-107177433D01*
X155808341Y-107201659D01*
X155832567Y-107231179D01*
X155850568Y-107264856D01*
X155861653Y-107301396D01*
X155866000Y-107345538D01*
X155866000Y-108294462D01*
X155861653Y-108338604D01*
X155850568Y-108375144D01*
X155832567Y-108408821D01*
X155808341Y-108438341D01*
X155778821Y-108462567D01*
X155745144Y-108480568D01*
X155708604Y-108491653D01*
X155664462Y-108496000D01*
X154215538Y-108496000D01*
X154171396Y-108491653D01*
X154134856Y-108480568D01*
X154101179Y-108462567D01*
X154071659Y-108438341D01*
X154047433Y-108408821D01*
X154029432Y-108375144D01*
X154018347Y-108338604D01*
X154014000Y-108294462D01*
X154014000Y-107345538D01*
X154018347Y-107301396D01*
X154029432Y-107264856D01*
X154047433Y-107231179D01*
X154071659Y-107201659D01*
X154101179Y-107177433D01*
X154134856Y-107159432D01*
X154171396Y-107148347D01*
X154215538Y-107144000D01*
X155664462Y-107144000D01*
X155708604Y-107148347D01*
G37*
G36*
X163328604Y-107148347D02*
G01*
X163365144Y-107159432D01*
X163398821Y-107177433D01*
X163428341Y-107201659D01*
X163452567Y-107231179D01*
X163470568Y-107264856D01*
X163481653Y-107301396D01*
X163486000Y-107345538D01*
X163486000Y-108294462D01*
X163481653Y-108338604D01*
X163470568Y-108375144D01*
X163452567Y-108408821D01*
X163428341Y-108438341D01*
X163398821Y-108462567D01*
X163365144Y-108480568D01*
X163328604Y-108491653D01*
X163284462Y-108496000D01*
X161835538Y-108496000D01*
X161791396Y-108491653D01*
X161754856Y-108480568D01*
X161721179Y-108462567D01*
X161691659Y-108438341D01*
X161667433Y-108408821D01*
X161649432Y-108375144D01*
X161638347Y-108338604D01*
X161634000Y-108294462D01*
X161634000Y-107345538D01*
X161638347Y-107301396D01*
X161649432Y-107264856D01*
X161667433Y-107231179D01*
X161691659Y-107201659D01*
X161721179Y-107177433D01*
X161754856Y-107159432D01*
X161791396Y-107148347D01*
X161835538Y-107144000D01*
X163284462Y-107144000D01*
X163328604Y-107148347D01*
G37*
G36*
X151898604Y-107148347D02*
G01*
X151935144Y-107159432D01*
X151968821Y-107177433D01*
X151998341Y-107201659D01*
X152022567Y-107231179D01*
X152040568Y-107264856D01*
X152051653Y-107301396D01*
X152056000Y-107345538D01*
X152056000Y-108294462D01*
X152051653Y-108338604D01*
X152040568Y-108375144D01*
X152022567Y-108408821D01*
X151998341Y-108438341D01*
X151968821Y-108462567D01*
X151935144Y-108480568D01*
X151898604Y-108491653D01*
X151854462Y-108496000D01*
X150405538Y-108496000D01*
X150361396Y-108491653D01*
X150324856Y-108480568D01*
X150291179Y-108462567D01*
X150261659Y-108438341D01*
X150237433Y-108408821D01*
X150219432Y-108375144D01*
X150208347Y-108338604D01*
X150204000Y-108294462D01*
X150204000Y-107345538D01*
X150208347Y-107301396D01*
X150219432Y-107264856D01*
X150237433Y-107231179D01*
X150261659Y-107201659D01*
X150291179Y-107177433D01*
X150324856Y-107159432D01*
X150361396Y-107148347D01*
X150405538Y-107144000D01*
X151854462Y-107144000D01*
X151898604Y-107148347D01*
G37*
G36*
X137440870Y-108230870D02*
G01*
X134339130Y-108230870D01*
X134339130Y-105129130D01*
X137440870Y-105129130D01*
X137440870Y-108230870D01*
G37*
G36*
X132432497Y-105168863D02*
G01*
X132532372Y-105188729D01*
X132649279Y-105237154D01*
X132814611Y-105305636D01*
X133068621Y-105475360D01*
X133284640Y-105691379D01*
X133454364Y-105945389D01*
X133484848Y-106018985D01*
X133533947Y-106137519D01*
X133571271Y-106227629D01*
X133630870Y-106527251D01*
X133630870Y-106832749D01*
X133591137Y-107032497D01*
X133571271Y-107132372D01*
X133530344Y-107231179D01*
X133454364Y-107414611D01*
X133284640Y-107668621D01*
X133068621Y-107884640D01*
X132814611Y-108054364D01*
X132676966Y-108111378D01*
X132532372Y-108171271D01*
X132432497Y-108191137D01*
X132232749Y-108230870D01*
X131927251Y-108230870D01*
X131727503Y-108191137D01*
X131627628Y-108171271D01*
X131483034Y-108111378D01*
X131345389Y-108054364D01*
X131091379Y-107884640D01*
X130875360Y-107668621D01*
X130705636Y-107414611D01*
X130629656Y-107231179D01*
X130588729Y-107132372D01*
X130568863Y-107032497D01*
X130529130Y-106832749D01*
X130529130Y-106527251D01*
X130588729Y-106227629D01*
X130626054Y-106137519D01*
X130675152Y-106018985D01*
X130705636Y-105945389D01*
X130875360Y-105691379D01*
X131091379Y-105475360D01*
X131345389Y-105305636D01*
X131510721Y-105237154D01*
X131627628Y-105188729D01*
X131727503Y-105168863D01*
X131927251Y-105129130D01*
X132232749Y-105129130D01*
X132432497Y-105168863D01*
G37*
G36*
X159651000Y-108171000D02*
G01*
X157849000Y-108171000D01*
X157849000Y-106769000D01*
X159651000Y-106769000D01*
X159651000Y-108171000D01*
G37*
G36*
X127883228Y-105861703D02*
G01*
X128038100Y-105925853D01*
X128177481Y-106018985D01*
X128296015Y-106137519D01*
X128389147Y-106276900D01*
X128453297Y-106431772D01*
X128486000Y-106596184D01*
X128486000Y-106763816D01*
X128453297Y-106928228D01*
X128389147Y-107083100D01*
X128296015Y-107222481D01*
X128177481Y-107341015D01*
X128038100Y-107434147D01*
X127883228Y-107498297D01*
X127718816Y-107531000D01*
X127551184Y-107531000D01*
X127386772Y-107498297D01*
X127231900Y-107434147D01*
X127092519Y-107341015D01*
X126973985Y-107222481D01*
X126880853Y-107083100D01*
X126816703Y-106928228D01*
X126784000Y-106763816D01*
X126784000Y-106596184D01*
X126816703Y-106431772D01*
X126880853Y-106276900D01*
X126973985Y-106137519D01*
X127092519Y-106018985D01*
X127231900Y-105925853D01*
X127386772Y-105861703D01*
X127551184Y-105829000D01*
X127718816Y-105829000D01*
X127883228Y-105861703D01*
G37*
G36*
X117723228Y-105861703D02*
G01*
X117878100Y-105925853D01*
X118017481Y-106018985D01*
X118136015Y-106137519D01*
X118229147Y-106276900D01*
X118293297Y-106431772D01*
X118326000Y-106596184D01*
X118326000Y-106763816D01*
X118293297Y-106928228D01*
X118229147Y-107083100D01*
X118136015Y-107222481D01*
X118017481Y-107341015D01*
X117878100Y-107434147D01*
X117723228Y-107498297D01*
X117558816Y-107531000D01*
X117391184Y-107531000D01*
X117226772Y-107498297D01*
X117071900Y-107434147D01*
X116932519Y-107341015D01*
X116813985Y-107222481D01*
X116720853Y-107083100D01*
X116656703Y-106928228D01*
X116624000Y-106763816D01*
X116624000Y-106596184D01*
X116656703Y-106431772D01*
X116720853Y-106276900D01*
X116813985Y-106137519D01*
X116932519Y-106018985D01*
X117071900Y-105925853D01*
X117226772Y-105861703D01*
X117391184Y-105829000D01*
X117558816Y-105829000D01*
X117723228Y-105861703D01*
G37*
G36*
X195341440Y-106441440D02*
G01*
X190738560Y-106441440D01*
X190738560Y-101838560D01*
X195341440Y-101838560D01*
X195341440Y-106441440D01*
G37*
G36*
X164596000Y-105641000D02*
G01*
X163694000Y-105641000D01*
X163694000Y-104639000D01*
X164596000Y-104639000D01*
X164596000Y-105641000D01*
G37*
G36*
X162696000Y-105641000D02*
G01*
X161794000Y-105641000D01*
X161794000Y-104639000D01*
X162696000Y-104639000D01*
X162696000Y-105641000D01*
G37*
G36*
X151266000Y-105541000D02*
G01*
X150264000Y-105541000D01*
X150264000Y-104639000D01*
X151266000Y-104639000D01*
X151266000Y-105541000D01*
G37*
G36*
X143391000Y-105291000D02*
G01*
X141089000Y-105291000D01*
X141089000Y-102989000D01*
X143391000Y-102989000D01*
X143391000Y-105291000D01*
G37*
G36*
X158248604Y-103598347D02*
G01*
X158285144Y-103609432D01*
X158318821Y-103627433D01*
X158348341Y-103651659D01*
X158372567Y-103681179D01*
X158390568Y-103714856D01*
X158401653Y-103751396D01*
X158406000Y-103795538D01*
X158406000Y-104744462D01*
X158401653Y-104788604D01*
X158390568Y-104825144D01*
X158372567Y-104858821D01*
X158348341Y-104888341D01*
X158318821Y-104912567D01*
X158285144Y-104930568D01*
X158248604Y-104941653D01*
X158204462Y-104946000D01*
X156755538Y-104946000D01*
X156711396Y-104941653D01*
X156674856Y-104930568D01*
X156641179Y-104912567D01*
X156611659Y-104888341D01*
X156587433Y-104858821D01*
X156569432Y-104825144D01*
X156558347Y-104788604D01*
X156554000Y-104744462D01*
X156554000Y-103795538D01*
X156558347Y-103751396D01*
X156569432Y-103714856D01*
X156587433Y-103681179D01*
X156611659Y-103651659D01*
X156641179Y-103627433D01*
X156674856Y-103609432D01*
X156711396Y-103598347D01*
X156755538Y-103594000D01*
X158204462Y-103594000D01*
X158248604Y-103598347D01*
G37*
G36*
X89571304Y-100307002D02*
G01*
X89990139Y-100480489D01*
X89990141Y-100480490D01*
X90081836Y-100541759D01*
X90367082Y-100732354D01*
X90687646Y-101052918D01*
X90783852Y-101196900D01*
X90911702Y-101388241D01*
X90939511Y-101429861D01*
X91112998Y-101848696D01*
X91201440Y-102293327D01*
X91201440Y-102746673D01*
X91112998Y-103191304D01*
X90946196Y-103594000D01*
X90939510Y-103610141D01*
X90687645Y-103987083D01*
X90367083Y-104307645D01*
X89990141Y-104559510D01*
X89990140Y-104559511D01*
X89990139Y-104559511D01*
X89571304Y-104732998D01*
X89126673Y-104821440D01*
X88673327Y-104821440D01*
X88228696Y-104732998D01*
X87809861Y-104559511D01*
X87809860Y-104559511D01*
X87809859Y-104559510D01*
X87432917Y-104307645D01*
X87112355Y-103987083D01*
X86860490Y-103610141D01*
X86853804Y-103594000D01*
X86687002Y-103191304D01*
X86598560Y-102746673D01*
X86598560Y-102293327D01*
X86687002Y-101848696D01*
X86860489Y-101429861D01*
X86888299Y-101388241D01*
X87016148Y-101196900D01*
X87112354Y-101052918D01*
X87432918Y-100732354D01*
X87718164Y-100541759D01*
X87809859Y-100480490D01*
X87809861Y-100480489D01*
X88228696Y-100307002D01*
X88673327Y-100218560D01*
X89126673Y-100218560D01*
X89571304Y-100307002D01*
G37*
G36*
X153266000Y-104591000D02*
G01*
X152264000Y-104591000D01*
X152264000Y-103689000D01*
X153266000Y-103689000D01*
X153266000Y-104591000D01*
G37*
G36*
X151266000Y-103641000D02*
G01*
X150264000Y-103641000D01*
X150264000Y-102739000D01*
X151266000Y-102739000D01*
X151266000Y-103641000D01*
G37*
G36*
X163646000Y-103641000D02*
G01*
X162744000Y-103641000D01*
X162744000Y-102639000D01*
X163646000Y-102639000D01*
X163646000Y-103641000D01*
G37*
G36*
X147568228Y-100781703D02*
G01*
X147723100Y-100845853D01*
X147862481Y-100938985D01*
X147981015Y-101057519D01*
X148074147Y-101196900D01*
X148138297Y-101351772D01*
X148171000Y-101516184D01*
X148171000Y-101683816D01*
X148138297Y-101848228D01*
X148074147Y-102003100D01*
X147981015Y-102142481D01*
X147862481Y-102261015D01*
X147723100Y-102354147D01*
X147568228Y-102418297D01*
X147403816Y-102451000D01*
X147236184Y-102451000D01*
X147071772Y-102418297D01*
X146916900Y-102354147D01*
X146777519Y-102261015D01*
X146658985Y-102142481D01*
X146565853Y-102003100D01*
X146501703Y-101848228D01*
X146469000Y-101683816D01*
X146469000Y-101516184D01*
X146501703Y-101351772D01*
X146565853Y-101196900D01*
X146658985Y-101057519D01*
X146777519Y-100938985D01*
X146916900Y-100845853D01*
X147071772Y-100781703D01*
X147236184Y-100749000D01*
X147403816Y-100749000D01*
X147568228Y-100781703D01*
G37*
G36*
X142663241Y-99569760D02*
G01*
X142927305Y-99679139D01*
X143164958Y-99837934D01*
X143367066Y-100040042D01*
X143525861Y-100277695D01*
X143635240Y-100541759D01*
X143691000Y-100822088D01*
X143691000Y-101107912D01*
X143635240Y-101388241D01*
X143525861Y-101652305D01*
X143367066Y-101889958D01*
X143164958Y-102092066D01*
X142927305Y-102250861D01*
X142663241Y-102360240D01*
X142382912Y-102416000D01*
X142097088Y-102416000D01*
X141816759Y-102360240D01*
X141552695Y-102250861D01*
X141315042Y-102092066D01*
X141112934Y-101889958D01*
X140954139Y-101652305D01*
X140844760Y-101388241D01*
X140789000Y-101107912D01*
X140789000Y-100822088D01*
X140844760Y-100541759D01*
X140954139Y-100277695D01*
X141112934Y-100040042D01*
X141315042Y-99837934D01*
X141552695Y-99679139D01*
X141816759Y-99569760D01*
X142097088Y-99514000D01*
X142382912Y-99514000D01*
X142663241Y-99569760D01*
G37*
G36*
X122343241Y-99569760D02*
G01*
X122607305Y-99679139D01*
X122844958Y-99837934D01*
X123047066Y-100040042D01*
X123205861Y-100277695D01*
X123315240Y-100541759D01*
X123371000Y-100822088D01*
X123371000Y-101107912D01*
X123315240Y-101388241D01*
X123205861Y-101652305D01*
X123047066Y-101889958D01*
X122844958Y-102092066D01*
X122607305Y-102250861D01*
X122343241Y-102360240D01*
X122062912Y-102416000D01*
X121777088Y-102416000D01*
X121496759Y-102360240D01*
X121232695Y-102250861D01*
X120995042Y-102092066D01*
X120792934Y-101889958D01*
X120634139Y-101652305D01*
X120524760Y-101388241D01*
X120469000Y-101107912D01*
X120469000Y-100822088D01*
X120524760Y-100541759D01*
X120634139Y-100277695D01*
X120792934Y-100040042D01*
X120995042Y-99837934D01*
X121232695Y-99679139D01*
X121496759Y-99569760D01*
X121777088Y-99514000D01*
X122062912Y-99514000D01*
X122343241Y-99569760D01*
G37*
G36*
X158248604Y-100798347D02*
G01*
X158285144Y-100809432D01*
X158318821Y-100827433D01*
X158348341Y-100851659D01*
X158372567Y-100881179D01*
X158390568Y-100914856D01*
X158401653Y-100951396D01*
X158406000Y-100995538D01*
X158406000Y-101944462D01*
X158401653Y-101988604D01*
X158390568Y-102025144D01*
X158372567Y-102058821D01*
X158348341Y-102088341D01*
X158318821Y-102112567D01*
X158285144Y-102130568D01*
X158248604Y-102141653D01*
X158204462Y-102146000D01*
X156755538Y-102146000D01*
X156711396Y-102141653D01*
X156674856Y-102130568D01*
X156641179Y-102112567D01*
X156611659Y-102088341D01*
X156587433Y-102058821D01*
X156569432Y-102025144D01*
X156558347Y-101988604D01*
X156554000Y-101944462D01*
X156554000Y-100995538D01*
X156558347Y-100951396D01*
X156569432Y-100914856D01*
X156587433Y-100881179D01*
X156611659Y-100851659D01*
X156641179Y-100827433D01*
X156674856Y-100809432D01*
X156711396Y-100798347D01*
X156755538Y-100794000D01*
X158204462Y-100794000D01*
X158248604Y-100798347D01*
G37*
G36*
X154318604Y-99408347D02*
G01*
X154355144Y-99419432D01*
X154388821Y-99437433D01*
X154418341Y-99461659D01*
X154442567Y-99491179D01*
X154460568Y-99524856D01*
X154471653Y-99561396D01*
X154476000Y-99605538D01*
X154476000Y-101054462D01*
X154471653Y-101098604D01*
X154460568Y-101135144D01*
X154442567Y-101168821D01*
X154418341Y-101198341D01*
X154388821Y-101222567D01*
X154355144Y-101240568D01*
X154318604Y-101251653D01*
X154274462Y-101256000D01*
X153325538Y-101256000D01*
X153281396Y-101251653D01*
X153244856Y-101240568D01*
X153211179Y-101222567D01*
X153181659Y-101198341D01*
X153157433Y-101168821D01*
X153139432Y-101135144D01*
X153128347Y-101098604D01*
X153124000Y-101054462D01*
X153124000Y-99605538D01*
X153128347Y-99561396D01*
X153139432Y-99524856D01*
X153157433Y-99491179D01*
X153181659Y-99461659D01*
X153211179Y-99437433D01*
X153244856Y-99419432D01*
X153281396Y-99408347D01*
X153325538Y-99404000D01*
X154274462Y-99404000D01*
X154318604Y-99408347D01*
G37*
G36*
X151518604Y-99408347D02*
G01*
X151555144Y-99419432D01*
X151588821Y-99437433D01*
X151618341Y-99461659D01*
X151642567Y-99491179D01*
X151660568Y-99524856D01*
X151671653Y-99561396D01*
X151676000Y-99605538D01*
X151676000Y-101054462D01*
X151671653Y-101098604D01*
X151660568Y-101135144D01*
X151642567Y-101168821D01*
X151618341Y-101198341D01*
X151588821Y-101222567D01*
X151555144Y-101240568D01*
X151518604Y-101251653D01*
X151474462Y-101256000D01*
X150525538Y-101256000D01*
X150481396Y-101251653D01*
X150444856Y-101240568D01*
X150411179Y-101222567D01*
X150381659Y-101198341D01*
X150357433Y-101168821D01*
X150339432Y-101135144D01*
X150328347Y-101098604D01*
X150324000Y-101054462D01*
X150324000Y-99605538D01*
X150328347Y-99561396D01*
X150339432Y-99524856D01*
X150357433Y-99491179D01*
X150381659Y-99461659D01*
X150411179Y-99437433D01*
X150444856Y-99419432D01*
X150481396Y-99408347D01*
X150525538Y-99404000D01*
X151474462Y-99404000D01*
X151518604Y-99408347D01*
G37*
G36*
X164608604Y-98268347D02*
G01*
X164645144Y-98279432D01*
X164678821Y-98297433D01*
X164708341Y-98321659D01*
X164732567Y-98351179D01*
X164750568Y-98384856D01*
X164761653Y-98421396D01*
X164766000Y-98465538D01*
X164766000Y-99914462D01*
X164761653Y-99958604D01*
X164750568Y-99995144D01*
X164732567Y-100028821D01*
X164708341Y-100058341D01*
X164678821Y-100082567D01*
X164645144Y-100100568D01*
X164608604Y-100111653D01*
X164564462Y-100116000D01*
X163615538Y-100116000D01*
X163571396Y-100111653D01*
X163534856Y-100100568D01*
X163501179Y-100082567D01*
X163471659Y-100058341D01*
X163447433Y-100028821D01*
X163429432Y-99995144D01*
X163418347Y-99958604D01*
X163414000Y-99914462D01*
X163414000Y-98465538D01*
X163418347Y-98421396D01*
X163429432Y-98384856D01*
X163447433Y-98351179D01*
X163471659Y-98321659D01*
X163501179Y-98297433D01*
X163534856Y-98279432D01*
X163571396Y-98268347D01*
X163615538Y-98264000D01*
X164564462Y-98264000D01*
X164608604Y-98268347D01*
G37*
G36*
X161808604Y-98268347D02*
G01*
X161845144Y-98279432D01*
X161878821Y-98297433D01*
X161908341Y-98321659D01*
X161932567Y-98351179D01*
X161950568Y-98384856D01*
X161961653Y-98421396D01*
X161966000Y-98465538D01*
X161966000Y-99914462D01*
X161961653Y-99958604D01*
X161950568Y-99995144D01*
X161932567Y-100028821D01*
X161908341Y-100058341D01*
X161878821Y-100082567D01*
X161845144Y-100100568D01*
X161808604Y-100111653D01*
X161764462Y-100116000D01*
X160815538Y-100116000D01*
X160771396Y-100111653D01*
X160734856Y-100100568D01*
X160701179Y-100082567D01*
X160671659Y-100058341D01*
X160647433Y-100028821D01*
X160629432Y-99995144D01*
X160618347Y-99958604D01*
X160614000Y-99914462D01*
X160614000Y-98465538D01*
X160618347Y-98421396D01*
X160629432Y-98384856D01*
X160647433Y-98351179D01*
X160671659Y-98321659D01*
X160701179Y-98297433D01*
X160734856Y-98279432D01*
X160771396Y-98268347D01*
X160815538Y-98264000D01*
X161764462Y-98264000D01*
X161808604Y-98268347D01*
G37*
G36*
X148088604Y-97248347D02*
G01*
X148125144Y-97259432D01*
X148158821Y-97277433D01*
X148188341Y-97301659D01*
X148212567Y-97331179D01*
X148230568Y-97364856D01*
X148241653Y-97401396D01*
X148246000Y-97445538D01*
X148246000Y-98394462D01*
X148241653Y-98438604D01*
X148230568Y-98475144D01*
X148212567Y-98508821D01*
X148188341Y-98538341D01*
X148158821Y-98562567D01*
X148125144Y-98580568D01*
X148088604Y-98591653D01*
X148044462Y-98596000D01*
X146595538Y-98596000D01*
X146551396Y-98591653D01*
X146514856Y-98580568D01*
X146481179Y-98562567D01*
X146451659Y-98538341D01*
X146427433Y-98508821D01*
X146409432Y-98475144D01*
X146398347Y-98438604D01*
X146394000Y-98394462D01*
X146394000Y-97445538D01*
X146398347Y-97401396D01*
X146409432Y-97364856D01*
X146427433Y-97331179D01*
X146451659Y-97301659D01*
X146481179Y-97277433D01*
X146514856Y-97259432D01*
X146551396Y-97248347D01*
X146595538Y-97244000D01*
X148044462Y-97244000D01*
X148088604Y-97248347D01*
G37*
G36*
X122301000Y-98171000D02*
G01*
X118999000Y-98171000D01*
X118999000Y-94869000D01*
X122301000Y-94869000D01*
X122301000Y-98171000D01*
G37*
G36*
X101025256Y-94911298D02*
G01*
X101131579Y-94932447D01*
X101432042Y-95056903D01*
X101702451Y-95237585D01*
X101932415Y-95467549D01*
X102093085Y-95708008D01*
X102113098Y-95737960D01*
X102128613Y-95775417D01*
X102237553Y-96038421D01*
X102301000Y-96357391D01*
X102301000Y-96682609D01*
X102237553Y-97001579D01*
X102149550Y-97214037D01*
X102123291Y-97277433D01*
X102113097Y-97302042D01*
X101932415Y-97572451D01*
X101702451Y-97802415D01*
X101432042Y-97983097D01*
X101131579Y-98107553D01*
X101025256Y-98128702D01*
X100812611Y-98171000D01*
X100487389Y-98171000D01*
X100274744Y-98128702D01*
X100168421Y-98107553D01*
X99867958Y-97983097D01*
X99597549Y-97802415D01*
X99367585Y-97572451D01*
X99186903Y-97302042D01*
X99176710Y-97277433D01*
X99150450Y-97214037D01*
X99062447Y-97001579D01*
X98999000Y-96682609D01*
X98999000Y-96357391D01*
X99062447Y-96038421D01*
X99171387Y-95775417D01*
X99186902Y-95737960D01*
X99206915Y-95708008D01*
X99367585Y-95467549D01*
X99597549Y-95237585D01*
X99867958Y-95056903D01*
X100168421Y-94932447D01*
X100274744Y-94911298D01*
X100487389Y-94869000D01*
X100812611Y-94869000D01*
X101025256Y-94911298D01*
G37*
G36*
X153870935Y-95645742D02*
G01*
X154021258Y-95708008D01*
X154156545Y-95798404D01*
X154271596Y-95913455D01*
X154361992Y-96048742D01*
X154424258Y-96199065D01*
X154456000Y-96358646D01*
X154456000Y-96521354D01*
X154424258Y-96680935D01*
X154361992Y-96831258D01*
X154271596Y-96966545D01*
X154156545Y-97081596D01*
X154021258Y-97171992D01*
X153870935Y-97234258D01*
X153711354Y-97266000D01*
X153548646Y-97266000D01*
X153389065Y-97234258D01*
X153238742Y-97171992D01*
X153103455Y-97081596D01*
X152988404Y-96966545D01*
X152898008Y-96831258D01*
X152835742Y-96680935D01*
X152804000Y-96521354D01*
X152804000Y-96358646D01*
X152835742Y-96199065D01*
X152898008Y-96048742D01*
X152988404Y-95913455D01*
X153103455Y-95798404D01*
X153238742Y-95708008D01*
X153389065Y-95645742D01*
X153548646Y-95614000D01*
X153711354Y-95614000D01*
X153870935Y-95645742D01*
G37*
G36*
X148088604Y-94448347D02*
G01*
X148125144Y-94459432D01*
X148158821Y-94477433D01*
X148188341Y-94501659D01*
X148212567Y-94531179D01*
X148230568Y-94564856D01*
X148241653Y-94601396D01*
X148246000Y-94645538D01*
X148246000Y-95594462D01*
X148241653Y-95638604D01*
X148230568Y-95675144D01*
X148212567Y-95708821D01*
X148188341Y-95738341D01*
X148158821Y-95762567D01*
X148125144Y-95780568D01*
X148088604Y-95791653D01*
X148044462Y-95796000D01*
X146595538Y-95796000D01*
X146551396Y-95791653D01*
X146514856Y-95780568D01*
X146481179Y-95762567D01*
X146451659Y-95738341D01*
X146427433Y-95708821D01*
X146409432Y-95675144D01*
X146398347Y-95638604D01*
X146394000Y-95594462D01*
X146394000Y-94645538D01*
X146398347Y-94601396D01*
X146409432Y-94564856D01*
X146427433Y-94531179D01*
X146451659Y-94501659D01*
X146481179Y-94477433D01*
X146514856Y-94459432D01*
X146551396Y-94448347D01*
X146595538Y-94444000D01*
X148044462Y-94444000D01*
X148088604Y-94448347D01*
G37*
G36*
X159711000Y-94796000D02*
G01*
X159059000Y-94796000D01*
X159059000Y-92944000D01*
X159711000Y-92944000D01*
X159711000Y-94796000D01*
G37*
G36*
X160981000Y-94796000D02*
G01*
X160329000Y-94796000D01*
X160329000Y-92944000D01*
X160981000Y-92944000D01*
X160981000Y-94796000D01*
G37*
G36*
X162251000Y-94796000D02*
G01*
X161599000Y-94796000D01*
X161599000Y-92944000D01*
X162251000Y-92944000D01*
X162251000Y-94796000D01*
G37*
G36*
X163521000Y-94796000D02*
G01*
X162869000Y-94796000D01*
X162869000Y-92944000D01*
X163521000Y-92944000D01*
X163521000Y-94796000D01*
G37*
G36*
X193711304Y-88877002D02*
G01*
X194130139Y-89050489D01*
X194130141Y-89050490D01*
X194319891Y-89177277D01*
X194507082Y-89302354D01*
X194827646Y-89622918D01*
X195079511Y-89999861D01*
X195252998Y-90418696D01*
X195341440Y-90863327D01*
X195341440Y-91316673D01*
X195252998Y-91761304D01*
X195079511Y-92180139D01*
X195079510Y-92180141D01*
X194827645Y-92557083D01*
X194507083Y-92877645D01*
X194130141Y-93129510D01*
X194130140Y-93129511D01*
X194130139Y-93129511D01*
X193711304Y-93302998D01*
X193266673Y-93391440D01*
X192813327Y-93391440D01*
X192368696Y-93302998D01*
X191949861Y-93129511D01*
X191949860Y-93129511D01*
X191949859Y-93129510D01*
X191572917Y-92877645D01*
X191252355Y-92557083D01*
X191000490Y-92180141D01*
X191000489Y-92180139D01*
X190827002Y-91761304D01*
X190738560Y-91316673D01*
X190738560Y-90863327D01*
X190827002Y-90418696D01*
X191000489Y-89999861D01*
X191252354Y-89622918D01*
X191572918Y-89302354D01*
X191760109Y-89177277D01*
X191949859Y-89050490D01*
X191949861Y-89050489D01*
X192368696Y-88877002D01*
X192813327Y-88788560D01*
X193266673Y-88788560D01*
X193711304Y-88877002D01*
G37*
G36*
X91201440Y-92471440D02*
G01*
X86598560Y-92471440D01*
X86598560Y-87868560D01*
X91201440Y-87868560D01*
X91201440Y-92471440D01*
G37*
G36*
X151956000Y-92266000D02*
G01*
X150304000Y-92266000D01*
X150304000Y-90614000D01*
X151956000Y-90614000D01*
X151956000Y-92266000D01*
G37*
G36*
X156370935Y-90645742D02*
G01*
X156521258Y-90708008D01*
X156656545Y-90798404D01*
X156771596Y-90913455D01*
X156861992Y-91048742D01*
X156924258Y-91199065D01*
X156956000Y-91358646D01*
X156956000Y-91521354D01*
X156924258Y-91680935D01*
X156861992Y-91831258D01*
X156771596Y-91966545D01*
X156656545Y-92081596D01*
X156521258Y-92171992D01*
X156370935Y-92234258D01*
X156211354Y-92266000D01*
X156048646Y-92266000D01*
X155889065Y-92234258D01*
X155738742Y-92171992D01*
X155603455Y-92081596D01*
X155488404Y-91966545D01*
X155398008Y-91831258D01*
X155335742Y-91680935D01*
X155304000Y-91521354D01*
X155304000Y-91358646D01*
X155335742Y-91199065D01*
X155398008Y-91048742D01*
X155488404Y-90913455D01*
X155603455Y-90798404D01*
X155738742Y-90708008D01*
X155889065Y-90645742D01*
X156048646Y-90614000D01*
X156211354Y-90614000D01*
X156370935Y-90645742D01*
G37*
G36*
X137758254Y-84227818D02*
G01*
X138131511Y-84382426D01*
X138131513Y-84382427D01*
X138179530Y-84414511D01*
X138467436Y-84606884D01*
X138753116Y-84892564D01*
X138977574Y-85228489D01*
X139132182Y-85601746D01*
X139211000Y-85997993D01*
X139211000Y-86402007D01*
X139132182Y-86798254D01*
X138980211Y-87165144D01*
X138977573Y-87171513D01*
X138753116Y-87507436D01*
X138467436Y-87793116D01*
X138131513Y-88017573D01*
X138131512Y-88017574D01*
X138131511Y-88017574D01*
X137758254Y-88172182D01*
X137362007Y-88251000D01*
X136957993Y-88251000D01*
X136561746Y-88172182D01*
X136188489Y-88017574D01*
X136188488Y-88017574D01*
X136188487Y-88017573D01*
X135852564Y-87793116D01*
X135566884Y-87507436D01*
X135342427Y-87171513D01*
X135339789Y-87165144D01*
X135187818Y-86798254D01*
X135109000Y-86402007D01*
X135109000Y-85997993D01*
X135187818Y-85601746D01*
X135342426Y-85228489D01*
X135566884Y-84892564D01*
X135852564Y-84606884D01*
X136140470Y-84414511D01*
X136188487Y-84382427D01*
X136188489Y-84382426D01*
X136561746Y-84227818D01*
X136957993Y-84149000D01*
X137362007Y-84149000D01*
X137758254Y-84227818D01*
G37*
G36*
X160981000Y-87396000D02*
G01*
X160329000Y-87396000D01*
X160329000Y-85544000D01*
X160981000Y-85544000D01*
X160981000Y-87396000D01*
G37*
G36*
X162251000Y-87396000D02*
G01*
X161599000Y-87396000D01*
X161599000Y-85544000D01*
X162251000Y-85544000D01*
X162251000Y-87396000D01*
G37*
G36*
X159711000Y-87396000D02*
G01*
X159059000Y-87396000D01*
X159059000Y-85544000D01*
X159711000Y-85544000D01*
X159711000Y-87396000D01*
G37*
G36*
X163521000Y-87396000D02*
G01*
X162869000Y-87396000D01*
X162869000Y-85544000D01*
X163521000Y-85544000D01*
X163521000Y-87396000D01*
G37*
G36*
X156858604Y-85438347D02*
G01*
X156895144Y-85449432D01*
X156928821Y-85467433D01*
X156958341Y-85491659D01*
X156982567Y-85521179D01*
X157000568Y-85554856D01*
X157011653Y-85591396D01*
X157016000Y-85635538D01*
X157016000Y-87084462D01*
X157011653Y-87128604D01*
X157000568Y-87165144D01*
X156982567Y-87198821D01*
X156958341Y-87228341D01*
X156928821Y-87252567D01*
X156895144Y-87270568D01*
X156858604Y-87281653D01*
X156814462Y-87286000D01*
X155865538Y-87286000D01*
X155821396Y-87281653D01*
X155784856Y-87270568D01*
X155751179Y-87252567D01*
X155721659Y-87228341D01*
X155697433Y-87198821D01*
X155679432Y-87165144D01*
X155668347Y-87128604D01*
X155664000Y-87084462D01*
X155664000Y-85635538D01*
X155668347Y-85591396D01*
X155679432Y-85554856D01*
X155697433Y-85521179D01*
X155721659Y-85491659D01*
X155751179Y-85467433D01*
X155784856Y-85449432D01*
X155821396Y-85438347D01*
X155865538Y-85434000D01*
X156814462Y-85434000D01*
X156858604Y-85438347D01*
G37*
G36*
X154058604Y-85438347D02*
G01*
X154095144Y-85449432D01*
X154128821Y-85467433D01*
X154158341Y-85491659D01*
X154182567Y-85521179D01*
X154200568Y-85554856D01*
X154211653Y-85591396D01*
X154216000Y-85635538D01*
X154216000Y-87084462D01*
X154211653Y-87128604D01*
X154200568Y-87165144D01*
X154182567Y-87198821D01*
X154158341Y-87228341D01*
X154128821Y-87252567D01*
X154095144Y-87270568D01*
X154058604Y-87281653D01*
X154014462Y-87286000D01*
X153065538Y-87286000D01*
X153021396Y-87281653D01*
X152984856Y-87270568D01*
X152951179Y-87252567D01*
X152921659Y-87228341D01*
X152897433Y-87198821D01*
X152879432Y-87165144D01*
X152868347Y-87128604D01*
X152864000Y-87084462D01*
X152864000Y-85635538D01*
X152868347Y-85591396D01*
X152879432Y-85554856D01*
X152897433Y-85521179D01*
X152921659Y-85491659D01*
X152951179Y-85467433D01*
X152984856Y-85449432D01*
X153021396Y-85438347D01*
X153065538Y-85434000D01*
X154014462Y-85434000D01*
X154058604Y-85438347D01*
G37*
G36*
X193711304Y-80162002D02*
G01*
X194130139Y-80335489D01*
X194130141Y-80335490D01*
X194319891Y-80462277D01*
X194507082Y-80587354D01*
X194827646Y-80907918D01*
X195079511Y-81284861D01*
X195252998Y-81703696D01*
X195341440Y-82148327D01*
X195341440Y-82601673D01*
X195252998Y-83046304D01*
X195083538Y-83455417D01*
X195079510Y-83465141D01*
X194952723Y-83654891D01*
X194827646Y-83842082D01*
X194507082Y-84162646D01*
X194319891Y-84287723D01*
X194130141Y-84414510D01*
X194130140Y-84414511D01*
X194130139Y-84414511D01*
X193711304Y-84587998D01*
X193266673Y-84676440D01*
X192813327Y-84676440D01*
X192368696Y-84587998D01*
X191949861Y-84414511D01*
X191949860Y-84414511D01*
X191949859Y-84414510D01*
X191760109Y-84287723D01*
X191572918Y-84162646D01*
X191252354Y-83842082D01*
X191127277Y-83654891D01*
X191000490Y-83465141D01*
X190996462Y-83455417D01*
X190827002Y-83046304D01*
X190738560Y-82601673D01*
X190738560Y-82148327D01*
X190827002Y-81703696D01*
X191000489Y-81284861D01*
X191252354Y-80907918D01*
X191572918Y-80587354D01*
X191760109Y-80462277D01*
X191949859Y-80335490D01*
X191949861Y-80335489D01*
X192368696Y-80162002D01*
X192813327Y-80073560D01*
X193266673Y-80073560D01*
X193711304Y-80162002D01*
G37*
G36*
X173084903Y-81347075D02*
G01*
X173312571Y-81441378D01*
X173517466Y-81578285D01*
X173691715Y-81752534D01*
X173828622Y-81957429D01*
X173828623Y-81957431D01*
X173922925Y-82185097D01*
X173971000Y-82426786D01*
X173971000Y-82673214D01*
X173922925Y-82914903D01*
X173828622Y-83142571D01*
X173691715Y-83347466D01*
X173517466Y-83521715D01*
X173312571Y-83658622D01*
X173312570Y-83658623D01*
X173312569Y-83658623D01*
X173084903Y-83752925D01*
X172843214Y-83801000D01*
X172596786Y-83801000D01*
X172355097Y-83752925D01*
X172127431Y-83658623D01*
X172127430Y-83658623D01*
X172127429Y-83658622D01*
X171922534Y-83521715D01*
X171748285Y-83347466D01*
X171611378Y-83142571D01*
X171517075Y-82914903D01*
X171469000Y-82673214D01*
X171469000Y-82426786D01*
X171517075Y-82185097D01*
X171611377Y-81957431D01*
X171611378Y-81957429D01*
X171748285Y-81752534D01*
X171922534Y-81578285D01*
X172127429Y-81441378D01*
X172355097Y-81347075D01*
X172596786Y-81299000D01*
X172843214Y-81299000D01*
X173084903Y-81347075D01*
G37*
G36*
X183244903Y-81347075D02*
G01*
X183472571Y-81441378D01*
X183677466Y-81578285D01*
X183851715Y-81752534D01*
X183988622Y-81957429D01*
X183988623Y-81957431D01*
X184082925Y-82185097D01*
X184131000Y-82426786D01*
X184131000Y-82673214D01*
X184082925Y-82914903D01*
X183988622Y-83142571D01*
X183851715Y-83347466D01*
X183677466Y-83521715D01*
X183472571Y-83658622D01*
X183472570Y-83658623D01*
X183472569Y-83658623D01*
X183244903Y-83752925D01*
X183003214Y-83801000D01*
X182756786Y-83801000D01*
X182515097Y-83752925D01*
X182287431Y-83658623D01*
X182287430Y-83658623D01*
X182287429Y-83658622D01*
X182082534Y-83521715D01*
X181908285Y-83347466D01*
X181771378Y-83142571D01*
X181677075Y-82914903D01*
X181629000Y-82673214D01*
X181629000Y-82426786D01*
X181677075Y-82185097D01*
X181771377Y-81957431D01*
X181771378Y-81957429D01*
X181908285Y-81752534D01*
X182082534Y-81578285D01*
X182287429Y-81441378D01*
X182515097Y-81347075D01*
X182756786Y-81299000D01*
X183003214Y-81299000D01*
X183244903Y-81347075D01*
G37*
G36*
X154058604Y-81628347D02*
G01*
X154095144Y-81639432D01*
X154128821Y-81657433D01*
X154158341Y-81681659D01*
X154182567Y-81711179D01*
X154200568Y-81744856D01*
X154211653Y-81781396D01*
X154216000Y-81825538D01*
X154216000Y-83274462D01*
X154211653Y-83318604D01*
X154200568Y-83355144D01*
X154182567Y-83388821D01*
X154158341Y-83418341D01*
X154128821Y-83442567D01*
X154095144Y-83460568D01*
X154058604Y-83471653D01*
X154014462Y-83476000D01*
X153065538Y-83476000D01*
X153021396Y-83471653D01*
X152984856Y-83460568D01*
X152951179Y-83442567D01*
X152921659Y-83418341D01*
X152897433Y-83388821D01*
X152879432Y-83355144D01*
X152868347Y-83318604D01*
X152864000Y-83274462D01*
X152864000Y-81825538D01*
X152868347Y-81781396D01*
X152879432Y-81744856D01*
X152897433Y-81711179D01*
X152921659Y-81681659D01*
X152951179Y-81657433D01*
X152984856Y-81639432D01*
X153021396Y-81628347D01*
X153065538Y-81624000D01*
X154014462Y-81624000D01*
X154058604Y-81628347D01*
G37*
G36*
X156858604Y-81628347D02*
G01*
X156895144Y-81639432D01*
X156928821Y-81657433D01*
X156958341Y-81681659D01*
X156982567Y-81711179D01*
X157000568Y-81744856D01*
X157011653Y-81781396D01*
X157016000Y-81825538D01*
X157016000Y-83274462D01*
X157011653Y-83318604D01*
X157000568Y-83355144D01*
X156982567Y-83388821D01*
X156958341Y-83418341D01*
X156928821Y-83442567D01*
X156895144Y-83460568D01*
X156858604Y-83471653D01*
X156814462Y-83476000D01*
X155865538Y-83476000D01*
X155821396Y-83471653D01*
X155784856Y-83460568D01*
X155751179Y-83442567D01*
X155721659Y-83418341D01*
X155697433Y-83388821D01*
X155679432Y-83355144D01*
X155668347Y-83318604D01*
X155664000Y-83274462D01*
X155664000Y-81825538D01*
X155668347Y-81781396D01*
X155679432Y-81744856D01*
X155697433Y-81711179D01*
X155721659Y-81681659D01*
X155751179Y-81657433D01*
X155784856Y-81639432D01*
X155821396Y-81628347D01*
X155865538Y-81624000D01*
X156814462Y-81624000D01*
X156858604Y-81628347D01*
G37*
G36*
X101981000Y-82931000D02*
G01*
X98679000Y-82931000D01*
X98679000Y-79629000D01*
X101981000Y-79629000D01*
X101981000Y-82931000D01*
G37*
G36*
X120652499Y-79660804D02*
G01*
X120811579Y-79692447D01*
X121112042Y-79816903D01*
X121382451Y-79997585D01*
X121612415Y-80227549D01*
X121793097Y-80497958D01*
X121899395Y-80754583D01*
X121917553Y-80798422D01*
X121981000Y-81117389D01*
X121981000Y-81442611D01*
X121943886Y-81629196D01*
X121917553Y-81761579D01*
X121832951Y-81965826D01*
X121802050Y-82040429D01*
X121793097Y-82062042D01*
X121612415Y-82332451D01*
X121382451Y-82562415D01*
X121112042Y-82743097D01*
X120811579Y-82867553D01*
X120705256Y-82888702D01*
X120492611Y-82931000D01*
X120167389Y-82931000D01*
X119954744Y-82888702D01*
X119848421Y-82867553D01*
X119547958Y-82743097D01*
X119277549Y-82562415D01*
X119047585Y-82332451D01*
X118866903Y-82062042D01*
X118857951Y-82040429D01*
X118827049Y-81965826D01*
X118742447Y-81761579D01*
X118716114Y-81629196D01*
X118679000Y-81442611D01*
X118679000Y-81117389D01*
X118742447Y-80798422D01*
X118760606Y-80754583D01*
X118866903Y-80497958D01*
X119047585Y-80227549D01*
X119277549Y-79997585D01*
X119547958Y-79816903D01*
X119848421Y-79692447D01*
X120007501Y-79660804D01*
X120167389Y-79629000D01*
X120492611Y-79629000D01*
X120652499Y-79660804D01*
G37*
G36*
X90472585Y-79398802D02*
G01*
X90622410Y-79428604D01*
X90904674Y-79545521D01*
X91158705Y-79715259D01*
X91374741Y-79931295D01*
X91544479Y-80185326D01*
X91661396Y-80467590D01*
X91685219Y-80587355D01*
X91718483Y-80754583D01*
X91721000Y-80767240D01*
X91721000Y-81072760D01*
X91661396Y-81372410D01*
X91544479Y-81654674D01*
X91374741Y-81908705D01*
X91158705Y-82124741D01*
X90904674Y-82294479D01*
X90622410Y-82411396D01*
X90545039Y-82426786D01*
X90322761Y-82471000D01*
X90017239Y-82471000D01*
X89794961Y-82426786D01*
X89717590Y-82411396D01*
X89435326Y-82294479D01*
X89181295Y-82124741D01*
X88965259Y-81908705D01*
X88795521Y-81654674D01*
X88678604Y-81372410D01*
X88619000Y-81072760D01*
X88619000Y-80767240D01*
X88621518Y-80754583D01*
X88654781Y-80587355D01*
X88678604Y-80467590D01*
X88795521Y-80185326D01*
X88965259Y-79931295D01*
X89181295Y-79715259D01*
X89435326Y-79545521D01*
X89717590Y-79428604D01*
X89867415Y-79398802D01*
X90017239Y-79369000D01*
X90322761Y-79369000D01*
X90472585Y-79398802D01*
G37*
G36*
X164731000Y-82461000D02*
G01*
X162929000Y-82461000D01*
X162929000Y-81059000D01*
X164731000Y-81059000D01*
X164731000Y-82461000D01*
G37*
G36*
X160788604Y-80738347D02*
G01*
X160825144Y-80749432D01*
X160858821Y-80767433D01*
X160888341Y-80791659D01*
X160912567Y-80821179D01*
X160930568Y-80854856D01*
X160941653Y-80891396D01*
X160946000Y-80935538D01*
X160946000Y-81884462D01*
X160941653Y-81928604D01*
X160930568Y-81965144D01*
X160912567Y-81998821D01*
X160888341Y-82028341D01*
X160858821Y-82052567D01*
X160825144Y-82070568D01*
X160788604Y-82081653D01*
X160744462Y-82086000D01*
X159295538Y-82086000D01*
X159251396Y-82081653D01*
X159214856Y-82070568D01*
X159181179Y-82052567D01*
X159151659Y-82028341D01*
X159127433Y-81998821D01*
X159109432Y-81965144D01*
X159098347Y-81928604D01*
X159094000Y-81884462D01*
X159094000Y-80935538D01*
X159098347Y-80891396D01*
X159109432Y-80854856D01*
X159127433Y-80821179D01*
X159151659Y-80791659D01*
X159181179Y-80767433D01*
X159214856Y-80749432D01*
X159251396Y-80738347D01*
X159295538Y-80734000D01*
X160744462Y-80734000D01*
X160788604Y-80738347D01*
G37*
G36*
X154058604Y-77818347D02*
G01*
X154095144Y-77829432D01*
X154128821Y-77847433D01*
X154158341Y-77871659D01*
X154182567Y-77901179D01*
X154200568Y-77934856D01*
X154211653Y-77971396D01*
X154216000Y-78015538D01*
X154216000Y-79464462D01*
X154211653Y-79508604D01*
X154200568Y-79545144D01*
X154182567Y-79578821D01*
X154158341Y-79608341D01*
X154128821Y-79632567D01*
X154095144Y-79650568D01*
X154058604Y-79661653D01*
X154014462Y-79666000D01*
X153065538Y-79666000D01*
X153021396Y-79661653D01*
X152984856Y-79650568D01*
X152951179Y-79632567D01*
X152921659Y-79608341D01*
X152897433Y-79578821D01*
X152879432Y-79545144D01*
X152868347Y-79508604D01*
X152864000Y-79464462D01*
X152864000Y-78015538D01*
X152868347Y-77971396D01*
X152879432Y-77934856D01*
X152897433Y-77901179D01*
X152921659Y-77871659D01*
X152951179Y-77847433D01*
X152984856Y-77829432D01*
X153021396Y-77818347D01*
X153065538Y-77814000D01*
X154014462Y-77814000D01*
X154058604Y-77818347D01*
G37*
G36*
X156858604Y-77818347D02*
G01*
X156895144Y-77829432D01*
X156928821Y-77847433D01*
X156958341Y-77871659D01*
X156982567Y-77901179D01*
X157000568Y-77934856D01*
X157011653Y-77971396D01*
X157016000Y-78015538D01*
X157016000Y-79464462D01*
X157011653Y-79508604D01*
X157000568Y-79545144D01*
X156982567Y-79578821D01*
X156958341Y-79608341D01*
X156928821Y-79632567D01*
X156895144Y-79650568D01*
X156858604Y-79661653D01*
X156814462Y-79666000D01*
X155865538Y-79666000D01*
X155821396Y-79661653D01*
X155784856Y-79650568D01*
X155751179Y-79632567D01*
X155721659Y-79608341D01*
X155697433Y-79578821D01*
X155679432Y-79545144D01*
X155668347Y-79508604D01*
X155664000Y-79464462D01*
X155664000Y-78015538D01*
X155668347Y-77971396D01*
X155679432Y-77934856D01*
X155697433Y-77901179D01*
X155721659Y-77871659D01*
X155751179Y-77847433D01*
X155784856Y-77829432D01*
X155821396Y-77818347D01*
X155865538Y-77814000D01*
X156814462Y-77814000D01*
X156858604Y-77818347D01*
G37*
G36*
X160788604Y-77938347D02*
G01*
X160825144Y-77949432D01*
X160858821Y-77967433D01*
X160888341Y-77991659D01*
X160912567Y-78021179D01*
X160930568Y-78054856D01*
X160941653Y-78091396D01*
X160946000Y-78135538D01*
X160946000Y-79084462D01*
X160941653Y-79128604D01*
X160930568Y-79165144D01*
X160912567Y-79198821D01*
X160888341Y-79228341D01*
X160858821Y-79252567D01*
X160825144Y-79270568D01*
X160788604Y-79281653D01*
X160744462Y-79286000D01*
X159295538Y-79286000D01*
X159251396Y-79281653D01*
X159214856Y-79270568D01*
X159181179Y-79252567D01*
X159151659Y-79228341D01*
X159127433Y-79198821D01*
X159109432Y-79165144D01*
X159098347Y-79128604D01*
X159094000Y-79084462D01*
X159094000Y-78135538D01*
X159098347Y-78091396D01*
X159109432Y-78054856D01*
X159127433Y-78021179D01*
X159151659Y-77991659D01*
X159181179Y-77967433D01*
X159214856Y-77949432D01*
X159251396Y-77938347D01*
X159295538Y-77934000D01*
X160744462Y-77934000D01*
X160788604Y-77938347D01*
G37*
G36*
X164731000Y-78961000D02*
G01*
X162929000Y-78961000D01*
X162929000Y-77559000D01*
X164731000Y-77559000D01*
X164731000Y-78961000D01*
G37*
G36*
X186381000Y-78286000D02*
G01*
X185729000Y-78286000D01*
X185729000Y-76434000D01*
X186381000Y-76434000D01*
X186381000Y-78286000D01*
G37*
G36*
X185111000Y-78286000D02*
G01*
X184459000Y-78286000D01*
X184459000Y-76434000D01*
X185111000Y-76434000D01*
X185111000Y-78286000D01*
G37*
G36*
X182571000Y-78286000D02*
G01*
X181919000Y-78286000D01*
X181919000Y-76434000D01*
X182571000Y-76434000D01*
X182571000Y-78286000D01*
G37*
G36*
X183841000Y-78286000D02*
G01*
X183189000Y-78286000D01*
X183189000Y-76434000D01*
X183841000Y-76434000D01*
X183841000Y-78286000D01*
G37*
G36*
X139211000Y-78251000D02*
G01*
X135109000Y-78251000D01*
X135109000Y-74149000D01*
X139211000Y-74149000D01*
X139211000Y-78251000D01*
G37*
G36*
X176698228Y-75381703D02*
G01*
X176853100Y-75445853D01*
X176992481Y-75538985D01*
X177111015Y-75657519D01*
X177204147Y-75796900D01*
X177268297Y-75951772D01*
X177301000Y-76116184D01*
X177301000Y-76283816D01*
X177268297Y-76448228D01*
X177204147Y-76603100D01*
X177111015Y-76742481D01*
X176992481Y-76861015D01*
X176853100Y-76954147D01*
X176698228Y-77018297D01*
X176533816Y-77051000D01*
X176366184Y-77051000D01*
X176201772Y-77018297D01*
X176046900Y-76954147D01*
X175907519Y-76861015D01*
X175788985Y-76742481D01*
X175695853Y-76603100D01*
X175631703Y-76448228D01*
X175599000Y-76283816D01*
X175599000Y-76116184D01*
X175631703Y-75951772D01*
X175695853Y-75796900D01*
X175788985Y-75657519D01*
X175907519Y-75538985D01*
X176046900Y-75445853D01*
X176201772Y-75381703D01*
X176366184Y-75349000D01*
X176533816Y-75349000D01*
X176698228Y-75381703D01*
G37*
G36*
X171698228Y-75381703D02*
G01*
X171853100Y-75445853D01*
X171992481Y-75538985D01*
X172111015Y-75657519D01*
X172204147Y-75796900D01*
X172268297Y-75951772D01*
X172301000Y-76116184D01*
X172301000Y-76283816D01*
X172268297Y-76448228D01*
X172204147Y-76603100D01*
X172111015Y-76742481D01*
X171992481Y-76861015D01*
X171853100Y-76954147D01*
X171698228Y-77018297D01*
X171533816Y-77051000D01*
X171366184Y-77051000D01*
X171201772Y-77018297D01*
X171046900Y-76954147D01*
X170907519Y-76861015D01*
X170788985Y-76742481D01*
X170695853Y-76603100D01*
X170631703Y-76448228D01*
X170599000Y-76283816D01*
X170599000Y-76116184D01*
X170631703Y-75951772D01*
X170695853Y-75796900D01*
X170788985Y-75657519D01*
X170907519Y-75538985D01*
X171046900Y-75445853D01*
X171201772Y-75381703D01*
X171366184Y-75349000D01*
X171533816Y-75349000D01*
X171698228Y-75381703D01*
G37*
G36*
X195341440Y-75961440D02*
G01*
X190738560Y-75961440D01*
X190738560Y-71358560D01*
X195341440Y-71358560D01*
X195341440Y-75961440D01*
G37*
G36*
X156858604Y-74008347D02*
G01*
X156895144Y-74019432D01*
X156928821Y-74037433D01*
X156958341Y-74061659D01*
X156982567Y-74091179D01*
X157000568Y-74124856D01*
X157011653Y-74161396D01*
X157016000Y-74205538D01*
X157016000Y-75654462D01*
X157011653Y-75698604D01*
X157000568Y-75735144D01*
X156982567Y-75768821D01*
X156958341Y-75798341D01*
X156928821Y-75822567D01*
X156895144Y-75840568D01*
X156858604Y-75851653D01*
X156814462Y-75856000D01*
X155865538Y-75856000D01*
X155821396Y-75851653D01*
X155784856Y-75840568D01*
X155751179Y-75822567D01*
X155721659Y-75798341D01*
X155697433Y-75768821D01*
X155679432Y-75735144D01*
X155668347Y-75698604D01*
X155664000Y-75654462D01*
X155664000Y-74205538D01*
X155668347Y-74161396D01*
X155679432Y-74124856D01*
X155697433Y-74091179D01*
X155721659Y-74061659D01*
X155751179Y-74037433D01*
X155784856Y-74019432D01*
X155821396Y-74008347D01*
X155865538Y-74004000D01*
X156814462Y-74004000D01*
X156858604Y-74008347D01*
G37*
G36*
X154058604Y-74008347D02*
G01*
X154095144Y-74019432D01*
X154128821Y-74037433D01*
X154158341Y-74061659D01*
X154182567Y-74091179D01*
X154200568Y-74124856D01*
X154211653Y-74161396D01*
X154216000Y-74205538D01*
X154216000Y-75654462D01*
X154211653Y-75698604D01*
X154200568Y-75735144D01*
X154182567Y-75768821D01*
X154158341Y-75798341D01*
X154128821Y-75822567D01*
X154095144Y-75840568D01*
X154058604Y-75851653D01*
X154014462Y-75856000D01*
X153065538Y-75856000D01*
X153021396Y-75851653D01*
X152984856Y-75840568D01*
X152951179Y-75822567D01*
X152921659Y-75798341D01*
X152897433Y-75768821D01*
X152879432Y-75735144D01*
X152868347Y-75698604D01*
X152864000Y-75654462D01*
X152864000Y-74205538D01*
X152868347Y-74161396D01*
X152879432Y-74124856D01*
X152897433Y-74091179D01*
X152921659Y-74061659D01*
X152951179Y-74037433D01*
X152984856Y-74019432D01*
X153021396Y-74008347D01*
X153065538Y-74004000D01*
X154014462Y-74004000D01*
X154058604Y-74008347D01*
G37*
G36*
X162912497Y-70878863D02*
G01*
X163012372Y-70898729D01*
X163129279Y-70947154D01*
X163294611Y-71015636D01*
X163548621Y-71185360D01*
X163764640Y-71401379D01*
X163934364Y-71655389D01*
X163984157Y-71775600D01*
X164051271Y-71937628D01*
X164057074Y-71966802D01*
X164110870Y-72237251D01*
X164110870Y-72542749D01*
X164051271Y-72842371D01*
X163934364Y-73124611D01*
X163764640Y-73378621D01*
X163548621Y-73594640D01*
X163294611Y-73764364D01*
X163129279Y-73832846D01*
X163012372Y-73881271D01*
X162912497Y-73901137D01*
X162712749Y-73940870D01*
X162407251Y-73940870D01*
X162207503Y-73901137D01*
X162107628Y-73881271D01*
X161990721Y-73832846D01*
X161825389Y-73764364D01*
X161571379Y-73594640D01*
X161355360Y-73378621D01*
X161185636Y-73124611D01*
X161068729Y-72842371D01*
X161009130Y-72542749D01*
X161009130Y-72237251D01*
X161062926Y-71966802D01*
X161068729Y-71937628D01*
X161135843Y-71775600D01*
X161185636Y-71655389D01*
X161355360Y-71401379D01*
X161571379Y-71185360D01*
X161825389Y-71015636D01*
X161990721Y-70947154D01*
X162107628Y-70898729D01*
X162207503Y-70878863D01*
X162407251Y-70839130D01*
X162712749Y-70839130D01*
X162912497Y-70878863D01*
G37*
G36*
X171730870Y-73940870D02*
G01*
X168629130Y-73940870D01*
X168629130Y-70839130D01*
X171730870Y-70839130D01*
X171730870Y-73940870D01*
G37*
G36*
X166722497Y-70878863D02*
G01*
X166822372Y-70898729D01*
X166939279Y-70947154D01*
X167104611Y-71015636D01*
X167358621Y-71185360D01*
X167574640Y-71401379D01*
X167744364Y-71655389D01*
X167794157Y-71775600D01*
X167861271Y-71937628D01*
X167867074Y-71966802D01*
X167920870Y-72237251D01*
X167920870Y-72542749D01*
X167861271Y-72842371D01*
X167744364Y-73124611D01*
X167574640Y-73378621D01*
X167358621Y-73594640D01*
X167104611Y-73764364D01*
X166939279Y-73832846D01*
X166822372Y-73881271D01*
X166722497Y-73901137D01*
X166522749Y-73940870D01*
X166217251Y-73940870D01*
X166017503Y-73901137D01*
X165917628Y-73881271D01*
X165800721Y-73832846D01*
X165635389Y-73764364D01*
X165381379Y-73594640D01*
X165165360Y-73378621D01*
X164995636Y-73124611D01*
X164878729Y-72842371D01*
X164819130Y-72542749D01*
X164819130Y-72237251D01*
X164872926Y-71966802D01*
X164878729Y-71937628D01*
X164945843Y-71775600D01*
X164995636Y-71655389D01*
X165165360Y-71401379D01*
X165381379Y-71185360D01*
X165635389Y-71015636D01*
X165800721Y-70947154D01*
X165917628Y-70898729D01*
X166017503Y-70878863D01*
X166217251Y-70839130D01*
X166522749Y-70839130D01*
X166722497Y-70878863D01*
G37*
G36*
X176918604Y-70198347D02*
G01*
X176955144Y-70209432D01*
X176988821Y-70227433D01*
X177018341Y-70251659D01*
X177042567Y-70281179D01*
X177060568Y-70314856D01*
X177071653Y-70351396D01*
X177076000Y-70395538D01*
X177076000Y-71844462D01*
X177071653Y-71888604D01*
X177060568Y-71925144D01*
X177042567Y-71958821D01*
X177018341Y-71988341D01*
X176988821Y-72012567D01*
X176955144Y-72030568D01*
X176918604Y-72041653D01*
X176874462Y-72046000D01*
X175925538Y-72046000D01*
X175881396Y-72041653D01*
X175844856Y-72030568D01*
X175811179Y-72012567D01*
X175781659Y-71988341D01*
X175757433Y-71958821D01*
X175739432Y-71925144D01*
X175728347Y-71888604D01*
X175724000Y-71844462D01*
X175724000Y-70395538D01*
X175728347Y-70351396D01*
X175739432Y-70314856D01*
X175757433Y-70281179D01*
X175781659Y-70251659D01*
X175811179Y-70227433D01*
X175844856Y-70209432D01*
X175881396Y-70198347D01*
X175925538Y-70194000D01*
X176874462Y-70194000D01*
X176918604Y-70198347D01*
G37*
G36*
X179718604Y-70198347D02*
G01*
X179755144Y-70209432D01*
X179788821Y-70227433D01*
X179818341Y-70251659D01*
X179842567Y-70281179D01*
X179860568Y-70314856D01*
X179871653Y-70351396D01*
X179876000Y-70395538D01*
X179876000Y-71844462D01*
X179871653Y-71888604D01*
X179860568Y-71925144D01*
X179842567Y-71958821D01*
X179818341Y-71988341D01*
X179788821Y-72012567D01*
X179755144Y-72030568D01*
X179718604Y-72041653D01*
X179674462Y-72046000D01*
X178725538Y-72046000D01*
X178681396Y-72041653D01*
X178644856Y-72030568D01*
X178611179Y-72012567D01*
X178581659Y-71988341D01*
X178557433Y-71958821D01*
X178539432Y-71925144D01*
X178528347Y-71888604D01*
X178524000Y-71844462D01*
X178524000Y-70395538D01*
X178528347Y-70351396D01*
X178539432Y-70314856D01*
X178557433Y-70281179D01*
X178581659Y-70251659D01*
X178611179Y-70227433D01*
X178644856Y-70209432D01*
X178681396Y-70198347D01*
X178725538Y-70194000D01*
X179674462Y-70194000D01*
X179718604Y-70198347D01*
G37*
G36*
X90488433Y-68304893D02*
G01*
X90578657Y-68322839D01*
X90684267Y-68366585D01*
X90833621Y-68428449D01*
X90833622Y-68428450D01*
X91063086Y-68581772D01*
X91258228Y-68776914D01*
X91356507Y-68924000D01*
X91411551Y-69006379D01*
X91517161Y-69261344D01*
X91571000Y-69532012D01*
X91571000Y-69807988D01*
X91517161Y-70078656D01*
X91411551Y-70333621D01*
X91411550Y-70333622D01*
X91258228Y-70563086D01*
X91063086Y-70758228D01*
X90942007Y-70839130D01*
X90833621Y-70911551D01*
X90684267Y-70973415D01*
X90578657Y-71017161D01*
X90488433Y-71035107D01*
X90307988Y-71071000D01*
X90032012Y-71071000D01*
X89851567Y-71035107D01*
X89761343Y-71017161D01*
X89655733Y-70973415D01*
X89506379Y-70911551D01*
X89397993Y-70839130D01*
X89276914Y-70758228D01*
X89081772Y-70563086D01*
X88928450Y-70333622D01*
X88928449Y-70333621D01*
X88822839Y-70078656D01*
X88769000Y-69807988D01*
X88769000Y-69532012D01*
X88822839Y-69261344D01*
X88928449Y-69006379D01*
X88983493Y-68924000D01*
X89081772Y-68776914D01*
X89276914Y-68581772D01*
X89506378Y-68428450D01*
X89506379Y-68428449D01*
X89655733Y-68366585D01*
X89761343Y-68322839D01*
X89851567Y-68304893D01*
X90032012Y-68269000D01*
X90307988Y-68269000D01*
X90488433Y-68304893D01*
G37*
G36*
X185111000Y-70886000D02*
G01*
X184459000Y-70886000D01*
X184459000Y-69034000D01*
X185111000Y-69034000D01*
X185111000Y-70886000D01*
G37*
G36*
X183841000Y-70886000D02*
G01*
X183189000Y-70886000D01*
X183189000Y-69034000D01*
X183841000Y-69034000D01*
X183841000Y-70886000D01*
G37*
G36*
X186381000Y-70886000D02*
G01*
X185729000Y-70886000D01*
X185729000Y-69034000D01*
X186381000Y-69034000D01*
X186381000Y-70886000D01*
G37*
G36*
X182571000Y-70886000D02*
G01*
X181919000Y-70886000D01*
X181919000Y-69034000D01*
X182571000Y-69034000D01*
X182571000Y-70886000D01*
G37*
G36*
X152788604Y-68928347D02*
G01*
X152825144Y-68939432D01*
X152858821Y-68957433D01*
X152888341Y-68981659D01*
X152912567Y-69011179D01*
X152930568Y-69044856D01*
X152941653Y-69081396D01*
X152946000Y-69125538D01*
X152946000Y-70574462D01*
X152941653Y-70618604D01*
X152930568Y-70655144D01*
X152912567Y-70688821D01*
X152888341Y-70718341D01*
X152858821Y-70742567D01*
X152825144Y-70760568D01*
X152788604Y-70771653D01*
X152744462Y-70776000D01*
X151795538Y-70776000D01*
X151751396Y-70771653D01*
X151714856Y-70760568D01*
X151681179Y-70742567D01*
X151651659Y-70718341D01*
X151627433Y-70688821D01*
X151609432Y-70655144D01*
X151598347Y-70618604D01*
X151594000Y-70574462D01*
X151594000Y-69125538D01*
X151598347Y-69081396D01*
X151609432Y-69044856D01*
X151627433Y-69011179D01*
X151651659Y-68981659D01*
X151681179Y-68957433D01*
X151714856Y-68939432D01*
X151751396Y-68928347D01*
X151795538Y-68924000D01*
X152744462Y-68924000D01*
X152788604Y-68928347D01*
G37*
G36*
X155588604Y-68928347D02*
G01*
X155625144Y-68939432D01*
X155658821Y-68957433D01*
X155688341Y-68981659D01*
X155712567Y-69011179D01*
X155730568Y-69044856D01*
X155741653Y-69081396D01*
X155746000Y-69125538D01*
X155746000Y-70574462D01*
X155741653Y-70618604D01*
X155730568Y-70655144D01*
X155712567Y-70688821D01*
X155688341Y-70718341D01*
X155658821Y-70742567D01*
X155625144Y-70760568D01*
X155588604Y-70771653D01*
X155544462Y-70776000D01*
X154595538Y-70776000D01*
X154551396Y-70771653D01*
X154514856Y-70760568D01*
X154481179Y-70742567D01*
X154451659Y-70718341D01*
X154427433Y-70688821D01*
X154409432Y-70655144D01*
X154398347Y-70618604D01*
X154394000Y-70574462D01*
X154394000Y-69125538D01*
X154398347Y-69081396D01*
X154409432Y-69044856D01*
X154427433Y-69011179D01*
X154451659Y-68981659D01*
X154481179Y-68957433D01*
X154514856Y-68939432D01*
X154551396Y-68928347D01*
X154595538Y-68924000D01*
X155544462Y-68924000D01*
X155588604Y-68928347D01*
G37*
G36*
X160981000Y-69396000D02*
G01*
X160329000Y-69396000D01*
X160329000Y-67544000D01*
X160981000Y-67544000D01*
X160981000Y-69396000D01*
G37*
G36*
X162251000Y-69396000D02*
G01*
X161599000Y-69396000D01*
X161599000Y-67544000D01*
X162251000Y-67544000D01*
X162251000Y-69396000D01*
G37*
G36*
X163521000Y-69396000D02*
G01*
X162869000Y-69396000D01*
X162869000Y-67544000D01*
X163521000Y-67544000D01*
X163521000Y-69396000D01*
G37*
G36*
X159711000Y-69396000D02*
G01*
X159059000Y-69396000D01*
X159059000Y-67544000D01*
X159711000Y-67544000D01*
X159711000Y-69396000D01*
G37*
G36*
X169298604Y-66388347D02*
G01*
X169335144Y-66399432D01*
X169368821Y-66417433D01*
X169398341Y-66441659D01*
X169422567Y-66471179D01*
X169440568Y-66504856D01*
X169451653Y-66541396D01*
X169456000Y-66585538D01*
X169456000Y-68034462D01*
X169451653Y-68078604D01*
X169440568Y-68115144D01*
X169422567Y-68148821D01*
X169398341Y-68178341D01*
X169368821Y-68202567D01*
X169335144Y-68220568D01*
X169298604Y-68231653D01*
X169254462Y-68236000D01*
X168305538Y-68236000D01*
X168261396Y-68231653D01*
X168224856Y-68220568D01*
X168191179Y-68202567D01*
X168161659Y-68178341D01*
X168137433Y-68148821D01*
X168119432Y-68115144D01*
X168108347Y-68078604D01*
X168104000Y-68034462D01*
X168104000Y-66585538D01*
X168108347Y-66541396D01*
X168119432Y-66504856D01*
X168137433Y-66471179D01*
X168161659Y-66441659D01*
X168191179Y-66417433D01*
X168224856Y-66399432D01*
X168261396Y-66388347D01*
X168305538Y-66384000D01*
X169254462Y-66384000D01*
X169298604Y-66388347D01*
G37*
G36*
X172098604Y-66388347D02*
G01*
X172135144Y-66399432D01*
X172168821Y-66417433D01*
X172198341Y-66441659D01*
X172222567Y-66471179D01*
X172240568Y-66504856D01*
X172251653Y-66541396D01*
X172256000Y-66585538D01*
X172256000Y-68034462D01*
X172251653Y-68078604D01*
X172240568Y-68115144D01*
X172222567Y-68148821D01*
X172198341Y-68178341D01*
X172168821Y-68202567D01*
X172135144Y-68220568D01*
X172098604Y-68231653D01*
X172054462Y-68236000D01*
X171105538Y-68236000D01*
X171061396Y-68231653D01*
X171024856Y-68220568D01*
X170991179Y-68202567D01*
X170961659Y-68178341D01*
X170937433Y-68148821D01*
X170919432Y-68115144D01*
X170908347Y-68078604D01*
X170904000Y-68034462D01*
X170904000Y-66585538D01*
X170908347Y-66541396D01*
X170919432Y-66504856D01*
X170937433Y-66471179D01*
X170961659Y-66441659D01*
X170991179Y-66417433D01*
X171024856Y-66399432D01*
X171061396Y-66388347D01*
X171105538Y-66384000D01*
X172054462Y-66384000D01*
X172098604Y-66388347D01*
G37*
G36*
X120705256Y-64431298D02*
G01*
X120811579Y-64452447D01*
X121112042Y-64576903D01*
X121382451Y-64757585D01*
X121612415Y-64987549D01*
X121793097Y-65257958D01*
X121793098Y-65257960D01*
X121823620Y-65331648D01*
X121917553Y-65558421D01*
X121923363Y-65587629D01*
X121981000Y-65877389D01*
X121981000Y-66202611D01*
X121943886Y-66389196D01*
X121917553Y-66521579D01*
X121891060Y-66585538D01*
X121816948Y-66764462D01*
X121793097Y-66822042D01*
X121612415Y-67092451D01*
X121382451Y-67322415D01*
X121112042Y-67503097D01*
X120811579Y-67627553D01*
X120705256Y-67648702D01*
X120492611Y-67691000D01*
X120167389Y-67691000D01*
X119954744Y-67648702D01*
X119848421Y-67627553D01*
X119547958Y-67503097D01*
X119277549Y-67322415D01*
X119047585Y-67092451D01*
X118866903Y-66822042D01*
X118843053Y-66764462D01*
X118768940Y-66585538D01*
X118742447Y-66521579D01*
X118716114Y-66389196D01*
X118679000Y-66202611D01*
X118679000Y-65877389D01*
X118736637Y-65587629D01*
X118742447Y-65558421D01*
X118836380Y-65331648D01*
X118866902Y-65257960D01*
X118866903Y-65257958D01*
X119047585Y-64987549D01*
X119277549Y-64757585D01*
X119547958Y-64576903D01*
X119848421Y-64452447D01*
X119954744Y-64431298D01*
X120167389Y-64389000D01*
X120492611Y-64389000D01*
X120705256Y-64431298D01*
G37*
G36*
X101981000Y-67691000D02*
G01*
X98679000Y-67691000D01*
X98679000Y-64389000D01*
X101981000Y-64389000D01*
X101981000Y-67691000D01*
G37*
G36*
X177644497Y-64528863D02*
G01*
X177744372Y-64548729D01*
X177861279Y-64597154D01*
X178026611Y-64665636D01*
X178280621Y-64835360D01*
X178496640Y-65051379D01*
X178666364Y-65305389D01*
X178783271Y-65587629D01*
X178842870Y-65887251D01*
X178842870Y-66192749D01*
X178803963Y-66388347D01*
X178783271Y-66492372D01*
X178759019Y-66550922D01*
X178666364Y-66774611D01*
X178496640Y-67028621D01*
X178280621Y-67244640D01*
X178026611Y-67414364D01*
X177861279Y-67482846D01*
X177744372Y-67531271D01*
X177680379Y-67544000D01*
X177444749Y-67590870D01*
X177139251Y-67590870D01*
X176903621Y-67544000D01*
X176839628Y-67531271D01*
X176722721Y-67482846D01*
X176557389Y-67414364D01*
X176303379Y-67244640D01*
X176087360Y-67028621D01*
X175917636Y-66774611D01*
X175824981Y-66550922D01*
X175800729Y-66492372D01*
X175780037Y-66388347D01*
X175741130Y-66192749D01*
X175741130Y-65887251D01*
X175800729Y-65587629D01*
X175917636Y-65305389D01*
X176087360Y-65051379D01*
X176303379Y-64835360D01*
X176557389Y-64665636D01*
X176722721Y-64597154D01*
X176839628Y-64548729D01*
X176939503Y-64528863D01*
X177139251Y-64489130D01*
X177444749Y-64489130D01*
X177644497Y-64528863D01*
G37*
G36*
X155588604Y-65118347D02*
G01*
X155625144Y-65129432D01*
X155658821Y-65147433D01*
X155688341Y-65171659D01*
X155712567Y-65201179D01*
X155730568Y-65234856D01*
X155741653Y-65271396D01*
X155746000Y-65315538D01*
X155746000Y-66764462D01*
X155741653Y-66808604D01*
X155730568Y-66845144D01*
X155712567Y-66878821D01*
X155688341Y-66908341D01*
X155658821Y-66932567D01*
X155625144Y-66950568D01*
X155588604Y-66961653D01*
X155544462Y-66966000D01*
X154595538Y-66966000D01*
X154551396Y-66961653D01*
X154514856Y-66950568D01*
X154481179Y-66932567D01*
X154451659Y-66908341D01*
X154427433Y-66878821D01*
X154409432Y-66845144D01*
X154398347Y-66808604D01*
X154394000Y-66764462D01*
X154394000Y-65315538D01*
X154398347Y-65271396D01*
X154409432Y-65234856D01*
X154427433Y-65201179D01*
X154451659Y-65171659D01*
X154481179Y-65147433D01*
X154514856Y-65129432D01*
X154551396Y-65118347D01*
X154595538Y-65114000D01*
X155544462Y-65114000D01*
X155588604Y-65118347D01*
G37*
G36*
X152788604Y-65118347D02*
G01*
X152825144Y-65129432D01*
X152858821Y-65147433D01*
X152888341Y-65171659D01*
X152912567Y-65201179D01*
X152930568Y-65234856D01*
X152941653Y-65271396D01*
X152946000Y-65315538D01*
X152946000Y-66764462D01*
X152941653Y-66808604D01*
X152930568Y-66845144D01*
X152912567Y-66878821D01*
X152888341Y-66908341D01*
X152858821Y-66932567D01*
X152825144Y-66950568D01*
X152788604Y-66961653D01*
X152744462Y-66966000D01*
X151795538Y-66966000D01*
X151751396Y-66961653D01*
X151714856Y-66950568D01*
X151681179Y-66932567D01*
X151651659Y-66908341D01*
X151627433Y-66878821D01*
X151609432Y-66845144D01*
X151598347Y-66808604D01*
X151594000Y-66764462D01*
X151594000Y-65315538D01*
X151598347Y-65271396D01*
X151609432Y-65234856D01*
X151627433Y-65201179D01*
X151651659Y-65171659D01*
X151681179Y-65147433D01*
X151714856Y-65129432D01*
X151751396Y-65118347D01*
X151795538Y-65114000D01*
X152744462Y-65114000D01*
X152788604Y-65118347D01*
G37*
G36*
X183101000Y-66306000D02*
G01*
X181699000Y-66306000D01*
X181699000Y-64504000D01*
X183101000Y-64504000D01*
X183101000Y-66306000D01*
G37*
G36*
X186601000Y-66306000D02*
G01*
X185199000Y-66306000D01*
X185199000Y-64504000D01*
X186601000Y-64504000D01*
X186601000Y-66306000D01*
G37*
G36*
X169298604Y-61943347D02*
G01*
X169335144Y-61954432D01*
X169368821Y-61972433D01*
X169398341Y-61996659D01*
X169422567Y-62026179D01*
X169440568Y-62059856D01*
X169451653Y-62096396D01*
X169456000Y-62140538D01*
X169456000Y-63589462D01*
X169451653Y-63633604D01*
X169440568Y-63670144D01*
X169422567Y-63703821D01*
X169398341Y-63733341D01*
X169368821Y-63757567D01*
X169335144Y-63775568D01*
X169298604Y-63786653D01*
X169254462Y-63791000D01*
X168305538Y-63791000D01*
X168261396Y-63786653D01*
X168224856Y-63775568D01*
X168191179Y-63757567D01*
X168161659Y-63733341D01*
X168137433Y-63703821D01*
X168119432Y-63670144D01*
X168108347Y-63633604D01*
X168104000Y-63589462D01*
X168104000Y-62140538D01*
X168108347Y-62096396D01*
X168119432Y-62059856D01*
X168137433Y-62026179D01*
X168161659Y-61996659D01*
X168191179Y-61972433D01*
X168224856Y-61954432D01*
X168261396Y-61943347D01*
X168305538Y-61939000D01*
X169254462Y-61939000D01*
X169298604Y-61943347D01*
G37*
G36*
X172098604Y-61943347D02*
G01*
X172135144Y-61954432D01*
X172168821Y-61972433D01*
X172198341Y-61996659D01*
X172222567Y-62026179D01*
X172240568Y-62059856D01*
X172251653Y-62096396D01*
X172256000Y-62140538D01*
X172256000Y-63589462D01*
X172251653Y-63633604D01*
X172240568Y-63670144D01*
X172222567Y-63703821D01*
X172198341Y-63733341D01*
X172168821Y-63757567D01*
X172135144Y-63775568D01*
X172098604Y-63786653D01*
X172054462Y-63791000D01*
X171105538Y-63791000D01*
X171061396Y-63786653D01*
X171024856Y-63775568D01*
X170991179Y-63757567D01*
X170961659Y-63733341D01*
X170937433Y-63703821D01*
X170919432Y-63670144D01*
X170908347Y-63633604D01*
X170904000Y-63589462D01*
X170904000Y-62140538D01*
X170908347Y-62096396D01*
X170919432Y-62059856D01*
X170937433Y-62026179D01*
X170961659Y-61996659D01*
X170991179Y-61972433D01*
X171024856Y-61954432D01*
X171061396Y-61943347D01*
X171105538Y-61939000D01*
X172054462Y-61939000D01*
X172098604Y-61943347D01*
G37*
G36*
X177644497Y-60718863D02*
G01*
X177744372Y-60738729D01*
X177861279Y-60787154D01*
X178026611Y-60855636D01*
X178280621Y-61025360D01*
X178496640Y-61241379D01*
X178666364Y-61495389D01*
X178699091Y-61574400D01*
X178780600Y-61771179D01*
X178783271Y-61777629D01*
X178842870Y-62077251D01*
X178842870Y-62382749D01*
X178783271Y-62682371D01*
X178666364Y-62964611D01*
X178496640Y-63218621D01*
X178280621Y-63434640D01*
X178026611Y-63604364D01*
X177867803Y-63670144D01*
X177744372Y-63721271D01*
X177644497Y-63741137D01*
X177444749Y-63780870D01*
X177139251Y-63780870D01*
X176939503Y-63741137D01*
X176839628Y-63721271D01*
X176716197Y-63670144D01*
X176557389Y-63604364D01*
X176303379Y-63434640D01*
X176087360Y-63218621D01*
X175917636Y-62964611D01*
X175800729Y-62682371D01*
X175741130Y-62382749D01*
X175741130Y-62077251D01*
X175800729Y-61777629D01*
X175803401Y-61771179D01*
X175884909Y-61574400D01*
X175917636Y-61495389D01*
X176087360Y-61241379D01*
X176303379Y-61025360D01*
X176557389Y-60855636D01*
X176722721Y-60787154D01*
X176839628Y-60738729D01*
X176939503Y-60718863D01*
X177139251Y-60679130D01*
X177444749Y-60679130D01*
X177644497Y-60718863D01*
G37*
G36*
X152788604Y-61308347D02*
G01*
X152825144Y-61319432D01*
X152858821Y-61337433D01*
X152888341Y-61361659D01*
X152912567Y-61391179D01*
X152930568Y-61424856D01*
X152941653Y-61461396D01*
X152946000Y-61505538D01*
X152946000Y-62954462D01*
X152941653Y-62998604D01*
X152930568Y-63035144D01*
X152912567Y-63068821D01*
X152888341Y-63098341D01*
X152858821Y-63122567D01*
X152825144Y-63140568D01*
X152788604Y-63151653D01*
X152744462Y-63156000D01*
X151795538Y-63156000D01*
X151751396Y-63151653D01*
X151714856Y-63140568D01*
X151681179Y-63122567D01*
X151651659Y-63098341D01*
X151627433Y-63068821D01*
X151609432Y-63035144D01*
X151598347Y-62998604D01*
X151594000Y-62954462D01*
X151594000Y-61505538D01*
X151598347Y-61461396D01*
X151609432Y-61424856D01*
X151627433Y-61391179D01*
X151651659Y-61361659D01*
X151681179Y-61337433D01*
X151714856Y-61319432D01*
X151751396Y-61308347D01*
X151795538Y-61304000D01*
X152744462Y-61304000D01*
X152788604Y-61308347D01*
G37*
G36*
X155588604Y-61308347D02*
G01*
X155625144Y-61319432D01*
X155658821Y-61337433D01*
X155688341Y-61361659D01*
X155712567Y-61391179D01*
X155730568Y-61424856D01*
X155741653Y-61461396D01*
X155746000Y-61505538D01*
X155746000Y-62954462D01*
X155741653Y-62998604D01*
X155730568Y-63035144D01*
X155712567Y-63068821D01*
X155688341Y-63098341D01*
X155658821Y-63122567D01*
X155625144Y-63140568D01*
X155588604Y-63151653D01*
X155544462Y-63156000D01*
X154595538Y-63156000D01*
X154551396Y-63151653D01*
X154514856Y-63140568D01*
X154481179Y-63122567D01*
X154451659Y-63098341D01*
X154427433Y-63068821D01*
X154409432Y-63035144D01*
X154398347Y-62998604D01*
X154394000Y-62954462D01*
X154394000Y-61505538D01*
X154398347Y-61461396D01*
X154409432Y-61424856D01*
X154427433Y-61391179D01*
X154451659Y-61361659D01*
X154481179Y-61337433D01*
X154514856Y-61319432D01*
X154551396Y-61308347D01*
X154595538Y-61304000D01*
X155544462Y-61304000D01*
X155588604Y-61308347D01*
G37*
G36*
X184918604Y-61688347D02*
G01*
X184955144Y-61699432D01*
X184988821Y-61717433D01*
X185018341Y-61741659D01*
X185042567Y-61771179D01*
X185060568Y-61804856D01*
X185071653Y-61841396D01*
X185076000Y-61885538D01*
X185076000Y-62834462D01*
X185071653Y-62878604D01*
X185060568Y-62915144D01*
X185042567Y-62948821D01*
X185018341Y-62978341D01*
X184988821Y-63002567D01*
X184955144Y-63020568D01*
X184918604Y-63031653D01*
X184874462Y-63036000D01*
X183425538Y-63036000D01*
X183381396Y-63031653D01*
X183344856Y-63020568D01*
X183311179Y-63002567D01*
X183281659Y-62978341D01*
X183257433Y-62948821D01*
X183239432Y-62915144D01*
X183228347Y-62878604D01*
X183224000Y-62834462D01*
X183224000Y-61885538D01*
X183228347Y-61841396D01*
X183239432Y-61804856D01*
X183257433Y-61771179D01*
X183281659Y-61741659D01*
X183311179Y-61717433D01*
X183344856Y-61699432D01*
X183381396Y-61688347D01*
X183425538Y-61684000D01*
X184874462Y-61684000D01*
X184918604Y-61688347D01*
G37*
G36*
X137758254Y-58827818D02*
G01*
X138085090Y-58963198D01*
X138131513Y-58982427D01*
X138467436Y-59206884D01*
X138753116Y-59492564D01*
X138954850Y-59794479D01*
X138977574Y-59828489D01*
X139132182Y-60201746D01*
X139211000Y-60597993D01*
X139211000Y-61002007D01*
X139132182Y-61398254D01*
X138977574Y-61771511D01*
X138977573Y-61771513D01*
X138753116Y-62107436D01*
X138467436Y-62393116D01*
X138131513Y-62617573D01*
X138131512Y-62617574D01*
X138131511Y-62617574D01*
X137758254Y-62772182D01*
X137362007Y-62851000D01*
X136957993Y-62851000D01*
X136561746Y-62772182D01*
X136188489Y-62617574D01*
X136188488Y-62617574D01*
X136188487Y-62617573D01*
X135852564Y-62393116D01*
X135566884Y-62107436D01*
X135342427Y-61771513D01*
X135342426Y-61771511D01*
X135187818Y-61398254D01*
X135109000Y-61002007D01*
X135109000Y-60597993D01*
X135187818Y-60201746D01*
X135342426Y-59828489D01*
X135365151Y-59794479D01*
X135566884Y-59492564D01*
X135852564Y-59206884D01*
X136188487Y-58982427D01*
X136234910Y-58963198D01*
X136561746Y-58827818D01*
X136957993Y-58749000D01*
X137362007Y-58749000D01*
X137758254Y-58827818D01*
G37*
G36*
X160981000Y-61996000D02*
G01*
X160329000Y-61996000D01*
X160329000Y-60144000D01*
X160981000Y-60144000D01*
X160981000Y-61996000D01*
G37*
G36*
X162251000Y-61996000D02*
G01*
X161599000Y-61996000D01*
X161599000Y-60144000D01*
X162251000Y-60144000D01*
X162251000Y-61996000D01*
G37*
G36*
X163521000Y-61996000D02*
G01*
X162869000Y-61996000D01*
X162869000Y-60144000D01*
X163521000Y-60144000D01*
X163521000Y-61996000D01*
G37*
G36*
X159711000Y-61996000D02*
G01*
X159059000Y-61996000D01*
X159059000Y-60144000D01*
X159711000Y-60144000D01*
X159711000Y-61996000D01*
G37*
G36*
X182378604Y-59148347D02*
G01*
X182415144Y-59159432D01*
X182448821Y-59177433D01*
X182478341Y-59201659D01*
X182502567Y-59231179D01*
X182520568Y-59264856D01*
X182531653Y-59301396D01*
X182536000Y-59345538D01*
X182536000Y-60294462D01*
X182531653Y-60338604D01*
X182520568Y-60375144D01*
X182502567Y-60408821D01*
X182478341Y-60438341D01*
X182448821Y-60462567D01*
X182415144Y-60480568D01*
X182378604Y-60491653D01*
X182334462Y-60496000D01*
X180885538Y-60496000D01*
X180841396Y-60491653D01*
X180804856Y-60480568D01*
X180771179Y-60462567D01*
X180741659Y-60438341D01*
X180717433Y-60408821D01*
X180699432Y-60375144D01*
X180688347Y-60338604D01*
X180684000Y-60294462D01*
X180684000Y-59345538D01*
X180688347Y-59301396D01*
X180699432Y-59264856D01*
X180717433Y-59231179D01*
X180741659Y-59201659D01*
X180771179Y-59177433D01*
X180804856Y-59159432D01*
X180841396Y-59148347D01*
X180885538Y-59144000D01*
X182334462Y-59144000D01*
X182378604Y-59148347D01*
G37*
G36*
X173488604Y-59148347D02*
G01*
X173525144Y-59159432D01*
X173558821Y-59177433D01*
X173588341Y-59201659D01*
X173612567Y-59231179D01*
X173630568Y-59264856D01*
X173641653Y-59301396D01*
X173646000Y-59345538D01*
X173646000Y-60294462D01*
X173641653Y-60338604D01*
X173630568Y-60375144D01*
X173612567Y-60408821D01*
X173588341Y-60438341D01*
X173558821Y-60462567D01*
X173525144Y-60480568D01*
X173488604Y-60491653D01*
X173444462Y-60496000D01*
X171995538Y-60496000D01*
X171951396Y-60491653D01*
X171914856Y-60480568D01*
X171881179Y-60462567D01*
X171851659Y-60438341D01*
X171827433Y-60408821D01*
X171809432Y-60375144D01*
X171798347Y-60338604D01*
X171794000Y-60294462D01*
X171794000Y-59345538D01*
X171798347Y-59301396D01*
X171809432Y-59264856D01*
X171827433Y-59231179D01*
X171851659Y-59201659D01*
X171881179Y-59177433D01*
X171914856Y-59159432D01*
X171951396Y-59148347D01*
X171995538Y-59144000D01*
X173444462Y-59144000D01*
X173488604Y-59148347D01*
G37*
G36*
X184918604Y-58888347D02*
G01*
X184955144Y-58899432D01*
X184988821Y-58917433D01*
X185018341Y-58941659D01*
X185042567Y-58971179D01*
X185060568Y-59004856D01*
X185071653Y-59041396D01*
X185076000Y-59085538D01*
X185076000Y-60034462D01*
X185071653Y-60078604D01*
X185060568Y-60115144D01*
X185042567Y-60148821D01*
X185018341Y-60178341D01*
X184988821Y-60202567D01*
X184955144Y-60220568D01*
X184918604Y-60231653D01*
X184874462Y-60236000D01*
X183425538Y-60236000D01*
X183381396Y-60231653D01*
X183344856Y-60220568D01*
X183311179Y-60202567D01*
X183281659Y-60178341D01*
X183257433Y-60148821D01*
X183239432Y-60115144D01*
X183228347Y-60078604D01*
X183224000Y-60034462D01*
X183224000Y-59085538D01*
X183228347Y-59041396D01*
X183239432Y-59004856D01*
X183257433Y-58971179D01*
X183281659Y-58941659D01*
X183311179Y-58917433D01*
X183344856Y-58899432D01*
X183381396Y-58888347D01*
X183425538Y-58884000D01*
X184874462Y-58884000D01*
X184918604Y-58888347D01*
G37*
G36*
X90472585Y-56898802D02*
G01*
X90622410Y-56928604D01*
X90904674Y-57045521D01*
X91158705Y-57215259D01*
X91374741Y-57431295D01*
X91544479Y-57685326D01*
X91661396Y-57967590D01*
X91721000Y-58267240D01*
X91721000Y-58572760D01*
X91661396Y-58872410D01*
X91544479Y-59154674D01*
X91374741Y-59408705D01*
X91158705Y-59624741D01*
X90904674Y-59794479D01*
X90622410Y-59911396D01*
X90472585Y-59941198D01*
X90322761Y-59971000D01*
X90017239Y-59971000D01*
X89867415Y-59941198D01*
X89717590Y-59911396D01*
X89435326Y-59794479D01*
X89181295Y-59624741D01*
X88965259Y-59408705D01*
X88795521Y-59154674D01*
X88678604Y-58872410D01*
X88619000Y-58572760D01*
X88619000Y-58267240D01*
X88678604Y-57967590D01*
X88795521Y-57685326D01*
X88965259Y-57431295D01*
X89181295Y-57215259D01*
X89435326Y-57045521D01*
X89717590Y-56928604D01*
X89867415Y-56898802D01*
X90017239Y-56869000D01*
X90322761Y-56869000D01*
X90472585Y-56898802D01*
G37*
G36*
X178842870Y-59970870D02*
G01*
X175741130Y-59970870D01*
X175741130Y-56869130D01*
X178842870Y-56869130D01*
X178842870Y-59970870D01*
G37*
G36*
X170311000Y-59286000D02*
G01*
X169409000Y-59286000D01*
X169409000Y-58284000D01*
X170311000Y-58284000D01*
X170311000Y-59286000D01*
G37*
G36*
X168411000Y-59286000D02*
G01*
X167509000Y-59286000D01*
X167509000Y-58284000D01*
X168411000Y-58284000D01*
X168411000Y-59286000D01*
G37*
G36*
X155220870Y-58700870D02*
G01*
X152119130Y-58700870D01*
X152119130Y-55599130D01*
X155220870Y-55599130D01*
X155220870Y-58700870D01*
G37*
G36*
X157832497Y-55638863D02*
G01*
X157932372Y-55658729D01*
X158049279Y-55707154D01*
X158214611Y-55775636D01*
X158468621Y-55945360D01*
X158684640Y-56161379D01*
X158854364Y-56415389D01*
X158887091Y-56494400D01*
X158971271Y-56697628D01*
X159030870Y-56997253D01*
X159030870Y-57302747D01*
X158971271Y-57602372D01*
X158965294Y-57616802D01*
X158854364Y-57884611D01*
X158684640Y-58138621D01*
X158468621Y-58354640D01*
X158214611Y-58524364D01*
X158049279Y-58592846D01*
X157932372Y-58641271D01*
X157832497Y-58661137D01*
X157632749Y-58700870D01*
X157327251Y-58700870D01*
X157127503Y-58661137D01*
X157027628Y-58641271D01*
X156910721Y-58592846D01*
X156745389Y-58524364D01*
X156491379Y-58354640D01*
X156275360Y-58138621D01*
X156105636Y-57884611D01*
X155994706Y-57616802D01*
X155988729Y-57602372D01*
X155929130Y-57302747D01*
X155929130Y-56997253D01*
X155988729Y-56697628D01*
X156072909Y-56494400D01*
X156105636Y-56415389D01*
X156275360Y-56161379D01*
X156491379Y-55945360D01*
X156745389Y-55775636D01*
X156910721Y-55707154D01*
X157027628Y-55658729D01*
X157127503Y-55638863D01*
X157327251Y-55599130D01*
X157632749Y-55599130D01*
X157832497Y-55638863D01*
G37*
G36*
X165748604Y-56228347D02*
G01*
X165785144Y-56239432D01*
X165818821Y-56257433D01*
X165848341Y-56281659D01*
X165872567Y-56311179D01*
X165890568Y-56344856D01*
X165901653Y-56381396D01*
X165906000Y-56425538D01*
X165906000Y-57874462D01*
X165901653Y-57918604D01*
X165890568Y-57955144D01*
X165872567Y-57988821D01*
X165848341Y-58018341D01*
X165818821Y-58042567D01*
X165785144Y-58060568D01*
X165748604Y-58071653D01*
X165704462Y-58076000D01*
X164755538Y-58076000D01*
X164711396Y-58071653D01*
X164674856Y-58060568D01*
X164641179Y-58042567D01*
X164611659Y-58018341D01*
X164587433Y-57988821D01*
X164569432Y-57955144D01*
X164558347Y-57918604D01*
X164554000Y-57874462D01*
X164554000Y-56425538D01*
X164558347Y-56381396D01*
X164569432Y-56344856D01*
X164587433Y-56311179D01*
X164611659Y-56281659D01*
X164641179Y-56257433D01*
X164674856Y-56239432D01*
X164711396Y-56228347D01*
X164755538Y-56224000D01*
X165704462Y-56224000D01*
X165748604Y-56228347D01*
G37*
G36*
X162948604Y-56228347D02*
G01*
X162985144Y-56239432D01*
X163018821Y-56257433D01*
X163048341Y-56281659D01*
X163072567Y-56311179D01*
X163090568Y-56344856D01*
X163101653Y-56381396D01*
X163106000Y-56425538D01*
X163106000Y-57874462D01*
X163101653Y-57918604D01*
X163090568Y-57955144D01*
X163072567Y-57988821D01*
X163048341Y-58018341D01*
X163018821Y-58042567D01*
X162985144Y-58060568D01*
X162948604Y-58071653D01*
X162904462Y-58076000D01*
X161955538Y-58076000D01*
X161911396Y-58071653D01*
X161874856Y-58060568D01*
X161841179Y-58042567D01*
X161811659Y-58018341D01*
X161787433Y-57988821D01*
X161769432Y-57955144D01*
X161758347Y-57918604D01*
X161754000Y-57874462D01*
X161754000Y-56425538D01*
X161758347Y-56381396D01*
X161769432Y-56344856D01*
X161787433Y-56311179D01*
X161811659Y-56281659D01*
X161841179Y-56257433D01*
X161874856Y-56239432D01*
X161911396Y-56228347D01*
X161955538Y-56224000D01*
X162904462Y-56224000D01*
X162948604Y-56228347D01*
G37*
G36*
X182378604Y-56348347D02*
G01*
X182415144Y-56359432D01*
X182448821Y-56377433D01*
X182478341Y-56401659D01*
X182502567Y-56431179D01*
X182520568Y-56464856D01*
X182531653Y-56501396D01*
X182536000Y-56545538D01*
X182536000Y-57494462D01*
X182531653Y-57538604D01*
X182520568Y-57575144D01*
X182502567Y-57608821D01*
X182478341Y-57638341D01*
X182448821Y-57662567D01*
X182415144Y-57680568D01*
X182378604Y-57691653D01*
X182334462Y-57696000D01*
X180885538Y-57696000D01*
X180841396Y-57691653D01*
X180804856Y-57680568D01*
X180771179Y-57662567D01*
X180741659Y-57638341D01*
X180717433Y-57608821D01*
X180699432Y-57575144D01*
X180688347Y-57538604D01*
X180684000Y-57494462D01*
X180684000Y-56545538D01*
X180688347Y-56501396D01*
X180699432Y-56464856D01*
X180717433Y-56431179D01*
X180741659Y-56401659D01*
X180771179Y-56377433D01*
X180804856Y-56359432D01*
X180841396Y-56348347D01*
X180885538Y-56344000D01*
X182334462Y-56344000D01*
X182378604Y-56348347D01*
G37*
G36*
X173488604Y-56348347D02*
G01*
X173525144Y-56359432D01*
X173558821Y-56377433D01*
X173588341Y-56401659D01*
X173612567Y-56431179D01*
X173630568Y-56464856D01*
X173641653Y-56501396D01*
X173646000Y-56545538D01*
X173646000Y-57494462D01*
X173641653Y-57538604D01*
X173630568Y-57575144D01*
X173612567Y-57608821D01*
X173588341Y-57638341D01*
X173558821Y-57662567D01*
X173525144Y-57680568D01*
X173488604Y-57691653D01*
X173444462Y-57696000D01*
X171995538Y-57696000D01*
X171951396Y-57691653D01*
X171914856Y-57680568D01*
X171881179Y-57662567D01*
X171851659Y-57638341D01*
X171827433Y-57608821D01*
X171809432Y-57575144D01*
X171798347Y-57538604D01*
X171794000Y-57494462D01*
X171794000Y-56545538D01*
X171798347Y-56501396D01*
X171809432Y-56464856D01*
X171827433Y-56431179D01*
X171851659Y-56401659D01*
X171881179Y-56377433D01*
X171914856Y-56359432D01*
X171951396Y-56348347D01*
X171995538Y-56344000D01*
X173444462Y-56344000D01*
X173488604Y-56348347D01*
G37*
G36*
X169361000Y-57286000D02*
G01*
X168459000Y-57286000D01*
X168459000Y-56284000D01*
X169361000Y-56284000D01*
X169361000Y-57286000D01*
G37*
G36*
X139211000Y-52851000D02*
G01*
X135109000Y-52851000D01*
X135109000Y-48749000D01*
X139211000Y-48749000D01*
X139211000Y-52851000D01*
G37*
G36*
X101025256Y-49191298D02*
G01*
X101131579Y-49212447D01*
X101432042Y-49336903D01*
X101702451Y-49517585D01*
X101932415Y-49747549D01*
X102113097Y-50017958D01*
X102237553Y-50318421D01*
X102301000Y-50637391D01*
X102301000Y-50962609D01*
X102237553Y-51281579D01*
X102113097Y-51582042D01*
X101932415Y-51852451D01*
X101702451Y-52082415D01*
X101432042Y-52263097D01*
X101131579Y-52387553D01*
X101025256Y-52408702D01*
X100812611Y-52451000D01*
X100487389Y-52451000D01*
X100274744Y-52408702D01*
X100168421Y-52387553D01*
X99867958Y-52263097D01*
X99597549Y-52082415D01*
X99367585Y-51852451D01*
X99186903Y-51582042D01*
X99062447Y-51281579D01*
X98999000Y-50962609D01*
X98999000Y-50637391D01*
X99062447Y-50318421D01*
X99186903Y-50017958D01*
X99367585Y-49747549D01*
X99597549Y-49517585D01*
X99867958Y-49336903D01*
X100168421Y-49212447D01*
X100274744Y-49191298D01*
X100487389Y-49149000D01*
X100812611Y-49149000D01*
X101025256Y-49191298D01*
G37*
G36*
X122301000Y-52451000D02*
G01*
X118999000Y-52451000D01*
X118999000Y-49149000D01*
X122301000Y-49149000D01*
X122301000Y-52451000D01*
G37*
G36*
X193395256Y-46871298D02*
G01*
X193501579Y-46892447D01*
X193802042Y-47016903D01*
X194072451Y-47197585D01*
X194302415Y-47427549D01*
X194483097Y-47697958D01*
X194607553Y-47998421D01*
X194671000Y-48317391D01*
X194671000Y-48642609D01*
X194607553Y-48961579D01*
X194483097Y-49262042D01*
X194302415Y-49532451D01*
X194072451Y-49762415D01*
X193802042Y-49943097D01*
X193501579Y-50067553D01*
X193395256Y-50088702D01*
X193182611Y-50131000D01*
X192857389Y-50131000D01*
X192644744Y-50088702D01*
X192538421Y-50067553D01*
X192237958Y-49943097D01*
X191967549Y-49762415D01*
X191737585Y-49532451D01*
X191556903Y-49262042D01*
X191432447Y-48961579D01*
X191369000Y-48642609D01*
X191369000Y-48317391D01*
X191432447Y-47998421D01*
X191556903Y-47697958D01*
X191737585Y-47427549D01*
X191967549Y-47197585D01*
X192237958Y-47016903D01*
X192538421Y-46892447D01*
X192644744Y-46871298D01*
X192857389Y-46829000D01*
X193182611Y-46829000D01*
X193395256Y-46871298D01*
G37*
G36*
X89495256Y-46871298D02*
G01*
X89601579Y-46892447D01*
X89902042Y-47016903D01*
X90172451Y-47197585D01*
X90402415Y-47427549D01*
X90583097Y-47697958D01*
X90707553Y-47998421D01*
X90771000Y-48317391D01*
X90771000Y-48642609D01*
X90707553Y-48961579D01*
X90583097Y-49262042D01*
X90402415Y-49532451D01*
X90172451Y-49762415D01*
X89902042Y-49943097D01*
X89601579Y-50067553D01*
X89495256Y-50088702D01*
X89282611Y-50131000D01*
X88957389Y-50131000D01*
X88744744Y-50088702D01*
X88638421Y-50067553D01*
X88337958Y-49943097D01*
X88067549Y-49762415D01*
X87837585Y-49532451D01*
X87656903Y-49262042D01*
X87532447Y-48961579D01*
X87469000Y-48642609D01*
X87469000Y-48317391D01*
X87532447Y-47998421D01*
X87656903Y-47697958D01*
X87837585Y-47427549D01*
X88067549Y-47197585D01*
X88337958Y-47016903D01*
X88638421Y-46892447D01*
X88744744Y-46871298D01*
X88957389Y-46829000D01*
X89282611Y-46829000D01*
X89495256Y-46871298D01*
G37*
M02*
