G04 #@! TF.GenerationSoftware,KiCad,Pcbnew,(5.1.5)-3*
G04 #@! TF.CreationDate,2020-10-16T18:01:35+02:00*
G04 #@! TF.ProjectId,Laboratorn_ zdroj,4c61626f-7261-4746-9f72-6eed207a6472,rev?*
G04 #@! TF.SameCoordinates,Original*
G04 #@! TF.FileFunction,Copper,L1,Top*
G04 #@! TF.FilePolarity,Positive*
%FSLAX46Y46*%
G04 Gerber Fmt 4.6, Leading zero omitted, Abs format (unit mm)*
G04 Created by KiCad (PCBNEW (5.1.5)-3) date 2020-10-16 18:01:35*
%MOMM*%
%LPD*%
G04 APERTURE LIST*
%ADD10C,2.800000*%
%ADD11O,2.800000X2.800000*%
%ADD12C,1.600000*%
%ADD13O,1.600000X1.600000*%
%ADD14R,0.550000X1.750000*%
%ADD15O,2.400000X2.400000*%
%ADD16C,2.400000*%
%ADD17R,2.999740X2.999740*%
%ADD18C,2.999740*%
%ADD19R,2.200000X2.200000*%
%ADD20O,2.200000X2.200000*%
%ADD21C,0.100000*%
%ADD22R,1.905000X2.000000*%
%ADD23O,1.905000X2.000000*%
%ADD24C,1.550000*%
%ADD25R,1.550000X1.550000*%
%ADD26R,4.500880X4.500880*%
%ADD27C,4.500880*%
%ADD28R,0.900000X0.800000*%
%ADD29C,2.340000*%
%ADD30C,3.000000*%
%ADD31R,1.600000X1.600000*%
%ADD32R,4.000000X4.000000*%
%ADD33C,4.000000*%
%ADD34O,3.200000X3.200000*%
%ADD35R,3.200000X3.200000*%
%ADD36R,1.300000X1.700000*%
%ADD37R,1.700000X1.300000*%
%ADD38R,2.500000X1.800000*%
%ADD39R,2.000000X2.000000*%
%ADD40C,2.000000*%
%ADD41R,0.800000X0.900000*%
%ADD42C,0.800000*%
%ADD43C,0.500000*%
%ADD44C,8.000000*%
%ADD45C,1.600000*%
G04 APERTURE END LIST*
D10*
X121920000Y-100965000D03*
D11*
X142240000Y-100965000D03*
D12*
X117475000Y-106680000D03*
D13*
X127635000Y-106680000D03*
D14*
X151765000Y-125620000D03*
X153035000Y-125620000D03*
X154305000Y-125620000D03*
X155575000Y-125620000D03*
X155575000Y-118220000D03*
X154305000Y-118220000D03*
X153035000Y-118220000D03*
X151765000Y-118220000D03*
D15*
X172720000Y-138430000D03*
D16*
X172720000Y-82550000D03*
D17*
X135890000Y-106680000D03*
D18*
X132080000Y-106680000D03*
D19*
X142240000Y-104140000D03*
D20*
X142240000Y-114300000D03*
G04 #@! TA.AperFunction,SMDPad,CuDef*
D21*
G36*
X147969504Y-97296204D02*
G01*
X147993773Y-97299804D01*
X148017571Y-97305765D01*
X148040671Y-97314030D01*
X148062849Y-97324520D01*
X148083893Y-97337133D01*
X148103598Y-97351747D01*
X148121777Y-97368223D01*
X148138253Y-97386402D01*
X148152867Y-97406107D01*
X148165480Y-97427151D01*
X148175970Y-97449329D01*
X148184235Y-97472429D01*
X148190196Y-97496227D01*
X148193796Y-97520496D01*
X148195000Y-97545000D01*
X148195000Y-98295000D01*
X148193796Y-98319504D01*
X148190196Y-98343773D01*
X148184235Y-98367571D01*
X148175970Y-98390671D01*
X148165480Y-98412849D01*
X148152867Y-98433893D01*
X148138253Y-98453598D01*
X148121777Y-98471777D01*
X148103598Y-98488253D01*
X148083893Y-98502867D01*
X148062849Y-98515480D01*
X148040671Y-98525970D01*
X148017571Y-98534235D01*
X147993773Y-98540196D01*
X147969504Y-98543796D01*
X147945000Y-98545000D01*
X146695000Y-98545000D01*
X146670496Y-98543796D01*
X146646227Y-98540196D01*
X146622429Y-98534235D01*
X146599329Y-98525970D01*
X146577151Y-98515480D01*
X146556107Y-98502867D01*
X146536402Y-98488253D01*
X146518223Y-98471777D01*
X146501747Y-98453598D01*
X146487133Y-98433893D01*
X146474520Y-98412849D01*
X146464030Y-98390671D01*
X146455765Y-98367571D01*
X146449804Y-98343773D01*
X146446204Y-98319504D01*
X146445000Y-98295000D01*
X146445000Y-97545000D01*
X146446204Y-97520496D01*
X146449804Y-97496227D01*
X146455765Y-97472429D01*
X146464030Y-97449329D01*
X146474520Y-97427151D01*
X146487133Y-97406107D01*
X146501747Y-97386402D01*
X146518223Y-97368223D01*
X146536402Y-97351747D01*
X146556107Y-97337133D01*
X146577151Y-97324520D01*
X146599329Y-97314030D01*
X146622429Y-97305765D01*
X146646227Y-97299804D01*
X146670496Y-97296204D01*
X146695000Y-97295000D01*
X147945000Y-97295000D01*
X147969504Y-97296204D01*
G37*
G04 #@! TD.AperFunction*
G04 #@! TA.AperFunction,SMDPad,CuDef*
G36*
X147969504Y-94496204D02*
G01*
X147993773Y-94499804D01*
X148017571Y-94505765D01*
X148040671Y-94514030D01*
X148062849Y-94524520D01*
X148083893Y-94537133D01*
X148103598Y-94551747D01*
X148121777Y-94568223D01*
X148138253Y-94586402D01*
X148152867Y-94606107D01*
X148165480Y-94627151D01*
X148175970Y-94649329D01*
X148184235Y-94672429D01*
X148190196Y-94696227D01*
X148193796Y-94720496D01*
X148195000Y-94745000D01*
X148195000Y-95495000D01*
X148193796Y-95519504D01*
X148190196Y-95543773D01*
X148184235Y-95567571D01*
X148175970Y-95590671D01*
X148165480Y-95612849D01*
X148152867Y-95633893D01*
X148138253Y-95653598D01*
X148121777Y-95671777D01*
X148103598Y-95688253D01*
X148083893Y-95702867D01*
X148062849Y-95715480D01*
X148040671Y-95725970D01*
X148017571Y-95734235D01*
X147993773Y-95740196D01*
X147969504Y-95743796D01*
X147945000Y-95745000D01*
X146695000Y-95745000D01*
X146670496Y-95743796D01*
X146646227Y-95740196D01*
X146622429Y-95734235D01*
X146599329Y-95725970D01*
X146577151Y-95715480D01*
X146556107Y-95702867D01*
X146536402Y-95688253D01*
X146518223Y-95671777D01*
X146501747Y-95653598D01*
X146487133Y-95633893D01*
X146474520Y-95612849D01*
X146464030Y-95590671D01*
X146455765Y-95567571D01*
X146449804Y-95543773D01*
X146446204Y-95519504D01*
X146445000Y-95495000D01*
X146445000Y-94745000D01*
X146446204Y-94720496D01*
X146449804Y-94696227D01*
X146455765Y-94672429D01*
X146464030Y-94649329D01*
X146474520Y-94627151D01*
X146487133Y-94606107D01*
X146501747Y-94586402D01*
X146518223Y-94568223D01*
X146536402Y-94551747D01*
X146556107Y-94537133D01*
X146577151Y-94524520D01*
X146599329Y-94514030D01*
X146622429Y-94505765D01*
X146646227Y-94499804D01*
X146670496Y-94496204D01*
X146695000Y-94495000D01*
X147945000Y-94495000D01*
X147969504Y-94496204D01*
G37*
G04 #@! TD.AperFunction*
D22*
X119380000Y-125730000D03*
D23*
X121920000Y-125730000D03*
X124460000Y-125730000D03*
G04 #@! TA.AperFunction,SMDPad,CuDef*
D21*
G36*
X151399504Y-99456204D02*
G01*
X151423773Y-99459804D01*
X151447571Y-99465765D01*
X151470671Y-99474030D01*
X151492849Y-99484520D01*
X151513893Y-99497133D01*
X151533598Y-99511747D01*
X151551777Y-99528223D01*
X151568253Y-99546402D01*
X151582867Y-99566107D01*
X151595480Y-99587151D01*
X151605970Y-99609329D01*
X151614235Y-99632429D01*
X151620196Y-99656227D01*
X151623796Y-99680496D01*
X151625000Y-99705000D01*
X151625000Y-100955000D01*
X151623796Y-100979504D01*
X151620196Y-101003773D01*
X151614235Y-101027571D01*
X151605970Y-101050671D01*
X151595480Y-101072849D01*
X151582867Y-101093893D01*
X151568253Y-101113598D01*
X151551777Y-101131777D01*
X151533598Y-101148253D01*
X151513893Y-101162867D01*
X151492849Y-101175480D01*
X151470671Y-101185970D01*
X151447571Y-101194235D01*
X151423773Y-101200196D01*
X151399504Y-101203796D01*
X151375000Y-101205000D01*
X150625000Y-101205000D01*
X150600496Y-101203796D01*
X150576227Y-101200196D01*
X150552429Y-101194235D01*
X150529329Y-101185970D01*
X150507151Y-101175480D01*
X150486107Y-101162867D01*
X150466402Y-101148253D01*
X150448223Y-101131777D01*
X150431747Y-101113598D01*
X150417133Y-101093893D01*
X150404520Y-101072849D01*
X150394030Y-101050671D01*
X150385765Y-101027571D01*
X150379804Y-101003773D01*
X150376204Y-100979504D01*
X150375000Y-100955000D01*
X150375000Y-99705000D01*
X150376204Y-99680496D01*
X150379804Y-99656227D01*
X150385765Y-99632429D01*
X150394030Y-99609329D01*
X150404520Y-99587151D01*
X150417133Y-99566107D01*
X150431747Y-99546402D01*
X150448223Y-99528223D01*
X150466402Y-99511747D01*
X150486107Y-99497133D01*
X150507151Y-99484520D01*
X150529329Y-99474030D01*
X150552429Y-99465765D01*
X150576227Y-99459804D01*
X150600496Y-99456204D01*
X150625000Y-99455000D01*
X151375000Y-99455000D01*
X151399504Y-99456204D01*
G37*
G04 #@! TD.AperFunction*
G04 #@! TA.AperFunction,SMDPad,CuDef*
G36*
X154199504Y-99456204D02*
G01*
X154223773Y-99459804D01*
X154247571Y-99465765D01*
X154270671Y-99474030D01*
X154292849Y-99484520D01*
X154313893Y-99497133D01*
X154333598Y-99511747D01*
X154351777Y-99528223D01*
X154368253Y-99546402D01*
X154382867Y-99566107D01*
X154395480Y-99587151D01*
X154405970Y-99609329D01*
X154414235Y-99632429D01*
X154420196Y-99656227D01*
X154423796Y-99680496D01*
X154425000Y-99705000D01*
X154425000Y-100955000D01*
X154423796Y-100979504D01*
X154420196Y-101003773D01*
X154414235Y-101027571D01*
X154405970Y-101050671D01*
X154395480Y-101072849D01*
X154382867Y-101093893D01*
X154368253Y-101113598D01*
X154351777Y-101131777D01*
X154333598Y-101148253D01*
X154313893Y-101162867D01*
X154292849Y-101175480D01*
X154270671Y-101185970D01*
X154247571Y-101194235D01*
X154223773Y-101200196D01*
X154199504Y-101203796D01*
X154175000Y-101205000D01*
X153425000Y-101205000D01*
X153400496Y-101203796D01*
X153376227Y-101200196D01*
X153352429Y-101194235D01*
X153329329Y-101185970D01*
X153307151Y-101175480D01*
X153286107Y-101162867D01*
X153266402Y-101148253D01*
X153248223Y-101131777D01*
X153231747Y-101113598D01*
X153217133Y-101093893D01*
X153204520Y-101072849D01*
X153194030Y-101050671D01*
X153185765Y-101027571D01*
X153179804Y-101003773D01*
X153176204Y-100979504D01*
X153175000Y-100955000D01*
X153175000Y-99705000D01*
X153176204Y-99680496D01*
X153179804Y-99656227D01*
X153185765Y-99632429D01*
X153194030Y-99609329D01*
X153204520Y-99587151D01*
X153217133Y-99566107D01*
X153231747Y-99546402D01*
X153248223Y-99528223D01*
X153266402Y-99511747D01*
X153286107Y-99497133D01*
X153307151Y-99484520D01*
X153329329Y-99474030D01*
X153352429Y-99465765D01*
X153376227Y-99459804D01*
X153400496Y-99456204D01*
X153425000Y-99455000D01*
X154175000Y-99455000D01*
X154199504Y-99456204D01*
G37*
G04 #@! TD.AperFunction*
D24*
X156130000Y-91440000D03*
D25*
X151130000Y-91440000D03*
D24*
X153630000Y-96440000D03*
D26*
X193040000Y-73660000D03*
D27*
X193040000Y-82375000D03*
X193040000Y-91090000D03*
D26*
X193040000Y-104140000D03*
D27*
X193040000Y-114490000D03*
G04 #@! TA.AperFunction,SMDPad,CuDef*
D21*
G36*
X158129504Y-103646204D02*
G01*
X158153773Y-103649804D01*
X158177571Y-103655765D01*
X158200671Y-103664030D01*
X158222849Y-103674520D01*
X158243893Y-103687133D01*
X158263598Y-103701747D01*
X158281777Y-103718223D01*
X158298253Y-103736402D01*
X158312867Y-103756107D01*
X158325480Y-103777151D01*
X158335970Y-103799329D01*
X158344235Y-103822429D01*
X158350196Y-103846227D01*
X158353796Y-103870496D01*
X158355000Y-103895000D01*
X158355000Y-104645000D01*
X158353796Y-104669504D01*
X158350196Y-104693773D01*
X158344235Y-104717571D01*
X158335970Y-104740671D01*
X158325480Y-104762849D01*
X158312867Y-104783893D01*
X158298253Y-104803598D01*
X158281777Y-104821777D01*
X158263598Y-104838253D01*
X158243893Y-104852867D01*
X158222849Y-104865480D01*
X158200671Y-104875970D01*
X158177571Y-104884235D01*
X158153773Y-104890196D01*
X158129504Y-104893796D01*
X158105000Y-104895000D01*
X156855000Y-104895000D01*
X156830496Y-104893796D01*
X156806227Y-104890196D01*
X156782429Y-104884235D01*
X156759329Y-104875970D01*
X156737151Y-104865480D01*
X156716107Y-104852867D01*
X156696402Y-104838253D01*
X156678223Y-104821777D01*
X156661747Y-104803598D01*
X156647133Y-104783893D01*
X156634520Y-104762849D01*
X156624030Y-104740671D01*
X156615765Y-104717571D01*
X156609804Y-104693773D01*
X156606204Y-104669504D01*
X156605000Y-104645000D01*
X156605000Y-103895000D01*
X156606204Y-103870496D01*
X156609804Y-103846227D01*
X156615765Y-103822429D01*
X156624030Y-103799329D01*
X156634520Y-103777151D01*
X156647133Y-103756107D01*
X156661747Y-103736402D01*
X156678223Y-103718223D01*
X156696402Y-103701747D01*
X156716107Y-103687133D01*
X156737151Y-103674520D01*
X156759329Y-103664030D01*
X156782429Y-103655765D01*
X156806227Y-103649804D01*
X156830496Y-103646204D01*
X156855000Y-103645000D01*
X158105000Y-103645000D01*
X158129504Y-103646204D01*
G37*
G04 #@! TD.AperFunction*
G04 #@! TA.AperFunction,SMDPad,CuDef*
G36*
X158129504Y-100846204D02*
G01*
X158153773Y-100849804D01*
X158177571Y-100855765D01*
X158200671Y-100864030D01*
X158222849Y-100874520D01*
X158243893Y-100887133D01*
X158263598Y-100901747D01*
X158281777Y-100918223D01*
X158298253Y-100936402D01*
X158312867Y-100956107D01*
X158325480Y-100977151D01*
X158335970Y-100999329D01*
X158344235Y-101022429D01*
X158350196Y-101046227D01*
X158353796Y-101070496D01*
X158355000Y-101095000D01*
X158355000Y-101845000D01*
X158353796Y-101869504D01*
X158350196Y-101893773D01*
X158344235Y-101917571D01*
X158335970Y-101940671D01*
X158325480Y-101962849D01*
X158312867Y-101983893D01*
X158298253Y-102003598D01*
X158281777Y-102021777D01*
X158263598Y-102038253D01*
X158243893Y-102052867D01*
X158222849Y-102065480D01*
X158200671Y-102075970D01*
X158177571Y-102084235D01*
X158153773Y-102090196D01*
X158129504Y-102093796D01*
X158105000Y-102095000D01*
X156855000Y-102095000D01*
X156830496Y-102093796D01*
X156806227Y-102090196D01*
X156782429Y-102084235D01*
X156759329Y-102075970D01*
X156737151Y-102065480D01*
X156716107Y-102052867D01*
X156696402Y-102038253D01*
X156678223Y-102021777D01*
X156661747Y-102003598D01*
X156647133Y-101983893D01*
X156634520Y-101962849D01*
X156624030Y-101940671D01*
X156615765Y-101917571D01*
X156609804Y-101893773D01*
X156606204Y-101869504D01*
X156605000Y-101845000D01*
X156605000Y-101095000D01*
X156606204Y-101070496D01*
X156609804Y-101046227D01*
X156615765Y-101022429D01*
X156624030Y-100999329D01*
X156634520Y-100977151D01*
X156647133Y-100956107D01*
X156661747Y-100936402D01*
X156678223Y-100918223D01*
X156696402Y-100901747D01*
X156716107Y-100887133D01*
X156737151Y-100874520D01*
X156759329Y-100864030D01*
X156782429Y-100855765D01*
X156806227Y-100849804D01*
X156830496Y-100846204D01*
X156855000Y-100845000D01*
X158105000Y-100845000D01*
X158129504Y-100846204D01*
G37*
G04 #@! TD.AperFunction*
D14*
X186055000Y-69960000D03*
X184785000Y-69960000D03*
X183515000Y-69960000D03*
X182245000Y-69960000D03*
X182245000Y-77360000D03*
X183515000Y-77360000D03*
X184785000Y-77360000D03*
X186055000Y-77360000D03*
G04 #@! TA.AperFunction,SMDPad,CuDef*
D21*
G36*
X152669504Y-68976204D02*
G01*
X152693773Y-68979804D01*
X152717571Y-68985765D01*
X152740671Y-68994030D01*
X152762849Y-69004520D01*
X152783893Y-69017133D01*
X152803598Y-69031747D01*
X152821777Y-69048223D01*
X152838253Y-69066402D01*
X152852867Y-69086107D01*
X152865480Y-69107151D01*
X152875970Y-69129329D01*
X152884235Y-69152429D01*
X152890196Y-69176227D01*
X152893796Y-69200496D01*
X152895000Y-69225000D01*
X152895000Y-70475000D01*
X152893796Y-70499504D01*
X152890196Y-70523773D01*
X152884235Y-70547571D01*
X152875970Y-70570671D01*
X152865480Y-70592849D01*
X152852867Y-70613893D01*
X152838253Y-70633598D01*
X152821777Y-70651777D01*
X152803598Y-70668253D01*
X152783893Y-70682867D01*
X152762849Y-70695480D01*
X152740671Y-70705970D01*
X152717571Y-70714235D01*
X152693773Y-70720196D01*
X152669504Y-70723796D01*
X152645000Y-70725000D01*
X151895000Y-70725000D01*
X151870496Y-70723796D01*
X151846227Y-70720196D01*
X151822429Y-70714235D01*
X151799329Y-70705970D01*
X151777151Y-70695480D01*
X151756107Y-70682867D01*
X151736402Y-70668253D01*
X151718223Y-70651777D01*
X151701747Y-70633598D01*
X151687133Y-70613893D01*
X151674520Y-70592849D01*
X151664030Y-70570671D01*
X151655765Y-70547571D01*
X151649804Y-70523773D01*
X151646204Y-70499504D01*
X151645000Y-70475000D01*
X151645000Y-69225000D01*
X151646204Y-69200496D01*
X151649804Y-69176227D01*
X151655765Y-69152429D01*
X151664030Y-69129329D01*
X151674520Y-69107151D01*
X151687133Y-69086107D01*
X151701747Y-69066402D01*
X151718223Y-69048223D01*
X151736402Y-69031747D01*
X151756107Y-69017133D01*
X151777151Y-69004520D01*
X151799329Y-68994030D01*
X151822429Y-68985765D01*
X151846227Y-68979804D01*
X151870496Y-68976204D01*
X151895000Y-68975000D01*
X152645000Y-68975000D01*
X152669504Y-68976204D01*
G37*
G04 #@! TD.AperFunction*
G04 #@! TA.AperFunction,SMDPad,CuDef*
G36*
X155469504Y-68976204D02*
G01*
X155493773Y-68979804D01*
X155517571Y-68985765D01*
X155540671Y-68994030D01*
X155562849Y-69004520D01*
X155583893Y-69017133D01*
X155603598Y-69031747D01*
X155621777Y-69048223D01*
X155638253Y-69066402D01*
X155652867Y-69086107D01*
X155665480Y-69107151D01*
X155675970Y-69129329D01*
X155684235Y-69152429D01*
X155690196Y-69176227D01*
X155693796Y-69200496D01*
X155695000Y-69225000D01*
X155695000Y-70475000D01*
X155693796Y-70499504D01*
X155690196Y-70523773D01*
X155684235Y-70547571D01*
X155675970Y-70570671D01*
X155665480Y-70592849D01*
X155652867Y-70613893D01*
X155638253Y-70633598D01*
X155621777Y-70651777D01*
X155603598Y-70668253D01*
X155583893Y-70682867D01*
X155562849Y-70695480D01*
X155540671Y-70705970D01*
X155517571Y-70714235D01*
X155493773Y-70720196D01*
X155469504Y-70723796D01*
X155445000Y-70725000D01*
X154695000Y-70725000D01*
X154670496Y-70723796D01*
X154646227Y-70720196D01*
X154622429Y-70714235D01*
X154599329Y-70705970D01*
X154577151Y-70695480D01*
X154556107Y-70682867D01*
X154536402Y-70668253D01*
X154518223Y-70651777D01*
X154501747Y-70633598D01*
X154487133Y-70613893D01*
X154474520Y-70592849D01*
X154464030Y-70570671D01*
X154455765Y-70547571D01*
X154449804Y-70523773D01*
X154446204Y-70499504D01*
X154445000Y-70475000D01*
X154445000Y-69225000D01*
X154446204Y-69200496D01*
X154449804Y-69176227D01*
X154455765Y-69152429D01*
X154464030Y-69129329D01*
X154474520Y-69107151D01*
X154487133Y-69086107D01*
X154501747Y-69066402D01*
X154518223Y-69048223D01*
X154536402Y-69031747D01*
X154556107Y-69017133D01*
X154577151Y-69004520D01*
X154599329Y-68994030D01*
X154622429Y-68985765D01*
X154646227Y-68979804D01*
X154670496Y-68976204D01*
X154695000Y-68975000D01*
X155445000Y-68975000D01*
X155469504Y-68976204D01*
G37*
G04 #@! TD.AperFunction*
D18*
X177292000Y-66040000D03*
X177292000Y-62230000D03*
D17*
X177292000Y-58420000D03*
G04 #@! TA.AperFunction,SMDPad,CuDef*
D21*
G36*
X173369504Y-56396204D02*
G01*
X173393773Y-56399804D01*
X173417571Y-56405765D01*
X173440671Y-56414030D01*
X173462849Y-56424520D01*
X173483893Y-56437133D01*
X173503598Y-56451747D01*
X173521777Y-56468223D01*
X173538253Y-56486402D01*
X173552867Y-56506107D01*
X173565480Y-56527151D01*
X173575970Y-56549329D01*
X173584235Y-56572429D01*
X173590196Y-56596227D01*
X173593796Y-56620496D01*
X173595000Y-56645000D01*
X173595000Y-57395000D01*
X173593796Y-57419504D01*
X173590196Y-57443773D01*
X173584235Y-57467571D01*
X173575970Y-57490671D01*
X173565480Y-57512849D01*
X173552867Y-57533893D01*
X173538253Y-57553598D01*
X173521777Y-57571777D01*
X173503598Y-57588253D01*
X173483893Y-57602867D01*
X173462849Y-57615480D01*
X173440671Y-57625970D01*
X173417571Y-57634235D01*
X173393773Y-57640196D01*
X173369504Y-57643796D01*
X173345000Y-57645000D01*
X172095000Y-57645000D01*
X172070496Y-57643796D01*
X172046227Y-57640196D01*
X172022429Y-57634235D01*
X171999329Y-57625970D01*
X171977151Y-57615480D01*
X171956107Y-57602867D01*
X171936402Y-57588253D01*
X171918223Y-57571777D01*
X171901747Y-57553598D01*
X171887133Y-57533893D01*
X171874520Y-57512849D01*
X171864030Y-57490671D01*
X171855765Y-57467571D01*
X171849804Y-57443773D01*
X171846204Y-57419504D01*
X171845000Y-57395000D01*
X171845000Y-56645000D01*
X171846204Y-56620496D01*
X171849804Y-56596227D01*
X171855765Y-56572429D01*
X171864030Y-56549329D01*
X171874520Y-56527151D01*
X171887133Y-56506107D01*
X171901747Y-56486402D01*
X171918223Y-56468223D01*
X171936402Y-56451747D01*
X171956107Y-56437133D01*
X171977151Y-56424520D01*
X171999329Y-56414030D01*
X172022429Y-56405765D01*
X172046227Y-56399804D01*
X172070496Y-56396204D01*
X172095000Y-56395000D01*
X173345000Y-56395000D01*
X173369504Y-56396204D01*
G37*
G04 #@! TD.AperFunction*
G04 #@! TA.AperFunction,SMDPad,CuDef*
G36*
X173369504Y-59196204D02*
G01*
X173393773Y-59199804D01*
X173417571Y-59205765D01*
X173440671Y-59214030D01*
X173462849Y-59224520D01*
X173483893Y-59237133D01*
X173503598Y-59251747D01*
X173521777Y-59268223D01*
X173538253Y-59286402D01*
X173552867Y-59306107D01*
X173565480Y-59327151D01*
X173575970Y-59349329D01*
X173584235Y-59372429D01*
X173590196Y-59396227D01*
X173593796Y-59420496D01*
X173595000Y-59445000D01*
X173595000Y-60195000D01*
X173593796Y-60219504D01*
X173590196Y-60243773D01*
X173584235Y-60267571D01*
X173575970Y-60290671D01*
X173565480Y-60312849D01*
X173552867Y-60333893D01*
X173538253Y-60353598D01*
X173521777Y-60371777D01*
X173503598Y-60388253D01*
X173483893Y-60402867D01*
X173462849Y-60415480D01*
X173440671Y-60425970D01*
X173417571Y-60434235D01*
X173393773Y-60440196D01*
X173369504Y-60443796D01*
X173345000Y-60445000D01*
X172095000Y-60445000D01*
X172070496Y-60443796D01*
X172046227Y-60440196D01*
X172022429Y-60434235D01*
X171999329Y-60425970D01*
X171977151Y-60415480D01*
X171956107Y-60402867D01*
X171936402Y-60388253D01*
X171918223Y-60371777D01*
X171901747Y-60353598D01*
X171887133Y-60333893D01*
X171874520Y-60312849D01*
X171864030Y-60290671D01*
X171855765Y-60267571D01*
X171849804Y-60243773D01*
X171846204Y-60219504D01*
X171845000Y-60195000D01*
X171845000Y-59445000D01*
X171846204Y-59420496D01*
X171849804Y-59396227D01*
X171855765Y-59372429D01*
X171864030Y-59349329D01*
X171874520Y-59327151D01*
X171887133Y-59306107D01*
X171901747Y-59286402D01*
X171918223Y-59268223D01*
X171936402Y-59251747D01*
X171956107Y-59237133D01*
X171977151Y-59224520D01*
X171999329Y-59214030D01*
X172022429Y-59205765D01*
X172046227Y-59199804D01*
X172070496Y-59196204D01*
X172095000Y-59195000D01*
X173345000Y-59195000D01*
X173369504Y-59196204D01*
G37*
G04 #@! TD.AperFunction*
D28*
X159020000Y-129540000D03*
X161020000Y-128590000D03*
X161020000Y-130490000D03*
G04 #@! TA.AperFunction,SMDPad,CuDef*
D21*
G36*
X151779504Y-140476204D02*
G01*
X151803773Y-140479804D01*
X151827571Y-140485765D01*
X151850671Y-140494030D01*
X151872849Y-140504520D01*
X151893893Y-140517133D01*
X151913598Y-140531747D01*
X151931777Y-140548223D01*
X151948253Y-140566402D01*
X151962867Y-140586107D01*
X151975480Y-140607151D01*
X151985970Y-140629329D01*
X151994235Y-140652429D01*
X152000196Y-140676227D01*
X152003796Y-140700496D01*
X152005000Y-140725000D01*
X152005000Y-141475000D01*
X152003796Y-141499504D01*
X152000196Y-141523773D01*
X151994235Y-141547571D01*
X151985970Y-141570671D01*
X151975480Y-141592849D01*
X151962867Y-141613893D01*
X151948253Y-141633598D01*
X151931777Y-141651777D01*
X151913598Y-141668253D01*
X151893893Y-141682867D01*
X151872849Y-141695480D01*
X151850671Y-141705970D01*
X151827571Y-141714235D01*
X151803773Y-141720196D01*
X151779504Y-141723796D01*
X151755000Y-141725000D01*
X150505000Y-141725000D01*
X150480496Y-141723796D01*
X150456227Y-141720196D01*
X150432429Y-141714235D01*
X150409329Y-141705970D01*
X150387151Y-141695480D01*
X150366107Y-141682867D01*
X150346402Y-141668253D01*
X150328223Y-141651777D01*
X150311747Y-141633598D01*
X150297133Y-141613893D01*
X150284520Y-141592849D01*
X150274030Y-141570671D01*
X150265765Y-141547571D01*
X150259804Y-141523773D01*
X150256204Y-141499504D01*
X150255000Y-141475000D01*
X150255000Y-140725000D01*
X150256204Y-140700496D01*
X150259804Y-140676227D01*
X150265765Y-140652429D01*
X150274030Y-140629329D01*
X150284520Y-140607151D01*
X150297133Y-140586107D01*
X150311747Y-140566402D01*
X150328223Y-140548223D01*
X150346402Y-140531747D01*
X150366107Y-140517133D01*
X150387151Y-140504520D01*
X150409329Y-140494030D01*
X150432429Y-140485765D01*
X150456227Y-140479804D01*
X150480496Y-140476204D01*
X150505000Y-140475000D01*
X151755000Y-140475000D01*
X151779504Y-140476204D01*
G37*
G04 #@! TD.AperFunction*
G04 #@! TA.AperFunction,SMDPad,CuDef*
G36*
X151779504Y-137676204D02*
G01*
X151803773Y-137679804D01*
X151827571Y-137685765D01*
X151850671Y-137694030D01*
X151872849Y-137704520D01*
X151893893Y-137717133D01*
X151913598Y-137731747D01*
X151931777Y-137748223D01*
X151948253Y-137766402D01*
X151962867Y-137786107D01*
X151975480Y-137807151D01*
X151985970Y-137829329D01*
X151994235Y-137852429D01*
X152000196Y-137876227D01*
X152003796Y-137900496D01*
X152005000Y-137925000D01*
X152005000Y-138675000D01*
X152003796Y-138699504D01*
X152000196Y-138723773D01*
X151994235Y-138747571D01*
X151985970Y-138770671D01*
X151975480Y-138792849D01*
X151962867Y-138813893D01*
X151948253Y-138833598D01*
X151931777Y-138851777D01*
X151913598Y-138868253D01*
X151893893Y-138882867D01*
X151872849Y-138895480D01*
X151850671Y-138905970D01*
X151827571Y-138914235D01*
X151803773Y-138920196D01*
X151779504Y-138923796D01*
X151755000Y-138925000D01*
X150505000Y-138925000D01*
X150480496Y-138923796D01*
X150456227Y-138920196D01*
X150432429Y-138914235D01*
X150409329Y-138905970D01*
X150387151Y-138895480D01*
X150366107Y-138882867D01*
X150346402Y-138868253D01*
X150328223Y-138851777D01*
X150311747Y-138833598D01*
X150297133Y-138813893D01*
X150284520Y-138792849D01*
X150274030Y-138770671D01*
X150265765Y-138747571D01*
X150259804Y-138723773D01*
X150256204Y-138699504D01*
X150255000Y-138675000D01*
X150255000Y-137925000D01*
X150256204Y-137900496D01*
X150259804Y-137876227D01*
X150265765Y-137852429D01*
X150274030Y-137829329D01*
X150284520Y-137807151D01*
X150297133Y-137786107D01*
X150311747Y-137766402D01*
X150328223Y-137748223D01*
X150346402Y-137731747D01*
X150366107Y-137717133D01*
X150387151Y-137704520D01*
X150409329Y-137694030D01*
X150432429Y-137685765D01*
X150456227Y-137679804D01*
X150480496Y-137676204D01*
X150505000Y-137675000D01*
X151755000Y-137675000D01*
X151779504Y-137676204D01*
G37*
G04 #@! TD.AperFunction*
D18*
X156210000Y-139700000D03*
D17*
X156210000Y-135890000D03*
G04 #@! TA.AperFunction,SMDPad,CuDef*
D21*
G36*
X154199504Y-113426204D02*
G01*
X154223773Y-113429804D01*
X154247571Y-113435765D01*
X154270671Y-113444030D01*
X154292849Y-113454520D01*
X154313893Y-113467133D01*
X154333598Y-113481747D01*
X154351777Y-113498223D01*
X154368253Y-113516402D01*
X154382867Y-113536107D01*
X154395480Y-113557151D01*
X154405970Y-113579329D01*
X154414235Y-113602429D01*
X154420196Y-113626227D01*
X154423796Y-113650496D01*
X154425000Y-113675000D01*
X154425000Y-114925000D01*
X154423796Y-114949504D01*
X154420196Y-114973773D01*
X154414235Y-114997571D01*
X154405970Y-115020671D01*
X154395480Y-115042849D01*
X154382867Y-115063893D01*
X154368253Y-115083598D01*
X154351777Y-115101777D01*
X154333598Y-115118253D01*
X154313893Y-115132867D01*
X154292849Y-115145480D01*
X154270671Y-115155970D01*
X154247571Y-115164235D01*
X154223773Y-115170196D01*
X154199504Y-115173796D01*
X154175000Y-115175000D01*
X153425000Y-115175000D01*
X153400496Y-115173796D01*
X153376227Y-115170196D01*
X153352429Y-115164235D01*
X153329329Y-115155970D01*
X153307151Y-115145480D01*
X153286107Y-115132867D01*
X153266402Y-115118253D01*
X153248223Y-115101777D01*
X153231747Y-115083598D01*
X153217133Y-115063893D01*
X153204520Y-115042849D01*
X153194030Y-115020671D01*
X153185765Y-114997571D01*
X153179804Y-114973773D01*
X153176204Y-114949504D01*
X153175000Y-114925000D01*
X153175000Y-113675000D01*
X153176204Y-113650496D01*
X153179804Y-113626227D01*
X153185765Y-113602429D01*
X153194030Y-113579329D01*
X153204520Y-113557151D01*
X153217133Y-113536107D01*
X153231747Y-113516402D01*
X153248223Y-113498223D01*
X153266402Y-113481747D01*
X153286107Y-113467133D01*
X153307151Y-113454520D01*
X153329329Y-113444030D01*
X153352429Y-113435765D01*
X153376227Y-113429804D01*
X153400496Y-113426204D01*
X153425000Y-113425000D01*
X154175000Y-113425000D01*
X154199504Y-113426204D01*
G37*
G04 #@! TD.AperFunction*
G04 #@! TA.AperFunction,SMDPad,CuDef*
G36*
X151399504Y-113426204D02*
G01*
X151423773Y-113429804D01*
X151447571Y-113435765D01*
X151470671Y-113444030D01*
X151492849Y-113454520D01*
X151513893Y-113467133D01*
X151533598Y-113481747D01*
X151551777Y-113498223D01*
X151568253Y-113516402D01*
X151582867Y-113536107D01*
X151595480Y-113557151D01*
X151605970Y-113579329D01*
X151614235Y-113602429D01*
X151620196Y-113626227D01*
X151623796Y-113650496D01*
X151625000Y-113675000D01*
X151625000Y-114925000D01*
X151623796Y-114949504D01*
X151620196Y-114973773D01*
X151614235Y-114997571D01*
X151605970Y-115020671D01*
X151595480Y-115042849D01*
X151582867Y-115063893D01*
X151568253Y-115083598D01*
X151551777Y-115101777D01*
X151533598Y-115118253D01*
X151513893Y-115132867D01*
X151492849Y-115145480D01*
X151470671Y-115155970D01*
X151447571Y-115164235D01*
X151423773Y-115170196D01*
X151399504Y-115173796D01*
X151375000Y-115175000D01*
X150625000Y-115175000D01*
X150600496Y-115173796D01*
X150576227Y-115170196D01*
X150552429Y-115164235D01*
X150529329Y-115155970D01*
X150507151Y-115145480D01*
X150486107Y-115132867D01*
X150466402Y-115118253D01*
X150448223Y-115101777D01*
X150431747Y-115083598D01*
X150417133Y-115063893D01*
X150404520Y-115042849D01*
X150394030Y-115020671D01*
X150385765Y-114997571D01*
X150379804Y-114973773D01*
X150376204Y-114949504D01*
X150375000Y-114925000D01*
X150375000Y-113675000D01*
X150376204Y-113650496D01*
X150379804Y-113626227D01*
X150385765Y-113602429D01*
X150394030Y-113579329D01*
X150404520Y-113557151D01*
X150417133Y-113536107D01*
X150431747Y-113516402D01*
X150448223Y-113498223D01*
X150466402Y-113481747D01*
X150486107Y-113467133D01*
X150507151Y-113454520D01*
X150529329Y-113444030D01*
X150552429Y-113435765D01*
X150576227Y-113429804D01*
X150600496Y-113426204D01*
X150625000Y-113425000D01*
X151375000Y-113425000D01*
X151399504Y-113426204D01*
G37*
G04 #@! TD.AperFunction*
D17*
X165100000Y-139700000D03*
D18*
X161290000Y-139700000D03*
D17*
X147320000Y-123190000D03*
D18*
X147320000Y-119380000D03*
D29*
X131445000Y-129700000D03*
X146445000Y-134700000D03*
X131445000Y-139700000D03*
D30*
X99060000Y-139700000D03*
X99060000Y-117200000D03*
D18*
X88900000Y-126518000D03*
D17*
X88900000Y-116708000D03*
D26*
X88900000Y-90170000D03*
D27*
X88900000Y-102520000D03*
D12*
X116800000Y-113030000D03*
D31*
X114300000Y-113030000D03*
D32*
X137160000Y-50800000D03*
D33*
X137160000Y-60800000D03*
X137160000Y-86200000D03*
D32*
X137160000Y-76200000D03*
D31*
X135890000Y-111760000D03*
D12*
X135890000Y-114260000D03*
X176450000Y-76200000D03*
X171450000Y-76200000D03*
G04 #@! TA.AperFunction,SMDPad,CuDef*
D21*
G36*
X151779504Y-109996204D02*
G01*
X151803773Y-109999804D01*
X151827571Y-110005765D01*
X151850671Y-110014030D01*
X151872849Y-110024520D01*
X151893893Y-110037133D01*
X151913598Y-110051747D01*
X151931777Y-110068223D01*
X151948253Y-110086402D01*
X151962867Y-110106107D01*
X151975480Y-110127151D01*
X151985970Y-110149329D01*
X151994235Y-110172429D01*
X152000196Y-110196227D01*
X152003796Y-110220496D01*
X152005000Y-110245000D01*
X152005000Y-110995000D01*
X152003796Y-111019504D01*
X152000196Y-111043773D01*
X151994235Y-111067571D01*
X151985970Y-111090671D01*
X151975480Y-111112849D01*
X151962867Y-111133893D01*
X151948253Y-111153598D01*
X151931777Y-111171777D01*
X151913598Y-111188253D01*
X151893893Y-111202867D01*
X151872849Y-111215480D01*
X151850671Y-111225970D01*
X151827571Y-111234235D01*
X151803773Y-111240196D01*
X151779504Y-111243796D01*
X151755000Y-111245000D01*
X150505000Y-111245000D01*
X150480496Y-111243796D01*
X150456227Y-111240196D01*
X150432429Y-111234235D01*
X150409329Y-111225970D01*
X150387151Y-111215480D01*
X150366107Y-111202867D01*
X150346402Y-111188253D01*
X150328223Y-111171777D01*
X150311747Y-111153598D01*
X150297133Y-111133893D01*
X150284520Y-111112849D01*
X150274030Y-111090671D01*
X150265765Y-111067571D01*
X150259804Y-111043773D01*
X150256204Y-111019504D01*
X150255000Y-110995000D01*
X150255000Y-110245000D01*
X150256204Y-110220496D01*
X150259804Y-110196227D01*
X150265765Y-110172429D01*
X150274030Y-110149329D01*
X150284520Y-110127151D01*
X150297133Y-110106107D01*
X150311747Y-110086402D01*
X150328223Y-110068223D01*
X150346402Y-110051747D01*
X150366107Y-110037133D01*
X150387151Y-110024520D01*
X150409329Y-110014030D01*
X150432429Y-110005765D01*
X150456227Y-109999804D01*
X150480496Y-109996204D01*
X150505000Y-109995000D01*
X151755000Y-109995000D01*
X151779504Y-109996204D01*
G37*
G04 #@! TD.AperFunction*
G04 #@! TA.AperFunction,SMDPad,CuDef*
G36*
X151779504Y-107196204D02*
G01*
X151803773Y-107199804D01*
X151827571Y-107205765D01*
X151850671Y-107214030D01*
X151872849Y-107224520D01*
X151893893Y-107237133D01*
X151913598Y-107251747D01*
X151931777Y-107268223D01*
X151948253Y-107286402D01*
X151962867Y-107306107D01*
X151975480Y-107327151D01*
X151985970Y-107349329D01*
X151994235Y-107372429D01*
X152000196Y-107396227D01*
X152003796Y-107420496D01*
X152005000Y-107445000D01*
X152005000Y-108195000D01*
X152003796Y-108219504D01*
X152000196Y-108243773D01*
X151994235Y-108267571D01*
X151985970Y-108290671D01*
X151975480Y-108312849D01*
X151962867Y-108333893D01*
X151948253Y-108353598D01*
X151931777Y-108371777D01*
X151913598Y-108388253D01*
X151893893Y-108402867D01*
X151872849Y-108415480D01*
X151850671Y-108425970D01*
X151827571Y-108434235D01*
X151803773Y-108440196D01*
X151779504Y-108443796D01*
X151755000Y-108445000D01*
X150505000Y-108445000D01*
X150480496Y-108443796D01*
X150456227Y-108440196D01*
X150432429Y-108434235D01*
X150409329Y-108425970D01*
X150387151Y-108415480D01*
X150366107Y-108402867D01*
X150346402Y-108388253D01*
X150328223Y-108371777D01*
X150311747Y-108353598D01*
X150297133Y-108333893D01*
X150284520Y-108312849D01*
X150274030Y-108290671D01*
X150265765Y-108267571D01*
X150259804Y-108243773D01*
X150256204Y-108219504D01*
X150255000Y-108195000D01*
X150255000Y-107445000D01*
X150256204Y-107420496D01*
X150259804Y-107396227D01*
X150265765Y-107372429D01*
X150274030Y-107349329D01*
X150284520Y-107327151D01*
X150297133Y-107306107D01*
X150311747Y-107286402D01*
X150328223Y-107268223D01*
X150346402Y-107251747D01*
X150366107Y-107237133D01*
X150387151Y-107224520D01*
X150409329Y-107214030D01*
X150432429Y-107205765D01*
X150456227Y-107199804D01*
X150480496Y-107196204D01*
X150505000Y-107195000D01*
X151755000Y-107195000D01*
X151779504Y-107196204D01*
G37*
G04 #@! TD.AperFunction*
D12*
X160060000Y-116840000D03*
D31*
X162560000Y-116840000D03*
G04 #@! TA.AperFunction,SMDPad,CuDef*
D21*
G36*
X152669504Y-61356204D02*
G01*
X152693773Y-61359804D01*
X152717571Y-61365765D01*
X152740671Y-61374030D01*
X152762849Y-61384520D01*
X152783893Y-61397133D01*
X152803598Y-61411747D01*
X152821777Y-61428223D01*
X152838253Y-61446402D01*
X152852867Y-61466107D01*
X152865480Y-61487151D01*
X152875970Y-61509329D01*
X152884235Y-61532429D01*
X152890196Y-61556227D01*
X152893796Y-61580496D01*
X152895000Y-61605000D01*
X152895000Y-62855000D01*
X152893796Y-62879504D01*
X152890196Y-62903773D01*
X152884235Y-62927571D01*
X152875970Y-62950671D01*
X152865480Y-62972849D01*
X152852867Y-62993893D01*
X152838253Y-63013598D01*
X152821777Y-63031777D01*
X152803598Y-63048253D01*
X152783893Y-63062867D01*
X152762849Y-63075480D01*
X152740671Y-63085970D01*
X152717571Y-63094235D01*
X152693773Y-63100196D01*
X152669504Y-63103796D01*
X152645000Y-63105000D01*
X151895000Y-63105000D01*
X151870496Y-63103796D01*
X151846227Y-63100196D01*
X151822429Y-63094235D01*
X151799329Y-63085970D01*
X151777151Y-63075480D01*
X151756107Y-63062867D01*
X151736402Y-63048253D01*
X151718223Y-63031777D01*
X151701747Y-63013598D01*
X151687133Y-62993893D01*
X151674520Y-62972849D01*
X151664030Y-62950671D01*
X151655765Y-62927571D01*
X151649804Y-62903773D01*
X151646204Y-62879504D01*
X151645000Y-62855000D01*
X151645000Y-61605000D01*
X151646204Y-61580496D01*
X151649804Y-61556227D01*
X151655765Y-61532429D01*
X151664030Y-61509329D01*
X151674520Y-61487151D01*
X151687133Y-61466107D01*
X151701747Y-61446402D01*
X151718223Y-61428223D01*
X151736402Y-61411747D01*
X151756107Y-61397133D01*
X151777151Y-61384520D01*
X151799329Y-61374030D01*
X151822429Y-61365765D01*
X151846227Y-61359804D01*
X151870496Y-61356204D01*
X151895000Y-61355000D01*
X152645000Y-61355000D01*
X152669504Y-61356204D01*
G37*
G04 #@! TD.AperFunction*
G04 #@! TA.AperFunction,SMDPad,CuDef*
G36*
X155469504Y-61356204D02*
G01*
X155493773Y-61359804D01*
X155517571Y-61365765D01*
X155540671Y-61374030D01*
X155562849Y-61384520D01*
X155583893Y-61397133D01*
X155603598Y-61411747D01*
X155621777Y-61428223D01*
X155638253Y-61446402D01*
X155652867Y-61466107D01*
X155665480Y-61487151D01*
X155675970Y-61509329D01*
X155684235Y-61532429D01*
X155690196Y-61556227D01*
X155693796Y-61580496D01*
X155695000Y-61605000D01*
X155695000Y-62855000D01*
X155693796Y-62879504D01*
X155690196Y-62903773D01*
X155684235Y-62927571D01*
X155675970Y-62950671D01*
X155665480Y-62972849D01*
X155652867Y-62993893D01*
X155638253Y-63013598D01*
X155621777Y-63031777D01*
X155603598Y-63048253D01*
X155583893Y-63062867D01*
X155562849Y-63075480D01*
X155540671Y-63085970D01*
X155517571Y-63094235D01*
X155493773Y-63100196D01*
X155469504Y-63103796D01*
X155445000Y-63105000D01*
X154695000Y-63105000D01*
X154670496Y-63103796D01*
X154646227Y-63100196D01*
X154622429Y-63094235D01*
X154599329Y-63085970D01*
X154577151Y-63075480D01*
X154556107Y-63062867D01*
X154536402Y-63048253D01*
X154518223Y-63031777D01*
X154501747Y-63013598D01*
X154487133Y-62993893D01*
X154474520Y-62972849D01*
X154464030Y-62950671D01*
X154455765Y-62927571D01*
X154449804Y-62903773D01*
X154446204Y-62879504D01*
X154445000Y-62855000D01*
X154445000Y-61605000D01*
X154446204Y-61580496D01*
X154449804Y-61556227D01*
X154455765Y-61532429D01*
X154464030Y-61509329D01*
X154474520Y-61487151D01*
X154487133Y-61466107D01*
X154501747Y-61446402D01*
X154518223Y-61428223D01*
X154536402Y-61411747D01*
X154556107Y-61397133D01*
X154577151Y-61384520D01*
X154599329Y-61374030D01*
X154622429Y-61365765D01*
X154646227Y-61359804D01*
X154670496Y-61356204D01*
X154695000Y-61355000D01*
X155445000Y-61355000D01*
X155469504Y-61356204D01*
G37*
G04 #@! TD.AperFunction*
G04 #@! TA.AperFunction,SMDPad,CuDef*
G36*
X164489504Y-98316204D02*
G01*
X164513773Y-98319804D01*
X164537571Y-98325765D01*
X164560671Y-98334030D01*
X164582849Y-98344520D01*
X164603893Y-98357133D01*
X164623598Y-98371747D01*
X164641777Y-98388223D01*
X164658253Y-98406402D01*
X164672867Y-98426107D01*
X164685480Y-98447151D01*
X164695970Y-98469329D01*
X164704235Y-98492429D01*
X164710196Y-98516227D01*
X164713796Y-98540496D01*
X164715000Y-98565000D01*
X164715000Y-99815000D01*
X164713796Y-99839504D01*
X164710196Y-99863773D01*
X164704235Y-99887571D01*
X164695970Y-99910671D01*
X164685480Y-99932849D01*
X164672867Y-99953893D01*
X164658253Y-99973598D01*
X164641777Y-99991777D01*
X164623598Y-100008253D01*
X164603893Y-100022867D01*
X164582849Y-100035480D01*
X164560671Y-100045970D01*
X164537571Y-100054235D01*
X164513773Y-100060196D01*
X164489504Y-100063796D01*
X164465000Y-100065000D01*
X163715000Y-100065000D01*
X163690496Y-100063796D01*
X163666227Y-100060196D01*
X163642429Y-100054235D01*
X163619329Y-100045970D01*
X163597151Y-100035480D01*
X163576107Y-100022867D01*
X163556402Y-100008253D01*
X163538223Y-99991777D01*
X163521747Y-99973598D01*
X163507133Y-99953893D01*
X163494520Y-99932849D01*
X163484030Y-99910671D01*
X163475765Y-99887571D01*
X163469804Y-99863773D01*
X163466204Y-99839504D01*
X163465000Y-99815000D01*
X163465000Y-98565000D01*
X163466204Y-98540496D01*
X163469804Y-98516227D01*
X163475765Y-98492429D01*
X163484030Y-98469329D01*
X163494520Y-98447151D01*
X163507133Y-98426107D01*
X163521747Y-98406402D01*
X163538223Y-98388223D01*
X163556402Y-98371747D01*
X163576107Y-98357133D01*
X163597151Y-98344520D01*
X163619329Y-98334030D01*
X163642429Y-98325765D01*
X163666227Y-98319804D01*
X163690496Y-98316204D01*
X163715000Y-98315000D01*
X164465000Y-98315000D01*
X164489504Y-98316204D01*
G37*
G04 #@! TD.AperFunction*
G04 #@! TA.AperFunction,SMDPad,CuDef*
G36*
X161689504Y-98316204D02*
G01*
X161713773Y-98319804D01*
X161737571Y-98325765D01*
X161760671Y-98334030D01*
X161782849Y-98344520D01*
X161803893Y-98357133D01*
X161823598Y-98371747D01*
X161841777Y-98388223D01*
X161858253Y-98406402D01*
X161872867Y-98426107D01*
X161885480Y-98447151D01*
X161895970Y-98469329D01*
X161904235Y-98492429D01*
X161910196Y-98516227D01*
X161913796Y-98540496D01*
X161915000Y-98565000D01*
X161915000Y-99815000D01*
X161913796Y-99839504D01*
X161910196Y-99863773D01*
X161904235Y-99887571D01*
X161895970Y-99910671D01*
X161885480Y-99932849D01*
X161872867Y-99953893D01*
X161858253Y-99973598D01*
X161841777Y-99991777D01*
X161823598Y-100008253D01*
X161803893Y-100022867D01*
X161782849Y-100035480D01*
X161760671Y-100045970D01*
X161737571Y-100054235D01*
X161713773Y-100060196D01*
X161689504Y-100063796D01*
X161665000Y-100065000D01*
X160915000Y-100065000D01*
X160890496Y-100063796D01*
X160866227Y-100060196D01*
X160842429Y-100054235D01*
X160819329Y-100045970D01*
X160797151Y-100035480D01*
X160776107Y-100022867D01*
X160756402Y-100008253D01*
X160738223Y-99991777D01*
X160721747Y-99973598D01*
X160707133Y-99953893D01*
X160694520Y-99932849D01*
X160684030Y-99910671D01*
X160675765Y-99887571D01*
X160669804Y-99863773D01*
X160666204Y-99839504D01*
X160665000Y-99815000D01*
X160665000Y-98565000D01*
X160666204Y-98540496D01*
X160669804Y-98516227D01*
X160675765Y-98492429D01*
X160684030Y-98469329D01*
X160694520Y-98447151D01*
X160707133Y-98426107D01*
X160721747Y-98406402D01*
X160738223Y-98388223D01*
X160756402Y-98371747D01*
X160776107Y-98357133D01*
X160797151Y-98344520D01*
X160819329Y-98334030D01*
X160842429Y-98325765D01*
X160866227Y-98319804D01*
X160890496Y-98316204D01*
X160915000Y-98315000D01*
X161665000Y-98315000D01*
X161689504Y-98316204D01*
G37*
G04 #@! TD.AperFunction*
G04 #@! TA.AperFunction,SMDPad,CuDef*
G36*
X153939504Y-77866204D02*
G01*
X153963773Y-77869804D01*
X153987571Y-77875765D01*
X154010671Y-77884030D01*
X154032849Y-77894520D01*
X154053893Y-77907133D01*
X154073598Y-77921747D01*
X154091777Y-77938223D01*
X154108253Y-77956402D01*
X154122867Y-77976107D01*
X154135480Y-77997151D01*
X154145970Y-78019329D01*
X154154235Y-78042429D01*
X154160196Y-78066227D01*
X154163796Y-78090496D01*
X154165000Y-78115000D01*
X154165000Y-79365000D01*
X154163796Y-79389504D01*
X154160196Y-79413773D01*
X154154235Y-79437571D01*
X154145970Y-79460671D01*
X154135480Y-79482849D01*
X154122867Y-79503893D01*
X154108253Y-79523598D01*
X154091777Y-79541777D01*
X154073598Y-79558253D01*
X154053893Y-79572867D01*
X154032849Y-79585480D01*
X154010671Y-79595970D01*
X153987571Y-79604235D01*
X153963773Y-79610196D01*
X153939504Y-79613796D01*
X153915000Y-79615000D01*
X153165000Y-79615000D01*
X153140496Y-79613796D01*
X153116227Y-79610196D01*
X153092429Y-79604235D01*
X153069329Y-79595970D01*
X153047151Y-79585480D01*
X153026107Y-79572867D01*
X153006402Y-79558253D01*
X152988223Y-79541777D01*
X152971747Y-79523598D01*
X152957133Y-79503893D01*
X152944520Y-79482849D01*
X152934030Y-79460671D01*
X152925765Y-79437571D01*
X152919804Y-79413773D01*
X152916204Y-79389504D01*
X152915000Y-79365000D01*
X152915000Y-78115000D01*
X152916204Y-78090496D01*
X152919804Y-78066227D01*
X152925765Y-78042429D01*
X152934030Y-78019329D01*
X152944520Y-77997151D01*
X152957133Y-77976107D01*
X152971747Y-77956402D01*
X152988223Y-77938223D01*
X153006402Y-77921747D01*
X153026107Y-77907133D01*
X153047151Y-77894520D01*
X153069329Y-77884030D01*
X153092429Y-77875765D01*
X153116227Y-77869804D01*
X153140496Y-77866204D01*
X153165000Y-77865000D01*
X153915000Y-77865000D01*
X153939504Y-77866204D01*
G37*
G04 #@! TD.AperFunction*
G04 #@! TA.AperFunction,SMDPad,CuDef*
G36*
X156739504Y-77866204D02*
G01*
X156763773Y-77869804D01*
X156787571Y-77875765D01*
X156810671Y-77884030D01*
X156832849Y-77894520D01*
X156853893Y-77907133D01*
X156873598Y-77921747D01*
X156891777Y-77938223D01*
X156908253Y-77956402D01*
X156922867Y-77976107D01*
X156935480Y-77997151D01*
X156945970Y-78019329D01*
X156954235Y-78042429D01*
X156960196Y-78066227D01*
X156963796Y-78090496D01*
X156965000Y-78115000D01*
X156965000Y-79365000D01*
X156963796Y-79389504D01*
X156960196Y-79413773D01*
X156954235Y-79437571D01*
X156945970Y-79460671D01*
X156935480Y-79482849D01*
X156922867Y-79503893D01*
X156908253Y-79523598D01*
X156891777Y-79541777D01*
X156873598Y-79558253D01*
X156853893Y-79572867D01*
X156832849Y-79585480D01*
X156810671Y-79595970D01*
X156787571Y-79604235D01*
X156763773Y-79610196D01*
X156739504Y-79613796D01*
X156715000Y-79615000D01*
X155965000Y-79615000D01*
X155940496Y-79613796D01*
X155916227Y-79610196D01*
X155892429Y-79604235D01*
X155869329Y-79595970D01*
X155847151Y-79585480D01*
X155826107Y-79572867D01*
X155806402Y-79558253D01*
X155788223Y-79541777D01*
X155771747Y-79523598D01*
X155757133Y-79503893D01*
X155744520Y-79482849D01*
X155734030Y-79460671D01*
X155725765Y-79437571D01*
X155719804Y-79413773D01*
X155716204Y-79389504D01*
X155715000Y-79365000D01*
X155715000Y-78115000D01*
X155716204Y-78090496D01*
X155719804Y-78066227D01*
X155725765Y-78042429D01*
X155734030Y-78019329D01*
X155744520Y-77997151D01*
X155757133Y-77976107D01*
X155771747Y-77956402D01*
X155788223Y-77938223D01*
X155806402Y-77921747D01*
X155826107Y-77907133D01*
X155847151Y-77894520D01*
X155869329Y-77884030D01*
X155892429Y-77875765D01*
X155916227Y-77869804D01*
X155940496Y-77866204D01*
X155965000Y-77865000D01*
X156715000Y-77865000D01*
X156739504Y-77866204D01*
G37*
G04 #@! TD.AperFunction*
G04 #@! TA.AperFunction,SMDPad,CuDef*
G36*
X109489504Y-121046204D02*
G01*
X109513773Y-121049804D01*
X109537571Y-121055765D01*
X109560671Y-121064030D01*
X109582849Y-121074520D01*
X109603893Y-121087133D01*
X109623598Y-121101747D01*
X109641777Y-121118223D01*
X109658253Y-121136402D01*
X109672867Y-121156107D01*
X109685480Y-121177151D01*
X109695970Y-121199329D01*
X109704235Y-121222429D01*
X109710196Y-121246227D01*
X109713796Y-121270496D01*
X109715000Y-121295000D01*
X109715000Y-122545000D01*
X109713796Y-122569504D01*
X109710196Y-122593773D01*
X109704235Y-122617571D01*
X109695970Y-122640671D01*
X109685480Y-122662849D01*
X109672867Y-122683893D01*
X109658253Y-122703598D01*
X109641777Y-122721777D01*
X109623598Y-122738253D01*
X109603893Y-122752867D01*
X109582849Y-122765480D01*
X109560671Y-122775970D01*
X109537571Y-122784235D01*
X109513773Y-122790196D01*
X109489504Y-122793796D01*
X109465000Y-122795000D01*
X108715000Y-122795000D01*
X108690496Y-122793796D01*
X108666227Y-122790196D01*
X108642429Y-122784235D01*
X108619329Y-122775970D01*
X108597151Y-122765480D01*
X108576107Y-122752867D01*
X108556402Y-122738253D01*
X108538223Y-122721777D01*
X108521747Y-122703598D01*
X108507133Y-122683893D01*
X108494520Y-122662849D01*
X108484030Y-122640671D01*
X108475765Y-122617571D01*
X108469804Y-122593773D01*
X108466204Y-122569504D01*
X108465000Y-122545000D01*
X108465000Y-121295000D01*
X108466204Y-121270496D01*
X108469804Y-121246227D01*
X108475765Y-121222429D01*
X108484030Y-121199329D01*
X108494520Y-121177151D01*
X108507133Y-121156107D01*
X108521747Y-121136402D01*
X108538223Y-121118223D01*
X108556402Y-121101747D01*
X108576107Y-121087133D01*
X108597151Y-121074520D01*
X108619329Y-121064030D01*
X108642429Y-121055765D01*
X108666227Y-121049804D01*
X108690496Y-121046204D01*
X108715000Y-121045000D01*
X109465000Y-121045000D01*
X109489504Y-121046204D01*
G37*
G04 #@! TD.AperFunction*
G04 #@! TA.AperFunction,SMDPad,CuDef*
G36*
X112289504Y-121046204D02*
G01*
X112313773Y-121049804D01*
X112337571Y-121055765D01*
X112360671Y-121064030D01*
X112382849Y-121074520D01*
X112403893Y-121087133D01*
X112423598Y-121101747D01*
X112441777Y-121118223D01*
X112458253Y-121136402D01*
X112472867Y-121156107D01*
X112485480Y-121177151D01*
X112495970Y-121199329D01*
X112504235Y-121222429D01*
X112510196Y-121246227D01*
X112513796Y-121270496D01*
X112515000Y-121295000D01*
X112515000Y-122545000D01*
X112513796Y-122569504D01*
X112510196Y-122593773D01*
X112504235Y-122617571D01*
X112495970Y-122640671D01*
X112485480Y-122662849D01*
X112472867Y-122683893D01*
X112458253Y-122703598D01*
X112441777Y-122721777D01*
X112423598Y-122738253D01*
X112403893Y-122752867D01*
X112382849Y-122765480D01*
X112360671Y-122775970D01*
X112337571Y-122784235D01*
X112313773Y-122790196D01*
X112289504Y-122793796D01*
X112265000Y-122795000D01*
X111515000Y-122795000D01*
X111490496Y-122793796D01*
X111466227Y-122790196D01*
X111442429Y-122784235D01*
X111419329Y-122775970D01*
X111397151Y-122765480D01*
X111376107Y-122752867D01*
X111356402Y-122738253D01*
X111338223Y-122721777D01*
X111321747Y-122703598D01*
X111307133Y-122683893D01*
X111294520Y-122662849D01*
X111284030Y-122640671D01*
X111275765Y-122617571D01*
X111269804Y-122593773D01*
X111266204Y-122569504D01*
X111265000Y-122545000D01*
X111265000Y-121295000D01*
X111266204Y-121270496D01*
X111269804Y-121246227D01*
X111275765Y-121222429D01*
X111284030Y-121199329D01*
X111294520Y-121177151D01*
X111307133Y-121156107D01*
X111321747Y-121136402D01*
X111338223Y-121118223D01*
X111356402Y-121101747D01*
X111376107Y-121087133D01*
X111397151Y-121074520D01*
X111419329Y-121064030D01*
X111442429Y-121055765D01*
X111466227Y-121049804D01*
X111490496Y-121046204D01*
X111515000Y-121045000D01*
X112265000Y-121045000D01*
X112289504Y-121046204D01*
G37*
G04 #@! TD.AperFunction*
G04 #@! TA.AperFunction,SMDPad,CuDef*
G36*
X130824504Y-121426204D02*
G01*
X130848773Y-121429804D01*
X130872571Y-121435765D01*
X130895671Y-121444030D01*
X130917849Y-121454520D01*
X130938893Y-121467133D01*
X130958598Y-121481747D01*
X130976777Y-121498223D01*
X130993253Y-121516402D01*
X131007867Y-121536107D01*
X131020480Y-121557151D01*
X131030970Y-121579329D01*
X131039235Y-121602429D01*
X131045196Y-121626227D01*
X131048796Y-121650496D01*
X131050000Y-121675000D01*
X131050000Y-122425000D01*
X131048796Y-122449504D01*
X131045196Y-122473773D01*
X131039235Y-122497571D01*
X131030970Y-122520671D01*
X131020480Y-122542849D01*
X131007867Y-122563893D01*
X130993253Y-122583598D01*
X130976777Y-122601777D01*
X130958598Y-122618253D01*
X130938893Y-122632867D01*
X130917849Y-122645480D01*
X130895671Y-122655970D01*
X130872571Y-122664235D01*
X130848773Y-122670196D01*
X130824504Y-122673796D01*
X130800000Y-122675000D01*
X129550000Y-122675000D01*
X129525496Y-122673796D01*
X129501227Y-122670196D01*
X129477429Y-122664235D01*
X129454329Y-122655970D01*
X129432151Y-122645480D01*
X129411107Y-122632867D01*
X129391402Y-122618253D01*
X129373223Y-122601777D01*
X129356747Y-122583598D01*
X129342133Y-122563893D01*
X129329520Y-122542849D01*
X129319030Y-122520671D01*
X129310765Y-122497571D01*
X129304804Y-122473773D01*
X129301204Y-122449504D01*
X129300000Y-122425000D01*
X129300000Y-121675000D01*
X129301204Y-121650496D01*
X129304804Y-121626227D01*
X129310765Y-121602429D01*
X129319030Y-121579329D01*
X129329520Y-121557151D01*
X129342133Y-121536107D01*
X129356747Y-121516402D01*
X129373223Y-121498223D01*
X129391402Y-121481747D01*
X129411107Y-121467133D01*
X129432151Y-121454520D01*
X129454329Y-121444030D01*
X129477429Y-121435765D01*
X129501227Y-121429804D01*
X129525496Y-121426204D01*
X129550000Y-121425000D01*
X130800000Y-121425000D01*
X130824504Y-121426204D01*
G37*
G04 #@! TD.AperFunction*
G04 #@! TA.AperFunction,SMDPad,CuDef*
G36*
X130824504Y-118626204D02*
G01*
X130848773Y-118629804D01*
X130872571Y-118635765D01*
X130895671Y-118644030D01*
X130917849Y-118654520D01*
X130938893Y-118667133D01*
X130958598Y-118681747D01*
X130976777Y-118698223D01*
X130993253Y-118716402D01*
X131007867Y-118736107D01*
X131020480Y-118757151D01*
X131030970Y-118779329D01*
X131039235Y-118802429D01*
X131045196Y-118826227D01*
X131048796Y-118850496D01*
X131050000Y-118875000D01*
X131050000Y-119625000D01*
X131048796Y-119649504D01*
X131045196Y-119673773D01*
X131039235Y-119697571D01*
X131030970Y-119720671D01*
X131020480Y-119742849D01*
X131007867Y-119763893D01*
X130993253Y-119783598D01*
X130976777Y-119801777D01*
X130958598Y-119818253D01*
X130938893Y-119832867D01*
X130917849Y-119845480D01*
X130895671Y-119855970D01*
X130872571Y-119864235D01*
X130848773Y-119870196D01*
X130824504Y-119873796D01*
X130800000Y-119875000D01*
X129550000Y-119875000D01*
X129525496Y-119873796D01*
X129501227Y-119870196D01*
X129477429Y-119864235D01*
X129454329Y-119855970D01*
X129432151Y-119845480D01*
X129411107Y-119832867D01*
X129391402Y-119818253D01*
X129373223Y-119801777D01*
X129356747Y-119783598D01*
X129342133Y-119763893D01*
X129329520Y-119742849D01*
X129319030Y-119720671D01*
X129310765Y-119697571D01*
X129304804Y-119673773D01*
X129301204Y-119649504D01*
X129300000Y-119625000D01*
X129300000Y-118875000D01*
X129301204Y-118850496D01*
X129304804Y-118826227D01*
X129310765Y-118802429D01*
X129319030Y-118779329D01*
X129329520Y-118757151D01*
X129342133Y-118736107D01*
X129356747Y-118716402D01*
X129373223Y-118698223D01*
X129391402Y-118681747D01*
X129411107Y-118667133D01*
X129432151Y-118654520D01*
X129454329Y-118644030D01*
X129477429Y-118635765D01*
X129501227Y-118629804D01*
X129525496Y-118626204D01*
X129550000Y-118625000D01*
X130800000Y-118625000D01*
X130824504Y-118626204D01*
G37*
G04 #@! TD.AperFunction*
D34*
X100650000Y-50800000D03*
D35*
X120650000Y-50800000D03*
D34*
X100650000Y-96520000D03*
D35*
X120650000Y-96520000D03*
X100330000Y-66040000D03*
D34*
X120330000Y-66040000D03*
D35*
X100330000Y-81280000D03*
D34*
X120330000Y-81280000D03*
D13*
X121920000Y-110490000D03*
D31*
X129540000Y-110490000D03*
D13*
X129540000Y-115570000D03*
D31*
X121920000Y-115570000D03*
D36*
X182400000Y-65405000D03*
X185900000Y-65405000D03*
D37*
X163830000Y-78260000D03*
X163830000Y-81760000D03*
X158750000Y-110970000D03*
X158750000Y-107470000D03*
D38*
X159290000Y-124460000D03*
X163290000Y-124460000D03*
D17*
X153670000Y-57150000D03*
D18*
X157480000Y-57150000D03*
D39*
X109220000Y-139700000D03*
D40*
X113070000Y-139700000D03*
X116920000Y-139700000D03*
X120770000Y-139700000D03*
D38*
X164560000Y-134620000D03*
X160560000Y-134620000D03*
D30*
X90170000Y-80920000D03*
X90170000Y-58420000D03*
D14*
X159385000Y-61070000D03*
X160655000Y-61070000D03*
X161925000Y-61070000D03*
X163195000Y-61070000D03*
X163195000Y-68470000D03*
X161925000Y-68470000D03*
X160655000Y-68470000D03*
X159385000Y-68470000D03*
X163195000Y-93870000D03*
X161925000Y-93870000D03*
X160655000Y-93870000D03*
X159385000Y-93870000D03*
X159385000Y-86470000D03*
X160655000Y-86470000D03*
X161925000Y-86470000D03*
X163195000Y-86470000D03*
D17*
X170180000Y-72390000D03*
D18*
X166370000Y-72390000D03*
X162560000Y-72390000D03*
D13*
X147320000Y-111760000D03*
D12*
X147320000Y-101600000D03*
D15*
X109220000Y-109220000D03*
D16*
X88900000Y-109220000D03*
G04 #@! TA.AperFunction,SMDPad,CuDef*
D21*
G36*
X176799504Y-70246204D02*
G01*
X176823773Y-70249804D01*
X176847571Y-70255765D01*
X176870671Y-70264030D01*
X176892849Y-70274520D01*
X176913893Y-70287133D01*
X176933598Y-70301747D01*
X176951777Y-70318223D01*
X176968253Y-70336402D01*
X176982867Y-70356107D01*
X176995480Y-70377151D01*
X177005970Y-70399329D01*
X177014235Y-70422429D01*
X177020196Y-70446227D01*
X177023796Y-70470496D01*
X177025000Y-70495000D01*
X177025000Y-71745000D01*
X177023796Y-71769504D01*
X177020196Y-71793773D01*
X177014235Y-71817571D01*
X177005970Y-71840671D01*
X176995480Y-71862849D01*
X176982867Y-71883893D01*
X176968253Y-71903598D01*
X176951777Y-71921777D01*
X176933598Y-71938253D01*
X176913893Y-71952867D01*
X176892849Y-71965480D01*
X176870671Y-71975970D01*
X176847571Y-71984235D01*
X176823773Y-71990196D01*
X176799504Y-71993796D01*
X176775000Y-71995000D01*
X176025000Y-71995000D01*
X176000496Y-71993796D01*
X175976227Y-71990196D01*
X175952429Y-71984235D01*
X175929329Y-71975970D01*
X175907151Y-71965480D01*
X175886107Y-71952867D01*
X175866402Y-71938253D01*
X175848223Y-71921777D01*
X175831747Y-71903598D01*
X175817133Y-71883893D01*
X175804520Y-71862849D01*
X175794030Y-71840671D01*
X175785765Y-71817571D01*
X175779804Y-71793773D01*
X175776204Y-71769504D01*
X175775000Y-71745000D01*
X175775000Y-70495000D01*
X175776204Y-70470496D01*
X175779804Y-70446227D01*
X175785765Y-70422429D01*
X175794030Y-70399329D01*
X175804520Y-70377151D01*
X175817133Y-70356107D01*
X175831747Y-70336402D01*
X175848223Y-70318223D01*
X175866402Y-70301747D01*
X175886107Y-70287133D01*
X175907151Y-70274520D01*
X175929329Y-70264030D01*
X175952429Y-70255765D01*
X175976227Y-70249804D01*
X176000496Y-70246204D01*
X176025000Y-70245000D01*
X176775000Y-70245000D01*
X176799504Y-70246204D01*
G37*
G04 #@! TD.AperFunction*
G04 #@! TA.AperFunction,SMDPad,CuDef*
G36*
X179599504Y-70246204D02*
G01*
X179623773Y-70249804D01*
X179647571Y-70255765D01*
X179670671Y-70264030D01*
X179692849Y-70274520D01*
X179713893Y-70287133D01*
X179733598Y-70301747D01*
X179751777Y-70318223D01*
X179768253Y-70336402D01*
X179782867Y-70356107D01*
X179795480Y-70377151D01*
X179805970Y-70399329D01*
X179814235Y-70422429D01*
X179820196Y-70446227D01*
X179823796Y-70470496D01*
X179825000Y-70495000D01*
X179825000Y-71745000D01*
X179823796Y-71769504D01*
X179820196Y-71793773D01*
X179814235Y-71817571D01*
X179805970Y-71840671D01*
X179795480Y-71862849D01*
X179782867Y-71883893D01*
X179768253Y-71903598D01*
X179751777Y-71921777D01*
X179733598Y-71938253D01*
X179713893Y-71952867D01*
X179692849Y-71965480D01*
X179670671Y-71975970D01*
X179647571Y-71984235D01*
X179623773Y-71990196D01*
X179599504Y-71993796D01*
X179575000Y-71995000D01*
X178825000Y-71995000D01*
X178800496Y-71993796D01*
X178776227Y-71990196D01*
X178752429Y-71984235D01*
X178729329Y-71975970D01*
X178707151Y-71965480D01*
X178686107Y-71952867D01*
X178666402Y-71938253D01*
X178648223Y-71921777D01*
X178631747Y-71903598D01*
X178617133Y-71883893D01*
X178604520Y-71862849D01*
X178594030Y-71840671D01*
X178585765Y-71817571D01*
X178579804Y-71793773D01*
X178576204Y-71769504D01*
X178575000Y-71745000D01*
X178575000Y-70495000D01*
X178576204Y-70470496D01*
X178579804Y-70446227D01*
X178585765Y-70422429D01*
X178594030Y-70399329D01*
X178604520Y-70377151D01*
X178617133Y-70356107D01*
X178631747Y-70336402D01*
X178648223Y-70318223D01*
X178666402Y-70301747D01*
X178686107Y-70287133D01*
X178707151Y-70274520D01*
X178729329Y-70264030D01*
X178752429Y-70255765D01*
X178776227Y-70249804D01*
X178800496Y-70246204D01*
X178825000Y-70245000D01*
X179575000Y-70245000D01*
X179599504Y-70246204D01*
G37*
G04 #@! TD.AperFunction*
G04 #@! TA.AperFunction,SMDPad,CuDef*
G36*
X184799504Y-58936204D02*
G01*
X184823773Y-58939804D01*
X184847571Y-58945765D01*
X184870671Y-58954030D01*
X184892849Y-58964520D01*
X184913893Y-58977133D01*
X184933598Y-58991747D01*
X184951777Y-59008223D01*
X184968253Y-59026402D01*
X184982867Y-59046107D01*
X184995480Y-59067151D01*
X185005970Y-59089329D01*
X185014235Y-59112429D01*
X185020196Y-59136227D01*
X185023796Y-59160496D01*
X185025000Y-59185000D01*
X185025000Y-59935000D01*
X185023796Y-59959504D01*
X185020196Y-59983773D01*
X185014235Y-60007571D01*
X185005970Y-60030671D01*
X184995480Y-60052849D01*
X184982867Y-60073893D01*
X184968253Y-60093598D01*
X184951777Y-60111777D01*
X184933598Y-60128253D01*
X184913893Y-60142867D01*
X184892849Y-60155480D01*
X184870671Y-60165970D01*
X184847571Y-60174235D01*
X184823773Y-60180196D01*
X184799504Y-60183796D01*
X184775000Y-60185000D01*
X183525000Y-60185000D01*
X183500496Y-60183796D01*
X183476227Y-60180196D01*
X183452429Y-60174235D01*
X183429329Y-60165970D01*
X183407151Y-60155480D01*
X183386107Y-60142867D01*
X183366402Y-60128253D01*
X183348223Y-60111777D01*
X183331747Y-60093598D01*
X183317133Y-60073893D01*
X183304520Y-60052849D01*
X183294030Y-60030671D01*
X183285765Y-60007571D01*
X183279804Y-59983773D01*
X183276204Y-59959504D01*
X183275000Y-59935000D01*
X183275000Y-59185000D01*
X183276204Y-59160496D01*
X183279804Y-59136227D01*
X183285765Y-59112429D01*
X183294030Y-59089329D01*
X183304520Y-59067151D01*
X183317133Y-59046107D01*
X183331747Y-59026402D01*
X183348223Y-59008223D01*
X183366402Y-58991747D01*
X183386107Y-58977133D01*
X183407151Y-58964520D01*
X183429329Y-58954030D01*
X183452429Y-58945765D01*
X183476227Y-58939804D01*
X183500496Y-58936204D01*
X183525000Y-58935000D01*
X184775000Y-58935000D01*
X184799504Y-58936204D01*
G37*
G04 #@! TD.AperFunction*
G04 #@! TA.AperFunction,SMDPad,CuDef*
G36*
X184799504Y-61736204D02*
G01*
X184823773Y-61739804D01*
X184847571Y-61745765D01*
X184870671Y-61754030D01*
X184892849Y-61764520D01*
X184913893Y-61777133D01*
X184933598Y-61791747D01*
X184951777Y-61808223D01*
X184968253Y-61826402D01*
X184982867Y-61846107D01*
X184995480Y-61867151D01*
X185005970Y-61889329D01*
X185014235Y-61912429D01*
X185020196Y-61936227D01*
X185023796Y-61960496D01*
X185025000Y-61985000D01*
X185025000Y-62735000D01*
X185023796Y-62759504D01*
X185020196Y-62783773D01*
X185014235Y-62807571D01*
X185005970Y-62830671D01*
X184995480Y-62852849D01*
X184982867Y-62873893D01*
X184968253Y-62893598D01*
X184951777Y-62911777D01*
X184933598Y-62928253D01*
X184913893Y-62942867D01*
X184892849Y-62955480D01*
X184870671Y-62965970D01*
X184847571Y-62974235D01*
X184823773Y-62980196D01*
X184799504Y-62983796D01*
X184775000Y-62985000D01*
X183525000Y-62985000D01*
X183500496Y-62983796D01*
X183476227Y-62980196D01*
X183452429Y-62974235D01*
X183429329Y-62965970D01*
X183407151Y-62955480D01*
X183386107Y-62942867D01*
X183366402Y-62928253D01*
X183348223Y-62911777D01*
X183331747Y-62893598D01*
X183317133Y-62873893D01*
X183304520Y-62852849D01*
X183294030Y-62830671D01*
X183285765Y-62807571D01*
X183279804Y-62783773D01*
X183276204Y-62759504D01*
X183275000Y-62735000D01*
X183275000Y-61985000D01*
X183276204Y-61960496D01*
X183279804Y-61936227D01*
X183285765Y-61912429D01*
X183294030Y-61889329D01*
X183304520Y-61867151D01*
X183317133Y-61846107D01*
X183331747Y-61826402D01*
X183348223Y-61808223D01*
X183366402Y-61791747D01*
X183386107Y-61777133D01*
X183407151Y-61764520D01*
X183429329Y-61754030D01*
X183452429Y-61745765D01*
X183476227Y-61739804D01*
X183500496Y-61736204D01*
X183525000Y-61735000D01*
X184775000Y-61735000D01*
X184799504Y-61736204D01*
G37*
G04 #@! TD.AperFunction*
G04 #@! TA.AperFunction,SMDPad,CuDef*
G36*
X171979504Y-66436204D02*
G01*
X172003773Y-66439804D01*
X172027571Y-66445765D01*
X172050671Y-66454030D01*
X172072849Y-66464520D01*
X172093893Y-66477133D01*
X172113598Y-66491747D01*
X172131777Y-66508223D01*
X172148253Y-66526402D01*
X172162867Y-66546107D01*
X172175480Y-66567151D01*
X172185970Y-66589329D01*
X172194235Y-66612429D01*
X172200196Y-66636227D01*
X172203796Y-66660496D01*
X172205000Y-66685000D01*
X172205000Y-67935000D01*
X172203796Y-67959504D01*
X172200196Y-67983773D01*
X172194235Y-68007571D01*
X172185970Y-68030671D01*
X172175480Y-68052849D01*
X172162867Y-68073893D01*
X172148253Y-68093598D01*
X172131777Y-68111777D01*
X172113598Y-68128253D01*
X172093893Y-68142867D01*
X172072849Y-68155480D01*
X172050671Y-68165970D01*
X172027571Y-68174235D01*
X172003773Y-68180196D01*
X171979504Y-68183796D01*
X171955000Y-68185000D01*
X171205000Y-68185000D01*
X171180496Y-68183796D01*
X171156227Y-68180196D01*
X171132429Y-68174235D01*
X171109329Y-68165970D01*
X171087151Y-68155480D01*
X171066107Y-68142867D01*
X171046402Y-68128253D01*
X171028223Y-68111777D01*
X171011747Y-68093598D01*
X170997133Y-68073893D01*
X170984520Y-68052849D01*
X170974030Y-68030671D01*
X170965765Y-68007571D01*
X170959804Y-67983773D01*
X170956204Y-67959504D01*
X170955000Y-67935000D01*
X170955000Y-66685000D01*
X170956204Y-66660496D01*
X170959804Y-66636227D01*
X170965765Y-66612429D01*
X170974030Y-66589329D01*
X170984520Y-66567151D01*
X170997133Y-66546107D01*
X171011747Y-66526402D01*
X171028223Y-66508223D01*
X171046402Y-66491747D01*
X171066107Y-66477133D01*
X171087151Y-66464520D01*
X171109329Y-66454030D01*
X171132429Y-66445765D01*
X171156227Y-66439804D01*
X171180496Y-66436204D01*
X171205000Y-66435000D01*
X171955000Y-66435000D01*
X171979504Y-66436204D01*
G37*
G04 #@! TD.AperFunction*
G04 #@! TA.AperFunction,SMDPad,CuDef*
G36*
X169179504Y-66436204D02*
G01*
X169203773Y-66439804D01*
X169227571Y-66445765D01*
X169250671Y-66454030D01*
X169272849Y-66464520D01*
X169293893Y-66477133D01*
X169313598Y-66491747D01*
X169331777Y-66508223D01*
X169348253Y-66526402D01*
X169362867Y-66546107D01*
X169375480Y-66567151D01*
X169385970Y-66589329D01*
X169394235Y-66612429D01*
X169400196Y-66636227D01*
X169403796Y-66660496D01*
X169405000Y-66685000D01*
X169405000Y-67935000D01*
X169403796Y-67959504D01*
X169400196Y-67983773D01*
X169394235Y-68007571D01*
X169385970Y-68030671D01*
X169375480Y-68052849D01*
X169362867Y-68073893D01*
X169348253Y-68093598D01*
X169331777Y-68111777D01*
X169313598Y-68128253D01*
X169293893Y-68142867D01*
X169272849Y-68155480D01*
X169250671Y-68165970D01*
X169227571Y-68174235D01*
X169203773Y-68180196D01*
X169179504Y-68183796D01*
X169155000Y-68185000D01*
X168405000Y-68185000D01*
X168380496Y-68183796D01*
X168356227Y-68180196D01*
X168332429Y-68174235D01*
X168309329Y-68165970D01*
X168287151Y-68155480D01*
X168266107Y-68142867D01*
X168246402Y-68128253D01*
X168228223Y-68111777D01*
X168211747Y-68093598D01*
X168197133Y-68073893D01*
X168184520Y-68052849D01*
X168174030Y-68030671D01*
X168165765Y-68007571D01*
X168159804Y-67983773D01*
X168156204Y-67959504D01*
X168155000Y-67935000D01*
X168155000Y-66685000D01*
X168156204Y-66660496D01*
X168159804Y-66636227D01*
X168165765Y-66612429D01*
X168174030Y-66589329D01*
X168184520Y-66567151D01*
X168197133Y-66546107D01*
X168211747Y-66526402D01*
X168228223Y-66508223D01*
X168246402Y-66491747D01*
X168266107Y-66477133D01*
X168287151Y-66464520D01*
X168309329Y-66454030D01*
X168332429Y-66445765D01*
X168356227Y-66439804D01*
X168380496Y-66436204D01*
X168405000Y-66435000D01*
X169155000Y-66435000D01*
X169179504Y-66436204D01*
G37*
G04 #@! TD.AperFunction*
D16*
X182880000Y-82550000D03*
D15*
X182880000Y-138430000D03*
G04 #@! TA.AperFunction,SMDPad,CuDef*
D21*
G36*
X160669504Y-80786204D02*
G01*
X160693773Y-80789804D01*
X160717571Y-80795765D01*
X160740671Y-80804030D01*
X160762849Y-80814520D01*
X160783893Y-80827133D01*
X160803598Y-80841747D01*
X160821777Y-80858223D01*
X160838253Y-80876402D01*
X160852867Y-80896107D01*
X160865480Y-80917151D01*
X160875970Y-80939329D01*
X160884235Y-80962429D01*
X160890196Y-80986227D01*
X160893796Y-81010496D01*
X160895000Y-81035000D01*
X160895000Y-81785000D01*
X160893796Y-81809504D01*
X160890196Y-81833773D01*
X160884235Y-81857571D01*
X160875970Y-81880671D01*
X160865480Y-81902849D01*
X160852867Y-81923893D01*
X160838253Y-81943598D01*
X160821777Y-81961777D01*
X160803598Y-81978253D01*
X160783893Y-81992867D01*
X160762849Y-82005480D01*
X160740671Y-82015970D01*
X160717571Y-82024235D01*
X160693773Y-82030196D01*
X160669504Y-82033796D01*
X160645000Y-82035000D01*
X159395000Y-82035000D01*
X159370496Y-82033796D01*
X159346227Y-82030196D01*
X159322429Y-82024235D01*
X159299329Y-82015970D01*
X159277151Y-82005480D01*
X159256107Y-81992867D01*
X159236402Y-81978253D01*
X159218223Y-81961777D01*
X159201747Y-81943598D01*
X159187133Y-81923893D01*
X159174520Y-81902849D01*
X159164030Y-81880671D01*
X159155765Y-81857571D01*
X159149804Y-81833773D01*
X159146204Y-81809504D01*
X159145000Y-81785000D01*
X159145000Y-81035000D01*
X159146204Y-81010496D01*
X159149804Y-80986227D01*
X159155765Y-80962429D01*
X159164030Y-80939329D01*
X159174520Y-80917151D01*
X159187133Y-80896107D01*
X159201747Y-80876402D01*
X159218223Y-80858223D01*
X159236402Y-80841747D01*
X159256107Y-80827133D01*
X159277151Y-80814520D01*
X159299329Y-80804030D01*
X159322429Y-80795765D01*
X159346227Y-80789804D01*
X159370496Y-80786204D01*
X159395000Y-80785000D01*
X160645000Y-80785000D01*
X160669504Y-80786204D01*
G37*
G04 #@! TD.AperFunction*
G04 #@! TA.AperFunction,SMDPad,CuDef*
G36*
X160669504Y-77986204D02*
G01*
X160693773Y-77989804D01*
X160717571Y-77995765D01*
X160740671Y-78004030D01*
X160762849Y-78014520D01*
X160783893Y-78027133D01*
X160803598Y-78041747D01*
X160821777Y-78058223D01*
X160838253Y-78076402D01*
X160852867Y-78096107D01*
X160865480Y-78117151D01*
X160875970Y-78139329D01*
X160884235Y-78162429D01*
X160890196Y-78186227D01*
X160893796Y-78210496D01*
X160895000Y-78235000D01*
X160895000Y-78985000D01*
X160893796Y-79009504D01*
X160890196Y-79033773D01*
X160884235Y-79057571D01*
X160875970Y-79080671D01*
X160865480Y-79102849D01*
X160852867Y-79123893D01*
X160838253Y-79143598D01*
X160821777Y-79161777D01*
X160803598Y-79178253D01*
X160783893Y-79192867D01*
X160762849Y-79205480D01*
X160740671Y-79215970D01*
X160717571Y-79224235D01*
X160693773Y-79230196D01*
X160669504Y-79233796D01*
X160645000Y-79235000D01*
X159395000Y-79235000D01*
X159370496Y-79233796D01*
X159346227Y-79230196D01*
X159322429Y-79224235D01*
X159299329Y-79215970D01*
X159277151Y-79205480D01*
X159256107Y-79192867D01*
X159236402Y-79178253D01*
X159218223Y-79161777D01*
X159201747Y-79143598D01*
X159187133Y-79123893D01*
X159174520Y-79102849D01*
X159164030Y-79080671D01*
X159155765Y-79057571D01*
X159149804Y-79033773D01*
X159146204Y-79009504D01*
X159145000Y-78985000D01*
X159145000Y-78235000D01*
X159146204Y-78210496D01*
X159149804Y-78186227D01*
X159155765Y-78162429D01*
X159164030Y-78139329D01*
X159174520Y-78117151D01*
X159187133Y-78096107D01*
X159201747Y-78076402D01*
X159218223Y-78058223D01*
X159236402Y-78041747D01*
X159256107Y-78027133D01*
X159277151Y-78014520D01*
X159299329Y-78004030D01*
X159322429Y-77995765D01*
X159346227Y-77989804D01*
X159370496Y-77986204D01*
X159395000Y-77985000D01*
X160645000Y-77985000D01*
X160669504Y-77986204D01*
G37*
G04 #@! TD.AperFunction*
G04 #@! TA.AperFunction,SMDPad,CuDef*
G36*
X153939504Y-85486204D02*
G01*
X153963773Y-85489804D01*
X153987571Y-85495765D01*
X154010671Y-85504030D01*
X154032849Y-85514520D01*
X154053893Y-85527133D01*
X154073598Y-85541747D01*
X154091777Y-85558223D01*
X154108253Y-85576402D01*
X154122867Y-85596107D01*
X154135480Y-85617151D01*
X154145970Y-85639329D01*
X154154235Y-85662429D01*
X154160196Y-85686227D01*
X154163796Y-85710496D01*
X154165000Y-85735000D01*
X154165000Y-86985000D01*
X154163796Y-87009504D01*
X154160196Y-87033773D01*
X154154235Y-87057571D01*
X154145970Y-87080671D01*
X154135480Y-87102849D01*
X154122867Y-87123893D01*
X154108253Y-87143598D01*
X154091777Y-87161777D01*
X154073598Y-87178253D01*
X154053893Y-87192867D01*
X154032849Y-87205480D01*
X154010671Y-87215970D01*
X153987571Y-87224235D01*
X153963773Y-87230196D01*
X153939504Y-87233796D01*
X153915000Y-87235000D01*
X153165000Y-87235000D01*
X153140496Y-87233796D01*
X153116227Y-87230196D01*
X153092429Y-87224235D01*
X153069329Y-87215970D01*
X153047151Y-87205480D01*
X153026107Y-87192867D01*
X153006402Y-87178253D01*
X152988223Y-87161777D01*
X152971747Y-87143598D01*
X152957133Y-87123893D01*
X152944520Y-87102849D01*
X152934030Y-87080671D01*
X152925765Y-87057571D01*
X152919804Y-87033773D01*
X152916204Y-87009504D01*
X152915000Y-86985000D01*
X152915000Y-85735000D01*
X152916204Y-85710496D01*
X152919804Y-85686227D01*
X152925765Y-85662429D01*
X152934030Y-85639329D01*
X152944520Y-85617151D01*
X152957133Y-85596107D01*
X152971747Y-85576402D01*
X152988223Y-85558223D01*
X153006402Y-85541747D01*
X153026107Y-85527133D01*
X153047151Y-85514520D01*
X153069329Y-85504030D01*
X153092429Y-85495765D01*
X153116227Y-85489804D01*
X153140496Y-85486204D01*
X153165000Y-85485000D01*
X153915000Y-85485000D01*
X153939504Y-85486204D01*
G37*
G04 #@! TD.AperFunction*
G04 #@! TA.AperFunction,SMDPad,CuDef*
G36*
X156739504Y-85486204D02*
G01*
X156763773Y-85489804D01*
X156787571Y-85495765D01*
X156810671Y-85504030D01*
X156832849Y-85514520D01*
X156853893Y-85527133D01*
X156873598Y-85541747D01*
X156891777Y-85558223D01*
X156908253Y-85576402D01*
X156922867Y-85596107D01*
X156935480Y-85617151D01*
X156945970Y-85639329D01*
X156954235Y-85662429D01*
X156960196Y-85686227D01*
X156963796Y-85710496D01*
X156965000Y-85735000D01*
X156965000Y-86985000D01*
X156963796Y-87009504D01*
X156960196Y-87033773D01*
X156954235Y-87057571D01*
X156945970Y-87080671D01*
X156935480Y-87102849D01*
X156922867Y-87123893D01*
X156908253Y-87143598D01*
X156891777Y-87161777D01*
X156873598Y-87178253D01*
X156853893Y-87192867D01*
X156832849Y-87205480D01*
X156810671Y-87215970D01*
X156787571Y-87224235D01*
X156763773Y-87230196D01*
X156739504Y-87233796D01*
X156715000Y-87235000D01*
X155965000Y-87235000D01*
X155940496Y-87233796D01*
X155916227Y-87230196D01*
X155892429Y-87224235D01*
X155869329Y-87215970D01*
X155847151Y-87205480D01*
X155826107Y-87192867D01*
X155806402Y-87178253D01*
X155788223Y-87161777D01*
X155771747Y-87143598D01*
X155757133Y-87123893D01*
X155744520Y-87102849D01*
X155734030Y-87080671D01*
X155725765Y-87057571D01*
X155719804Y-87033773D01*
X155716204Y-87009504D01*
X155715000Y-86985000D01*
X155715000Y-85735000D01*
X155716204Y-85710496D01*
X155719804Y-85686227D01*
X155725765Y-85662429D01*
X155734030Y-85639329D01*
X155744520Y-85617151D01*
X155757133Y-85596107D01*
X155771747Y-85576402D01*
X155788223Y-85558223D01*
X155806402Y-85541747D01*
X155826107Y-85527133D01*
X155847151Y-85514520D01*
X155869329Y-85504030D01*
X155892429Y-85495765D01*
X155916227Y-85489804D01*
X155940496Y-85486204D01*
X155965000Y-85485000D01*
X156715000Y-85485000D01*
X156739504Y-85486204D01*
G37*
G04 #@! TD.AperFunction*
G04 #@! TA.AperFunction,SMDPad,CuDef*
G36*
X153939504Y-81676204D02*
G01*
X153963773Y-81679804D01*
X153987571Y-81685765D01*
X154010671Y-81694030D01*
X154032849Y-81704520D01*
X154053893Y-81717133D01*
X154073598Y-81731747D01*
X154091777Y-81748223D01*
X154108253Y-81766402D01*
X154122867Y-81786107D01*
X154135480Y-81807151D01*
X154145970Y-81829329D01*
X154154235Y-81852429D01*
X154160196Y-81876227D01*
X154163796Y-81900496D01*
X154165000Y-81925000D01*
X154165000Y-83175000D01*
X154163796Y-83199504D01*
X154160196Y-83223773D01*
X154154235Y-83247571D01*
X154145970Y-83270671D01*
X154135480Y-83292849D01*
X154122867Y-83313893D01*
X154108253Y-83333598D01*
X154091777Y-83351777D01*
X154073598Y-83368253D01*
X154053893Y-83382867D01*
X154032849Y-83395480D01*
X154010671Y-83405970D01*
X153987571Y-83414235D01*
X153963773Y-83420196D01*
X153939504Y-83423796D01*
X153915000Y-83425000D01*
X153165000Y-83425000D01*
X153140496Y-83423796D01*
X153116227Y-83420196D01*
X153092429Y-83414235D01*
X153069329Y-83405970D01*
X153047151Y-83395480D01*
X153026107Y-83382867D01*
X153006402Y-83368253D01*
X152988223Y-83351777D01*
X152971747Y-83333598D01*
X152957133Y-83313893D01*
X152944520Y-83292849D01*
X152934030Y-83270671D01*
X152925765Y-83247571D01*
X152919804Y-83223773D01*
X152916204Y-83199504D01*
X152915000Y-83175000D01*
X152915000Y-81925000D01*
X152916204Y-81900496D01*
X152919804Y-81876227D01*
X152925765Y-81852429D01*
X152934030Y-81829329D01*
X152944520Y-81807151D01*
X152957133Y-81786107D01*
X152971747Y-81766402D01*
X152988223Y-81748223D01*
X153006402Y-81731747D01*
X153026107Y-81717133D01*
X153047151Y-81704520D01*
X153069329Y-81694030D01*
X153092429Y-81685765D01*
X153116227Y-81679804D01*
X153140496Y-81676204D01*
X153165000Y-81675000D01*
X153915000Y-81675000D01*
X153939504Y-81676204D01*
G37*
G04 #@! TD.AperFunction*
G04 #@! TA.AperFunction,SMDPad,CuDef*
G36*
X156739504Y-81676204D02*
G01*
X156763773Y-81679804D01*
X156787571Y-81685765D01*
X156810671Y-81694030D01*
X156832849Y-81704520D01*
X156853893Y-81717133D01*
X156873598Y-81731747D01*
X156891777Y-81748223D01*
X156908253Y-81766402D01*
X156922867Y-81786107D01*
X156935480Y-81807151D01*
X156945970Y-81829329D01*
X156954235Y-81852429D01*
X156960196Y-81876227D01*
X156963796Y-81900496D01*
X156965000Y-81925000D01*
X156965000Y-83175000D01*
X156963796Y-83199504D01*
X156960196Y-83223773D01*
X156954235Y-83247571D01*
X156945970Y-83270671D01*
X156935480Y-83292849D01*
X156922867Y-83313893D01*
X156908253Y-83333598D01*
X156891777Y-83351777D01*
X156873598Y-83368253D01*
X156853893Y-83382867D01*
X156832849Y-83395480D01*
X156810671Y-83405970D01*
X156787571Y-83414235D01*
X156763773Y-83420196D01*
X156739504Y-83423796D01*
X156715000Y-83425000D01*
X155965000Y-83425000D01*
X155940496Y-83423796D01*
X155916227Y-83420196D01*
X155892429Y-83414235D01*
X155869329Y-83405970D01*
X155847151Y-83395480D01*
X155826107Y-83382867D01*
X155806402Y-83368253D01*
X155788223Y-83351777D01*
X155771747Y-83333598D01*
X155757133Y-83313893D01*
X155744520Y-83292849D01*
X155734030Y-83270671D01*
X155725765Y-83247571D01*
X155719804Y-83223773D01*
X155716204Y-83199504D01*
X155715000Y-83175000D01*
X155715000Y-81925000D01*
X155716204Y-81900496D01*
X155719804Y-81876227D01*
X155725765Y-81852429D01*
X155734030Y-81829329D01*
X155744520Y-81807151D01*
X155757133Y-81786107D01*
X155771747Y-81766402D01*
X155788223Y-81748223D01*
X155806402Y-81731747D01*
X155826107Y-81717133D01*
X155847151Y-81704520D01*
X155869329Y-81694030D01*
X155892429Y-81685765D01*
X155916227Y-81679804D01*
X155940496Y-81676204D01*
X155965000Y-81675000D01*
X156715000Y-81675000D01*
X156739504Y-81676204D01*
G37*
G04 #@! TD.AperFunction*
G04 #@! TA.AperFunction,SMDPad,CuDef*
G36*
X155589504Y-109996204D02*
G01*
X155613773Y-109999804D01*
X155637571Y-110005765D01*
X155660671Y-110014030D01*
X155682849Y-110024520D01*
X155703893Y-110037133D01*
X155723598Y-110051747D01*
X155741777Y-110068223D01*
X155758253Y-110086402D01*
X155772867Y-110106107D01*
X155785480Y-110127151D01*
X155795970Y-110149329D01*
X155804235Y-110172429D01*
X155810196Y-110196227D01*
X155813796Y-110220496D01*
X155815000Y-110245000D01*
X155815000Y-110995000D01*
X155813796Y-111019504D01*
X155810196Y-111043773D01*
X155804235Y-111067571D01*
X155795970Y-111090671D01*
X155785480Y-111112849D01*
X155772867Y-111133893D01*
X155758253Y-111153598D01*
X155741777Y-111171777D01*
X155723598Y-111188253D01*
X155703893Y-111202867D01*
X155682849Y-111215480D01*
X155660671Y-111225970D01*
X155637571Y-111234235D01*
X155613773Y-111240196D01*
X155589504Y-111243796D01*
X155565000Y-111245000D01*
X154315000Y-111245000D01*
X154290496Y-111243796D01*
X154266227Y-111240196D01*
X154242429Y-111234235D01*
X154219329Y-111225970D01*
X154197151Y-111215480D01*
X154176107Y-111202867D01*
X154156402Y-111188253D01*
X154138223Y-111171777D01*
X154121747Y-111153598D01*
X154107133Y-111133893D01*
X154094520Y-111112849D01*
X154084030Y-111090671D01*
X154075765Y-111067571D01*
X154069804Y-111043773D01*
X154066204Y-111019504D01*
X154065000Y-110995000D01*
X154065000Y-110245000D01*
X154066204Y-110220496D01*
X154069804Y-110196227D01*
X154075765Y-110172429D01*
X154084030Y-110149329D01*
X154094520Y-110127151D01*
X154107133Y-110106107D01*
X154121747Y-110086402D01*
X154138223Y-110068223D01*
X154156402Y-110051747D01*
X154176107Y-110037133D01*
X154197151Y-110024520D01*
X154219329Y-110014030D01*
X154242429Y-110005765D01*
X154266227Y-109999804D01*
X154290496Y-109996204D01*
X154315000Y-109995000D01*
X155565000Y-109995000D01*
X155589504Y-109996204D01*
G37*
G04 #@! TD.AperFunction*
G04 #@! TA.AperFunction,SMDPad,CuDef*
G36*
X155589504Y-107196204D02*
G01*
X155613773Y-107199804D01*
X155637571Y-107205765D01*
X155660671Y-107214030D01*
X155682849Y-107224520D01*
X155703893Y-107237133D01*
X155723598Y-107251747D01*
X155741777Y-107268223D01*
X155758253Y-107286402D01*
X155772867Y-107306107D01*
X155785480Y-107327151D01*
X155795970Y-107349329D01*
X155804235Y-107372429D01*
X155810196Y-107396227D01*
X155813796Y-107420496D01*
X155815000Y-107445000D01*
X155815000Y-108195000D01*
X155813796Y-108219504D01*
X155810196Y-108243773D01*
X155804235Y-108267571D01*
X155795970Y-108290671D01*
X155785480Y-108312849D01*
X155772867Y-108333893D01*
X155758253Y-108353598D01*
X155741777Y-108371777D01*
X155723598Y-108388253D01*
X155703893Y-108402867D01*
X155682849Y-108415480D01*
X155660671Y-108425970D01*
X155637571Y-108434235D01*
X155613773Y-108440196D01*
X155589504Y-108443796D01*
X155565000Y-108445000D01*
X154315000Y-108445000D01*
X154290496Y-108443796D01*
X154266227Y-108440196D01*
X154242429Y-108434235D01*
X154219329Y-108425970D01*
X154197151Y-108415480D01*
X154176107Y-108402867D01*
X154156402Y-108388253D01*
X154138223Y-108371777D01*
X154121747Y-108353598D01*
X154107133Y-108333893D01*
X154094520Y-108312849D01*
X154084030Y-108290671D01*
X154075765Y-108267571D01*
X154069804Y-108243773D01*
X154066204Y-108219504D01*
X154065000Y-108195000D01*
X154065000Y-107445000D01*
X154066204Y-107420496D01*
X154069804Y-107396227D01*
X154075765Y-107372429D01*
X154084030Y-107349329D01*
X154094520Y-107327151D01*
X154107133Y-107306107D01*
X154121747Y-107286402D01*
X154138223Y-107268223D01*
X154156402Y-107251747D01*
X154176107Y-107237133D01*
X154197151Y-107224520D01*
X154219329Y-107214030D01*
X154242429Y-107205765D01*
X154266227Y-107199804D01*
X154290496Y-107196204D01*
X154315000Y-107195000D01*
X155565000Y-107195000D01*
X155589504Y-107196204D01*
G37*
G04 #@! TD.AperFunction*
G04 #@! TA.AperFunction,SMDPad,CuDef*
G36*
X163209504Y-109996204D02*
G01*
X163233773Y-109999804D01*
X163257571Y-110005765D01*
X163280671Y-110014030D01*
X163302849Y-110024520D01*
X163323893Y-110037133D01*
X163343598Y-110051747D01*
X163361777Y-110068223D01*
X163378253Y-110086402D01*
X163392867Y-110106107D01*
X163405480Y-110127151D01*
X163415970Y-110149329D01*
X163424235Y-110172429D01*
X163430196Y-110196227D01*
X163433796Y-110220496D01*
X163435000Y-110245000D01*
X163435000Y-110995000D01*
X163433796Y-111019504D01*
X163430196Y-111043773D01*
X163424235Y-111067571D01*
X163415970Y-111090671D01*
X163405480Y-111112849D01*
X163392867Y-111133893D01*
X163378253Y-111153598D01*
X163361777Y-111171777D01*
X163343598Y-111188253D01*
X163323893Y-111202867D01*
X163302849Y-111215480D01*
X163280671Y-111225970D01*
X163257571Y-111234235D01*
X163233773Y-111240196D01*
X163209504Y-111243796D01*
X163185000Y-111245000D01*
X161935000Y-111245000D01*
X161910496Y-111243796D01*
X161886227Y-111240196D01*
X161862429Y-111234235D01*
X161839329Y-111225970D01*
X161817151Y-111215480D01*
X161796107Y-111202867D01*
X161776402Y-111188253D01*
X161758223Y-111171777D01*
X161741747Y-111153598D01*
X161727133Y-111133893D01*
X161714520Y-111112849D01*
X161704030Y-111090671D01*
X161695765Y-111067571D01*
X161689804Y-111043773D01*
X161686204Y-111019504D01*
X161685000Y-110995000D01*
X161685000Y-110245000D01*
X161686204Y-110220496D01*
X161689804Y-110196227D01*
X161695765Y-110172429D01*
X161704030Y-110149329D01*
X161714520Y-110127151D01*
X161727133Y-110106107D01*
X161741747Y-110086402D01*
X161758223Y-110068223D01*
X161776402Y-110051747D01*
X161796107Y-110037133D01*
X161817151Y-110024520D01*
X161839329Y-110014030D01*
X161862429Y-110005765D01*
X161886227Y-109999804D01*
X161910496Y-109996204D01*
X161935000Y-109995000D01*
X163185000Y-109995000D01*
X163209504Y-109996204D01*
G37*
G04 #@! TD.AperFunction*
G04 #@! TA.AperFunction,SMDPad,CuDef*
G36*
X163209504Y-107196204D02*
G01*
X163233773Y-107199804D01*
X163257571Y-107205765D01*
X163280671Y-107214030D01*
X163302849Y-107224520D01*
X163323893Y-107237133D01*
X163343598Y-107251747D01*
X163361777Y-107268223D01*
X163378253Y-107286402D01*
X163392867Y-107306107D01*
X163405480Y-107327151D01*
X163415970Y-107349329D01*
X163424235Y-107372429D01*
X163430196Y-107396227D01*
X163433796Y-107420496D01*
X163435000Y-107445000D01*
X163435000Y-108195000D01*
X163433796Y-108219504D01*
X163430196Y-108243773D01*
X163424235Y-108267571D01*
X163415970Y-108290671D01*
X163405480Y-108312849D01*
X163392867Y-108333893D01*
X163378253Y-108353598D01*
X163361777Y-108371777D01*
X163343598Y-108388253D01*
X163323893Y-108402867D01*
X163302849Y-108415480D01*
X163280671Y-108425970D01*
X163257571Y-108434235D01*
X163233773Y-108440196D01*
X163209504Y-108443796D01*
X163185000Y-108445000D01*
X161935000Y-108445000D01*
X161910496Y-108443796D01*
X161886227Y-108440196D01*
X161862429Y-108434235D01*
X161839329Y-108425970D01*
X161817151Y-108415480D01*
X161796107Y-108402867D01*
X161776402Y-108388253D01*
X161758223Y-108371777D01*
X161741747Y-108353598D01*
X161727133Y-108333893D01*
X161714520Y-108312849D01*
X161704030Y-108290671D01*
X161695765Y-108267571D01*
X161689804Y-108243773D01*
X161686204Y-108219504D01*
X161685000Y-108195000D01*
X161685000Y-107445000D01*
X161686204Y-107420496D01*
X161689804Y-107396227D01*
X161695765Y-107372429D01*
X161704030Y-107349329D01*
X161714520Y-107327151D01*
X161727133Y-107306107D01*
X161741747Y-107286402D01*
X161758223Y-107268223D01*
X161776402Y-107251747D01*
X161796107Y-107237133D01*
X161817151Y-107224520D01*
X161839329Y-107214030D01*
X161862429Y-107205765D01*
X161886227Y-107199804D01*
X161910496Y-107196204D01*
X161935000Y-107195000D01*
X163185000Y-107195000D01*
X163209504Y-107196204D01*
G37*
G04 #@! TD.AperFunction*
G04 #@! TA.AperFunction,SMDPad,CuDef*
G36*
X182259504Y-56396204D02*
G01*
X182283773Y-56399804D01*
X182307571Y-56405765D01*
X182330671Y-56414030D01*
X182352849Y-56424520D01*
X182373893Y-56437133D01*
X182393598Y-56451747D01*
X182411777Y-56468223D01*
X182428253Y-56486402D01*
X182442867Y-56506107D01*
X182455480Y-56527151D01*
X182465970Y-56549329D01*
X182474235Y-56572429D01*
X182480196Y-56596227D01*
X182483796Y-56620496D01*
X182485000Y-56645000D01*
X182485000Y-57395000D01*
X182483796Y-57419504D01*
X182480196Y-57443773D01*
X182474235Y-57467571D01*
X182465970Y-57490671D01*
X182455480Y-57512849D01*
X182442867Y-57533893D01*
X182428253Y-57553598D01*
X182411777Y-57571777D01*
X182393598Y-57588253D01*
X182373893Y-57602867D01*
X182352849Y-57615480D01*
X182330671Y-57625970D01*
X182307571Y-57634235D01*
X182283773Y-57640196D01*
X182259504Y-57643796D01*
X182235000Y-57645000D01*
X180985000Y-57645000D01*
X180960496Y-57643796D01*
X180936227Y-57640196D01*
X180912429Y-57634235D01*
X180889329Y-57625970D01*
X180867151Y-57615480D01*
X180846107Y-57602867D01*
X180826402Y-57588253D01*
X180808223Y-57571777D01*
X180791747Y-57553598D01*
X180777133Y-57533893D01*
X180764520Y-57512849D01*
X180754030Y-57490671D01*
X180745765Y-57467571D01*
X180739804Y-57443773D01*
X180736204Y-57419504D01*
X180735000Y-57395000D01*
X180735000Y-56645000D01*
X180736204Y-56620496D01*
X180739804Y-56596227D01*
X180745765Y-56572429D01*
X180754030Y-56549329D01*
X180764520Y-56527151D01*
X180777133Y-56506107D01*
X180791747Y-56486402D01*
X180808223Y-56468223D01*
X180826402Y-56451747D01*
X180846107Y-56437133D01*
X180867151Y-56424520D01*
X180889329Y-56414030D01*
X180912429Y-56405765D01*
X180936227Y-56399804D01*
X180960496Y-56396204D01*
X180985000Y-56395000D01*
X182235000Y-56395000D01*
X182259504Y-56396204D01*
G37*
G04 #@! TD.AperFunction*
G04 #@! TA.AperFunction,SMDPad,CuDef*
G36*
X182259504Y-59196204D02*
G01*
X182283773Y-59199804D01*
X182307571Y-59205765D01*
X182330671Y-59214030D01*
X182352849Y-59224520D01*
X182373893Y-59237133D01*
X182393598Y-59251747D01*
X182411777Y-59268223D01*
X182428253Y-59286402D01*
X182442867Y-59306107D01*
X182455480Y-59327151D01*
X182465970Y-59349329D01*
X182474235Y-59372429D01*
X182480196Y-59396227D01*
X182483796Y-59420496D01*
X182485000Y-59445000D01*
X182485000Y-60195000D01*
X182483796Y-60219504D01*
X182480196Y-60243773D01*
X182474235Y-60267571D01*
X182465970Y-60290671D01*
X182455480Y-60312849D01*
X182442867Y-60333893D01*
X182428253Y-60353598D01*
X182411777Y-60371777D01*
X182393598Y-60388253D01*
X182373893Y-60402867D01*
X182352849Y-60415480D01*
X182330671Y-60425970D01*
X182307571Y-60434235D01*
X182283773Y-60440196D01*
X182259504Y-60443796D01*
X182235000Y-60445000D01*
X180985000Y-60445000D01*
X180960496Y-60443796D01*
X180936227Y-60440196D01*
X180912429Y-60434235D01*
X180889329Y-60425970D01*
X180867151Y-60415480D01*
X180846107Y-60402867D01*
X180826402Y-60388253D01*
X180808223Y-60371777D01*
X180791747Y-60353598D01*
X180777133Y-60333893D01*
X180764520Y-60312849D01*
X180754030Y-60290671D01*
X180745765Y-60267571D01*
X180739804Y-60243773D01*
X180736204Y-60219504D01*
X180735000Y-60195000D01*
X180735000Y-59445000D01*
X180736204Y-59420496D01*
X180739804Y-59396227D01*
X180745765Y-59372429D01*
X180754030Y-59349329D01*
X180764520Y-59327151D01*
X180777133Y-59306107D01*
X180791747Y-59286402D01*
X180808223Y-59268223D01*
X180826402Y-59251747D01*
X180846107Y-59237133D01*
X180867151Y-59224520D01*
X180889329Y-59214030D01*
X180912429Y-59205765D01*
X180936227Y-59199804D01*
X180960496Y-59196204D01*
X180985000Y-59195000D01*
X182235000Y-59195000D01*
X182259504Y-59196204D01*
G37*
G04 #@! TD.AperFunction*
G04 #@! TA.AperFunction,SMDPad,CuDef*
G36*
X171979504Y-61991204D02*
G01*
X172003773Y-61994804D01*
X172027571Y-62000765D01*
X172050671Y-62009030D01*
X172072849Y-62019520D01*
X172093893Y-62032133D01*
X172113598Y-62046747D01*
X172131777Y-62063223D01*
X172148253Y-62081402D01*
X172162867Y-62101107D01*
X172175480Y-62122151D01*
X172185970Y-62144329D01*
X172194235Y-62167429D01*
X172200196Y-62191227D01*
X172203796Y-62215496D01*
X172205000Y-62240000D01*
X172205000Y-63490000D01*
X172203796Y-63514504D01*
X172200196Y-63538773D01*
X172194235Y-63562571D01*
X172185970Y-63585671D01*
X172175480Y-63607849D01*
X172162867Y-63628893D01*
X172148253Y-63648598D01*
X172131777Y-63666777D01*
X172113598Y-63683253D01*
X172093893Y-63697867D01*
X172072849Y-63710480D01*
X172050671Y-63720970D01*
X172027571Y-63729235D01*
X172003773Y-63735196D01*
X171979504Y-63738796D01*
X171955000Y-63740000D01*
X171205000Y-63740000D01*
X171180496Y-63738796D01*
X171156227Y-63735196D01*
X171132429Y-63729235D01*
X171109329Y-63720970D01*
X171087151Y-63710480D01*
X171066107Y-63697867D01*
X171046402Y-63683253D01*
X171028223Y-63666777D01*
X171011747Y-63648598D01*
X170997133Y-63628893D01*
X170984520Y-63607849D01*
X170974030Y-63585671D01*
X170965765Y-63562571D01*
X170959804Y-63538773D01*
X170956204Y-63514504D01*
X170955000Y-63490000D01*
X170955000Y-62240000D01*
X170956204Y-62215496D01*
X170959804Y-62191227D01*
X170965765Y-62167429D01*
X170974030Y-62144329D01*
X170984520Y-62122151D01*
X170997133Y-62101107D01*
X171011747Y-62081402D01*
X171028223Y-62063223D01*
X171046402Y-62046747D01*
X171066107Y-62032133D01*
X171087151Y-62019520D01*
X171109329Y-62009030D01*
X171132429Y-62000765D01*
X171156227Y-61994804D01*
X171180496Y-61991204D01*
X171205000Y-61990000D01*
X171955000Y-61990000D01*
X171979504Y-61991204D01*
G37*
G04 #@! TD.AperFunction*
G04 #@! TA.AperFunction,SMDPad,CuDef*
G36*
X169179504Y-61991204D02*
G01*
X169203773Y-61994804D01*
X169227571Y-62000765D01*
X169250671Y-62009030D01*
X169272849Y-62019520D01*
X169293893Y-62032133D01*
X169313598Y-62046747D01*
X169331777Y-62063223D01*
X169348253Y-62081402D01*
X169362867Y-62101107D01*
X169375480Y-62122151D01*
X169385970Y-62144329D01*
X169394235Y-62167429D01*
X169400196Y-62191227D01*
X169403796Y-62215496D01*
X169405000Y-62240000D01*
X169405000Y-63490000D01*
X169403796Y-63514504D01*
X169400196Y-63538773D01*
X169394235Y-63562571D01*
X169385970Y-63585671D01*
X169375480Y-63607849D01*
X169362867Y-63628893D01*
X169348253Y-63648598D01*
X169331777Y-63666777D01*
X169313598Y-63683253D01*
X169293893Y-63697867D01*
X169272849Y-63710480D01*
X169250671Y-63720970D01*
X169227571Y-63729235D01*
X169203773Y-63735196D01*
X169179504Y-63738796D01*
X169155000Y-63740000D01*
X168405000Y-63740000D01*
X168380496Y-63738796D01*
X168356227Y-63735196D01*
X168332429Y-63729235D01*
X168309329Y-63720970D01*
X168287151Y-63710480D01*
X168266107Y-63697867D01*
X168246402Y-63683253D01*
X168228223Y-63666777D01*
X168211747Y-63648598D01*
X168197133Y-63628893D01*
X168184520Y-63607849D01*
X168174030Y-63585671D01*
X168165765Y-63562571D01*
X168159804Y-63538773D01*
X168156204Y-63514504D01*
X168155000Y-63490000D01*
X168155000Y-62240000D01*
X168156204Y-62215496D01*
X168159804Y-62191227D01*
X168165765Y-62167429D01*
X168174030Y-62144329D01*
X168184520Y-62122151D01*
X168197133Y-62101107D01*
X168211747Y-62081402D01*
X168228223Y-62063223D01*
X168246402Y-62046747D01*
X168266107Y-62032133D01*
X168287151Y-62019520D01*
X168309329Y-62009030D01*
X168332429Y-62000765D01*
X168356227Y-61994804D01*
X168380496Y-61991204D01*
X168405000Y-61990000D01*
X169155000Y-61990000D01*
X169179504Y-61991204D01*
G37*
G04 #@! TD.AperFunction*
G04 #@! TA.AperFunction,SMDPad,CuDef*
G36*
X155469504Y-65166204D02*
G01*
X155493773Y-65169804D01*
X155517571Y-65175765D01*
X155540671Y-65184030D01*
X155562849Y-65194520D01*
X155583893Y-65207133D01*
X155603598Y-65221747D01*
X155621777Y-65238223D01*
X155638253Y-65256402D01*
X155652867Y-65276107D01*
X155665480Y-65297151D01*
X155675970Y-65319329D01*
X155684235Y-65342429D01*
X155690196Y-65366227D01*
X155693796Y-65390496D01*
X155695000Y-65415000D01*
X155695000Y-66665000D01*
X155693796Y-66689504D01*
X155690196Y-66713773D01*
X155684235Y-66737571D01*
X155675970Y-66760671D01*
X155665480Y-66782849D01*
X155652867Y-66803893D01*
X155638253Y-66823598D01*
X155621777Y-66841777D01*
X155603598Y-66858253D01*
X155583893Y-66872867D01*
X155562849Y-66885480D01*
X155540671Y-66895970D01*
X155517571Y-66904235D01*
X155493773Y-66910196D01*
X155469504Y-66913796D01*
X155445000Y-66915000D01*
X154695000Y-66915000D01*
X154670496Y-66913796D01*
X154646227Y-66910196D01*
X154622429Y-66904235D01*
X154599329Y-66895970D01*
X154577151Y-66885480D01*
X154556107Y-66872867D01*
X154536402Y-66858253D01*
X154518223Y-66841777D01*
X154501747Y-66823598D01*
X154487133Y-66803893D01*
X154474520Y-66782849D01*
X154464030Y-66760671D01*
X154455765Y-66737571D01*
X154449804Y-66713773D01*
X154446204Y-66689504D01*
X154445000Y-66665000D01*
X154445000Y-65415000D01*
X154446204Y-65390496D01*
X154449804Y-65366227D01*
X154455765Y-65342429D01*
X154464030Y-65319329D01*
X154474520Y-65297151D01*
X154487133Y-65276107D01*
X154501747Y-65256402D01*
X154518223Y-65238223D01*
X154536402Y-65221747D01*
X154556107Y-65207133D01*
X154577151Y-65194520D01*
X154599329Y-65184030D01*
X154622429Y-65175765D01*
X154646227Y-65169804D01*
X154670496Y-65166204D01*
X154695000Y-65165000D01*
X155445000Y-65165000D01*
X155469504Y-65166204D01*
G37*
G04 #@! TD.AperFunction*
G04 #@! TA.AperFunction,SMDPad,CuDef*
G36*
X152669504Y-65166204D02*
G01*
X152693773Y-65169804D01*
X152717571Y-65175765D01*
X152740671Y-65184030D01*
X152762849Y-65194520D01*
X152783893Y-65207133D01*
X152803598Y-65221747D01*
X152821777Y-65238223D01*
X152838253Y-65256402D01*
X152852867Y-65276107D01*
X152865480Y-65297151D01*
X152875970Y-65319329D01*
X152884235Y-65342429D01*
X152890196Y-65366227D01*
X152893796Y-65390496D01*
X152895000Y-65415000D01*
X152895000Y-66665000D01*
X152893796Y-66689504D01*
X152890196Y-66713773D01*
X152884235Y-66737571D01*
X152875970Y-66760671D01*
X152865480Y-66782849D01*
X152852867Y-66803893D01*
X152838253Y-66823598D01*
X152821777Y-66841777D01*
X152803598Y-66858253D01*
X152783893Y-66872867D01*
X152762849Y-66885480D01*
X152740671Y-66895970D01*
X152717571Y-66904235D01*
X152693773Y-66910196D01*
X152669504Y-66913796D01*
X152645000Y-66915000D01*
X151895000Y-66915000D01*
X151870496Y-66913796D01*
X151846227Y-66910196D01*
X151822429Y-66904235D01*
X151799329Y-66895970D01*
X151777151Y-66885480D01*
X151756107Y-66872867D01*
X151736402Y-66858253D01*
X151718223Y-66841777D01*
X151701747Y-66823598D01*
X151687133Y-66803893D01*
X151674520Y-66782849D01*
X151664030Y-66760671D01*
X151655765Y-66737571D01*
X151649804Y-66713773D01*
X151646204Y-66689504D01*
X151645000Y-66665000D01*
X151645000Y-65415000D01*
X151646204Y-65390496D01*
X151649804Y-65366227D01*
X151655765Y-65342429D01*
X151664030Y-65319329D01*
X151674520Y-65297151D01*
X151687133Y-65276107D01*
X151701747Y-65256402D01*
X151718223Y-65238223D01*
X151736402Y-65221747D01*
X151756107Y-65207133D01*
X151777151Y-65194520D01*
X151799329Y-65184030D01*
X151822429Y-65175765D01*
X151846227Y-65169804D01*
X151870496Y-65166204D01*
X151895000Y-65165000D01*
X152645000Y-65165000D01*
X152669504Y-65166204D01*
G37*
G04 #@! TD.AperFunction*
G04 #@! TA.AperFunction,SMDPad,CuDef*
G36*
X162829504Y-56276204D02*
G01*
X162853773Y-56279804D01*
X162877571Y-56285765D01*
X162900671Y-56294030D01*
X162922849Y-56304520D01*
X162943893Y-56317133D01*
X162963598Y-56331747D01*
X162981777Y-56348223D01*
X162998253Y-56366402D01*
X163012867Y-56386107D01*
X163025480Y-56407151D01*
X163035970Y-56429329D01*
X163044235Y-56452429D01*
X163050196Y-56476227D01*
X163053796Y-56500496D01*
X163055000Y-56525000D01*
X163055000Y-57775000D01*
X163053796Y-57799504D01*
X163050196Y-57823773D01*
X163044235Y-57847571D01*
X163035970Y-57870671D01*
X163025480Y-57892849D01*
X163012867Y-57913893D01*
X162998253Y-57933598D01*
X162981777Y-57951777D01*
X162963598Y-57968253D01*
X162943893Y-57982867D01*
X162922849Y-57995480D01*
X162900671Y-58005970D01*
X162877571Y-58014235D01*
X162853773Y-58020196D01*
X162829504Y-58023796D01*
X162805000Y-58025000D01*
X162055000Y-58025000D01*
X162030496Y-58023796D01*
X162006227Y-58020196D01*
X161982429Y-58014235D01*
X161959329Y-58005970D01*
X161937151Y-57995480D01*
X161916107Y-57982867D01*
X161896402Y-57968253D01*
X161878223Y-57951777D01*
X161861747Y-57933598D01*
X161847133Y-57913893D01*
X161834520Y-57892849D01*
X161824030Y-57870671D01*
X161815765Y-57847571D01*
X161809804Y-57823773D01*
X161806204Y-57799504D01*
X161805000Y-57775000D01*
X161805000Y-56525000D01*
X161806204Y-56500496D01*
X161809804Y-56476227D01*
X161815765Y-56452429D01*
X161824030Y-56429329D01*
X161834520Y-56407151D01*
X161847133Y-56386107D01*
X161861747Y-56366402D01*
X161878223Y-56348223D01*
X161896402Y-56331747D01*
X161916107Y-56317133D01*
X161937151Y-56304520D01*
X161959329Y-56294030D01*
X161982429Y-56285765D01*
X162006227Y-56279804D01*
X162030496Y-56276204D01*
X162055000Y-56275000D01*
X162805000Y-56275000D01*
X162829504Y-56276204D01*
G37*
G04 #@! TD.AperFunction*
G04 #@! TA.AperFunction,SMDPad,CuDef*
G36*
X165629504Y-56276204D02*
G01*
X165653773Y-56279804D01*
X165677571Y-56285765D01*
X165700671Y-56294030D01*
X165722849Y-56304520D01*
X165743893Y-56317133D01*
X165763598Y-56331747D01*
X165781777Y-56348223D01*
X165798253Y-56366402D01*
X165812867Y-56386107D01*
X165825480Y-56407151D01*
X165835970Y-56429329D01*
X165844235Y-56452429D01*
X165850196Y-56476227D01*
X165853796Y-56500496D01*
X165855000Y-56525000D01*
X165855000Y-57775000D01*
X165853796Y-57799504D01*
X165850196Y-57823773D01*
X165844235Y-57847571D01*
X165835970Y-57870671D01*
X165825480Y-57892849D01*
X165812867Y-57913893D01*
X165798253Y-57933598D01*
X165781777Y-57951777D01*
X165763598Y-57968253D01*
X165743893Y-57982867D01*
X165722849Y-57995480D01*
X165700671Y-58005970D01*
X165677571Y-58014235D01*
X165653773Y-58020196D01*
X165629504Y-58023796D01*
X165605000Y-58025000D01*
X164855000Y-58025000D01*
X164830496Y-58023796D01*
X164806227Y-58020196D01*
X164782429Y-58014235D01*
X164759329Y-58005970D01*
X164737151Y-57995480D01*
X164716107Y-57982867D01*
X164696402Y-57968253D01*
X164678223Y-57951777D01*
X164661747Y-57933598D01*
X164647133Y-57913893D01*
X164634520Y-57892849D01*
X164624030Y-57870671D01*
X164615765Y-57847571D01*
X164609804Y-57823773D01*
X164606204Y-57799504D01*
X164605000Y-57775000D01*
X164605000Y-56525000D01*
X164606204Y-56500496D01*
X164609804Y-56476227D01*
X164615765Y-56452429D01*
X164624030Y-56429329D01*
X164634520Y-56407151D01*
X164647133Y-56386107D01*
X164661747Y-56366402D01*
X164678223Y-56348223D01*
X164696402Y-56331747D01*
X164716107Y-56317133D01*
X164737151Y-56304520D01*
X164759329Y-56294030D01*
X164782429Y-56285765D01*
X164806227Y-56279804D01*
X164830496Y-56276204D01*
X164855000Y-56275000D01*
X165605000Y-56275000D01*
X165629504Y-56276204D01*
G37*
G04 #@! TD.AperFunction*
G04 #@! TA.AperFunction,SMDPad,CuDef*
G36*
X153939504Y-74056204D02*
G01*
X153963773Y-74059804D01*
X153987571Y-74065765D01*
X154010671Y-74074030D01*
X154032849Y-74084520D01*
X154053893Y-74097133D01*
X154073598Y-74111747D01*
X154091777Y-74128223D01*
X154108253Y-74146402D01*
X154122867Y-74166107D01*
X154135480Y-74187151D01*
X154145970Y-74209329D01*
X154154235Y-74232429D01*
X154160196Y-74256227D01*
X154163796Y-74280496D01*
X154165000Y-74305000D01*
X154165000Y-75555000D01*
X154163796Y-75579504D01*
X154160196Y-75603773D01*
X154154235Y-75627571D01*
X154145970Y-75650671D01*
X154135480Y-75672849D01*
X154122867Y-75693893D01*
X154108253Y-75713598D01*
X154091777Y-75731777D01*
X154073598Y-75748253D01*
X154053893Y-75762867D01*
X154032849Y-75775480D01*
X154010671Y-75785970D01*
X153987571Y-75794235D01*
X153963773Y-75800196D01*
X153939504Y-75803796D01*
X153915000Y-75805000D01*
X153165000Y-75805000D01*
X153140496Y-75803796D01*
X153116227Y-75800196D01*
X153092429Y-75794235D01*
X153069329Y-75785970D01*
X153047151Y-75775480D01*
X153026107Y-75762867D01*
X153006402Y-75748253D01*
X152988223Y-75731777D01*
X152971747Y-75713598D01*
X152957133Y-75693893D01*
X152944520Y-75672849D01*
X152934030Y-75650671D01*
X152925765Y-75627571D01*
X152919804Y-75603773D01*
X152916204Y-75579504D01*
X152915000Y-75555000D01*
X152915000Y-74305000D01*
X152916204Y-74280496D01*
X152919804Y-74256227D01*
X152925765Y-74232429D01*
X152934030Y-74209329D01*
X152944520Y-74187151D01*
X152957133Y-74166107D01*
X152971747Y-74146402D01*
X152988223Y-74128223D01*
X153006402Y-74111747D01*
X153026107Y-74097133D01*
X153047151Y-74084520D01*
X153069329Y-74074030D01*
X153092429Y-74065765D01*
X153116227Y-74059804D01*
X153140496Y-74056204D01*
X153165000Y-74055000D01*
X153915000Y-74055000D01*
X153939504Y-74056204D01*
G37*
G04 #@! TD.AperFunction*
G04 #@! TA.AperFunction,SMDPad,CuDef*
G36*
X156739504Y-74056204D02*
G01*
X156763773Y-74059804D01*
X156787571Y-74065765D01*
X156810671Y-74074030D01*
X156832849Y-74084520D01*
X156853893Y-74097133D01*
X156873598Y-74111747D01*
X156891777Y-74128223D01*
X156908253Y-74146402D01*
X156922867Y-74166107D01*
X156935480Y-74187151D01*
X156945970Y-74209329D01*
X156954235Y-74232429D01*
X156960196Y-74256227D01*
X156963796Y-74280496D01*
X156965000Y-74305000D01*
X156965000Y-75555000D01*
X156963796Y-75579504D01*
X156960196Y-75603773D01*
X156954235Y-75627571D01*
X156945970Y-75650671D01*
X156935480Y-75672849D01*
X156922867Y-75693893D01*
X156908253Y-75713598D01*
X156891777Y-75731777D01*
X156873598Y-75748253D01*
X156853893Y-75762867D01*
X156832849Y-75775480D01*
X156810671Y-75785970D01*
X156787571Y-75794235D01*
X156763773Y-75800196D01*
X156739504Y-75803796D01*
X156715000Y-75805000D01*
X155965000Y-75805000D01*
X155940496Y-75803796D01*
X155916227Y-75800196D01*
X155892429Y-75794235D01*
X155869329Y-75785970D01*
X155847151Y-75775480D01*
X155826107Y-75762867D01*
X155806402Y-75748253D01*
X155788223Y-75731777D01*
X155771747Y-75713598D01*
X155757133Y-75693893D01*
X155744520Y-75672849D01*
X155734030Y-75650671D01*
X155725765Y-75627571D01*
X155719804Y-75603773D01*
X155716204Y-75579504D01*
X155715000Y-75555000D01*
X155715000Y-74305000D01*
X155716204Y-74280496D01*
X155719804Y-74256227D01*
X155725765Y-74232429D01*
X155734030Y-74209329D01*
X155744520Y-74187151D01*
X155757133Y-74166107D01*
X155771747Y-74146402D01*
X155788223Y-74128223D01*
X155806402Y-74111747D01*
X155826107Y-74097133D01*
X155847151Y-74084520D01*
X155869329Y-74074030D01*
X155892429Y-74065765D01*
X155916227Y-74059804D01*
X155940496Y-74056204D01*
X155965000Y-74055000D01*
X156715000Y-74055000D01*
X156739504Y-74056204D01*
G37*
G04 #@! TD.AperFunction*
G04 #@! TA.AperFunction,SMDPad,CuDef*
G36*
X151779504Y-132596204D02*
G01*
X151803773Y-132599804D01*
X151827571Y-132605765D01*
X151850671Y-132614030D01*
X151872849Y-132624520D01*
X151893893Y-132637133D01*
X151913598Y-132651747D01*
X151931777Y-132668223D01*
X151948253Y-132686402D01*
X151962867Y-132706107D01*
X151975480Y-132727151D01*
X151985970Y-132749329D01*
X151994235Y-132772429D01*
X152000196Y-132796227D01*
X152003796Y-132820496D01*
X152005000Y-132845000D01*
X152005000Y-133595000D01*
X152003796Y-133619504D01*
X152000196Y-133643773D01*
X151994235Y-133667571D01*
X151985970Y-133690671D01*
X151975480Y-133712849D01*
X151962867Y-133733893D01*
X151948253Y-133753598D01*
X151931777Y-133771777D01*
X151913598Y-133788253D01*
X151893893Y-133802867D01*
X151872849Y-133815480D01*
X151850671Y-133825970D01*
X151827571Y-133834235D01*
X151803773Y-133840196D01*
X151779504Y-133843796D01*
X151755000Y-133845000D01*
X150505000Y-133845000D01*
X150480496Y-133843796D01*
X150456227Y-133840196D01*
X150432429Y-133834235D01*
X150409329Y-133825970D01*
X150387151Y-133815480D01*
X150366107Y-133802867D01*
X150346402Y-133788253D01*
X150328223Y-133771777D01*
X150311747Y-133753598D01*
X150297133Y-133733893D01*
X150284520Y-133712849D01*
X150274030Y-133690671D01*
X150265765Y-133667571D01*
X150259804Y-133643773D01*
X150256204Y-133619504D01*
X150255000Y-133595000D01*
X150255000Y-132845000D01*
X150256204Y-132820496D01*
X150259804Y-132796227D01*
X150265765Y-132772429D01*
X150274030Y-132749329D01*
X150284520Y-132727151D01*
X150297133Y-132706107D01*
X150311747Y-132686402D01*
X150328223Y-132668223D01*
X150346402Y-132651747D01*
X150366107Y-132637133D01*
X150387151Y-132624520D01*
X150409329Y-132614030D01*
X150432429Y-132605765D01*
X150456227Y-132599804D01*
X150480496Y-132596204D01*
X150505000Y-132595000D01*
X151755000Y-132595000D01*
X151779504Y-132596204D01*
G37*
G04 #@! TD.AperFunction*
G04 #@! TA.AperFunction,SMDPad,CuDef*
G36*
X151779504Y-135396204D02*
G01*
X151803773Y-135399804D01*
X151827571Y-135405765D01*
X151850671Y-135414030D01*
X151872849Y-135424520D01*
X151893893Y-135437133D01*
X151913598Y-135451747D01*
X151931777Y-135468223D01*
X151948253Y-135486402D01*
X151962867Y-135506107D01*
X151975480Y-135527151D01*
X151985970Y-135549329D01*
X151994235Y-135572429D01*
X152000196Y-135596227D01*
X152003796Y-135620496D01*
X152005000Y-135645000D01*
X152005000Y-136395000D01*
X152003796Y-136419504D01*
X152000196Y-136443773D01*
X151994235Y-136467571D01*
X151985970Y-136490671D01*
X151975480Y-136512849D01*
X151962867Y-136533893D01*
X151948253Y-136553598D01*
X151931777Y-136571777D01*
X151913598Y-136588253D01*
X151893893Y-136602867D01*
X151872849Y-136615480D01*
X151850671Y-136625970D01*
X151827571Y-136634235D01*
X151803773Y-136640196D01*
X151779504Y-136643796D01*
X151755000Y-136645000D01*
X150505000Y-136645000D01*
X150480496Y-136643796D01*
X150456227Y-136640196D01*
X150432429Y-136634235D01*
X150409329Y-136625970D01*
X150387151Y-136615480D01*
X150366107Y-136602867D01*
X150346402Y-136588253D01*
X150328223Y-136571777D01*
X150311747Y-136553598D01*
X150297133Y-136533893D01*
X150284520Y-136512849D01*
X150274030Y-136490671D01*
X150265765Y-136467571D01*
X150259804Y-136443773D01*
X150256204Y-136419504D01*
X150255000Y-136395000D01*
X150255000Y-135645000D01*
X150256204Y-135620496D01*
X150259804Y-135596227D01*
X150265765Y-135572429D01*
X150274030Y-135549329D01*
X150284520Y-135527151D01*
X150297133Y-135506107D01*
X150311747Y-135486402D01*
X150328223Y-135468223D01*
X150346402Y-135451747D01*
X150366107Y-135437133D01*
X150387151Y-135424520D01*
X150409329Y-135414030D01*
X150432429Y-135405765D01*
X150456227Y-135399804D01*
X150480496Y-135396204D01*
X150505000Y-135395000D01*
X151755000Y-135395000D01*
X151779504Y-135396204D01*
G37*
G04 #@! TD.AperFunction*
G04 #@! TA.AperFunction,SMDPad,CuDef*
G36*
X155589504Y-128786204D02*
G01*
X155613773Y-128789804D01*
X155637571Y-128795765D01*
X155660671Y-128804030D01*
X155682849Y-128814520D01*
X155703893Y-128827133D01*
X155723598Y-128841747D01*
X155741777Y-128858223D01*
X155758253Y-128876402D01*
X155772867Y-128896107D01*
X155785480Y-128917151D01*
X155795970Y-128939329D01*
X155804235Y-128962429D01*
X155810196Y-128986227D01*
X155813796Y-129010496D01*
X155815000Y-129035000D01*
X155815000Y-129785000D01*
X155813796Y-129809504D01*
X155810196Y-129833773D01*
X155804235Y-129857571D01*
X155795970Y-129880671D01*
X155785480Y-129902849D01*
X155772867Y-129923893D01*
X155758253Y-129943598D01*
X155741777Y-129961777D01*
X155723598Y-129978253D01*
X155703893Y-129992867D01*
X155682849Y-130005480D01*
X155660671Y-130015970D01*
X155637571Y-130024235D01*
X155613773Y-130030196D01*
X155589504Y-130033796D01*
X155565000Y-130035000D01*
X154315000Y-130035000D01*
X154290496Y-130033796D01*
X154266227Y-130030196D01*
X154242429Y-130024235D01*
X154219329Y-130015970D01*
X154197151Y-130005480D01*
X154176107Y-129992867D01*
X154156402Y-129978253D01*
X154138223Y-129961777D01*
X154121747Y-129943598D01*
X154107133Y-129923893D01*
X154094520Y-129902849D01*
X154084030Y-129880671D01*
X154075765Y-129857571D01*
X154069804Y-129833773D01*
X154066204Y-129809504D01*
X154065000Y-129785000D01*
X154065000Y-129035000D01*
X154066204Y-129010496D01*
X154069804Y-128986227D01*
X154075765Y-128962429D01*
X154084030Y-128939329D01*
X154094520Y-128917151D01*
X154107133Y-128896107D01*
X154121747Y-128876402D01*
X154138223Y-128858223D01*
X154156402Y-128841747D01*
X154176107Y-128827133D01*
X154197151Y-128814520D01*
X154219329Y-128804030D01*
X154242429Y-128795765D01*
X154266227Y-128789804D01*
X154290496Y-128786204D01*
X154315000Y-128785000D01*
X155565000Y-128785000D01*
X155589504Y-128786204D01*
G37*
G04 #@! TD.AperFunction*
G04 #@! TA.AperFunction,SMDPad,CuDef*
G36*
X155589504Y-131586204D02*
G01*
X155613773Y-131589804D01*
X155637571Y-131595765D01*
X155660671Y-131604030D01*
X155682849Y-131614520D01*
X155703893Y-131627133D01*
X155723598Y-131641747D01*
X155741777Y-131658223D01*
X155758253Y-131676402D01*
X155772867Y-131696107D01*
X155785480Y-131717151D01*
X155795970Y-131739329D01*
X155804235Y-131762429D01*
X155810196Y-131786227D01*
X155813796Y-131810496D01*
X155815000Y-131835000D01*
X155815000Y-132585000D01*
X155813796Y-132609504D01*
X155810196Y-132633773D01*
X155804235Y-132657571D01*
X155795970Y-132680671D01*
X155785480Y-132702849D01*
X155772867Y-132723893D01*
X155758253Y-132743598D01*
X155741777Y-132761777D01*
X155723598Y-132778253D01*
X155703893Y-132792867D01*
X155682849Y-132805480D01*
X155660671Y-132815970D01*
X155637571Y-132824235D01*
X155613773Y-132830196D01*
X155589504Y-132833796D01*
X155565000Y-132835000D01*
X154315000Y-132835000D01*
X154290496Y-132833796D01*
X154266227Y-132830196D01*
X154242429Y-132824235D01*
X154219329Y-132815970D01*
X154197151Y-132805480D01*
X154176107Y-132792867D01*
X154156402Y-132778253D01*
X154138223Y-132761777D01*
X154121747Y-132743598D01*
X154107133Y-132723893D01*
X154094520Y-132702849D01*
X154084030Y-132680671D01*
X154075765Y-132657571D01*
X154069804Y-132633773D01*
X154066204Y-132609504D01*
X154065000Y-132585000D01*
X154065000Y-131835000D01*
X154066204Y-131810496D01*
X154069804Y-131786227D01*
X154075765Y-131762429D01*
X154084030Y-131739329D01*
X154094520Y-131717151D01*
X154107133Y-131696107D01*
X154121747Y-131676402D01*
X154138223Y-131658223D01*
X154156402Y-131641747D01*
X154176107Y-131627133D01*
X154197151Y-131614520D01*
X154219329Y-131604030D01*
X154242429Y-131595765D01*
X154266227Y-131589804D01*
X154290496Y-131586204D01*
X154315000Y-131585000D01*
X155565000Y-131585000D01*
X155589504Y-131586204D01*
G37*
G04 #@! TD.AperFunction*
G04 #@! TA.AperFunction,SMDPad,CuDef*
G36*
X151779504Y-130316204D02*
G01*
X151803773Y-130319804D01*
X151827571Y-130325765D01*
X151850671Y-130334030D01*
X151872849Y-130344520D01*
X151893893Y-130357133D01*
X151913598Y-130371747D01*
X151931777Y-130388223D01*
X151948253Y-130406402D01*
X151962867Y-130426107D01*
X151975480Y-130447151D01*
X151985970Y-130469329D01*
X151994235Y-130492429D01*
X152000196Y-130516227D01*
X152003796Y-130540496D01*
X152005000Y-130565000D01*
X152005000Y-131315000D01*
X152003796Y-131339504D01*
X152000196Y-131363773D01*
X151994235Y-131387571D01*
X151985970Y-131410671D01*
X151975480Y-131432849D01*
X151962867Y-131453893D01*
X151948253Y-131473598D01*
X151931777Y-131491777D01*
X151913598Y-131508253D01*
X151893893Y-131522867D01*
X151872849Y-131535480D01*
X151850671Y-131545970D01*
X151827571Y-131554235D01*
X151803773Y-131560196D01*
X151779504Y-131563796D01*
X151755000Y-131565000D01*
X150505000Y-131565000D01*
X150480496Y-131563796D01*
X150456227Y-131560196D01*
X150432429Y-131554235D01*
X150409329Y-131545970D01*
X150387151Y-131535480D01*
X150366107Y-131522867D01*
X150346402Y-131508253D01*
X150328223Y-131491777D01*
X150311747Y-131473598D01*
X150297133Y-131453893D01*
X150284520Y-131432849D01*
X150274030Y-131410671D01*
X150265765Y-131387571D01*
X150259804Y-131363773D01*
X150256204Y-131339504D01*
X150255000Y-131315000D01*
X150255000Y-130565000D01*
X150256204Y-130540496D01*
X150259804Y-130516227D01*
X150265765Y-130492429D01*
X150274030Y-130469329D01*
X150284520Y-130447151D01*
X150297133Y-130426107D01*
X150311747Y-130406402D01*
X150328223Y-130388223D01*
X150346402Y-130371747D01*
X150366107Y-130357133D01*
X150387151Y-130344520D01*
X150409329Y-130334030D01*
X150432429Y-130325765D01*
X150456227Y-130319804D01*
X150480496Y-130316204D01*
X150505000Y-130315000D01*
X151755000Y-130315000D01*
X151779504Y-130316204D01*
G37*
G04 #@! TD.AperFunction*
G04 #@! TA.AperFunction,SMDPad,CuDef*
G36*
X151779504Y-127516204D02*
G01*
X151803773Y-127519804D01*
X151827571Y-127525765D01*
X151850671Y-127534030D01*
X151872849Y-127544520D01*
X151893893Y-127557133D01*
X151913598Y-127571747D01*
X151931777Y-127588223D01*
X151948253Y-127606402D01*
X151962867Y-127626107D01*
X151975480Y-127647151D01*
X151985970Y-127669329D01*
X151994235Y-127692429D01*
X152000196Y-127716227D01*
X152003796Y-127740496D01*
X152005000Y-127765000D01*
X152005000Y-128515000D01*
X152003796Y-128539504D01*
X152000196Y-128563773D01*
X151994235Y-128587571D01*
X151985970Y-128610671D01*
X151975480Y-128632849D01*
X151962867Y-128653893D01*
X151948253Y-128673598D01*
X151931777Y-128691777D01*
X151913598Y-128708253D01*
X151893893Y-128722867D01*
X151872849Y-128735480D01*
X151850671Y-128745970D01*
X151827571Y-128754235D01*
X151803773Y-128760196D01*
X151779504Y-128763796D01*
X151755000Y-128765000D01*
X150505000Y-128765000D01*
X150480496Y-128763796D01*
X150456227Y-128760196D01*
X150432429Y-128754235D01*
X150409329Y-128745970D01*
X150387151Y-128735480D01*
X150366107Y-128722867D01*
X150346402Y-128708253D01*
X150328223Y-128691777D01*
X150311747Y-128673598D01*
X150297133Y-128653893D01*
X150284520Y-128632849D01*
X150274030Y-128610671D01*
X150265765Y-128587571D01*
X150259804Y-128563773D01*
X150256204Y-128539504D01*
X150255000Y-128515000D01*
X150255000Y-127765000D01*
X150256204Y-127740496D01*
X150259804Y-127716227D01*
X150265765Y-127692429D01*
X150274030Y-127669329D01*
X150284520Y-127647151D01*
X150297133Y-127626107D01*
X150311747Y-127606402D01*
X150328223Y-127588223D01*
X150346402Y-127571747D01*
X150366107Y-127557133D01*
X150387151Y-127544520D01*
X150409329Y-127534030D01*
X150432429Y-127525765D01*
X150456227Y-127519804D01*
X150480496Y-127516204D01*
X150505000Y-127515000D01*
X151755000Y-127515000D01*
X151779504Y-127516204D01*
G37*
G04 #@! TD.AperFunction*
D28*
X150765000Y-103190000D03*
X150765000Y-105090000D03*
X152765000Y-104140000D03*
D41*
X162245000Y-105140000D03*
X164145000Y-105140000D03*
X163195000Y-103140000D03*
X168910000Y-56785000D03*
X169860000Y-58785000D03*
X167960000Y-58785000D03*
D39*
X107950000Y-130175000D03*
D40*
X112950000Y-130175000D03*
X139065000Y-124380000D03*
D39*
X139065000Y-119380000D03*
D42*
X161925000Y-91440000D03*
X165100000Y-88265000D03*
X159385000Y-97155000D03*
X153416103Y-88000000D03*
X163830000Y-76200000D03*
X161290000Y-64770000D03*
X159509999Y-88900000D03*
X163195000Y-66040000D03*
X166370000Y-76200000D03*
D43*
X154670000Y-51070000D02*
X154940000Y-50800000D01*
D44*
X137160000Y-50800000D02*
X154940000Y-50800000D01*
D43*
X157480000Y-53340000D02*
X154940000Y-50800000D01*
X172720000Y-57020000D02*
X172720000Y-50800000D01*
D44*
X154940000Y-50800000D02*
X172720000Y-50800000D01*
D43*
X184785000Y-77960000D02*
X184785000Y-77360000D01*
D44*
X193040000Y-63974990D02*
X193040000Y-73660000D01*
X193040000Y-59690000D02*
X193040000Y-63974990D01*
X172720000Y-50800000D02*
X184150000Y-50800000D01*
X184150000Y-50800000D02*
X193040000Y-59690000D01*
D43*
X178990000Y-78740000D02*
X176450000Y-76200000D01*
X184150000Y-78740000D02*
X178990000Y-78740000D01*
X184785000Y-77360000D02*
X184785000Y-78105000D01*
X184785000Y-78105000D02*
X184150000Y-78740000D01*
X190289560Y-73660000D02*
X193040000Y-73660000D01*
X187885000Y-73660000D02*
X190289560Y-73660000D01*
X184785000Y-76760000D02*
X187885000Y-73660000D01*
X184785000Y-77360000D02*
X184785000Y-76760000D01*
X170955000Y-58785000D02*
X172720000Y-57020000D01*
X169860000Y-58785000D02*
X170955000Y-58785000D01*
X160655000Y-60470000D02*
X162070000Y-59055000D01*
X160655000Y-61070000D02*
X160655000Y-60470000D01*
X162070000Y-59055000D02*
X165735000Y-59055000D01*
X169860000Y-58735000D02*
X169860000Y-58785000D01*
X168910000Y-57785000D02*
X169860000Y-58735000D01*
X167005000Y-57785000D02*
X168910000Y-57785000D01*
X165735000Y-59055000D02*
X167005000Y-57785000D01*
X161925000Y-93870000D02*
X161925000Y-91440000D01*
X173910000Y-78740000D02*
X176450000Y-76200000D01*
X165100000Y-88265000D02*
X165100000Y-83820000D01*
X165100000Y-83820000D02*
X170180000Y-78740000D01*
X170180000Y-78740000D02*
X173910000Y-78740000D01*
X165100000Y-88830685D02*
X165100000Y-88265000D01*
X165215010Y-88945695D02*
X165100000Y-88830685D01*
X165215010Y-102019990D02*
X165215010Y-88945695D01*
X164095000Y-103140000D02*
X165215010Y-102019990D01*
X163195000Y-103140000D02*
X164095000Y-103140000D01*
X153800000Y-100330000D02*
X156210000Y-100330000D01*
X156210000Y-100330000D02*
X159385000Y-97155000D01*
X159290000Y-117610000D02*
X160060000Y-116840000D01*
X159290000Y-124460000D02*
X159290000Y-117610000D01*
X172720000Y-137540000D02*
X172720000Y-138430000D01*
X159290000Y-124460000D02*
X159640000Y-124460000D01*
X153540000Y-82550000D02*
X153540000Y-86360000D01*
X153416103Y-86483897D02*
X153540000Y-86360000D01*
X153416103Y-88000000D02*
X153416103Y-86483897D01*
X153670000Y-67440000D02*
X153670000Y-72390000D01*
X152270000Y-66040000D02*
X153670000Y-67440000D01*
X180100678Y-69960000D02*
X179885668Y-69744990D01*
X179885668Y-69744990D02*
X176424990Y-69744990D01*
X182245000Y-69960000D02*
X180100678Y-69960000D01*
X176424990Y-70120010D02*
X176424990Y-69744990D01*
X176400000Y-71120000D02*
X176400000Y-70145000D01*
X176400000Y-70145000D02*
X176424990Y-70120010D01*
X168780000Y-69720000D02*
X168804990Y-69744990D01*
X168780000Y-67310000D02*
X168780000Y-69720000D01*
X176424990Y-69744990D02*
X168804990Y-69744990D01*
X153670000Y-72390000D02*
X152400000Y-73660000D01*
X152400000Y-73660000D02*
X152400000Y-76137998D01*
X152400000Y-76137998D02*
X153540000Y-77277998D01*
X153540000Y-77277998D02*
X153540000Y-81575000D01*
X153540000Y-81575000D02*
X153540000Y-82550000D01*
X153670000Y-72390000D02*
X162560000Y-72390000D01*
X164059869Y-70890131D02*
X162560000Y-72390000D01*
X164199865Y-70890131D02*
X164059869Y-70890131D01*
X165345006Y-69744990D02*
X164199865Y-70890131D01*
X168804990Y-69744990D02*
X165345006Y-69744990D01*
X159640000Y-124460000D02*
X161545000Y-126365000D01*
X161545000Y-126365000D02*
X165100000Y-126365000D01*
X165100000Y-126365000D02*
X172720000Y-133985000D01*
X172720000Y-133985000D02*
X172720000Y-138430000D01*
X154940000Y-110620000D02*
X151130000Y-110620000D01*
X159100000Y-110620000D02*
X158750000Y-110970000D01*
X162560000Y-110620000D02*
X159100000Y-110620000D01*
X155290000Y-110970000D02*
X154940000Y-110620000D01*
X162720000Y-110620000D02*
X162560000Y-110620000D01*
X163290000Y-117570000D02*
X162560000Y-116840000D01*
X163290000Y-124460000D02*
X163290000Y-117570000D01*
X162560000Y-116840000D02*
X162560000Y-110620000D01*
X158400000Y-110620000D02*
X158750000Y-110970000D01*
X154940000Y-110620000D02*
X158400000Y-110620000D01*
X154940000Y-107820000D02*
X151130000Y-107820000D01*
X160410000Y-102870000D02*
X164090000Y-99190000D01*
X156819322Y-102870000D02*
X160410000Y-102870000D01*
X154940000Y-107820000D02*
X154940000Y-104749322D01*
X154940000Y-104749322D02*
X156819322Y-102870000D01*
X161925000Y-85870000D02*
X161925000Y-86470000D01*
X163870001Y-85094999D02*
X162700000Y-85095000D01*
X164090000Y-85314998D02*
X163870001Y-85094999D01*
X164090000Y-99190000D02*
X164090000Y-85314998D01*
X161925000Y-85095000D02*
X161925000Y-86470000D01*
X162700000Y-85095000D02*
X161925000Y-85095000D01*
X156340000Y-82550000D02*
X158609999Y-84819999D01*
X161925000Y-87845000D02*
X161925000Y-86470000D01*
X159969999Y-89800001D02*
X161925000Y-87845000D01*
X159077998Y-89800001D02*
X159969999Y-89800001D01*
X158609999Y-89332002D02*
X159077998Y-89800001D01*
X158609999Y-84819999D02*
X158609999Y-89332002D01*
X152270000Y-63240000D02*
X155070000Y-66040000D01*
X152270000Y-62230000D02*
X152270000Y-63240000D01*
X155795000Y-66040000D02*
X155070000Y-66040000D01*
X159005002Y-66040000D02*
X155795000Y-66040000D01*
X160655000Y-67689998D02*
X159005002Y-66040000D01*
X160655000Y-68470000D02*
X160655000Y-67689998D01*
X163830000Y-78260000D02*
X163830000Y-76200000D01*
X170204990Y-64240010D02*
X163300010Y-64240010D01*
X171580000Y-62865000D02*
X170204990Y-64240010D01*
X161985710Y-62925710D02*
X163300010Y-64240010D01*
X155070000Y-62230000D02*
X155765710Y-62925710D01*
X161290000Y-62986420D02*
X161229290Y-62925710D01*
X161290000Y-64770000D02*
X161290000Y-62986420D01*
X155765710Y-62925710D02*
X161229290Y-62925710D01*
X161229290Y-62925710D02*
X161985710Y-62925710D01*
X161925000Y-62865000D02*
X161985710Y-62925710D01*
X161925000Y-61070000D02*
X161925000Y-62865000D01*
X159010000Y-101470000D02*
X161290000Y-99190000D01*
X157480000Y-101470000D02*
X159010000Y-101470000D01*
X160655000Y-95245000D02*
X160655000Y-93870000D01*
X160655000Y-97580000D02*
X160655000Y-95245000D01*
X161290000Y-98215000D02*
X160655000Y-97580000D01*
X161290000Y-99190000D02*
X161290000Y-98215000D01*
X156505000Y-101470000D02*
X157480000Y-101470000D01*
X156385000Y-101470000D02*
X156505000Y-101470000D01*
X153715000Y-104140000D02*
X156385000Y-101470000D01*
X152765000Y-104140000D02*
X153715000Y-104140000D01*
X156340000Y-77470000D02*
X156340000Y-74930000D01*
X156340000Y-77470000D02*
X156340000Y-78740000D01*
X159890000Y-78740000D02*
X160020000Y-78610000D01*
X156340000Y-78740000D02*
X159890000Y-78740000D01*
D45*
X119380000Y-120650000D02*
X119380000Y-125730000D01*
X118110000Y-119380000D02*
X119380000Y-120650000D01*
X110655000Y-119380000D02*
X118110000Y-119380000D01*
X109090000Y-121920000D02*
X109090000Y-120945000D01*
X109090000Y-120945000D02*
X110655000Y-119380000D01*
X109090000Y-129035000D02*
X107950000Y-130175000D01*
X109090000Y-121920000D02*
X109090000Y-129035000D01*
X107950000Y-138430000D02*
X109220000Y-139700000D01*
X107950000Y-130175000D02*
X107950000Y-138430000D01*
D43*
X154810000Y-141100000D02*
X151130000Y-141100000D01*
X156210000Y-139700000D02*
X154810000Y-141100000D01*
X161020000Y-128590000D02*
X160970000Y-128590000D01*
X155575000Y-126220000D02*
X155575000Y-125620000D01*
X157945000Y-128590000D02*
X155575000Y-126220000D01*
X161020000Y-128590000D02*
X157945000Y-128590000D01*
X154305000Y-123190000D02*
X147320000Y-123190000D01*
X155575000Y-125620000D02*
X155575000Y-124460000D01*
X155575000Y-124460000D02*
X154305000Y-123190000D01*
D45*
X121920000Y-127000000D02*
X121920000Y-125730000D01*
X121139999Y-127780001D02*
X121920000Y-127000000D01*
X117750001Y-127780001D02*
X121139999Y-127780001D01*
X111890000Y-121920000D02*
X117750001Y-127780001D01*
X121920000Y-126069476D02*
X121920000Y-125730000D01*
X111890000Y-129115000D02*
X112950000Y-130175000D01*
X111890000Y-121920000D02*
X111890000Y-129115000D01*
X130175000Y-122775000D02*
X130175000Y-122050000D01*
X130175000Y-122894476D02*
X130175000Y-122775000D01*
X125289466Y-127780010D02*
X130175000Y-122894476D01*
X123630534Y-127780010D02*
X125289466Y-127780010D01*
X122457490Y-126606966D02*
X123630534Y-127780010D01*
X122457490Y-126267490D02*
X122457490Y-126606966D01*
X121920000Y-125730000D02*
X122457490Y-126267490D01*
X136735000Y-122050000D02*
X139065000Y-124380000D01*
X130175000Y-122050000D02*
X136735000Y-122050000D01*
D43*
X147320000Y-101600000D02*
X147320000Y-97920000D01*
X159385000Y-88775001D02*
X159509999Y-88900000D01*
X159385000Y-86470000D02*
X159385000Y-88775001D01*
X163195000Y-66040000D02*
X163195000Y-68470000D01*
X159385000Y-86470000D02*
X159385000Y-84534326D01*
X159385000Y-84534326D02*
X158115000Y-83264326D01*
X166370000Y-79375000D02*
X166370000Y-76200000D01*
X165735000Y-80010000D02*
X166370000Y-79375000D01*
X158115000Y-81254322D02*
X159359322Y-80010000D01*
X158115000Y-83264326D02*
X158115000Y-81254322D01*
X159359322Y-80010000D02*
X165735000Y-80010000D01*
X179895710Y-71815710D02*
X179200000Y-71120000D01*
X183709292Y-71815710D02*
X179895710Y-71815710D01*
X184785000Y-69960000D02*
X184785000Y-70740002D01*
X184785000Y-70740002D02*
X183709292Y-71815710D01*
X183550000Y-65405000D02*
X182400000Y-65405000D01*
X184785000Y-66640000D02*
X183550000Y-65405000D01*
X184785000Y-69960000D02*
X184785000Y-66640000D01*
X183890000Y-59820000D02*
X184150000Y-59560000D01*
X181610000Y-59820000D02*
X183890000Y-59820000D01*
X186830001Y-71235001D02*
X185499282Y-72565720D01*
X186830001Y-67685001D02*
X186830001Y-71235001D01*
X185900000Y-66755000D02*
X186830001Y-67685001D01*
X185900000Y-65405000D02*
X185900000Y-66755000D01*
X183515000Y-72741440D02*
X183515000Y-77360000D01*
X183339280Y-72565720D02*
X183515000Y-72741440D01*
X185499282Y-72565720D02*
X183339280Y-72565720D01*
X185900000Y-61310000D02*
X184150000Y-59560000D01*
X185900000Y-65405000D02*
X185900000Y-61310000D01*
X171450000Y-72390000D02*
X170180000Y-72390000D01*
X183339280Y-72565720D02*
X171625720Y-72565720D01*
X171625720Y-72565720D02*
X171450000Y-72390000D01*
X163170000Y-81760000D02*
X163830000Y-81760000D01*
X163630000Y-81760000D02*
X163830000Y-81760000D01*
X160655000Y-84735000D02*
X163630000Y-81760000D01*
X160655000Y-86470000D02*
X160655000Y-84735000D01*
X163480000Y-81410000D02*
X163830000Y-81760000D01*
X160020000Y-81410000D02*
X163480000Y-81410000D01*
X158950000Y-107470000D02*
X158750000Y-107470000D01*
X157480000Y-106200000D02*
X158750000Y-107470000D01*
X157480000Y-104270000D02*
X157480000Y-106200000D01*
X161345000Y-105140000D02*
X162245000Y-105140000D01*
X159930000Y-105140000D02*
X161345000Y-105140000D01*
X158750000Y-106320000D02*
X159930000Y-105140000D01*
X158750000Y-107470000D02*
X158750000Y-106320000D01*
X157480000Y-57150000D02*
X162430000Y-57150000D01*
X160560000Y-138970000D02*
X161290000Y-139700000D01*
X160560000Y-134620000D02*
X160560000Y-138970000D01*
X159020000Y-133080000D02*
X160560000Y-134620000D01*
X159020000Y-129540000D02*
X159020000Y-133080000D01*
X161926397Y-68468603D02*
X161925000Y-68470000D01*
X161925000Y-65977998D02*
X162912978Y-64990020D01*
X161925000Y-68470000D02*
X161925000Y-65977998D01*
X174531980Y-64990020D02*
X175792131Y-63729869D01*
X162912978Y-64990020D02*
X174531980Y-64990020D01*
X175792131Y-63729869D02*
X177292000Y-62230000D01*
X181569999Y-68584999D02*
X181160018Y-68994980D01*
X182739999Y-68584999D02*
X181569999Y-68584999D01*
X183515000Y-69960000D02*
X183515000Y-69360000D01*
X183515000Y-69360000D02*
X182739999Y-68584999D01*
X173264980Y-68994980D02*
X171580000Y-67310000D01*
X180754980Y-64650018D02*
X180754980Y-68994980D01*
X182349288Y-63055710D02*
X180754980Y-64650018D01*
X183454290Y-63055710D02*
X182349288Y-63055710D01*
X184150000Y-62360000D02*
X183454290Y-63055710D01*
X181160018Y-68994980D02*
X180754980Y-68994980D01*
X180754980Y-68994980D02*
X173264980Y-68994980D01*
X156955000Y-91440000D02*
X159385000Y-93870000D01*
X156130000Y-91440000D02*
X156955000Y-91440000D01*
X152405000Y-91440000D02*
X151130000Y-91440000D01*
X154430011Y-89414989D02*
X152405000Y-91440000D01*
X157052665Y-89414989D02*
X154430011Y-89414989D01*
X158327666Y-90689990D02*
X157052665Y-89414989D01*
X160350010Y-90689990D02*
X158327666Y-90689990D01*
X163195000Y-87845000D02*
X160350010Y-90689990D01*
X163195000Y-86470000D02*
X163195000Y-87845000D01*
X164145000Y-106235000D02*
X162560000Y-107820000D01*
X164145000Y-105140000D02*
X164145000Y-106235000D01*
X170275000Y-105140000D02*
X193040000Y-82375000D01*
X164145000Y-105140000D02*
X170275000Y-105140000D01*
X168094332Y-65934990D02*
X174519990Y-65934990D01*
X155070000Y-69850000D02*
X164179322Y-69850000D01*
X164179322Y-69850000D02*
X168094332Y-65934990D01*
X174519990Y-65934990D02*
X174519990Y-65928874D01*
X177186990Y-65934990D02*
X177292000Y-66040000D01*
X174519990Y-65934990D02*
X177186990Y-65934990D01*
X178692000Y-57020000D02*
X177292000Y-58420000D01*
X181610000Y-57020000D02*
X178692000Y-57020000D01*
X153540000Y-74930000D02*
X155329990Y-73140010D01*
X164870131Y-73889869D02*
X166370000Y-72390000D01*
X164370129Y-74389871D02*
X164870131Y-73889869D01*
X161600061Y-74389871D02*
X164370129Y-74389871D01*
X160350200Y-73140010D02*
X161600061Y-74389871D01*
X155329990Y-73140010D02*
X160350200Y-73140010D01*
X149854999Y-92664999D02*
X149854999Y-90264999D01*
X153630000Y-96440000D02*
X149854999Y-92664999D01*
X149854999Y-90264999D02*
X149954999Y-90164999D01*
X149954999Y-90164999D02*
X149954999Y-90075001D01*
X149954999Y-90075001D02*
X151130000Y-88900000D01*
X153848105Y-88900000D02*
X151130000Y-88900000D01*
X155644290Y-87103815D02*
X153848105Y-88900000D01*
X155644290Y-87055710D02*
X155644290Y-87103815D01*
X156340000Y-86360000D02*
X155644290Y-87055710D01*
X151000000Y-98800000D02*
X151000000Y-100330000D01*
X147320000Y-95120000D02*
X151000000Y-98800000D01*
X151000000Y-102955000D02*
X150765000Y-103190000D01*
X151000000Y-100330000D02*
X151000000Y-102955000D01*
X167960000Y-58835000D02*
X167960000Y-58785000D01*
X168945000Y-59820000D02*
X167960000Y-58835000D01*
X172720000Y-59820000D02*
X168945000Y-59820000D01*
X168945000Y-61725000D02*
X168945000Y-59820000D01*
X168780000Y-61890000D02*
X168945000Y-61725000D01*
X168780000Y-62865000D02*
X168780000Y-61890000D01*
X165595000Y-56785000D02*
X165230000Y-57150000D01*
X168910000Y-56785000D02*
X165595000Y-56785000D01*
X153035000Y-125620000D02*
X153035000Y-128905000D01*
X153035000Y-128905000D02*
X152400000Y-129540000D01*
X152400000Y-129540000D02*
X149860000Y-129540000D01*
X146445000Y-132955000D02*
X146445000Y-134700000D01*
X149860000Y-129540000D02*
X146445000Y-132955000D01*
X151130000Y-138300000D02*
X151130000Y-136020000D01*
X156080000Y-136020000D02*
X156210000Y-135890000D01*
X151130000Y-136020000D02*
X156080000Y-136020000D01*
X156210000Y-133480000D02*
X156210000Y-135890000D01*
X154940000Y-132210000D02*
X156210000Y-133480000D01*
X153410000Y-130940000D02*
X154940000Y-129410000D01*
X151130000Y-130940000D02*
X153410000Y-130940000D01*
X154305000Y-128775000D02*
X154305000Y-125620000D01*
X154940000Y-129410000D02*
X154305000Y-128775000D01*
X147320000Y-114300000D02*
X151000000Y-114300000D01*
X144780000Y-116840000D02*
X147320000Y-114300000D01*
X144780000Y-126740000D02*
X144780000Y-116840000D01*
X151130000Y-128140000D02*
X146180000Y-128140000D01*
X146180000Y-128140000D02*
X144780000Y-126740000D01*
X151765000Y-127505000D02*
X151130000Y-128140000D01*
X151765000Y-125620000D02*
X151765000Y-127505000D01*
X140810000Y-57150000D02*
X137160000Y-60800000D01*
D44*
X142080000Y-60800000D02*
X137160000Y-60800000D01*
X144780000Y-63500000D02*
X142080000Y-60800000D01*
X137160000Y-86200000D02*
X142400000Y-86200000D01*
X142400000Y-86200000D02*
X144780000Y-83820000D01*
D43*
X145320130Y-63500000D02*
X144780000Y-63500000D01*
X151670130Y-57150000D02*
X145320130Y-63500000D01*
X153670000Y-57150000D02*
X151670130Y-57150000D01*
X145615010Y-67584990D02*
X144780000Y-68420000D01*
X143190000Y-105090000D02*
X142240000Y-104140000D01*
X150765000Y-105090000D02*
X143190000Y-105090000D01*
X146050000Y-69850000D02*
X144780000Y-68580000D01*
X152270000Y-69850000D02*
X146050000Y-69850000D01*
D44*
X144780000Y-83820000D02*
X144780000Y-68580000D01*
X144780000Y-68580000D02*
X144780000Y-63500000D01*
D43*
X156845000Y-115570000D02*
X155575000Y-114300000D01*
X156845000Y-126365000D02*
X156845000Y-115570000D01*
X161070000Y-130490000D02*
X162560000Y-129000000D01*
X161020000Y-130490000D02*
X161070000Y-130490000D01*
X155575000Y-114300000D02*
X153800000Y-114300000D01*
X162560000Y-129000000D02*
X162560000Y-127635000D01*
X162560000Y-127635000D02*
X162040010Y-127115010D01*
X162040010Y-127115010D02*
X157595010Y-127115010D01*
X157595010Y-127115010D02*
X156845000Y-126365000D01*
X164560000Y-133980000D02*
X164560000Y-134620000D01*
X164560000Y-139160000D02*
X165100000Y-139700000D01*
X164560000Y-134620000D02*
X164560000Y-139160000D01*
X139540000Y-137795000D02*
X131445000Y-129700000D01*
X151130000Y-133220000D02*
X146555000Y-137795000D01*
X146555000Y-137795000D02*
X139540000Y-137795000D01*
D45*
X125860000Y-119250000D02*
X124460000Y-120650000D01*
X124460000Y-120650000D02*
X124460000Y-125730000D01*
D43*
X151765000Y-118820000D02*
X151205000Y-119380000D01*
X151765000Y-118220000D02*
X151765000Y-118820000D01*
X151205000Y-119380000D02*
X147320000Y-119380000D01*
D45*
X125860000Y-119250000D02*
X130175000Y-119250000D01*
X138935000Y-119250000D02*
X139065000Y-119380000D01*
X130175000Y-119250000D02*
X138935000Y-119250000D01*
M02*
