M48
; DRILL file {KiCad (5.1.5)-3} date 16/10/2020 17:52:35
; FORMAT={-:-/ absolute / inch / decimal}
; #@! TF.CreationDate,2020-10-16T17:52:35+02:00
; #@! TF.GenerationSoftware,Kicad,Pcbnew,(5.1.5)-3
; #@! TF.FileFunction,Plated,1,2,PTH
FMAT,2
INCH
T1C0.0157
T2C0.0315
T3C0.0394
T4C0.0433
T5C0.0472
T6C0.0472
T7C0.0512
T8C0.0551
T9C0.0630
T10C0.0787
T11C0.0787
%
G90
G05
T1
X6.04Y-3.4646
X6.275Y-3.825
X6.2799Y-3.5
X6.35Y-2.55
X6.375Y-3.6
X6.425Y-2.6
X6.45Y-3.0
X6.5Y-3.475
X6.55Y-3.0
T2
X4.8Y-4.55
X5.1Y-4.55
X4.8Y-4.35
X5.1Y-4.35
X4.625Y-4.2
X5.025Y-4.2
X5.8Y-4.0
X5.8Y-4.4
X6.3016Y-4.6
X6.4Y-4.6
X6.75Y-3.0
X6.9469Y-3.0
X4.5Y-4.45
X4.5984Y-4.45
X5.35Y-4.4
X5.35Y-4.4984
T3
X4.25Y-5.125
X4.4469Y-5.125
X5.95Y-3.6
X6.0484Y-3.7969
X6.1469Y-3.6
X5.475Y-4.7
X5.475Y-4.8969
T4
X5.6Y-4.1
X5.6Y-4.5
X4.7Y-4.95
X4.8Y-4.95
X4.9Y-4.95
X4.3Y-5.5
X4.4516Y-5.5
X4.6031Y-5.5
X4.7547Y-5.5
T5
X6.98Y-2.3
X6.98Y-2.45
X6.98Y-2.6
X3.5Y-4.5948
X3.5Y-4.981
X6.05Y-2.25
X6.2Y-2.25
X5.8Y-4.7
X5.8Y-4.85
X5.2Y-4.2
X5.35Y-4.2
X6.35Y-5.5
X6.5Y-5.5
X6.4Y-2.85
X6.55Y-2.85
X6.7Y-2.85
X6.15Y-5.35
X6.15Y-5.5
T6
X6.8Y-3.25
X3.5Y-4.3
X4.3Y-4.3
X7.2Y-3.25
X7.2Y-5.45
X6.8Y-5.45
T7
X5.175Y-5.1063
X5.175Y-5.5
X5.7656Y-5.3031
X3.9Y-4.6142
X3.9Y-5.5
X3.55Y-2.3
X3.55Y-3.1858
T8
X4.8Y-3.975
X5.6Y-3.975
T9
X3.95Y-2.6
X4.7374Y-2.6
X3.95Y-3.2
X4.7374Y-3.2
X3.9626Y-3.8
X4.75Y-3.8
X3.9626Y-2.0
X4.75Y-2.0
T10
X7.6Y-2.9
X7.6Y-3.2431
X7.6Y-3.5862
X7.6Y-4.1
X7.6Y-4.5075
X3.5Y-3.55
X3.5Y-4.0362
T11
X5.4Y-2.0
X5.4Y-2.3937
X5.4Y-3.0
X5.4Y-3.3937
T0
M30
