G04 #@! TF.GenerationSoftware,KiCad,Pcbnew,(5.1.5)-3*
G04 #@! TF.CreationDate,2020-10-16T18:01:36+02:00*
G04 #@! TF.ProjectId,Laboratorn_ zdroj,4c61626f-7261-4746-9f72-6eed207a6472,rev?*
G04 #@! TF.SameCoordinates,Original*
G04 #@! TF.FileFunction,Soldermask,Bot*
G04 #@! TF.FilePolarity,Negative*
%FSLAX46Y46*%
G04 Gerber Fmt 4.6, Leading zero omitted, Abs format (unit mm)*
G04 Created by KiCad (PCBNEW (5.1.5)-3) date 2020-10-16 18:01:36*
%MOMM*%
%LPD*%
G04 APERTURE LIST*
%ADD10C,0.100000*%
G04 APERTURE END LIST*
D10*
G36*
X99362585Y-138178802D02*
G01*
X99512410Y-138208604D01*
X99794674Y-138325521D01*
X100048705Y-138495259D01*
X100264741Y-138711295D01*
X100434479Y-138965326D01*
X100551396Y-139247590D01*
X100611000Y-139547240D01*
X100611000Y-139852760D01*
X100551396Y-140152410D01*
X100434479Y-140434674D01*
X100264741Y-140688705D01*
X100048705Y-140904741D01*
X99794674Y-141074479D01*
X99512410Y-141191396D01*
X99362585Y-141221198D01*
X99212761Y-141251000D01*
X98907239Y-141251000D01*
X98757415Y-141221198D01*
X98607590Y-141191396D01*
X98325326Y-141074479D01*
X98071295Y-140904741D01*
X97855259Y-140688705D01*
X97685521Y-140434674D01*
X97568604Y-140152410D01*
X97509000Y-139852760D01*
X97509000Y-139547240D01*
X97568604Y-139247590D01*
X97685521Y-138965326D01*
X97855259Y-138711295D01*
X98071295Y-138495259D01*
X98325326Y-138325521D01*
X98607590Y-138208604D01*
X98757415Y-138178802D01*
X98907239Y-138149000D01*
X99212761Y-138149000D01*
X99362585Y-138178802D01*
G37*
G36*
X166650870Y-141250870D02*
G01*
X163549130Y-141250870D01*
X163549130Y-138149130D01*
X166650870Y-138149130D01*
X166650870Y-141250870D01*
G37*
G36*
X161642497Y-138188863D02*
G01*
X161742372Y-138208729D01*
X161859279Y-138257154D01*
X162024611Y-138325636D01*
X162278621Y-138495360D01*
X162494640Y-138711379D01*
X162664364Y-138965389D01*
X162729085Y-139121640D01*
X162781256Y-139247591D01*
X162781271Y-139247629D01*
X162840870Y-139547251D01*
X162840870Y-139852749D01*
X162822898Y-139943098D01*
X162781271Y-140152372D01*
X162732846Y-140269279D01*
X162664364Y-140434611D01*
X162494640Y-140688621D01*
X162278621Y-140904640D01*
X162024611Y-141074364D01*
X161859279Y-141142846D01*
X161742372Y-141191271D01*
X161642497Y-141211137D01*
X161442749Y-141250870D01*
X161137251Y-141250870D01*
X160937503Y-141211137D01*
X160837628Y-141191271D01*
X160720721Y-141142846D01*
X160555389Y-141074364D01*
X160301379Y-140904640D01*
X160085360Y-140688621D01*
X159915636Y-140434611D01*
X159847154Y-140269279D01*
X159798729Y-140152372D01*
X159757102Y-139943098D01*
X159739130Y-139852749D01*
X159739130Y-139547251D01*
X159798729Y-139247629D01*
X159798745Y-139247591D01*
X159850915Y-139121640D01*
X159915636Y-138965389D01*
X160085360Y-138711379D01*
X160301379Y-138495360D01*
X160555389Y-138325636D01*
X160720721Y-138257154D01*
X160837628Y-138208729D01*
X160937503Y-138188863D01*
X161137251Y-138149130D01*
X161442749Y-138149130D01*
X161642497Y-138188863D01*
G37*
G36*
X156562497Y-138188863D02*
G01*
X156662372Y-138208729D01*
X156779279Y-138257154D01*
X156944611Y-138325636D01*
X157198621Y-138495360D01*
X157414640Y-138711379D01*
X157584364Y-138965389D01*
X157649085Y-139121640D01*
X157701256Y-139247591D01*
X157701271Y-139247629D01*
X157760870Y-139547251D01*
X157760870Y-139852749D01*
X157742898Y-139943098D01*
X157701271Y-140152372D01*
X157652846Y-140269279D01*
X157584364Y-140434611D01*
X157414640Y-140688621D01*
X157198621Y-140904640D01*
X156944611Y-141074364D01*
X156779279Y-141142846D01*
X156662372Y-141191271D01*
X156562497Y-141211137D01*
X156362749Y-141250870D01*
X156057251Y-141250870D01*
X155857503Y-141211137D01*
X155757628Y-141191271D01*
X155640721Y-141142846D01*
X155475389Y-141074364D01*
X155221379Y-140904640D01*
X155005360Y-140688621D01*
X154835636Y-140434611D01*
X154767154Y-140269279D01*
X154718729Y-140152372D01*
X154677102Y-139943098D01*
X154659130Y-139852749D01*
X154659130Y-139547251D01*
X154718729Y-139247629D01*
X154718745Y-139247591D01*
X154770915Y-139121640D01*
X154835636Y-138965389D01*
X155005360Y-138711379D01*
X155221379Y-138495360D01*
X155475389Y-138325636D01*
X155640721Y-138257154D01*
X155757628Y-138208729D01*
X155857503Y-138188863D01*
X156057251Y-138149130D01*
X156362749Y-138149130D01*
X156562497Y-138188863D01*
G37*
G36*
X131647506Y-138495360D02*
G01*
X131801153Y-138525922D01*
X131867041Y-138553214D01*
X132023359Y-138617963D01*
X132223342Y-138751587D01*
X132393413Y-138921658D01*
X132527037Y-139121641D01*
X132560391Y-139202165D01*
X132619078Y-139343847D01*
X132666000Y-139579742D01*
X132666000Y-139820258D01*
X132628942Y-140006565D01*
X132619078Y-140056152D01*
X132527037Y-140278359D01*
X132393413Y-140478342D01*
X132223342Y-140648413D01*
X132023359Y-140782037D01*
X131893194Y-140835953D01*
X131801153Y-140874078D01*
X131565259Y-140921000D01*
X131324741Y-140921000D01*
X131088847Y-140874078D01*
X130996806Y-140835953D01*
X130866641Y-140782037D01*
X130666658Y-140648413D01*
X130496587Y-140478342D01*
X130362963Y-140278359D01*
X130270922Y-140056152D01*
X130261059Y-140006565D01*
X130224000Y-139820258D01*
X130224000Y-139579742D01*
X130270922Y-139343847D01*
X130329609Y-139202165D01*
X130362963Y-139121641D01*
X130496587Y-138921658D01*
X130666658Y-138751587D01*
X130866641Y-138617963D01*
X131022959Y-138553214D01*
X131088847Y-138525922D01*
X131242494Y-138495360D01*
X131324741Y-138479000D01*
X131565259Y-138479000D01*
X131647506Y-138495360D01*
G37*
G36*
X117226564Y-138689389D02*
G01*
X117417833Y-138768615D01*
X117417835Y-138768616D01*
X117589973Y-138883635D01*
X117736365Y-139030027D01*
X117797580Y-139121641D01*
X117851385Y-139202167D01*
X117930611Y-139393436D01*
X117971000Y-139596484D01*
X117971000Y-139803516D01*
X117930611Y-140006564D01*
X117870200Y-140152409D01*
X117851384Y-140197835D01*
X117736365Y-140369973D01*
X117589973Y-140516365D01*
X117417835Y-140631384D01*
X117417834Y-140631385D01*
X117417833Y-140631385D01*
X117226564Y-140710611D01*
X117023516Y-140751000D01*
X116816484Y-140751000D01*
X116613436Y-140710611D01*
X116422167Y-140631385D01*
X116422166Y-140631385D01*
X116422165Y-140631384D01*
X116250027Y-140516365D01*
X116103635Y-140369973D01*
X115988616Y-140197835D01*
X115969800Y-140152409D01*
X115909389Y-140006564D01*
X115869000Y-139803516D01*
X115869000Y-139596484D01*
X115909389Y-139393436D01*
X115988615Y-139202167D01*
X116042421Y-139121641D01*
X116103635Y-139030027D01*
X116250027Y-138883635D01*
X116422165Y-138768616D01*
X116422167Y-138768615D01*
X116613436Y-138689389D01*
X116816484Y-138649000D01*
X117023516Y-138649000D01*
X117226564Y-138689389D01*
G37*
G36*
X113376564Y-138689389D02*
G01*
X113567833Y-138768615D01*
X113567835Y-138768616D01*
X113739973Y-138883635D01*
X113886365Y-139030027D01*
X113947580Y-139121641D01*
X114001385Y-139202167D01*
X114080611Y-139393436D01*
X114121000Y-139596484D01*
X114121000Y-139803516D01*
X114080611Y-140006564D01*
X114020200Y-140152409D01*
X114001384Y-140197835D01*
X113886365Y-140369973D01*
X113739973Y-140516365D01*
X113567835Y-140631384D01*
X113567834Y-140631385D01*
X113567833Y-140631385D01*
X113376564Y-140710611D01*
X113173516Y-140751000D01*
X112966484Y-140751000D01*
X112763436Y-140710611D01*
X112572167Y-140631385D01*
X112572166Y-140631385D01*
X112572165Y-140631384D01*
X112400027Y-140516365D01*
X112253635Y-140369973D01*
X112138616Y-140197835D01*
X112119800Y-140152409D01*
X112059389Y-140006564D01*
X112019000Y-139803516D01*
X112019000Y-139596484D01*
X112059389Y-139393436D01*
X112138615Y-139202167D01*
X112192421Y-139121641D01*
X112253635Y-139030027D01*
X112400027Y-138883635D01*
X112572165Y-138768616D01*
X112572167Y-138768615D01*
X112763436Y-138689389D01*
X112966484Y-138649000D01*
X113173516Y-138649000D01*
X113376564Y-138689389D01*
G37*
G36*
X110271000Y-140751000D02*
G01*
X108169000Y-140751000D01*
X108169000Y-138649000D01*
X110271000Y-138649000D01*
X110271000Y-140751000D01*
G37*
G36*
X121076564Y-138689389D02*
G01*
X121267833Y-138768615D01*
X121267835Y-138768616D01*
X121439973Y-138883635D01*
X121586365Y-139030027D01*
X121647580Y-139121641D01*
X121701385Y-139202167D01*
X121780611Y-139393436D01*
X121821000Y-139596484D01*
X121821000Y-139803516D01*
X121780611Y-140006564D01*
X121720200Y-140152409D01*
X121701384Y-140197835D01*
X121586365Y-140369973D01*
X121439973Y-140516365D01*
X121267835Y-140631384D01*
X121267834Y-140631385D01*
X121267833Y-140631385D01*
X121076564Y-140710611D01*
X120873516Y-140751000D01*
X120666484Y-140751000D01*
X120463436Y-140710611D01*
X120272167Y-140631385D01*
X120272166Y-140631385D01*
X120272165Y-140631384D01*
X120100027Y-140516365D01*
X119953635Y-140369973D01*
X119838616Y-140197835D01*
X119819800Y-140152409D01*
X119759389Y-140006564D01*
X119719000Y-139803516D01*
X119719000Y-139596484D01*
X119759389Y-139393436D01*
X119838615Y-139202167D01*
X119892421Y-139121641D01*
X119953635Y-139030027D01*
X120100027Y-138883635D01*
X120272165Y-138768616D01*
X120272167Y-138768615D01*
X120463436Y-138689389D01*
X120666484Y-138649000D01*
X120873516Y-138649000D01*
X121076564Y-138689389D01*
G37*
G36*
X193395256Y-136871298D02*
G01*
X193501579Y-136892447D01*
X193802042Y-137016903D01*
X194072451Y-137197585D01*
X194302415Y-137427549D01*
X194322952Y-137458285D01*
X194483098Y-137697960D01*
X194607553Y-137998422D01*
X194671000Y-138317389D01*
X194671000Y-138642611D01*
X194657321Y-138711378D01*
X194607553Y-138961579D01*
X194582290Y-139022569D01*
X194489068Y-139247628D01*
X194483097Y-139262042D01*
X194302415Y-139532451D01*
X194072451Y-139762415D01*
X193802042Y-139943097D01*
X193501579Y-140067553D01*
X193395256Y-140088702D01*
X193182611Y-140131000D01*
X192857389Y-140131000D01*
X192644744Y-140088702D01*
X192538421Y-140067553D01*
X192237958Y-139943097D01*
X191967549Y-139762415D01*
X191737585Y-139532451D01*
X191556903Y-139262042D01*
X191550933Y-139247628D01*
X191457710Y-139022569D01*
X191432447Y-138961579D01*
X191382679Y-138711378D01*
X191369000Y-138642611D01*
X191369000Y-138317389D01*
X191432447Y-137998422D01*
X191556902Y-137697960D01*
X191717048Y-137458285D01*
X191737585Y-137427549D01*
X191967549Y-137197585D01*
X192237958Y-137016903D01*
X192538421Y-136892447D01*
X192644744Y-136871298D01*
X192857389Y-136829000D01*
X193182611Y-136829000D01*
X193395256Y-136871298D01*
G37*
G36*
X89195256Y-136871298D02*
G01*
X89301579Y-136892447D01*
X89602042Y-137016903D01*
X89872451Y-137197585D01*
X90102415Y-137427549D01*
X90122952Y-137458285D01*
X90283098Y-137697960D01*
X90407553Y-137998422D01*
X90471000Y-138317389D01*
X90471000Y-138642611D01*
X90457321Y-138711378D01*
X90407553Y-138961579D01*
X90382290Y-139022569D01*
X90289068Y-139247628D01*
X90283097Y-139262042D01*
X90102415Y-139532451D01*
X89872451Y-139762415D01*
X89602042Y-139943097D01*
X89301579Y-140067553D01*
X89195256Y-140088702D01*
X88982611Y-140131000D01*
X88657389Y-140131000D01*
X88444744Y-140088702D01*
X88338421Y-140067553D01*
X88037958Y-139943097D01*
X87767549Y-139762415D01*
X87537585Y-139532451D01*
X87356903Y-139262042D01*
X87350933Y-139247628D01*
X87257710Y-139022569D01*
X87232447Y-138961579D01*
X87182679Y-138711378D01*
X87169000Y-138642611D01*
X87169000Y-138317389D01*
X87232447Y-137998422D01*
X87356902Y-137697960D01*
X87517048Y-137458285D01*
X87537585Y-137427549D01*
X87767549Y-137197585D01*
X88037958Y-137016903D01*
X88338421Y-136892447D01*
X88444744Y-136871298D01*
X88657389Y-136829000D01*
X88982611Y-136829000D01*
X89195256Y-136871298D01*
G37*
G36*
X183244903Y-137227075D02*
G01*
X183472571Y-137321378D01*
X183677466Y-137458285D01*
X183851715Y-137632534D01*
X183851716Y-137632536D01*
X183988623Y-137837431D01*
X184082925Y-138065097D01*
X184131000Y-138306786D01*
X184131000Y-138553214D01*
X184082925Y-138794903D01*
X184030422Y-138921658D01*
X183988622Y-139022571D01*
X183851715Y-139227466D01*
X183677466Y-139401715D01*
X183472571Y-139538622D01*
X183472570Y-139538623D01*
X183472569Y-139538623D01*
X183244903Y-139632925D01*
X183003214Y-139681000D01*
X182756786Y-139681000D01*
X182515097Y-139632925D01*
X182287431Y-139538623D01*
X182287430Y-139538623D01*
X182287429Y-139538622D01*
X182082534Y-139401715D01*
X181908285Y-139227466D01*
X181771378Y-139022571D01*
X181729579Y-138921658D01*
X181677075Y-138794903D01*
X181629000Y-138553214D01*
X181629000Y-138306786D01*
X181677075Y-138065097D01*
X181771377Y-137837431D01*
X181908284Y-137632536D01*
X181908285Y-137632534D01*
X182082534Y-137458285D01*
X182287429Y-137321378D01*
X182515097Y-137227075D01*
X182756786Y-137179000D01*
X183003214Y-137179000D01*
X183244903Y-137227075D01*
G37*
G36*
X173084903Y-137227075D02*
G01*
X173312571Y-137321378D01*
X173517466Y-137458285D01*
X173691715Y-137632534D01*
X173691716Y-137632536D01*
X173828623Y-137837431D01*
X173922925Y-138065097D01*
X173971000Y-138306786D01*
X173971000Y-138553214D01*
X173922925Y-138794903D01*
X173870422Y-138921658D01*
X173828622Y-139022571D01*
X173691715Y-139227466D01*
X173517466Y-139401715D01*
X173312571Y-139538622D01*
X173312570Y-139538623D01*
X173312569Y-139538623D01*
X173084903Y-139632925D01*
X172843214Y-139681000D01*
X172596786Y-139681000D01*
X172355097Y-139632925D01*
X172127431Y-139538623D01*
X172127430Y-139538623D01*
X172127429Y-139538622D01*
X171922534Y-139401715D01*
X171748285Y-139227466D01*
X171611378Y-139022571D01*
X171569579Y-138921658D01*
X171517075Y-138794903D01*
X171469000Y-138553214D01*
X171469000Y-138306786D01*
X171517075Y-138065097D01*
X171611377Y-137837431D01*
X171748284Y-137632536D01*
X171748285Y-137632534D01*
X171922534Y-137458285D01*
X172127429Y-137321378D01*
X172355097Y-137227075D01*
X172596786Y-137179000D01*
X172843214Y-137179000D01*
X173084903Y-137227075D01*
G37*
G36*
X157760870Y-137440870D02*
G01*
X154659130Y-137440870D01*
X154659130Y-134339130D01*
X157760870Y-134339130D01*
X157760870Y-137440870D01*
G37*
G36*
X146801153Y-133525922D02*
G01*
X146893194Y-133564047D01*
X147023359Y-133617963D01*
X147223342Y-133751587D01*
X147393413Y-133921658D01*
X147527037Y-134121641D01*
X147619078Y-134343848D01*
X147666000Y-134579741D01*
X147666000Y-134820259D01*
X147619078Y-135056152D01*
X147527037Y-135278359D01*
X147393413Y-135478342D01*
X147223342Y-135648413D01*
X147023359Y-135782037D01*
X146893194Y-135835953D01*
X146801153Y-135874078D01*
X146683205Y-135897539D01*
X146565259Y-135921000D01*
X146324741Y-135921000D01*
X146206795Y-135897539D01*
X146088847Y-135874078D01*
X145996806Y-135835953D01*
X145866641Y-135782037D01*
X145666658Y-135648413D01*
X145496587Y-135478342D01*
X145362963Y-135278359D01*
X145270922Y-135056152D01*
X145224000Y-134820259D01*
X145224000Y-134579741D01*
X145270922Y-134343848D01*
X145362963Y-134121641D01*
X145496587Y-133921658D01*
X145666658Y-133751587D01*
X145866641Y-133617963D01*
X145996806Y-133564047D01*
X146088847Y-133525922D01*
X146324741Y-133479000D01*
X146565259Y-133479000D01*
X146801153Y-133525922D01*
G37*
G36*
X109001000Y-131226000D02*
G01*
X106899000Y-131226000D01*
X106899000Y-129124000D01*
X109001000Y-129124000D01*
X109001000Y-131226000D01*
G37*
G36*
X113256564Y-129164389D02*
G01*
X113447833Y-129243615D01*
X113447835Y-129243616D01*
X113596701Y-129343085D01*
X113619973Y-129358635D01*
X113766365Y-129505027D01*
X113881385Y-129677167D01*
X113960611Y-129868436D01*
X114001000Y-130071484D01*
X114001000Y-130278516D01*
X113960611Y-130481564D01*
X113891500Y-130648413D01*
X113881384Y-130672835D01*
X113766365Y-130844973D01*
X113619973Y-130991365D01*
X113447835Y-131106384D01*
X113447834Y-131106385D01*
X113447833Y-131106385D01*
X113256564Y-131185611D01*
X113053516Y-131226000D01*
X112846484Y-131226000D01*
X112643436Y-131185611D01*
X112452167Y-131106385D01*
X112452166Y-131106385D01*
X112452165Y-131106384D01*
X112280027Y-130991365D01*
X112133635Y-130844973D01*
X112018616Y-130672835D01*
X112008500Y-130648413D01*
X111939389Y-130481564D01*
X111899000Y-130278516D01*
X111899000Y-130071484D01*
X111939389Y-129868436D01*
X112018615Y-129677167D01*
X112133635Y-129505027D01*
X112280027Y-129358635D01*
X112303299Y-129343085D01*
X112452165Y-129243616D01*
X112452167Y-129243615D01*
X112643436Y-129164389D01*
X112846484Y-129124000D01*
X113053516Y-129124000D01*
X113256564Y-129164389D01*
G37*
G36*
X131683205Y-128502461D02*
G01*
X131801153Y-128525922D01*
X131893194Y-128564047D01*
X132023359Y-128617963D01*
X132223342Y-128751587D01*
X132393413Y-128921658D01*
X132527037Y-129121641D01*
X132544744Y-129164390D01*
X132618763Y-129343086D01*
X132619078Y-129343848D01*
X132657743Y-129538228D01*
X132666000Y-129579742D01*
X132666000Y-129820258D01*
X132619078Y-130056153D01*
X132580953Y-130148194D01*
X132527037Y-130278359D01*
X132393413Y-130478342D01*
X132223342Y-130648413D01*
X132023359Y-130782037D01*
X131893194Y-130835953D01*
X131801153Y-130874078D01*
X131565259Y-130921000D01*
X131324741Y-130921000D01*
X131088847Y-130874078D01*
X130996806Y-130835953D01*
X130866641Y-130782037D01*
X130666658Y-130648413D01*
X130496587Y-130478342D01*
X130362963Y-130278359D01*
X130309047Y-130148194D01*
X130270922Y-130056153D01*
X130224000Y-129820258D01*
X130224000Y-129579742D01*
X130232258Y-129538228D01*
X130270922Y-129343848D01*
X130271238Y-129343086D01*
X130345256Y-129164390D01*
X130362963Y-129121641D01*
X130496587Y-128921658D01*
X130666658Y-128751587D01*
X130866641Y-128617963D01*
X130996806Y-128564047D01*
X131088847Y-128525922D01*
X131206795Y-128502461D01*
X131324741Y-128479000D01*
X131565259Y-128479000D01*
X131683205Y-128502461D01*
G37*
G36*
X99378433Y-127084893D02*
G01*
X99468657Y-127102839D01*
X99574267Y-127146585D01*
X99723621Y-127208449D01*
X99723622Y-127208450D01*
X99953086Y-127361772D01*
X100148228Y-127556914D01*
X100250675Y-127710237D01*
X100301551Y-127786379D01*
X100407161Y-128041344D01*
X100461000Y-128312012D01*
X100461000Y-128587988D01*
X100407161Y-128858656D01*
X100301551Y-129113621D01*
X100301550Y-129113622D01*
X100148228Y-129343086D01*
X99953086Y-129538228D01*
X99799763Y-129640675D01*
X99723621Y-129691551D01*
X99574267Y-129753415D01*
X99468657Y-129797161D01*
X99378433Y-129815107D01*
X99197988Y-129851000D01*
X98922012Y-129851000D01*
X98741567Y-129815107D01*
X98651343Y-129797161D01*
X98545733Y-129753415D01*
X98396379Y-129691551D01*
X98320237Y-129640675D01*
X98166914Y-129538228D01*
X97971772Y-129343086D01*
X97818450Y-129113622D01*
X97818449Y-129113621D01*
X97712839Y-128858656D01*
X97659000Y-128587988D01*
X97659000Y-128312012D01*
X97712839Y-128041344D01*
X97818449Y-127786379D01*
X97869325Y-127710237D01*
X97971772Y-127556914D01*
X98166914Y-127361772D01*
X98396378Y-127208450D01*
X98396379Y-127208449D01*
X98545733Y-127146585D01*
X98651343Y-127102839D01*
X98741567Y-127084893D01*
X98922012Y-127049000D01*
X99197988Y-127049000D01*
X99378433Y-127084893D01*
G37*
G36*
X89252497Y-125006863D02*
G01*
X89352372Y-125026729D01*
X89469279Y-125075154D01*
X89634611Y-125143636D01*
X89888621Y-125313360D01*
X90104640Y-125529379D01*
X90274364Y-125783389D01*
X90391271Y-126065629D01*
X90450870Y-126365251D01*
X90450870Y-126670749D01*
X90391271Y-126970371D01*
X90274364Y-127252611D01*
X90104640Y-127506621D01*
X89888621Y-127722640D01*
X89634611Y-127892364D01*
X89469279Y-127960846D01*
X89352372Y-128009271D01*
X89252497Y-128029137D01*
X89052749Y-128068870D01*
X88747251Y-128068870D01*
X88547503Y-128029137D01*
X88447628Y-128009271D01*
X88330721Y-127960846D01*
X88165389Y-127892364D01*
X87911379Y-127722640D01*
X87695360Y-127506621D01*
X87525636Y-127252611D01*
X87408729Y-126970371D01*
X87349130Y-126670749D01*
X87349130Y-126365251D01*
X87408729Y-126065629D01*
X87525636Y-125783389D01*
X87695360Y-125529379D01*
X87911379Y-125313360D01*
X88165389Y-125143636D01*
X88330721Y-125075154D01*
X88447628Y-125026729D01*
X88547503Y-125006863D01*
X88747251Y-124967130D01*
X89052749Y-124967130D01*
X89252497Y-125006863D01*
G37*
G36*
X124656719Y-124693520D02*
G01*
X124845880Y-124750901D01*
X124845883Y-124750902D01*
X124938333Y-124800318D01*
X125020212Y-124844083D01*
X125173015Y-124969485D01*
X125298417Y-125122288D01*
X125391599Y-125296619D01*
X125448980Y-125485780D01*
X125463500Y-125633206D01*
X125463500Y-125826793D01*
X125448980Y-125974219D01*
X125421251Y-126065629D01*
X125391598Y-126163383D01*
X125342182Y-126255833D01*
X125298417Y-126337712D01*
X125173015Y-126490515D01*
X125020212Y-126615917D01*
X124845881Y-126709099D01*
X124656720Y-126766480D01*
X124460000Y-126785855D01*
X124263281Y-126766480D01*
X124074120Y-126709099D01*
X123899788Y-126615917D01*
X123746985Y-126490515D01*
X123621583Y-126337712D01*
X123528401Y-126163381D01*
X123471020Y-125974220D01*
X123456500Y-125826794D01*
X123456500Y-125633207D01*
X123471020Y-125485781D01*
X123528401Y-125296620D01*
X123528402Y-125296617D01*
X123610172Y-125143637D01*
X123621583Y-125122288D01*
X123746985Y-124969485D01*
X123899788Y-124844083D01*
X124074119Y-124750901D01*
X124263280Y-124693520D01*
X124460000Y-124674145D01*
X124656719Y-124693520D01*
G37*
G36*
X122116719Y-124693520D02*
G01*
X122305880Y-124750901D01*
X122305883Y-124750902D01*
X122398333Y-124800318D01*
X122480212Y-124844083D01*
X122633015Y-124969485D01*
X122758417Y-125122288D01*
X122851599Y-125296619D01*
X122908980Y-125485780D01*
X122923500Y-125633206D01*
X122923500Y-125826793D01*
X122908980Y-125974219D01*
X122881251Y-126065629D01*
X122851598Y-126163383D01*
X122802182Y-126255833D01*
X122758417Y-126337712D01*
X122633015Y-126490515D01*
X122480212Y-126615917D01*
X122305881Y-126709099D01*
X122116720Y-126766480D01*
X121920000Y-126785855D01*
X121723281Y-126766480D01*
X121534120Y-126709099D01*
X121359788Y-126615917D01*
X121206985Y-126490515D01*
X121081583Y-126337712D01*
X120988401Y-126163381D01*
X120931020Y-125974220D01*
X120916500Y-125826794D01*
X120916500Y-125633207D01*
X120931020Y-125485781D01*
X120988401Y-125296620D01*
X120988402Y-125296617D01*
X121070172Y-125143637D01*
X121081583Y-125122288D01*
X121206985Y-124969485D01*
X121359788Y-124844083D01*
X121534119Y-124750901D01*
X121723280Y-124693520D01*
X121920000Y-124674145D01*
X122116719Y-124693520D01*
G37*
G36*
X120383500Y-126781000D02*
G01*
X118376500Y-126781000D01*
X118376500Y-124679000D01*
X120383500Y-124679000D01*
X120383500Y-126781000D01*
G37*
G36*
X139371564Y-123369389D02*
G01*
X139562833Y-123448615D01*
X139562835Y-123448616D01*
X139734973Y-123563635D01*
X139881365Y-123710027D01*
X139996385Y-123882167D01*
X140075611Y-124073436D01*
X140116000Y-124276484D01*
X140116000Y-124483516D01*
X140075611Y-124686564D01*
X139996385Y-124877833D01*
X139996384Y-124877835D01*
X139881365Y-125049973D01*
X139734973Y-125196365D01*
X139562835Y-125311384D01*
X139562834Y-125311385D01*
X139562833Y-125311385D01*
X139371564Y-125390611D01*
X139168516Y-125431000D01*
X138961484Y-125431000D01*
X138758436Y-125390611D01*
X138567167Y-125311385D01*
X138567166Y-125311385D01*
X138567165Y-125311384D01*
X138395027Y-125196365D01*
X138248635Y-125049973D01*
X138133616Y-124877835D01*
X138133615Y-124877833D01*
X138054389Y-124686564D01*
X138014000Y-124483516D01*
X138014000Y-124276484D01*
X138054389Y-124073436D01*
X138133615Y-123882167D01*
X138248635Y-123710027D01*
X138395027Y-123563635D01*
X138567165Y-123448616D01*
X138567167Y-123448615D01*
X138758436Y-123369389D01*
X138961484Y-123329000D01*
X139168516Y-123329000D01*
X139371564Y-123369389D01*
G37*
G36*
X148870870Y-124740870D02*
G01*
X145769130Y-124740870D01*
X145769130Y-121639130D01*
X148870870Y-121639130D01*
X148870870Y-124740870D01*
G37*
G36*
X147672497Y-117868863D02*
G01*
X147772372Y-117888729D01*
X147883288Y-117934672D01*
X148054611Y-118005636D01*
X148308621Y-118175360D01*
X148524640Y-118391379D01*
X148694364Y-118645389D01*
X148811271Y-118927629D01*
X148870870Y-119227251D01*
X148870870Y-119532749D01*
X148811271Y-119832371D01*
X148694364Y-120114611D01*
X148524640Y-120368621D01*
X148308621Y-120584640D01*
X148054611Y-120754364D01*
X147889279Y-120822846D01*
X147772372Y-120871271D01*
X147672497Y-120891137D01*
X147472749Y-120930870D01*
X147167251Y-120930870D01*
X146967503Y-120891137D01*
X146867628Y-120871271D01*
X146750721Y-120822846D01*
X146585389Y-120754364D01*
X146331379Y-120584640D01*
X146115360Y-120368621D01*
X145945636Y-120114611D01*
X145828729Y-119832371D01*
X145769130Y-119532749D01*
X145769130Y-119227251D01*
X145828729Y-118927629D01*
X145945636Y-118645389D01*
X146115360Y-118391379D01*
X146331379Y-118175360D01*
X146585389Y-118005636D01*
X146756712Y-117934672D01*
X146867628Y-117888729D01*
X146967503Y-117868863D01*
X147167251Y-117829130D01*
X147472749Y-117829130D01*
X147672497Y-117868863D01*
G37*
G36*
X140116000Y-120431000D02*
G01*
X138014000Y-120431000D01*
X138014000Y-118329000D01*
X140116000Y-118329000D01*
X140116000Y-120431000D01*
G37*
G36*
X99362585Y-115678802D02*
G01*
X99512410Y-115708604D01*
X99794674Y-115825521D01*
X100048705Y-115995259D01*
X100264741Y-116211295D01*
X100434479Y-116465326D01*
X100551396Y-116747590D01*
X100560118Y-116791440D01*
X100586450Y-116923816D01*
X100611000Y-117047240D01*
X100611000Y-117352760D01*
X100551396Y-117652410D01*
X100434479Y-117934674D01*
X100264741Y-118188705D01*
X100048705Y-118404741D01*
X99794674Y-118574479D01*
X99512410Y-118691396D01*
X99362585Y-118721198D01*
X99212761Y-118751000D01*
X98907239Y-118751000D01*
X98757415Y-118721198D01*
X98607590Y-118691396D01*
X98325326Y-118574479D01*
X98071295Y-118404741D01*
X97855259Y-118188705D01*
X97685521Y-117934674D01*
X97568604Y-117652410D01*
X97509000Y-117352760D01*
X97509000Y-117047240D01*
X97533551Y-116923816D01*
X97559882Y-116791440D01*
X97568604Y-116747590D01*
X97685521Y-116465326D01*
X97855259Y-116211295D01*
X98071295Y-115995259D01*
X98325326Y-115825521D01*
X98607590Y-115708604D01*
X98757415Y-115678802D01*
X98907239Y-115649000D01*
X99212761Y-115649000D01*
X99362585Y-115678802D01*
G37*
G36*
X90450870Y-118258870D02*
G01*
X87349130Y-118258870D01*
X87349130Y-115157130D01*
X90450870Y-115157130D01*
X90450870Y-118258870D01*
G37*
G36*
X163411000Y-117691000D02*
G01*
X161709000Y-117691000D01*
X161709000Y-115989000D01*
X163411000Y-115989000D01*
X163411000Y-117691000D01*
G37*
G36*
X160308228Y-116021703D02*
G01*
X160463100Y-116085853D01*
X160602481Y-116178985D01*
X160721015Y-116297519D01*
X160814147Y-116436900D01*
X160878297Y-116591772D01*
X160911000Y-116756184D01*
X160911000Y-116923816D01*
X160878297Y-117088228D01*
X160814147Y-117243100D01*
X160721015Y-117382481D01*
X160602481Y-117501015D01*
X160463100Y-117594147D01*
X160308228Y-117658297D01*
X160143816Y-117691000D01*
X159976184Y-117691000D01*
X159811772Y-117658297D01*
X159656900Y-117594147D01*
X159517519Y-117501015D01*
X159398985Y-117382481D01*
X159305853Y-117243100D01*
X159241703Y-117088228D01*
X159209000Y-116923816D01*
X159209000Y-116756184D01*
X159241703Y-116591772D01*
X159305853Y-116436900D01*
X159398985Y-116297519D01*
X159517519Y-116178985D01*
X159656900Y-116085853D01*
X159811772Y-116021703D01*
X159976184Y-115989000D01*
X160143816Y-115989000D01*
X160308228Y-116021703D01*
G37*
G36*
X193711304Y-112277002D02*
G01*
X194058982Y-112421015D01*
X194130141Y-112450490D01*
X194185560Y-112487520D01*
X194507082Y-112702354D01*
X194827646Y-113022918D01*
X195079511Y-113399861D01*
X195252998Y-113818696D01*
X195341440Y-114263327D01*
X195341440Y-114716673D01*
X195252998Y-115161304D01*
X195133002Y-115451000D01*
X195079510Y-115580141D01*
X195030282Y-115653816D01*
X194827646Y-115957082D01*
X194507082Y-116277646D01*
X194341484Y-116388295D01*
X194130141Y-116529510D01*
X194130140Y-116529511D01*
X194130139Y-116529511D01*
X193711304Y-116702998D01*
X193266673Y-116791440D01*
X192813327Y-116791440D01*
X192368696Y-116702998D01*
X191949861Y-116529511D01*
X191949860Y-116529511D01*
X191949859Y-116529510D01*
X191738516Y-116388295D01*
X191572918Y-116277646D01*
X191252354Y-115957082D01*
X191049718Y-115653816D01*
X191000490Y-115580141D01*
X190946998Y-115451000D01*
X190827002Y-115161304D01*
X190738560Y-114716673D01*
X190738560Y-114263327D01*
X190827002Y-113818696D01*
X191000489Y-113399861D01*
X191252354Y-113022918D01*
X191572918Y-112702354D01*
X191894440Y-112487520D01*
X191949859Y-112450490D01*
X192021018Y-112421015D01*
X192368696Y-112277002D01*
X192813327Y-112188560D01*
X193266673Y-112188560D01*
X193711304Y-112277002D01*
G37*
G36*
X122771000Y-116421000D02*
G01*
X121069000Y-116421000D01*
X121069000Y-114719000D01*
X122771000Y-114719000D01*
X122771000Y-116421000D01*
G37*
G36*
X129788228Y-114751703D02*
G01*
X129943100Y-114815853D01*
X130082481Y-114908985D01*
X130201015Y-115027519D01*
X130294147Y-115166900D01*
X130358297Y-115321772D01*
X130391000Y-115486184D01*
X130391000Y-115653816D01*
X130358297Y-115818228D01*
X130294147Y-115973100D01*
X130201015Y-116112481D01*
X130082481Y-116231015D01*
X129943100Y-116324147D01*
X129788228Y-116388297D01*
X129623816Y-116421000D01*
X129456184Y-116421000D01*
X129291772Y-116388297D01*
X129136900Y-116324147D01*
X128997519Y-116231015D01*
X128878985Y-116112481D01*
X128785853Y-115973100D01*
X128721703Y-115818228D01*
X128689000Y-115653816D01*
X128689000Y-115486184D01*
X128721703Y-115321772D01*
X128785853Y-115166900D01*
X128878985Y-115027519D01*
X128997519Y-114908985D01*
X129136900Y-114815853D01*
X129291772Y-114751703D01*
X129456184Y-114719000D01*
X129623816Y-114719000D01*
X129788228Y-114751703D01*
G37*
G36*
X142464549Y-113171116D02*
G01*
X142575734Y-113193232D01*
X142723850Y-113254584D01*
X142780933Y-113278228D01*
X142785203Y-113279997D01*
X142973720Y-113405960D01*
X143134040Y-113566280D01*
X143260003Y-113754797D01*
X143346768Y-113964266D01*
X143391000Y-114186636D01*
X143391000Y-114413364D01*
X143346768Y-114635734D01*
X143313242Y-114716672D01*
X143277700Y-114802480D01*
X143260003Y-114845203D01*
X143134040Y-115033720D01*
X142973720Y-115194040D01*
X142785203Y-115320003D01*
X142785202Y-115320004D01*
X142785201Y-115320004D01*
X142723850Y-115345416D01*
X142575734Y-115406768D01*
X142464549Y-115428884D01*
X142353365Y-115451000D01*
X142126635Y-115451000D01*
X142015451Y-115428884D01*
X141904266Y-115406768D01*
X141756150Y-115345416D01*
X141694799Y-115320004D01*
X141694798Y-115320004D01*
X141694797Y-115320003D01*
X141506280Y-115194040D01*
X141345960Y-115033720D01*
X141219997Y-114845203D01*
X141202301Y-114802480D01*
X141166758Y-114716672D01*
X141133232Y-114635734D01*
X141089000Y-114413364D01*
X141089000Y-114186636D01*
X141133232Y-113964266D01*
X141219997Y-113754797D01*
X141345960Y-113566280D01*
X141506280Y-113405960D01*
X141694797Y-113279997D01*
X141699068Y-113278228D01*
X141756150Y-113254584D01*
X141904266Y-113193232D01*
X142015451Y-113171116D01*
X142126635Y-113149000D01*
X142353365Y-113149000D01*
X142464549Y-113171116D01*
G37*
G36*
X136138228Y-113441703D02*
G01*
X136293100Y-113505853D01*
X136432481Y-113598985D01*
X136551015Y-113717519D01*
X136644147Y-113856900D01*
X136708297Y-114011772D01*
X136741000Y-114176184D01*
X136741000Y-114343816D01*
X136708297Y-114508228D01*
X136644147Y-114663100D01*
X136551015Y-114802481D01*
X136432481Y-114921015D01*
X136293100Y-115014147D01*
X136138228Y-115078297D01*
X135973816Y-115111000D01*
X135806184Y-115111000D01*
X135641772Y-115078297D01*
X135486900Y-115014147D01*
X135347519Y-114921015D01*
X135228985Y-114802481D01*
X135135853Y-114663100D01*
X135071703Y-114508228D01*
X135039000Y-114343816D01*
X135039000Y-114176184D01*
X135071703Y-114011772D01*
X135135853Y-113856900D01*
X135228985Y-113717519D01*
X135347519Y-113598985D01*
X135486900Y-113505853D01*
X135641772Y-113441703D01*
X135806184Y-113409000D01*
X135973816Y-113409000D01*
X136138228Y-113441703D01*
G37*
G36*
X115151000Y-113881000D02*
G01*
X113449000Y-113881000D01*
X113449000Y-112179000D01*
X115151000Y-112179000D01*
X115151000Y-113881000D01*
G37*
G36*
X117048228Y-112211703D02*
G01*
X117203100Y-112275853D01*
X117342481Y-112368985D01*
X117461015Y-112487519D01*
X117554147Y-112626900D01*
X117618297Y-112781772D01*
X117651000Y-112946184D01*
X117651000Y-113113816D01*
X117618297Y-113278228D01*
X117554147Y-113433100D01*
X117461015Y-113572481D01*
X117342481Y-113691015D01*
X117203100Y-113784147D01*
X117048228Y-113848297D01*
X116883816Y-113881000D01*
X116716184Y-113881000D01*
X116551772Y-113848297D01*
X116396900Y-113784147D01*
X116257519Y-113691015D01*
X116138985Y-113572481D01*
X116045853Y-113433100D01*
X115981703Y-113278228D01*
X115949000Y-113113816D01*
X115949000Y-112946184D01*
X115981703Y-112781772D01*
X116045853Y-112626900D01*
X116138985Y-112487519D01*
X116257519Y-112368985D01*
X116396900Y-112275853D01*
X116551772Y-112211703D01*
X116716184Y-112179000D01*
X116883816Y-112179000D01*
X117048228Y-112211703D01*
G37*
G36*
X136741000Y-112611000D02*
G01*
X135039000Y-112611000D01*
X135039000Y-110909000D01*
X136741000Y-110909000D01*
X136741000Y-112611000D01*
G37*
G36*
X147568228Y-110941703D02*
G01*
X147723100Y-111005853D01*
X147862481Y-111098985D01*
X147981015Y-111217519D01*
X148074147Y-111356900D01*
X148138297Y-111511772D01*
X148171000Y-111676184D01*
X148171000Y-111843816D01*
X148138297Y-112008228D01*
X148074147Y-112163100D01*
X147981015Y-112302481D01*
X147862481Y-112421015D01*
X147723100Y-112514147D01*
X147568228Y-112578297D01*
X147403816Y-112611000D01*
X147236184Y-112611000D01*
X147071772Y-112578297D01*
X146916900Y-112514147D01*
X146777519Y-112421015D01*
X146658985Y-112302481D01*
X146565853Y-112163100D01*
X146501703Y-112008228D01*
X146469000Y-111843816D01*
X146469000Y-111676184D01*
X146501703Y-111511772D01*
X146565853Y-111356900D01*
X146658985Y-111217519D01*
X146777519Y-111098985D01*
X146916900Y-111005853D01*
X147071772Y-110941703D01*
X147236184Y-110909000D01*
X147403816Y-110909000D01*
X147568228Y-110941703D01*
G37*
G36*
X122168228Y-109671703D02*
G01*
X122323100Y-109735853D01*
X122462481Y-109828985D01*
X122581015Y-109947519D01*
X122674147Y-110086900D01*
X122738297Y-110241772D01*
X122771000Y-110406184D01*
X122771000Y-110573816D01*
X122738297Y-110738228D01*
X122674147Y-110893100D01*
X122581015Y-111032481D01*
X122462481Y-111151015D01*
X122323100Y-111244147D01*
X122168228Y-111308297D01*
X122003816Y-111341000D01*
X121836184Y-111341000D01*
X121671772Y-111308297D01*
X121516900Y-111244147D01*
X121377519Y-111151015D01*
X121258985Y-111032481D01*
X121165853Y-110893100D01*
X121101703Y-110738228D01*
X121069000Y-110573816D01*
X121069000Y-110406184D01*
X121101703Y-110241772D01*
X121165853Y-110086900D01*
X121258985Y-109947519D01*
X121377519Y-109828985D01*
X121516900Y-109735853D01*
X121671772Y-109671703D01*
X121836184Y-109639000D01*
X122003816Y-109639000D01*
X122168228Y-109671703D01*
G37*
G36*
X130391000Y-111341000D02*
G01*
X128689000Y-111341000D01*
X128689000Y-109639000D01*
X130391000Y-109639000D01*
X130391000Y-111341000D01*
G37*
G36*
X109584903Y-108017075D02*
G01*
X109674925Y-108054363D01*
X109812571Y-108111378D01*
X110017466Y-108248285D01*
X110191715Y-108422534D01*
X110328622Y-108627429D01*
X110422925Y-108855097D01*
X110471000Y-109096787D01*
X110471000Y-109343213D01*
X110422925Y-109584903D01*
X110328622Y-109812571D01*
X110191715Y-110017466D01*
X110017466Y-110191715D01*
X109812571Y-110328622D01*
X109812570Y-110328623D01*
X109812569Y-110328623D01*
X109584903Y-110422925D01*
X109343214Y-110471000D01*
X109096786Y-110471000D01*
X108855097Y-110422925D01*
X108627431Y-110328623D01*
X108627430Y-110328623D01*
X108627429Y-110328622D01*
X108422534Y-110191715D01*
X108248285Y-110017466D01*
X108111378Y-109812571D01*
X108017075Y-109584903D01*
X107969000Y-109343213D01*
X107969000Y-109096787D01*
X108017075Y-108855097D01*
X108111378Y-108627429D01*
X108248285Y-108422534D01*
X108422534Y-108248285D01*
X108627429Y-108111378D01*
X108765076Y-108054363D01*
X108855097Y-108017075D01*
X109096786Y-107969000D01*
X109343214Y-107969000D01*
X109584903Y-108017075D01*
G37*
G36*
X89264903Y-108017075D02*
G01*
X89354925Y-108054363D01*
X89492571Y-108111378D01*
X89697466Y-108248285D01*
X89871715Y-108422534D01*
X90008622Y-108627429D01*
X90102925Y-108855097D01*
X90151000Y-109096787D01*
X90151000Y-109343213D01*
X90102925Y-109584903D01*
X90008622Y-109812571D01*
X89871715Y-110017466D01*
X89697466Y-110191715D01*
X89492571Y-110328622D01*
X89492570Y-110328623D01*
X89492569Y-110328623D01*
X89264903Y-110422925D01*
X89023214Y-110471000D01*
X88776786Y-110471000D01*
X88535097Y-110422925D01*
X88307431Y-110328623D01*
X88307430Y-110328623D01*
X88307429Y-110328622D01*
X88102534Y-110191715D01*
X87928285Y-110017466D01*
X87791378Y-109812571D01*
X87697075Y-109584903D01*
X87649000Y-109343213D01*
X87649000Y-109096787D01*
X87697075Y-108855097D01*
X87791378Y-108627429D01*
X87928285Y-108422534D01*
X88102534Y-108248285D01*
X88307429Y-108111378D01*
X88445076Y-108054363D01*
X88535097Y-108017075D01*
X88776786Y-107969000D01*
X89023214Y-107969000D01*
X89264903Y-108017075D01*
G37*
G36*
X132432497Y-105168863D02*
G01*
X132532372Y-105188729D01*
X132649279Y-105237154D01*
X132814611Y-105305636D01*
X133068621Y-105475360D01*
X133284640Y-105691379D01*
X133454364Y-105945389D01*
X133484848Y-106018985D01*
X133533947Y-106137519D01*
X133571271Y-106227629D01*
X133630870Y-106527251D01*
X133630870Y-106832749D01*
X133591137Y-107032497D01*
X133571271Y-107132372D01*
X133522846Y-107249279D01*
X133454364Y-107414611D01*
X133284640Y-107668621D01*
X133068621Y-107884640D01*
X132814611Y-108054364D01*
X132676966Y-108111378D01*
X132532372Y-108171271D01*
X132432497Y-108191137D01*
X132232749Y-108230870D01*
X131927251Y-108230870D01*
X131727503Y-108191137D01*
X131627628Y-108171271D01*
X131483034Y-108111378D01*
X131345389Y-108054364D01*
X131091379Y-107884640D01*
X130875360Y-107668621D01*
X130705636Y-107414611D01*
X130637154Y-107249279D01*
X130588729Y-107132372D01*
X130568863Y-107032497D01*
X130529130Y-106832749D01*
X130529130Y-106527251D01*
X130588729Y-106227629D01*
X130626054Y-106137519D01*
X130675152Y-106018985D01*
X130705636Y-105945389D01*
X130875360Y-105691379D01*
X131091379Y-105475360D01*
X131345389Y-105305636D01*
X131510721Y-105237154D01*
X131627628Y-105188729D01*
X131727503Y-105168863D01*
X131927251Y-105129130D01*
X132232749Y-105129130D01*
X132432497Y-105168863D01*
G37*
G36*
X137440870Y-108230870D02*
G01*
X134339130Y-108230870D01*
X134339130Y-105129130D01*
X137440870Y-105129130D01*
X137440870Y-108230870D01*
G37*
G36*
X117723228Y-105861703D02*
G01*
X117878100Y-105925853D01*
X118017481Y-106018985D01*
X118136015Y-106137519D01*
X118229147Y-106276900D01*
X118293297Y-106431772D01*
X118326000Y-106596184D01*
X118326000Y-106763816D01*
X118293297Y-106928228D01*
X118229147Y-107083100D01*
X118136015Y-107222481D01*
X118017481Y-107341015D01*
X117878100Y-107434147D01*
X117723228Y-107498297D01*
X117558816Y-107531000D01*
X117391184Y-107531000D01*
X117226772Y-107498297D01*
X117071900Y-107434147D01*
X116932519Y-107341015D01*
X116813985Y-107222481D01*
X116720853Y-107083100D01*
X116656703Y-106928228D01*
X116624000Y-106763816D01*
X116624000Y-106596184D01*
X116656703Y-106431772D01*
X116720853Y-106276900D01*
X116813985Y-106137519D01*
X116932519Y-106018985D01*
X117071900Y-105925853D01*
X117226772Y-105861703D01*
X117391184Y-105829000D01*
X117558816Y-105829000D01*
X117723228Y-105861703D01*
G37*
G36*
X127883228Y-105861703D02*
G01*
X128038100Y-105925853D01*
X128177481Y-106018985D01*
X128296015Y-106137519D01*
X128389147Y-106276900D01*
X128453297Y-106431772D01*
X128486000Y-106596184D01*
X128486000Y-106763816D01*
X128453297Y-106928228D01*
X128389147Y-107083100D01*
X128296015Y-107222481D01*
X128177481Y-107341015D01*
X128038100Y-107434147D01*
X127883228Y-107498297D01*
X127718816Y-107531000D01*
X127551184Y-107531000D01*
X127386772Y-107498297D01*
X127231900Y-107434147D01*
X127092519Y-107341015D01*
X126973985Y-107222481D01*
X126880853Y-107083100D01*
X126816703Y-106928228D01*
X126784000Y-106763816D01*
X126784000Y-106596184D01*
X126816703Y-106431772D01*
X126880853Y-106276900D01*
X126973985Y-106137519D01*
X127092519Y-106018985D01*
X127231900Y-105925853D01*
X127386772Y-105861703D01*
X127551184Y-105829000D01*
X127718816Y-105829000D01*
X127883228Y-105861703D01*
G37*
G36*
X195341440Y-106441440D02*
G01*
X190738560Y-106441440D01*
X190738560Y-101838560D01*
X195341440Y-101838560D01*
X195341440Y-106441440D01*
G37*
G36*
X143391000Y-105291000D02*
G01*
X141089000Y-105291000D01*
X141089000Y-102989000D01*
X143391000Y-102989000D01*
X143391000Y-105291000D01*
G37*
G36*
X89571304Y-100307002D02*
G01*
X89990139Y-100480489D01*
X89990141Y-100480490D01*
X90367083Y-100732355D01*
X90687645Y-101052917D01*
X90911702Y-101388241D01*
X90939511Y-101429861D01*
X91112998Y-101848696D01*
X91201440Y-102293327D01*
X91201440Y-102746673D01*
X91112998Y-103191304D01*
X90939511Y-103610139D01*
X90939510Y-103610141D01*
X90687645Y-103987083D01*
X90367083Y-104307645D01*
X89990141Y-104559510D01*
X89990140Y-104559511D01*
X89990139Y-104559511D01*
X89571304Y-104732998D01*
X89126673Y-104821440D01*
X88673327Y-104821440D01*
X88228696Y-104732998D01*
X87809861Y-104559511D01*
X87809860Y-104559511D01*
X87809859Y-104559510D01*
X87432917Y-104307645D01*
X87112355Y-103987083D01*
X86860490Y-103610141D01*
X86860489Y-103610139D01*
X86687002Y-103191304D01*
X86598560Y-102746673D01*
X86598560Y-102293327D01*
X86687002Y-101848696D01*
X86860489Y-101429861D01*
X86888299Y-101388241D01*
X87112355Y-101052917D01*
X87432917Y-100732355D01*
X87809859Y-100480490D01*
X87809861Y-100480489D01*
X88228696Y-100307002D01*
X88673327Y-100218560D01*
X89126673Y-100218560D01*
X89571304Y-100307002D01*
G37*
G36*
X147568228Y-100781703D02*
G01*
X147723100Y-100845853D01*
X147862481Y-100938985D01*
X147981015Y-101057519D01*
X148074147Y-101196900D01*
X148138297Y-101351772D01*
X148171000Y-101516184D01*
X148171000Y-101683816D01*
X148138297Y-101848228D01*
X148074147Y-102003100D01*
X147981015Y-102142481D01*
X147862481Y-102261015D01*
X147723100Y-102354147D01*
X147568228Y-102418297D01*
X147403816Y-102451000D01*
X147236184Y-102451000D01*
X147071772Y-102418297D01*
X146916900Y-102354147D01*
X146777519Y-102261015D01*
X146658985Y-102142481D01*
X146565853Y-102003100D01*
X146501703Y-101848228D01*
X146469000Y-101683816D01*
X146469000Y-101516184D01*
X146501703Y-101351772D01*
X146565853Y-101196900D01*
X146658985Y-101057519D01*
X146777519Y-100938985D01*
X146916900Y-100845853D01*
X147071772Y-100781703D01*
X147236184Y-100749000D01*
X147403816Y-100749000D01*
X147568228Y-100781703D01*
G37*
G36*
X142663241Y-99569760D02*
G01*
X142927305Y-99679139D01*
X143164958Y-99837934D01*
X143367066Y-100040042D01*
X143525861Y-100277695D01*
X143635240Y-100541759D01*
X143691000Y-100822088D01*
X143691000Y-101107912D01*
X143635240Y-101388241D01*
X143525861Y-101652305D01*
X143367066Y-101889958D01*
X143164958Y-102092066D01*
X142927305Y-102250861D01*
X142663241Y-102360240D01*
X142382912Y-102416000D01*
X142097088Y-102416000D01*
X141816759Y-102360240D01*
X141552695Y-102250861D01*
X141315042Y-102092066D01*
X141112934Y-101889958D01*
X140954139Y-101652305D01*
X140844760Y-101388241D01*
X140789000Y-101107912D01*
X140789000Y-100822088D01*
X140844760Y-100541759D01*
X140954139Y-100277695D01*
X141112934Y-100040042D01*
X141315042Y-99837934D01*
X141552695Y-99679139D01*
X141816759Y-99569760D01*
X142097088Y-99514000D01*
X142382912Y-99514000D01*
X142663241Y-99569760D01*
G37*
G36*
X122343241Y-99569760D02*
G01*
X122607305Y-99679139D01*
X122844958Y-99837934D01*
X123047066Y-100040042D01*
X123205861Y-100277695D01*
X123315240Y-100541759D01*
X123371000Y-100822088D01*
X123371000Y-101107912D01*
X123315240Y-101388241D01*
X123205861Y-101652305D01*
X123047066Y-101889958D01*
X122844958Y-102092066D01*
X122607305Y-102250861D01*
X122343241Y-102360240D01*
X122062912Y-102416000D01*
X121777088Y-102416000D01*
X121496759Y-102360240D01*
X121232695Y-102250861D01*
X120995042Y-102092066D01*
X120792934Y-101889958D01*
X120634139Y-101652305D01*
X120524760Y-101388241D01*
X120469000Y-101107912D01*
X120469000Y-100822088D01*
X120524760Y-100541759D01*
X120634139Y-100277695D01*
X120792934Y-100040042D01*
X120995042Y-99837934D01*
X121232695Y-99679139D01*
X121496759Y-99569760D01*
X121777088Y-99514000D01*
X122062912Y-99514000D01*
X122343241Y-99569760D01*
G37*
G36*
X101025256Y-94911298D02*
G01*
X101131579Y-94932447D01*
X101432042Y-95056903D01*
X101702451Y-95237585D01*
X101932415Y-95467549D01*
X102113097Y-95737958D01*
X102237553Y-96038421D01*
X102301000Y-96357391D01*
X102301000Y-96682609D01*
X102237553Y-97001579D01*
X102113097Y-97302042D01*
X101932415Y-97572451D01*
X101702451Y-97802415D01*
X101432042Y-97983097D01*
X101131579Y-98107553D01*
X101025256Y-98128702D01*
X100812611Y-98171000D01*
X100487389Y-98171000D01*
X100274744Y-98128702D01*
X100168421Y-98107553D01*
X99867958Y-97983097D01*
X99597549Y-97802415D01*
X99367585Y-97572451D01*
X99186903Y-97302042D01*
X99062447Y-97001579D01*
X98999000Y-96682609D01*
X98999000Y-96357391D01*
X99062447Y-96038421D01*
X99186903Y-95737958D01*
X99367585Y-95467549D01*
X99597549Y-95237585D01*
X99867958Y-95056903D01*
X100168421Y-94932447D01*
X100274744Y-94911298D01*
X100487389Y-94869000D01*
X100812611Y-94869000D01*
X101025256Y-94911298D01*
G37*
G36*
X122301000Y-98171000D02*
G01*
X118999000Y-98171000D01*
X118999000Y-94869000D01*
X122301000Y-94869000D01*
X122301000Y-98171000D01*
G37*
G36*
X153870935Y-95645742D02*
G01*
X154021258Y-95708008D01*
X154156545Y-95798404D01*
X154271596Y-95913455D01*
X154361992Y-96048742D01*
X154424258Y-96199065D01*
X154456000Y-96358646D01*
X154456000Y-96521354D01*
X154424258Y-96680935D01*
X154361992Y-96831258D01*
X154271596Y-96966545D01*
X154156545Y-97081596D01*
X154021258Y-97171992D01*
X153870935Y-97234258D01*
X153711354Y-97266000D01*
X153548646Y-97266000D01*
X153389065Y-97234258D01*
X153238742Y-97171992D01*
X153103455Y-97081596D01*
X152988404Y-96966545D01*
X152898008Y-96831258D01*
X152835742Y-96680935D01*
X152804000Y-96521354D01*
X152804000Y-96358646D01*
X152835742Y-96199065D01*
X152898008Y-96048742D01*
X152988404Y-95913455D01*
X153103455Y-95798404D01*
X153238742Y-95708008D01*
X153389065Y-95645742D01*
X153548646Y-95614000D01*
X153711354Y-95614000D01*
X153870935Y-95645742D01*
G37*
G36*
X193711304Y-88877002D02*
G01*
X194130139Y-89050489D01*
X194130141Y-89050490D01*
X194319891Y-89177277D01*
X194507082Y-89302354D01*
X194827646Y-89622918D01*
X195079511Y-89999861D01*
X195252998Y-90418696D01*
X195341440Y-90863327D01*
X195341440Y-91316673D01*
X195252998Y-91761304D01*
X195079511Y-92180139D01*
X195079510Y-92180141D01*
X194827645Y-92557083D01*
X194507083Y-92877645D01*
X194130141Y-93129510D01*
X194130140Y-93129511D01*
X194130139Y-93129511D01*
X193711304Y-93302998D01*
X193266673Y-93391440D01*
X192813327Y-93391440D01*
X192368696Y-93302998D01*
X191949861Y-93129511D01*
X191949860Y-93129511D01*
X191949859Y-93129510D01*
X191572917Y-92877645D01*
X191252355Y-92557083D01*
X191000490Y-92180141D01*
X191000489Y-92180139D01*
X190827002Y-91761304D01*
X190738560Y-91316673D01*
X190738560Y-90863327D01*
X190827002Y-90418696D01*
X191000489Y-89999861D01*
X191252354Y-89622918D01*
X191572918Y-89302354D01*
X191760109Y-89177277D01*
X191949859Y-89050490D01*
X191949861Y-89050489D01*
X192368696Y-88877002D01*
X192813327Y-88788560D01*
X193266673Y-88788560D01*
X193711304Y-88877002D01*
G37*
G36*
X91201440Y-92471440D02*
G01*
X86598560Y-92471440D01*
X86598560Y-87868560D01*
X91201440Y-87868560D01*
X91201440Y-92471440D01*
G37*
G36*
X156370935Y-90645742D02*
G01*
X156521258Y-90708008D01*
X156656545Y-90798404D01*
X156771596Y-90913455D01*
X156861992Y-91048742D01*
X156924258Y-91199065D01*
X156956000Y-91358646D01*
X156956000Y-91521354D01*
X156924258Y-91680935D01*
X156861992Y-91831258D01*
X156771596Y-91966545D01*
X156656545Y-92081596D01*
X156521258Y-92171992D01*
X156370935Y-92234258D01*
X156211354Y-92266000D01*
X156048646Y-92266000D01*
X155889065Y-92234258D01*
X155738742Y-92171992D01*
X155603455Y-92081596D01*
X155488404Y-91966545D01*
X155398008Y-91831258D01*
X155335742Y-91680935D01*
X155304000Y-91521354D01*
X155304000Y-91358646D01*
X155335742Y-91199065D01*
X155398008Y-91048742D01*
X155488404Y-90913455D01*
X155603455Y-90798404D01*
X155738742Y-90708008D01*
X155889065Y-90645742D01*
X156048646Y-90614000D01*
X156211354Y-90614000D01*
X156370935Y-90645742D01*
G37*
G36*
X151956000Y-92266000D02*
G01*
X150304000Y-92266000D01*
X150304000Y-90614000D01*
X151956000Y-90614000D01*
X151956000Y-92266000D01*
G37*
G36*
X137758254Y-84227818D02*
G01*
X138131511Y-84382426D01*
X138131513Y-84382427D01*
X138179530Y-84414511D01*
X138467436Y-84606884D01*
X138753116Y-84892564D01*
X138977574Y-85228489D01*
X139132182Y-85601746D01*
X139211000Y-85997993D01*
X139211000Y-86402007D01*
X139132182Y-86798254D01*
X138977574Y-87171511D01*
X138977573Y-87171513D01*
X138753116Y-87507436D01*
X138467436Y-87793116D01*
X138131513Y-88017573D01*
X138131512Y-88017574D01*
X138131511Y-88017574D01*
X137758254Y-88172182D01*
X137362007Y-88251000D01*
X136957993Y-88251000D01*
X136561746Y-88172182D01*
X136188489Y-88017574D01*
X136188488Y-88017574D01*
X136188487Y-88017573D01*
X135852564Y-87793116D01*
X135566884Y-87507436D01*
X135342427Y-87171513D01*
X135342426Y-87171511D01*
X135187818Y-86798254D01*
X135109000Y-86402007D01*
X135109000Y-85997993D01*
X135187818Y-85601746D01*
X135342426Y-85228489D01*
X135566884Y-84892564D01*
X135852564Y-84606884D01*
X136140470Y-84414511D01*
X136188487Y-84382427D01*
X136188489Y-84382426D01*
X136561746Y-84227818D01*
X136957993Y-84149000D01*
X137362007Y-84149000D01*
X137758254Y-84227818D01*
G37*
G36*
X193711304Y-80162002D02*
G01*
X194130139Y-80335489D01*
X194130141Y-80335490D01*
X194319891Y-80462277D01*
X194507082Y-80587354D01*
X194827646Y-80907918D01*
X195079511Y-81284861D01*
X195252998Y-81703696D01*
X195341440Y-82148327D01*
X195341440Y-82601673D01*
X195252998Y-83046304D01*
X195079511Y-83465139D01*
X195079510Y-83465141D01*
X194952723Y-83654891D01*
X194827646Y-83842082D01*
X194507082Y-84162646D01*
X194319891Y-84287723D01*
X194130141Y-84414510D01*
X194130140Y-84414511D01*
X194130139Y-84414511D01*
X193711304Y-84587998D01*
X193266673Y-84676440D01*
X192813327Y-84676440D01*
X192368696Y-84587998D01*
X191949861Y-84414511D01*
X191949860Y-84414511D01*
X191949859Y-84414510D01*
X191760109Y-84287723D01*
X191572918Y-84162646D01*
X191252354Y-83842082D01*
X191127277Y-83654891D01*
X191000490Y-83465141D01*
X191000489Y-83465139D01*
X190827002Y-83046304D01*
X190738560Y-82601673D01*
X190738560Y-82148327D01*
X190827002Y-81703696D01*
X191000489Y-81284861D01*
X191252354Y-80907918D01*
X191572918Y-80587354D01*
X191760109Y-80462277D01*
X191949859Y-80335490D01*
X191949861Y-80335489D01*
X192368696Y-80162002D01*
X192813327Y-80073560D01*
X193266673Y-80073560D01*
X193711304Y-80162002D01*
G37*
G36*
X183244903Y-81347075D02*
G01*
X183472571Y-81441378D01*
X183677466Y-81578285D01*
X183851715Y-81752534D01*
X183988622Y-81957429D01*
X183988623Y-81957431D01*
X184082925Y-82185097D01*
X184131000Y-82426786D01*
X184131000Y-82673214D01*
X184082925Y-82914903D01*
X183988622Y-83142571D01*
X183851715Y-83347466D01*
X183677466Y-83521715D01*
X183472571Y-83658622D01*
X183472570Y-83658623D01*
X183472569Y-83658623D01*
X183244903Y-83752925D01*
X183003214Y-83801000D01*
X182756786Y-83801000D01*
X182515097Y-83752925D01*
X182287431Y-83658623D01*
X182287430Y-83658623D01*
X182287429Y-83658622D01*
X182082534Y-83521715D01*
X181908285Y-83347466D01*
X181771378Y-83142571D01*
X181677075Y-82914903D01*
X181629000Y-82673214D01*
X181629000Y-82426786D01*
X181677075Y-82185097D01*
X181771377Y-81957431D01*
X181771378Y-81957429D01*
X181908285Y-81752534D01*
X182082534Y-81578285D01*
X182287429Y-81441378D01*
X182515097Y-81347075D01*
X182756786Y-81299000D01*
X183003214Y-81299000D01*
X183244903Y-81347075D01*
G37*
G36*
X173084903Y-81347075D02*
G01*
X173312571Y-81441378D01*
X173517466Y-81578285D01*
X173691715Y-81752534D01*
X173828622Y-81957429D01*
X173828623Y-81957431D01*
X173922925Y-82185097D01*
X173971000Y-82426786D01*
X173971000Y-82673214D01*
X173922925Y-82914903D01*
X173828622Y-83142571D01*
X173691715Y-83347466D01*
X173517466Y-83521715D01*
X173312571Y-83658622D01*
X173312570Y-83658623D01*
X173312569Y-83658623D01*
X173084903Y-83752925D01*
X172843214Y-83801000D01*
X172596786Y-83801000D01*
X172355097Y-83752925D01*
X172127431Y-83658623D01*
X172127430Y-83658623D01*
X172127429Y-83658622D01*
X171922534Y-83521715D01*
X171748285Y-83347466D01*
X171611378Y-83142571D01*
X171517075Y-82914903D01*
X171469000Y-82673214D01*
X171469000Y-82426786D01*
X171517075Y-82185097D01*
X171611377Y-81957431D01*
X171611378Y-81957429D01*
X171748285Y-81752534D01*
X171922534Y-81578285D01*
X172127429Y-81441378D01*
X172355097Y-81347075D01*
X172596786Y-81299000D01*
X172843214Y-81299000D01*
X173084903Y-81347075D01*
G37*
G36*
X120705256Y-79671298D02*
G01*
X120811579Y-79692447D01*
X121112042Y-79816903D01*
X121382451Y-79997585D01*
X121612415Y-80227549D01*
X121772806Y-80467591D01*
X121793098Y-80497960D01*
X121917553Y-80798422D01*
X121981000Y-81117389D01*
X121981000Y-81442611D01*
X121938818Y-81654672D01*
X121917553Y-81761579D01*
X121793097Y-82062042D01*
X121612415Y-82332451D01*
X121382451Y-82562415D01*
X121112042Y-82743097D01*
X120811579Y-82867553D01*
X120705256Y-82888702D01*
X120492611Y-82931000D01*
X120167389Y-82931000D01*
X119954744Y-82888702D01*
X119848421Y-82867553D01*
X119547958Y-82743097D01*
X119277549Y-82562415D01*
X119047585Y-82332451D01*
X118866903Y-82062042D01*
X118742447Y-81761579D01*
X118721182Y-81654672D01*
X118679000Y-81442611D01*
X118679000Y-81117389D01*
X118742447Y-80798422D01*
X118866902Y-80497960D01*
X118887194Y-80467591D01*
X119047585Y-80227549D01*
X119277549Y-79997585D01*
X119547958Y-79816903D01*
X119848421Y-79692447D01*
X119954744Y-79671298D01*
X120167389Y-79629000D01*
X120492611Y-79629000D01*
X120705256Y-79671298D01*
G37*
G36*
X101981000Y-82931000D02*
G01*
X98679000Y-82931000D01*
X98679000Y-79629000D01*
X101981000Y-79629000D01*
X101981000Y-82931000D01*
G37*
G36*
X90472585Y-79398802D02*
G01*
X90622410Y-79428604D01*
X90904674Y-79545521D01*
X91158705Y-79715259D01*
X91374741Y-79931295D01*
X91544479Y-80185326D01*
X91661396Y-80467590D01*
X91721000Y-80767240D01*
X91721000Y-81072760D01*
X91661396Y-81372410D01*
X91544479Y-81654674D01*
X91374741Y-81908705D01*
X91158705Y-82124741D01*
X90904674Y-82294479D01*
X90622410Y-82411396D01*
X90545039Y-82426786D01*
X90322761Y-82471000D01*
X90017239Y-82471000D01*
X89794961Y-82426786D01*
X89717590Y-82411396D01*
X89435326Y-82294479D01*
X89181295Y-82124741D01*
X88965259Y-81908705D01*
X88795521Y-81654674D01*
X88678604Y-81372410D01*
X88619000Y-81072760D01*
X88619000Y-80767240D01*
X88678604Y-80467590D01*
X88795521Y-80185326D01*
X88965259Y-79931295D01*
X89181295Y-79715259D01*
X89435326Y-79545521D01*
X89717590Y-79428604D01*
X89867415Y-79398802D01*
X90017239Y-79369000D01*
X90322761Y-79369000D01*
X90472585Y-79398802D01*
G37*
G36*
X139211000Y-78251000D02*
G01*
X135109000Y-78251000D01*
X135109000Y-74149000D01*
X139211000Y-74149000D01*
X139211000Y-78251000D01*
G37*
G36*
X176698228Y-75381703D02*
G01*
X176853100Y-75445853D01*
X176992481Y-75538985D01*
X177111015Y-75657519D01*
X177204147Y-75796900D01*
X177268297Y-75951772D01*
X177301000Y-76116184D01*
X177301000Y-76283816D01*
X177268297Y-76448228D01*
X177204147Y-76603100D01*
X177111015Y-76742481D01*
X176992481Y-76861015D01*
X176853100Y-76954147D01*
X176698228Y-77018297D01*
X176533816Y-77051000D01*
X176366184Y-77051000D01*
X176201772Y-77018297D01*
X176046900Y-76954147D01*
X175907519Y-76861015D01*
X175788985Y-76742481D01*
X175695853Y-76603100D01*
X175631703Y-76448228D01*
X175599000Y-76283816D01*
X175599000Y-76116184D01*
X175631703Y-75951772D01*
X175695853Y-75796900D01*
X175788985Y-75657519D01*
X175907519Y-75538985D01*
X176046900Y-75445853D01*
X176201772Y-75381703D01*
X176366184Y-75349000D01*
X176533816Y-75349000D01*
X176698228Y-75381703D01*
G37*
G36*
X171698228Y-75381703D02*
G01*
X171853100Y-75445853D01*
X171992481Y-75538985D01*
X172111015Y-75657519D01*
X172204147Y-75796900D01*
X172268297Y-75951772D01*
X172301000Y-76116184D01*
X172301000Y-76283816D01*
X172268297Y-76448228D01*
X172204147Y-76603100D01*
X172111015Y-76742481D01*
X171992481Y-76861015D01*
X171853100Y-76954147D01*
X171698228Y-77018297D01*
X171533816Y-77051000D01*
X171366184Y-77051000D01*
X171201772Y-77018297D01*
X171046900Y-76954147D01*
X170907519Y-76861015D01*
X170788985Y-76742481D01*
X170695853Y-76603100D01*
X170631703Y-76448228D01*
X170599000Y-76283816D01*
X170599000Y-76116184D01*
X170631703Y-75951772D01*
X170695853Y-75796900D01*
X170788985Y-75657519D01*
X170907519Y-75538985D01*
X171046900Y-75445853D01*
X171201772Y-75381703D01*
X171366184Y-75349000D01*
X171533816Y-75349000D01*
X171698228Y-75381703D01*
G37*
G36*
X195341440Y-75961440D02*
G01*
X190738560Y-75961440D01*
X190738560Y-71358560D01*
X195341440Y-71358560D01*
X195341440Y-75961440D01*
G37*
G36*
X166722497Y-70878863D02*
G01*
X166822372Y-70898729D01*
X166939279Y-70947154D01*
X167104611Y-71015636D01*
X167358621Y-71185360D01*
X167574640Y-71401379D01*
X167744364Y-71655389D01*
X167861271Y-71937629D01*
X167920870Y-72237251D01*
X167920870Y-72542749D01*
X167861271Y-72842371D01*
X167744364Y-73124611D01*
X167574640Y-73378621D01*
X167358621Y-73594640D01*
X167104611Y-73764364D01*
X166939279Y-73832846D01*
X166822372Y-73881271D01*
X166722497Y-73901137D01*
X166522749Y-73940870D01*
X166217251Y-73940870D01*
X166017503Y-73901137D01*
X165917628Y-73881271D01*
X165800721Y-73832846D01*
X165635389Y-73764364D01*
X165381379Y-73594640D01*
X165165360Y-73378621D01*
X164995636Y-73124611D01*
X164878729Y-72842371D01*
X164819130Y-72542749D01*
X164819130Y-72237251D01*
X164878729Y-71937629D01*
X164995636Y-71655389D01*
X165165360Y-71401379D01*
X165381379Y-71185360D01*
X165635389Y-71015636D01*
X165800721Y-70947154D01*
X165917628Y-70898729D01*
X166017503Y-70878863D01*
X166217251Y-70839130D01*
X166522749Y-70839130D01*
X166722497Y-70878863D01*
G37*
G36*
X171730870Y-73940870D02*
G01*
X168629130Y-73940870D01*
X168629130Y-70839130D01*
X171730870Y-70839130D01*
X171730870Y-73940870D01*
G37*
G36*
X162912497Y-70878863D02*
G01*
X163012372Y-70898729D01*
X163129279Y-70947154D01*
X163294611Y-71015636D01*
X163548621Y-71185360D01*
X163764640Y-71401379D01*
X163934364Y-71655389D01*
X164051271Y-71937629D01*
X164110870Y-72237251D01*
X164110870Y-72542749D01*
X164051271Y-72842371D01*
X163934364Y-73124611D01*
X163764640Y-73378621D01*
X163548621Y-73594640D01*
X163294611Y-73764364D01*
X163129279Y-73832846D01*
X163012372Y-73881271D01*
X162912497Y-73901137D01*
X162712749Y-73940870D01*
X162407251Y-73940870D01*
X162207503Y-73901137D01*
X162107628Y-73881271D01*
X161990721Y-73832846D01*
X161825389Y-73764364D01*
X161571379Y-73594640D01*
X161355360Y-73378621D01*
X161185636Y-73124611D01*
X161068729Y-72842371D01*
X161009130Y-72542749D01*
X161009130Y-72237251D01*
X161068729Y-71937629D01*
X161185636Y-71655389D01*
X161355360Y-71401379D01*
X161571379Y-71185360D01*
X161825389Y-71015636D01*
X161990721Y-70947154D01*
X162107628Y-70898729D01*
X162207503Y-70878863D01*
X162407251Y-70839130D01*
X162712749Y-70839130D01*
X162912497Y-70878863D01*
G37*
G36*
X90488433Y-68304893D02*
G01*
X90578657Y-68322839D01*
X90684267Y-68366585D01*
X90833621Y-68428449D01*
X90833622Y-68428450D01*
X91063086Y-68581772D01*
X91258228Y-68776914D01*
X91360675Y-68930237D01*
X91411551Y-69006379D01*
X91517161Y-69261344D01*
X91571000Y-69532012D01*
X91571000Y-69807988D01*
X91517161Y-70078656D01*
X91411551Y-70333621D01*
X91411550Y-70333622D01*
X91258228Y-70563086D01*
X91063086Y-70758228D01*
X90942007Y-70839130D01*
X90833621Y-70911551D01*
X90684267Y-70973415D01*
X90578657Y-71017161D01*
X90488433Y-71035107D01*
X90307988Y-71071000D01*
X90032012Y-71071000D01*
X89851567Y-71035107D01*
X89761343Y-71017161D01*
X89655733Y-70973415D01*
X89506379Y-70911551D01*
X89397993Y-70839130D01*
X89276914Y-70758228D01*
X89081772Y-70563086D01*
X88928450Y-70333622D01*
X88928449Y-70333621D01*
X88822839Y-70078656D01*
X88769000Y-69807988D01*
X88769000Y-69532012D01*
X88822839Y-69261344D01*
X88928449Y-69006379D01*
X88979325Y-68930237D01*
X89081772Y-68776914D01*
X89276914Y-68581772D01*
X89506378Y-68428450D01*
X89506379Y-68428449D01*
X89655733Y-68366585D01*
X89761343Y-68322839D01*
X89851567Y-68304893D01*
X90032012Y-68269000D01*
X90307988Y-68269000D01*
X90488433Y-68304893D01*
G37*
G36*
X101981000Y-67691000D02*
G01*
X98679000Y-67691000D01*
X98679000Y-64389000D01*
X101981000Y-64389000D01*
X101981000Y-67691000D01*
G37*
G36*
X120705256Y-64431298D02*
G01*
X120811579Y-64452447D01*
X121112042Y-64576903D01*
X121382451Y-64757585D01*
X121612415Y-64987549D01*
X121793097Y-65257958D01*
X121917553Y-65558421D01*
X121981000Y-65877391D01*
X121981000Y-66202609D01*
X121917553Y-66521579D01*
X121793097Y-66822042D01*
X121612415Y-67092451D01*
X121382451Y-67322415D01*
X121112042Y-67503097D01*
X120811579Y-67627553D01*
X120705256Y-67648702D01*
X120492611Y-67691000D01*
X120167389Y-67691000D01*
X119954744Y-67648702D01*
X119848421Y-67627553D01*
X119547958Y-67503097D01*
X119277549Y-67322415D01*
X119047585Y-67092451D01*
X118866903Y-66822042D01*
X118742447Y-66521579D01*
X118679000Y-66202609D01*
X118679000Y-65877391D01*
X118742447Y-65558421D01*
X118866903Y-65257958D01*
X119047585Y-64987549D01*
X119277549Y-64757585D01*
X119547958Y-64576903D01*
X119848421Y-64452447D01*
X119954744Y-64431298D01*
X120167389Y-64389000D01*
X120492611Y-64389000D01*
X120705256Y-64431298D01*
G37*
G36*
X177644497Y-64528863D02*
G01*
X177744372Y-64548729D01*
X177861279Y-64597154D01*
X178026611Y-64665636D01*
X178280621Y-64835360D01*
X178496640Y-65051379D01*
X178666364Y-65305389D01*
X178783271Y-65587629D01*
X178842870Y-65887251D01*
X178842870Y-66192749D01*
X178783271Y-66492371D01*
X178666364Y-66774611D01*
X178496640Y-67028621D01*
X178280621Y-67244640D01*
X178026611Y-67414364D01*
X177861279Y-67482846D01*
X177744372Y-67531271D01*
X177644497Y-67551137D01*
X177444749Y-67590870D01*
X177139251Y-67590870D01*
X176939503Y-67551137D01*
X176839628Y-67531271D01*
X176722721Y-67482846D01*
X176557389Y-67414364D01*
X176303379Y-67244640D01*
X176087360Y-67028621D01*
X175917636Y-66774611D01*
X175800729Y-66492371D01*
X175741130Y-66192749D01*
X175741130Y-65887251D01*
X175800729Y-65587629D01*
X175917636Y-65305389D01*
X176087360Y-65051379D01*
X176303379Y-64835360D01*
X176557389Y-64665636D01*
X176722721Y-64597154D01*
X176839628Y-64548729D01*
X176939503Y-64528863D01*
X177139251Y-64489130D01*
X177444749Y-64489130D01*
X177644497Y-64528863D01*
G37*
G36*
X177644497Y-60718863D02*
G01*
X177744372Y-60738729D01*
X177861279Y-60787154D01*
X178026611Y-60855636D01*
X178280621Y-61025360D01*
X178496640Y-61241379D01*
X178666364Y-61495389D01*
X178783271Y-61777629D01*
X178842870Y-62077251D01*
X178842870Y-62382749D01*
X178783271Y-62682371D01*
X178666364Y-62964611D01*
X178496640Y-63218621D01*
X178280621Y-63434640D01*
X178026611Y-63604364D01*
X177861279Y-63672846D01*
X177744372Y-63721271D01*
X177644497Y-63741137D01*
X177444749Y-63780870D01*
X177139251Y-63780870D01*
X176939503Y-63741137D01*
X176839628Y-63721271D01*
X176722721Y-63672846D01*
X176557389Y-63604364D01*
X176303379Y-63434640D01*
X176087360Y-63218621D01*
X175917636Y-62964611D01*
X175800729Y-62682371D01*
X175741130Y-62382749D01*
X175741130Y-62077251D01*
X175800729Y-61777629D01*
X175917636Y-61495389D01*
X176087360Y-61241379D01*
X176303379Y-61025360D01*
X176557389Y-60855636D01*
X176722721Y-60787154D01*
X176839628Y-60738729D01*
X176939503Y-60718863D01*
X177139251Y-60679130D01*
X177444749Y-60679130D01*
X177644497Y-60718863D01*
G37*
G36*
X137758254Y-58827818D02*
G01*
X138131511Y-58982426D01*
X138131513Y-58982427D01*
X138467436Y-59206884D01*
X138753116Y-59492564D01*
X138954850Y-59794479D01*
X138977574Y-59828489D01*
X139132182Y-60201746D01*
X139211000Y-60597993D01*
X139211000Y-61002007D01*
X139132182Y-61398254D01*
X139091947Y-61495389D01*
X138977573Y-61771513D01*
X138753116Y-62107436D01*
X138467436Y-62393116D01*
X138131513Y-62617573D01*
X138131512Y-62617574D01*
X138131511Y-62617574D01*
X137758254Y-62772182D01*
X137362007Y-62851000D01*
X136957993Y-62851000D01*
X136561746Y-62772182D01*
X136188489Y-62617574D01*
X136188488Y-62617574D01*
X136188487Y-62617573D01*
X135852564Y-62393116D01*
X135566884Y-62107436D01*
X135342427Y-61771513D01*
X135228053Y-61495389D01*
X135187818Y-61398254D01*
X135109000Y-61002007D01*
X135109000Y-60597993D01*
X135187818Y-60201746D01*
X135342426Y-59828489D01*
X135365151Y-59794479D01*
X135566884Y-59492564D01*
X135852564Y-59206884D01*
X136188487Y-58982427D01*
X136188489Y-58982426D01*
X136561746Y-58827818D01*
X136957993Y-58749000D01*
X137362007Y-58749000D01*
X137758254Y-58827818D01*
G37*
G36*
X90472585Y-56898802D02*
G01*
X90622410Y-56928604D01*
X90904674Y-57045521D01*
X91158705Y-57215259D01*
X91374741Y-57431295D01*
X91544479Y-57685326D01*
X91661396Y-57967590D01*
X91721000Y-58267240D01*
X91721000Y-58572760D01*
X91661396Y-58872410D01*
X91544479Y-59154674D01*
X91374741Y-59408705D01*
X91158705Y-59624741D01*
X90904674Y-59794479D01*
X90622410Y-59911396D01*
X90472585Y-59941198D01*
X90322761Y-59971000D01*
X90017239Y-59971000D01*
X89867415Y-59941198D01*
X89717590Y-59911396D01*
X89435326Y-59794479D01*
X89181295Y-59624741D01*
X88965259Y-59408705D01*
X88795521Y-59154674D01*
X88678604Y-58872410D01*
X88619000Y-58572760D01*
X88619000Y-58267240D01*
X88678604Y-57967590D01*
X88795521Y-57685326D01*
X88965259Y-57431295D01*
X89181295Y-57215259D01*
X89435326Y-57045521D01*
X89717590Y-56928604D01*
X89867415Y-56898802D01*
X90017239Y-56869000D01*
X90322761Y-56869000D01*
X90472585Y-56898802D01*
G37*
G36*
X178842870Y-59970870D02*
G01*
X175741130Y-59970870D01*
X175741130Y-56869130D01*
X178842870Y-56869130D01*
X178842870Y-59970870D01*
G37*
G36*
X155220870Y-58700870D02*
G01*
X152119130Y-58700870D01*
X152119130Y-55599130D01*
X155220870Y-55599130D01*
X155220870Y-58700870D01*
G37*
G36*
X157832497Y-55638863D02*
G01*
X157932372Y-55658729D01*
X158049279Y-55707154D01*
X158214611Y-55775636D01*
X158468621Y-55945360D01*
X158684640Y-56161379D01*
X158854364Y-56415389D01*
X158971271Y-56697629D01*
X159030870Y-56997251D01*
X159030870Y-57302749D01*
X158971271Y-57602371D01*
X158854364Y-57884611D01*
X158684640Y-58138621D01*
X158468621Y-58354640D01*
X158214611Y-58524364D01*
X158049279Y-58592846D01*
X157932372Y-58641271D01*
X157832497Y-58661137D01*
X157632749Y-58700870D01*
X157327251Y-58700870D01*
X157127503Y-58661137D01*
X157027628Y-58641271D01*
X156910721Y-58592846D01*
X156745389Y-58524364D01*
X156491379Y-58354640D01*
X156275360Y-58138621D01*
X156105636Y-57884611D01*
X155988729Y-57602371D01*
X155929130Y-57302749D01*
X155929130Y-56997251D01*
X155988729Y-56697629D01*
X156105636Y-56415389D01*
X156275360Y-56161379D01*
X156491379Y-55945360D01*
X156745389Y-55775636D01*
X156910721Y-55707154D01*
X157027628Y-55658729D01*
X157127503Y-55638863D01*
X157327251Y-55599130D01*
X157632749Y-55599130D01*
X157832497Y-55638863D01*
G37*
G36*
X139211000Y-52851000D02*
G01*
X135109000Y-52851000D01*
X135109000Y-48749000D01*
X139211000Y-48749000D01*
X139211000Y-52851000D01*
G37*
G36*
X101025256Y-49191298D02*
G01*
X101131579Y-49212447D01*
X101432042Y-49336903D01*
X101702451Y-49517585D01*
X101932415Y-49747549D01*
X102113097Y-50017958D01*
X102237553Y-50318421D01*
X102301000Y-50637391D01*
X102301000Y-50962609D01*
X102237553Y-51281579D01*
X102113097Y-51582042D01*
X101932415Y-51852451D01*
X101702451Y-52082415D01*
X101432042Y-52263097D01*
X101131579Y-52387553D01*
X101025256Y-52408702D01*
X100812611Y-52451000D01*
X100487389Y-52451000D01*
X100274744Y-52408702D01*
X100168421Y-52387553D01*
X99867958Y-52263097D01*
X99597549Y-52082415D01*
X99367585Y-51852451D01*
X99186903Y-51582042D01*
X99062447Y-51281579D01*
X98999000Y-50962609D01*
X98999000Y-50637391D01*
X99062447Y-50318421D01*
X99186903Y-50017958D01*
X99367585Y-49747549D01*
X99597549Y-49517585D01*
X99867958Y-49336903D01*
X100168421Y-49212447D01*
X100274744Y-49191298D01*
X100487389Y-49149000D01*
X100812611Y-49149000D01*
X101025256Y-49191298D01*
G37*
G36*
X122301000Y-52451000D02*
G01*
X118999000Y-52451000D01*
X118999000Y-49149000D01*
X122301000Y-49149000D01*
X122301000Y-52451000D01*
G37*
G36*
X193395256Y-46871298D02*
G01*
X193501579Y-46892447D01*
X193802042Y-47016903D01*
X194072451Y-47197585D01*
X194302415Y-47427549D01*
X194483097Y-47697958D01*
X194607553Y-47998421D01*
X194671000Y-48317391D01*
X194671000Y-48642609D01*
X194607553Y-48961579D01*
X194483097Y-49262042D01*
X194302415Y-49532451D01*
X194072451Y-49762415D01*
X193802042Y-49943097D01*
X193501579Y-50067553D01*
X193395256Y-50088702D01*
X193182611Y-50131000D01*
X192857389Y-50131000D01*
X192644744Y-50088702D01*
X192538421Y-50067553D01*
X192237958Y-49943097D01*
X191967549Y-49762415D01*
X191737585Y-49532451D01*
X191556903Y-49262042D01*
X191432447Y-48961579D01*
X191369000Y-48642609D01*
X191369000Y-48317391D01*
X191432447Y-47998421D01*
X191556903Y-47697958D01*
X191737585Y-47427549D01*
X191967549Y-47197585D01*
X192237958Y-47016903D01*
X192538421Y-46892447D01*
X192644744Y-46871298D01*
X192857389Y-46829000D01*
X193182611Y-46829000D01*
X193395256Y-46871298D01*
G37*
G36*
X89495256Y-46871298D02*
G01*
X89601579Y-46892447D01*
X89902042Y-47016903D01*
X90172451Y-47197585D01*
X90402415Y-47427549D01*
X90583097Y-47697958D01*
X90707553Y-47998421D01*
X90771000Y-48317391D01*
X90771000Y-48642609D01*
X90707553Y-48961579D01*
X90583097Y-49262042D01*
X90402415Y-49532451D01*
X90172451Y-49762415D01*
X89902042Y-49943097D01*
X89601579Y-50067553D01*
X89495256Y-50088702D01*
X89282611Y-50131000D01*
X88957389Y-50131000D01*
X88744744Y-50088702D01*
X88638421Y-50067553D01*
X88337958Y-49943097D01*
X88067549Y-49762415D01*
X87837585Y-49532451D01*
X87656903Y-49262042D01*
X87532447Y-48961579D01*
X87469000Y-48642609D01*
X87469000Y-48317391D01*
X87532447Y-47998421D01*
X87656903Y-47697958D01*
X87837585Y-47427549D01*
X88067549Y-47197585D01*
X88337958Y-47016903D01*
X88638421Y-46892447D01*
X88744744Y-46871298D01*
X88957389Y-46829000D01*
X89282611Y-46829000D01*
X89495256Y-46871298D01*
G37*
M02*
